<svg width="119" height="137" viewBox="0 0 119 137" fill="none" xmlns="http://www.w3.org/2000/svg">
<g id="Laag_1" clip-path="url(#clip0_62_60)">
<g id="Group">
<path id="Vector" d="M90.9506 115.262L2.38528 136.026C1.54601 136.159 0.883423 135.45 0.883423 134.476V23.6191C0.883423 22.6451 1.54601 21.7154 2.38528 21.5826L90.9506 0.819002C91.7899 0.686186 92.4525 1.39454 92.4525 2.36853V113.226C92.4525 114.2 91.7899 115.13 90.9506 115.262Z" fill="#F5F5F5"/>
<path id="Vector_2" d="M2.20861 136.867C1.72272 136.867 1.23682 136.69 0.839272 136.38C0.309206 135.937 0 135.229 0 134.476V23.6191C0 22.2024 0.971789 20.9628 2.20861 20.7857L90.7739 0.0221013C91.3924 -0.0664429 91.9666 0.110645 92.4525 0.509094C92.9826 0.951815 93.2918 1.66017 93.2918 2.41279V113.27C93.2918 114.687 92.32 115.926 91.0832 116.104L2.51782 136.867H2.20861ZM91.1273 1.6159L2.56199 22.3795C2.16444 22.3795 1.76689 22.955 1.76689 23.5749V134.432C1.76689 134.698 1.85523 134.963 1.98775 135.096C2.0761 135.185 2.16444 135.185 2.29696 135.185L90.8623 114.421C91.2598 114.421 91.6574 113.846 91.6574 113.226V2.36852C91.6574 2.10289 91.569 1.83726 91.4365 1.70444C91.3482 1.6159 91.2598 1.6159 91.1273 1.6159Z" fill="white"/>
</g>
<g id="Group_2">
<path id="Vector_3" d="M109.812 121.948L2.73866 136.115C1.7227 136.115 0.883423 135.406 0.883423 134.432V23.5749C0.883423 22.6009 1.7227 21.7155 2.73866 21.6712L109.812 7.50415C110.828 7.50415 111.667 8.2125 111.667 9.18649V120.044C111.667 121.018 110.828 121.903 109.812 121.948Z" fill="#F5F5F5"/>
<path id="Vector_4" d="M2.60616 137C1.94358 137 1.28099 136.734 0.7951 136.292C0.265033 135.805 0 135.141 0 134.432V23.5749C0 22.1139 1.19265 20.8743 2.65033 20.7857L109.724 6.61865C110.475 6.61865 111.182 6.84001 111.712 7.32701C112.242 7.814 112.507 8.47808 112.507 9.18643V120.044C112.507 121.505 111.314 122.744 109.856 122.833L2.78285 137H2.60616ZM109.856 8.43381L2.78285 22.6009C2.25278 22.6009 1.76689 23.0879 1.76689 23.6191V134.476C1.76689 134.698 1.85523 134.919 1.98775 135.052C2.16444 135.185 2.3853 135.273 2.60616 135.273L109.68 121.106C110.21 121.106 110.696 120.619 110.696 120.088V9.23071C110.696 8.96507 110.563 8.78798 110.475 8.65517C110.298 8.52235 110.077 8.43381 109.856 8.43381Z" fill="white"/>
</g>
<g id="Group_3">
<path id="Vector_5" d="M116.261 129.164L2.73866 136.115C1.7227 136.115 0.883423 135.406 0.883423 134.432V23.575C0.883423 22.601 1.7227 21.7156 2.73866 21.6713L116.261 14.7206C117.277 14.7206 118.117 15.4289 118.117 16.4029V127.26C118.117 128.234 117.277 129.12 116.261 129.164Z" fill="#F5F5F5"/>
<path id="Vector_6" d="M2.60616 137C1.94358 137 1.28099 136.734 0.7951 136.292C0.265033 135.805 0 135.141 0 134.432V23.5749C0 22.114 1.19265 20.8743 2.69451 20.7858L116.217 13.8351C116.968 13.8351 117.675 14.0564 118.205 14.5434C118.735 15.0304 119 15.6945 119 16.4029V127.26C119 128.721 117.807 129.961 116.305 130.049L2.78285 137H2.60616ZM116.35 15.606L2.82702 22.5567C2.29696 22.5567 1.81106 23.0437 1.81106 23.5749V134.432C1.81106 134.654 1.89941 134.875 2.03192 135.008C2.20861 135.185 2.42947 135.229 2.69451 135.229L116.217 128.278C116.747 128.278 117.233 127.791 117.233 127.26V16.4029C117.233 16.1372 117.101 15.9601 117.012 15.8273C116.88 15.6945 116.659 15.606 116.438 15.606H116.35Z" fill="white"/>
</g>
<g id="Group_4">
<path id="Vector_7" d="M17.3597 56.6019C16.5646 56.6019 16.2554 56.3362 16.2996 55.5393L17.0505 35.2185C17.0505 34.4216 17.4481 34.0674 18.199 34.0231L32.6433 32.9606C33.4384 32.9606 33.7476 33.2262 33.7034 34.0231L33.5709 37.6977C33.5709 38.4946 33.1734 38.8488 32.4224 38.893L23.853 39.5128L23.7647 41.9478L29.8163 41.5051C30.6114 41.5051 30.9206 41.7707 30.8764 42.5676L30.7439 45.9323C30.7439 46.7292 30.3463 47.0834 29.5954 47.1276L23.5438 47.5704L23.4555 50.271L32.0249 49.6512C32.82 49.6512 33.1292 49.9168 33.085 50.7137L32.9525 54.3883C32.9525 55.1852 32.555 55.5393 31.804 55.5836L17.3597 56.6461V56.6019Z" fill="#1D1D1B"/>
<path id="Vector_8" d="M37.7231 55.0966C36.928 55.0966 36.6188 54.831 36.663 54.0341L37.4139 33.7132C37.4139 32.9163 37.8115 32.5621 38.5624 32.5179L48.9429 31.7653C53.6251 31.4111 54.9945 33.4476 54.8619 36.5466V38.0076C54.7294 39.7785 54.2435 41.0624 52.9184 41.7265C55.1712 41.815 56.6288 43.3645 56.4963 45.9766L56.2313 52.6174C56.2313 53.4143 55.8337 53.7685 55.0828 53.8128L50.268 54.1669C49.4729 54.1669 49.1637 53.9013 49.2079 53.1044L49.3846 48.323C49.3846 47.3933 49.1196 46.9949 48.2361 47.0834L43.8631 47.3933L43.6422 53.5471C43.6422 54.344 43.2446 54.6982 42.4937 54.7425L37.7231 55.0966ZM44.1281 41.7265L46.4692 41.5494C47.5735 41.4608 47.8827 40.841 47.8827 39.9556V38.8931C47.9711 38.0519 47.706 37.4321 46.6017 37.5206L44.2606 37.6977L44.1281 41.7265Z" fill="#1D1D1B"/>
</g>
<g id="Group_5">
<path id="Vector_9" d="M50.9306 59.5238C51.6815 59.3909 52.0349 59.6566 52.0791 60.4535L52.6975 72.2298C52.7858 73.5137 52.83 74.4877 52.3441 76.0815L51.0189 80.4645C50.8422 81.1285 50.4889 81.6598 49.8705 81.7484L45.8066 82.4124C45.144 82.501 44.5698 82.3239 44.3489 81.7484L42.7146 77.0112C42.582 76.6571 42.4054 76.5242 42.1403 76.5685H41.8753C41.6103 76.6571 41.4336 76.7899 41.3452 77.2326L40.1526 82.4124C40.0201 83.0322 39.5783 83.4307 38.9157 83.5192L34.8961 84.1833C34.2335 84.2719 33.7476 83.9177 33.4826 83.2979L31.7598 79.3577C31.1414 77.941 31.0973 76.967 31.0089 75.6831L30.3905 63.951C30.3905 63.1983 30.6555 62.7999 31.4506 62.6671L36.1329 61.9145C36.8838 61.7816 37.2372 62.0473 37.2814 62.8442L37.8556 74.0007L39.4458 69.8834C39.755 69.1308 40.2409 68.8209 40.9918 68.6881L42.2728 68.4667C43.0679 68.3339 43.5538 68.4667 43.9514 69.1308L45.895 72.6726L45.3207 61.516C45.3207 60.7634 45.5858 60.3649 46.3809 60.2321L50.9306 59.4795V59.5238Z" fill="#1D1D1B"/>
<path id="Vector_10" d="M62.1504 79.7562L57.689 80.5088C56.938 80.6416 56.5847 80.376 56.5405 79.5791L56.1429 71.5659C56.1429 70.3705 56.3638 68.7767 57.0706 66.5188L59.3675 59.2139C59.5884 58.4613 60.0301 58.1071 60.8694 57.9743L69.0412 56.6462C69.8363 56.5133 70.3222 56.7347 70.6314 57.3988L73.6351 63.8625C74.5628 65.8548 75.0045 67.3157 75.0487 68.5111L75.4462 76.5243C75.4462 77.277 75.1812 77.6754 74.3861 77.8082L69.7922 78.5609C68.9529 78.6937 68.5995 78.428 68.5553 77.6754L68.3345 73.4253L62.9455 74.3107L63.1663 78.5609C63.1663 79.3135 62.9013 79.7119 62.1062 79.8447V79.7562H62.1504ZM62.9896 68.6439L67.7602 67.847L66.0817 63.4641C65.905 63.1099 65.7283 63.0214 65.4633 63.0214L64.7124 63.1542C64.4473 63.1542 64.3148 63.3755 64.1381 63.774L62.9455 68.6439H62.9896Z" fill="#1D1D1B"/>
<path id="Vector_11" d="M79.8192 76.8785C79.0683 77.0113 78.7149 76.7457 78.6707 75.9488L78.494 72.407C78.494 71.6544 78.7591 71.2559 79.5542 71.1231L87.7261 69.7949C88.2561 69.7064 88.477 69.2637 88.477 68.7767C88.477 68.0683 88.1678 67.847 87.6377 67.8912L83.0438 67.9798C80.1726 67.9798 78.229 67.0943 78.0523 63.7297L77.8756 60.5421C77.699 57.0888 79.9517 54.831 83.8831 54.1669L92.4083 52.7945C93.1592 52.6616 93.5126 52.9273 93.5568 53.7242L93.7335 57.3545C93.7335 58.1071 93.4684 58.5056 92.6733 58.6384L85.5616 59.7894C85.0315 59.878 84.7665 60.2764 84.7665 60.852C84.7665 61.4275 85.1199 61.6931 85.6499 61.6931L90.1997 61.5603C93.0709 61.5603 95.0145 62.4015 95.1912 65.8104L95.3678 68.998C95.5445 72.4513 93.2476 74.7091 89.3604 75.3732L79.7309 76.967L79.8192 76.8785Z" fill="#1D1D1B"/>
</g>
<g id="Group_6">
<path id="Vector_12" d="M20.2309 111.278C19.48 111.278 19.1708 111.012 19.2149 110.304L19.9659 90.9569C19.9659 90.2043 20.3192 89.8501 21.0702 89.8059L34.8077 88.7876C35.5587 88.7876 35.8679 89.0532 35.8237 89.7616L35.6912 93.2591C35.6912 94.0117 35.3378 94.3659 34.5869 94.4102L26.415 95.03L26.3267 97.3321L32.1132 96.8894C32.8642 96.8894 33.1734 97.155 33.1292 97.8634L32.9967 101.051C32.9967 101.804 32.6433 102.158 31.8924 102.202L26.1058 102.645L26.0175 105.213L34.1893 104.593C34.9403 104.593 35.2495 104.858 35.2053 105.567L35.0728 109.064C35.0728 109.817 34.7194 110.171 33.9685 110.215L20.2309 111.234V111.278Z" fill="#1D1D1B"/>
<path id="Vector_13" d="M39.5783 109.861C38.8274 109.861 38.5182 109.596 38.5623 108.887L39.3133 89.5403C39.3133 88.7877 39.6667 88.4335 40.4176 88.3892L54.1551 87.371C54.9061 87.371 55.2153 87.6366 55.1711 88.345L55.0386 91.8424C55.0386 92.5951 54.6852 92.9493 53.9343 92.9935L45.7624 93.6133L45.6741 95.9155L51.4606 95.4728C52.2116 95.4728 52.5208 95.7384 52.4766 96.4468L52.3441 99.6343C52.3441 100.387 51.9907 100.741 51.2398 100.785L45.4532 101.228L45.3649 103.796L53.5367 103.176C54.2877 103.176 54.5969 103.442 54.5527 104.15L54.4202 107.648C54.4202 108.4 54.0668 108.754 53.3159 108.799L39.5783 109.817V109.861Z" fill="#1D1D1B"/>
<path id="Vector_14" d="M58.97 108.4C58.219 108.4 57.9098 108.135 57.954 107.426L58.7049 88.0793C58.7049 87.3267 59.0583 86.9725 59.8092 86.9283L62.9013 86.7069C63.6522 86.7069 64.1381 86.8397 64.624 87.371L70.1014 93.5691L70.3222 87.1939C70.3222 86.4413 70.6756 86.0871 71.4265 86.0428L75.8879 85.7329C76.6389 85.7329 76.9481 85.9985 76.9039 86.7069L76.153 106.054C76.153 106.806 75.7996 107.161 75.0487 107.205L70.5873 107.515C69.8363 107.515 69.5271 107.249 69.5713 106.541L69.7038 102.866L64.8891 97.0666L64.5357 106.895C64.5357 107.648 64.1823 108.002 63.4314 108.046L58.97 108.356V108.4Z" fill="#1D1D1B"/>
<path id="Vector_15" d="M80.7027 106.806C79.9518 106.806 79.6426 106.541 79.6867 105.832L79.8193 102.335C79.8193 101.582 80.1726 101.228 80.9236 101.184L88.8746 100.608C89.3605 100.608 89.6697 100.166 89.6697 99.6786C89.6697 99.1916 89.4488 98.7489 88.9187 98.7046L84.5015 98.3947C81.7187 98.1733 79.9518 97.1108 80.0843 93.7904L80.2168 90.6471C80.3493 87.2381 82.6904 85.2459 86.5334 84.936L94.8378 84.3162C95.5887 84.3162 95.898 84.5818 95.8538 85.2901L95.7213 88.8319C95.7213 89.5845 95.3679 89.9387 94.617 89.983L87.7261 90.5143C87.2402 90.5143 86.931 90.9127 86.8868 91.4882C86.8868 92.0195 87.1518 92.3737 87.6377 92.3737L92.0108 92.6393C94.7936 92.8607 96.5605 93.9232 96.428 97.2436L96.2955 100.387C96.163 103.796 93.7777 105.788 89.9789 106.098L80.6144 106.806H80.7027Z" fill="#1D1D1B"/>
</g>
<g id="Group_7">
<path id="Vector_16" d="M75.2695 121.992C74.5186 122.125 74.1652 121.903 74.0768 121.151L73.5468 115.13C73.4584 114.377 73.7676 113.978 74.5186 113.846L80.5702 112.65C81.3211 112.517 81.6745 112.739 81.7628 113.491L82.2929 119.512C82.2929 120.265 82.072 120.664 81.3211 120.796L75.2695 122.036V121.992Z" fill="#1D1D1B"/>
<path id="Vector_17" d="M86.7543 119.69C86.0034 119.822 85.65 119.601 85.5616 118.848L85.0316 112.827C84.9432 112.075 85.2524 111.676 86.0034 111.543L92.055 110.348C92.8059 110.215 93.1593 110.437 93.2476 111.189L93.7777 117.21C93.7777 117.963 93.5568 118.361 92.8059 118.494L86.7543 119.69Z" fill="#1D1D1B"/>
<path id="Vector_18" d="M98.2832 117.387C97.5323 117.52 97.1789 117.255 97.0906 116.546L96.5605 110.525C96.4722 109.773 96.7814 109.374 97.5323 109.241L103.584 108.046C104.335 107.913 104.688 108.135 104.777 108.887L105.307 114.908C105.395 115.661 105.086 116.059 104.335 116.192L98.2832 117.432V117.387Z" fill="#1D1D1B"/>
</g>
</g>
<defs>
<clipPath id="clip0_62_60">
<rect width="119" height="137" fill="white"/>
</clipPath>
</defs>
</svg>
