<?xml version="1.0" encoding="UTF-8"?>
<svg id="Layer_2" data-name="Layer 2" xmlns="http://www.w3.org/2000/svg" xmlns:xlink="http://www.w3.org/1999/xlink" viewBox="0 0 1918.07 1080">
  <defs>
    <style>
      .cls-1 {
        fill: #ff6d00;
      }

      .cls-2 {
        fill: #1e0c00;
        stroke: #1e0c00;
        stroke-miterlimit: 10;
      }

      .cls-3 {
        fill: url(#linear-gradient-2);
      }

      .cls-4 {
        fill: #aa5517;
      }

      .cls-5 {
        fill: url(#radial-gradient);
      }

      .cls-6 {
        fill: #c67138;
      }

      .cls-7 {
        fill: url(#linear-gradient);
      }

      .cls-8 {
        fill: #9e4f13;
      }

      .cls-9 {
        fill: #ad520e;
      }

      .cls-10 {
        fill: #b2520b;
      }

      .cls-11 {
        fill: #ffa300;
      }

      .cls-12 {
        fill: #ad5514;
      }

      .cls-13 {
        fill: #ba6015;
      }

      .cls-14 {
        fill: #af530e;
      }

      .cls-15 {
        fill: #b25e1f;
      }

      .cls-16 {
        fill: #7c4621;
      }

      .cls-17 {
        fill: #333;
      }

      .cls-18 {
        fill: #8e5025;
      }
    </style>
    <linearGradient id="linear-gradient" x1="959.04" y1="0" x2="959.04" y2="1080" gradientUnits="userSpaceOnUse">
      <stop offset="0" stop-color="#e98800"/>
      <stop offset="1" stop-color="#bf806c"/>
    </linearGradient>
    <radialGradient id="radial-gradient" cx="1340.94" cy="483.34" fx="1340.94" fy="483.34" r="100.32" gradientTransform="translate(1.93)" gradientUnits="userSpaceOnUse">
      <stop offset="0" stop-color="#231f20"/>
      <stop offset=".94" stop-color="#603913"/>
    </radialGradient>
    <linearGradient id="linear-gradient-2" x1="959.04" y1="1080" x2="959.04" y2="753.77" gradientUnits="userSpaceOnUse">
      <stop offset="0" stop-color="#754c29"/>
      <stop offset="1" stop-color="#3c2415"/>
    </linearGradient>
  </defs>
  <g id="Hans_Grietje" data-name="Hans&amp;amp;Grietje">
    <rect class="cls-7" width="1918.07" height="1080"/>
    <rect class="cls-16" y="601.45" width="1918.07" height="152.32"/>
    <rect class="cls-18" y="593.12" width="1918.07" height="16.66"/>
    <path class="cls-5" d="M1341.52,395.5h0c61.43,0,111.3,49.87,111.3,111.3v64.37h-222.6v-64.37c0-61.43,49.87-111.3,111.3-111.3Z"/>
    <path class="cls-13" d="M1192.26,540.43h36.71c2.17,0,3.93,1.76,3.93,3.93v22.35c0,2.53-2.06,4.59-4.59,4.59h-36.15c-8.49,0-15.39-6.9-15.39-15.39h0c0-8.54,6.94-15.48,15.48-15.48Z"/>
    <path class="cls-13" d="M1183.85,581.08h35.54c2.31,0,4.18,1.87,4.18,4.18v23.76c0,2.69-2.19,4.88-4.88,4.88h-34.94c-9.03,0-16.36-7.33-16.36-16.36h0c0-9.08,7.38-16.46,16.46-16.46Z" transform="translate(597.98 1792.97) rotate(-90)"/>
    <path class="cls-4" d="M1212.71,585.04h43.45c2.31,0,4.18,1.87,4.18,4.18v23.76c0,2.69-2.19,4.88-4.88,4.88h-42.86c-9.03,0-16.36-7.33-16.36-16.36h0c0-9.08,7.38-16.46,16.46-16.46Z" transform="translate(626.85 1829.75) rotate(-90)"/>
    <path class="cls-13" d="M1249.49,581.08h35.54c2.31,0,4.18,1.87,4.18,4.18v23.76c0,2.69-2.19,4.88-4.88,4.88h-34.94c-9.03,0-16.36-7.33-16.36-16.36h0c0-9.08,7.38-16.46,16.46-16.46Z" transform="translate(663.63 1858.61) rotate(-90)"/>
    <path class="cls-13" d="M1284.09,579.31h31.99c2.31,0,4.18,1.87,4.18,4.18v23.76c0,2.69-2.19,4.88-4.88,4.88h-31.39c-9.03,0-16.36-7.33-16.36-16.36h0c0-9.08,7.38-16.46,16.46-16.46Z" transform="translate(698.23 1889.66) rotate(-90)"/>
    <path class="cls-13" d="M1315.13,581.08h35.54c2.31,0,4.18,1.87,4.18,4.18v23.76c0,2.69-2.19,4.88-4.88,4.88h-34.94c-9.03,0-16.36-7.33-16.36-16.36h0c0-9.08,7.38-16.46,16.46-16.46Z" transform="translate(729.27 1924.26) rotate(-90)"/>
    <path class="cls-15" d="M1346.14,582.9h39.17c2.31,0,4.18,1.87,4.18,4.18v23.76c0,2.69-2.19,4.88-4.88,4.88h-38.57c-9.03,0-16.36-7.33-16.36-16.36h0c0-9.08,7.38-16.46,16.46-16.46Z" transform="translate(760.28 1958.89) rotate(-90)"/>
    <path class="cls-13" d="M1380.78,581.08h35.54c2.31,0,4.18,1.87,4.18,4.18v23.76c0,2.69-2.19,4.88-4.88,4.88h-34.94c-9.03,0-16.36-7.33-16.36-16.36h0c0-9.08,7.38-16.46,16.46-16.46Z" transform="translate(794.92 1989.9) rotate(-90)"/>
    <path class="cls-13" d="M1415.38,579.31h31.99c2.31,0,4.18,1.87,4.18,4.18v23.76c0,2.69-2.19,4.88-4.88,4.88h-31.39c-9.03,0-16.36-7.33-16.36-16.36h0c0-9.08,7.38-16.46,16.46-16.46Z" transform="translate(829.51 2020.95) rotate(-90)"/>
    <path class="cls-9" d="M1444.61,582.9h39.17c2.31,0,4.18,1.87,4.18,4.18v23.76c0,2.69-2.19,4.88-4.88,4.88h-38.57c-9.03,0-16.36-7.33-16.36-16.36h0c0-9.08,7.38-16.46,16.46-16.46Z" transform="translate(858.75 2057.36) rotate(-90)"/>
    <path class="cls-13" d="M1479.25,581.08h35.54c2.31,0,4.18,1.87,4.18,4.18v23.76c0,2.69-2.19,4.88-4.88,4.88h-34.94c-9.03,0-16.36-7.33-16.36-16.36h0c0-9.08,7.38-16.46,16.46-16.46Z" transform="translate(893.38 2088.37) rotate(-90)"/>
    <path class="cls-13" d="M1196.82,508.97h32.15c2.17,0,3.93,1.76,3.93,3.93v22.35c0,2.53-2.06,4.59-4.59,4.59h-31.59c-8.49,0-15.39-6.9-15.39-15.39h0c0-8.54,6.94-15.48,15.48-15.48Z"/>
    <path class="cls-12" d="M1228.81,510.5l-35.83-4.96c-8.41-1.16-14.28-8.93-13.12-17.35h0c1.17-8.47,8.98-14.38,17.44-13.21l36.38,5.04c2.15.3,3.65,2.28,3.35,4.43l-3.06,22.14c-.35,2.51-2.66,4.26-5.17,3.92Z"/>
    <path class="cls-13" d="M1233.46,480.94l-44.47-11.63c-8.21-2.15-13.13-10.56-10.99-18.78h0c2.16-8.27,10.61-13.23,18.87-11.06l45.02,11.78c2.1.55,3.36,2.7,2.81,4.8l-5.65,21.62c-.64,2.45-3.14,3.92-5.59,3.28Z"/>
    <path class="cls-13" d="M1238.45,453.4l-26.26-19.8c-7.9-5.96-9.48-17.2-3.53-25.1h0c5.99-7.96,17.28-9.55,25.23-3.55l26.78,20.2c2.02,1.52,2.42,4.39.9,6.42l-15.65,20.79c-1.77,2.36-5.12,2.83-7.48,1.05Z"/>
    <path class="cls-14" d="M1258.58,427.39l-18.62-23.92c-5.22-6.7-4.02-16.37,2.68-21.6h0c6.74-5.25,16.46-4.05,21.7,2.7l18.96,24.37c1.33,1.71,1.03,4.18-.69,5.52l-17.61,13.73c-2,1.56-4.88,1.2-6.43-.8Z"/>
    <path class="cls-13" d="M1279.76,409.3l-13.24-30.67c-3.84-8.89.25-19.21,9.13-23.05h0c8.93-3.86,19.31.25,23.17,9.2l13.5,31.26c.98,2.27-.06,4.91-2.33,5.89l-23.35,10.1c-2.65,1.15-5.72-.07-6.87-2.72Z"/>
    <path class="cls-13" d="M1309.19,396.97l-5.56-46.03c-1.02-8.44,4.99-16.1,13.42-17.12h0c8.48-1.03,16.18,5.02,17.21,13.51l5.63,46.59c.26,2.16-1.27,4.12-3.43,4.38l-22.17,2.68c-2.51.3-4.8-1.49-5.1-4Z"/>
    <path class="cls-13" d="M1337.39,393.11l2.97-36.08c.7-8.47,8.12-14.77,16.58-14.07h0c8.51.7,14.85,8.18,14.14,16.7l-3.01,36.64c-.18,2.16-2.08,3.77-4.24,3.6l-22.25-1.83c-2.52-.21-4.4-2.42-4.19-4.95Z"/>
    <path class="cls-13" d="M1367.71,397.24l11.75-37c2.23-7.04,9.74-10.93,16.77-8.69h0c7.07,2.25,10.98,9.81,8.73,16.89l-11.9,37.47c-.57,1.8-2.49,2.79-4.29,2.22l-18.48-5.88c-2.1-.67-3.25-2.91-2.59-5Z"/>
    <path class="cls-10" d="M1394.75,404.45l19.17-20.47c5.81-6.2,15.54-6.51,21.73-.7h0c6.23,5.85,6.55,15.64.7,21.88l-19.56,20.88c-1.48,1.58-3.97,1.66-5.55.18l-16.29-15.29c-1.85-1.73-1.94-4.64-.21-6.48Z"/>
    <path class="cls-13" d="M1417.19,424.28l31.92-24.31c6.76-5.15,16.4-3.83,21.54,2.93h0c5.17,6.8,3.85,16.52-2.95,21.69l-32.37,24.65c-1.73,1.31-4.19.98-5.51-.75l-13.52-17.79c-1.53-2.02-1.14-4.89.87-6.43Z"/>
    <path class="cls-8" d="M1435.74,447.65l33.2-14.36c7.79-3.37,16.84.22,20.21,8.02h0c3.39,7.85-.22,16.96-8.06,20.35l-33.72,14.58c-1.99.86-4.3-.06-5.16-2.05l-8.86-20.52c-1-2.33.07-5.03,2.39-6.03Z"/>
    <path class="cls-13" d="M1448.82,475.48l48.87-5.23c8.44-.9,16.02,5.21,16.92,13.67h0c.91,8.5-5.24,16.13-13.73,17.04l-49.43,5.29c-2.16.23-4.09-1.33-4.32-3.49l-2.37-22.22c-.27-2.52,1.55-4.78,4.07-5.05Z"/>
    <path class="cls-13" d="M1454.56,504.51l32.56-.55c10.02-.17,18.28,7.83,18.45,17.86h0c.17,10.09-7.87,18.41-17.95,18.58l-33.22.56c-2.56.04-4.67-2-4.72-4.56l-.44-26.38c-.05-2.99,2.33-5.46,5.32-5.51Z"/>
    <path class="cls-13" d="M1454.54,540.35l36.16-.61c8.49-.14,15.49,6.63,15.63,15.13h0c.14,8.55-6.66,15.6-15.2,15.74l-36.72.62c-2.17.04-3.96-1.69-3.99-3.87l-.38-22.35c-.04-2.53,1.97-4.62,4.5-4.66Z"/>
    <rect class="cls-3" y="753.77" width="1918.07" height="326.23"/>
    <line class="cls-2" x1="56.08" y1="1080" x2="56.08" y2="753.77"/>
    <line class="cls-2" x1="116.06" y1="1080" x2="116.06" y2="753.77"/>
    <line class="cls-2" x1="176.05" y1="1080" x2="176.05" y2="753.77"/>
    <line class="cls-2" x1="236.03" y1="1080" x2="236.03" y2="753.77"/>
    <line class="cls-2" x1="296.02" y1="1080" x2="296.02" y2="753.77"/>
    <line class="cls-2" x1="356" y1="1080" x2="356" y2="753.77"/>
    <line class="cls-2" x1="415.98" y1="1080" x2="415.98" y2="753.77"/>
    <line class="cls-2" x1="475.97" y1="1080" x2="475.97" y2="753.77"/>
    <line class="cls-2" x1="535.95" y1="1080" x2="535.95" y2="753.77"/>
    <line class="cls-2" x1="595.94" y1="1080" x2="595.94" y2="753.77"/>
    <line class="cls-2" x1="655.92" y1="1080" x2="655.92" y2="753.77"/>
    <line class="cls-2" x1="715.9" y1="1080" x2="715.9" y2="753.77"/>
    <line class="cls-2" x1="775.89" y1="1080" x2="775.89" y2="753.77"/>
    <line class="cls-2" x1="835.87" y1="1080" x2="835.87" y2="753.77"/>
    <line class="cls-2" x1="895.86" y1="1080" x2="895.86" y2="753.77"/>
    <line class="cls-2" x1="955.84" y1="1080" x2="955.84" y2="753.77"/>
    <line class="cls-2" x1="1015.82" y1="1080" x2="1015.82" y2="753.77"/>
    <line class="cls-2" x1="1075.81" y1="1080" x2="1075.81" y2="753.77"/>
    <line class="cls-2" x1="1135.79" y1="1080" x2="1135.79" y2="753.77"/>
    <line class="cls-2" x1="1195.78" y1="1080" x2="1195.78" y2="753.77"/>
    <line class="cls-2" x1="1255.76" y1="1080" x2="1255.76" y2="753.77"/>
    <line class="cls-2" x1="1315.74" y1="1080" x2="1315.74" y2="753.77"/>
    <line class="cls-2" x1="1375.73" y1="1080" x2="1375.73" y2="753.77"/>
    <line class="cls-2" x1="1435.71" y1="1080" x2="1435.71" y2="753.77"/>
    <line class="cls-2" x1="1495.7" y1="1080" x2="1495.7" y2="753.77"/>
    <line class="cls-2" x1="1555.68" y1="1080" x2="1555.68" y2="753.77"/>
    <line class="cls-2" x1="1615.66" y1="1080" x2="1615.66" y2="753.77"/>
    <line class="cls-2" x1="1675.65" y1="1080" x2="1675.65" y2="753.77"/>
    <line class="cls-2" x1="1735.63" y1="1080" x2="1735.63" y2="753.77"/>
    <line class="cls-2" x1="1795.62" y1="1080" x2="1795.62" y2="753.77"/>
    <line class="cls-2" x1="1855.6" y1="1080" x2="1855.6" y2="753.77"/>
    <line class="cls-2" y1="916.88" x2="56.08" y2="916.88"/>
    <line class="cls-2" x1="116.06" y1="916.88" x2="176.05" y2="916.88"/>
    <line class="cls-2" x1="236.03" y1="916.88" x2="296.02" y2="916.88"/>
    <line class="cls-2" x1="356" y1="916.88" x2="415.98" y2="916.88"/>
    <line class="cls-2" x1="475.97" y1="916.88" x2="535.95" y2="916.88"/>
    <line class="cls-2" x1="595.94" y1="916.88" x2="655.92" y2="916.88"/>
    <line class="cls-2" x1="715.9" y1="916.88" x2="775.89" y2="916.88"/>
    <line class="cls-2" x1="835.87" y1="916.88" x2="895.86" y2="916.88"/>
    <line class="cls-2" x1="955.84" y1="916.88" x2="1015.82" y2="916.88"/>
    <line class="cls-2" x1="1075.81" y1="916.88" x2="1135.79" y2="916.88"/>
    <line class="cls-2" x1="1195.78" y1="916.88" x2="1255.76" y2="916.88"/>
    <line class="cls-2" x1="1315.74" y1="916.88" x2="1375.73" y2="916.88"/>
    <line class="cls-2" x1="1435.71" y1="916.88" x2="1495.7" y2="916.88"/>
    <line class="cls-2" x1="1555.68" y1="916.88" x2="1615.66" y2="916.88"/>
    <line class="cls-2" x1="1675.65" y1="916.88" x2="1735.63" y2="916.88"/>
    <line class="cls-2" x1="1795.62" y1="916.88" x2="1855.6" y2="916.88"/>
    <path class="cls-6" d="M230.6,158.09h41.6c7.61,0,13.79,6.18,13.79,13.79h0c0,16.51-13.4,29.91-29.91,29.91h-40.76c-3.39,0-6.14-2.75-6.14-6.14v-16.15c0-11.82,9.59-21.41,21.41-21.41Z"/>
    <path class="cls-6" d="M880.29,84.75h33.11c9.05,0,16.39,7.34,16.39,16.39v10.92c0,9.05-7.34,16.39-16.39,16.39h-44.03c-9.05,0-16.39-7.34-16.39-16.39h0c0-15.07,12.24-27.31,27.31-27.31Z"/>
    <rect class="cls-6" x="553.28" y="321.64" width="76.81" height="43.7" rx="13.45" ry="13.45"/>
    <path class="cls-6" d="M1431.94,193.3h41.22c6.63,0,12.02,5.39,12.02,12.02v5.8c0,14.29-11.6,25.88-25.88,25.88h-38.91c-6.63,0-12.02-5.39-12.02-12.02v-8.11c0-13.01,10.56-23.57,23.57-23.57Z"/>
    <rect class="cls-6" x="1637.24" y="356.47" width="76.81" height="43.7" rx="9.14" ry="9.14"/>
    <path class="cls-6" d="M1688.37,136.24h33.11c20.41,0,36.98,16.57,36.98,36.98h0c0,3.71-3.01,6.72-6.72,6.72h-63.36c-3.71,0-6.72-3.01-6.72-6.72v-30.26c0-3.71,3.01-6.72,6.72-6.72Z"/>
    <path class="cls-6" d="M1205.3,84.75h33.11c18.15,0,32.89,14.74,32.89,32.89h0c0,5.97-4.84,10.81-10.81,10.81h-55.19c-5.97,0-10.81-4.84-10.81-10.81v-22.08c0-5.97,4.84-10.81,10.81-10.81Z"/>
    <path class="cls-6" d="M920.59,334.62h53.66c6.39,0,11.57,5.19,11.57,11.57h0c0,17.73-14.4,32.13-32.13,32.13h-33.11c-6.39,0-11.57-5.19-11.57-11.57v-20.56c0-6.39,5.19-11.57,11.57-11.57Z"/>
    <path class="cls-6" d="M227.59,403.5h23.76c12.75,0,23.09,10.35,23.09,23.09v9.76c0,5.99-4.86,10.85-10.85,10.85h-55.11c-5.99,0-10.85-4.86-10.85-10.85v-2.89c0-16.54,13.43-29.96,29.96-29.96Z"/>
    <rect class="cls-17" x="197.63" y="269.58" width="410.3" height="484.19"/>
    <g id="Vuur">
      <path class="cls-11" d="M1333.73,460.49c-5.99,18.29-37.49,36.27-37.49,36.27,0,0,7.25-8.2,6.3-22.39-.95-14.19-14.18-23.65-14.18-23.65,0,0,5.36,34.38-15.75,55.82s-27.9,65.93-27.9,65.93h193.95s9.45-37.23-7.56-45.75c-17.01-8.52-34.03-15.13-34.03-15.13,0,0-33.71-7.58-16.07-32.49,17.64-24.92-21.41-44.15-21.41-44.15,0,0,15.1,21.13-4.9,37.53-20,16.4-19.37,10.87-19.37,10.87,0,0,17.33-9.47,14.18-24.52-3.15-15.05-11.97-20.09-11.97-20.09l-3.78,21.76Z"/>
      <path class="cls-1" d="M1335.94,486.45c-4.56,13.93-28.55,27.62-28.55,27.62,0,0,5.52-6.24,4.8-17.05-.72-10.81-10.8-18.01-10.8-18.01,0,0,4.08,26.18-12,42.51-16.08,16.33-21.25,50.21-21.25,50.21h147.69s7.2-28.35-5.76-34.84c-12.96-6.48-25.91-11.52-25.91-11.52,0,0-25.67-5.77-12.24-24.74,13.44-18.97-16.3-33.62-16.3-33.62,0,0,11.5,16.09-3.73,28.58-15.23,12.49-14.75,8.27-14.75,8.27,0,0,13.2-7.21,10.8-18.67-2.4-11.46-9.12-15.3-9.12-15.3l-2.88,16.57Z"/>
    </g>
  </g>
</svg>