<?xml version="1.0" encoding="UTF-8"?>
<svg id="Layer_2" data-name="Layer 2" xmlns="http://www.w3.org/2000/svg" xmlns:xlink="http://www.w3.org/1999/xlink" viewBox="0 0 372.78 586.43">
  <defs>
    <style>
      .cls-1 {
        fill: #c4593c;
      }

      .cls-2 {
        fill: #edae8d;
      }

      .cls-3 {
        fill: #6a0000;
      }

      .cls-4 {
        fill: url(#_ÅÂÁ_Ï_ÌÌ_È_ËÂÌÚ_24);
      }

      .cls-5 {
        fill: url(#_ÅÂÁ_Ï_ÌÌ_È_ËÂÌÚ_38);
      }

      .cls-6 {
        fill: url(#_ÅÂÁ_Ï_ÌÌ_È_ËÂÌÚ_36);
      }

      .cls-7 {
        fill: #ff3500;
      }

      .cls-8 {
        fill: #d1dde5;
      }

      .cls-9 {
        fill: #77838b;
      }

      .cls-10 {
        fill: #b3bfc7;
      }

      .cls-11 {
        fill: #fff;
      }

      .cls-12 {
        fill: #4c0000;
      }

      .cls-13 {
        fill: #e11700;
      }

      .cls-14 {
        fill: #432c62;
      }

      .cls-15 {
        fill: #881d00;
      }

      .cls-16 {
        fill: #595240;
      }

      .cls-17 {
        fill: #250e44;
      }

      .cls-18 {
        fill: #a63b1e;
      }

      .cls-19 {
        fill: #958e7c;
      }

      .cls-20 {
        fill: #ffccab;
      }

      .cls-21 {
        fill: #3b3422;
      }

      .cls-22 {
        fill: #95a1a9;
      }

      .cls-23 {
        fill: #77705e;
      }
    </style>
    <linearGradient id="_ÅÂÁ_Ï_ÌÌ_È_ËÂÌÚ_24" data-name="ÅÂÁ˚ÏﬂÌÌ˚È „‡‰ËÂÌÚ 24" x1="-13827.61" y1="495.64" x2="-13822.63" y2="282.11" gradientTransform="translate(14043.19)" gradientUnits="userSpaceOnUse">
      <stop offset="0" stop-color="#7f689e"/>
      <stop offset="1" stop-color="#432c62"/>
    </linearGradient>
    <linearGradient id="_ÅÂÁ_Ï_ÌÌ_È_ËÂÌÚ_38" data-name="ÅÂÁ˚ÏﬂÌÌ˚È „‡‰ËÂÌÚ 38" x1="-13891.34" y1="119.48" x2="-13853.12" y2="222.51" gradientTransform="translate(14043.19)" gradientUnits="userSpaceOnUse">
      <stop offset="0" stop-color="#77705e"/>
      <stop offset="1" stop-color="#3b3422"/>
    </linearGradient>
    <linearGradient id="_ÅÂÁ_Ï_ÌÌ_È_ËÂÌÚ_36" data-name="ÅÂÁ˚ÏﬂÌÌ˚È „‡‰ËÂÌÚ 36" x1="-13921.55" y1="9.81" x2="-13934.84" y2="45.81" gradientTransform="translate(14043.19)" gradientUnits="userSpaceOnUse">
      <stop offset="0" stop-color="#d1dde5"/>
      <stop offset="1" stop-color="#b3bfc7"/>
    </linearGradient>
  </defs>
  <g id="Heks">
    <g>
      <g>
        <path class="cls-15" d="M295.27,549.94c-4.22-7.01-25.33-7.68-37.64-7.45-2.93-5.51-6.58-10.91-9.57-10.76-6.06.3-24.26,16.77-34.87,16.16-10.61-.61-12.43,4.27-12.43,4.27,0,0,4.85,25.91,26.38,27.43,21.53,1.52,31.84-10.36,38.81-8.53,6.97,1.83,9.7,5.79,14.25,4.88,4.47-.9,19.2-21.54,15.07-25.99Z"/>
        <path class="cls-22" d="M268.99,472.29c9.41,18.06,8.21,54.1.91,72.24-25.24,4.8-16.98,12.8-16.98,12.8l29.49.74s-8.27-27.57,10.53-87.92l-23.95,2.13Z"/>
        <path class="cls-3" d="M268.99,549.57s42.41-3.09,46.96,7.77c4.55,10.86-37.64,9.37-37.64,9.37l-9.32-17.15Z"/>
        <path class="cls-22" d="M289.31,479c9.41,18.06,8.21,54.1.91,72.24-41.84,5.18-16.98,12.8-16.98,12.8l30.09.48s-8.86-27.3,9.94-87.66l-23.95,2.13Z"/>
        <path class="cls-18" d="M221.08,558.86s4.85,25.91,26.38,27.43c21.53,1.52,31.84-10.36,38.81-8.53,6.97,1.83,9.7,5.79,14.25,4.88,4.55-.91,19.71-22.25,14.86-26.21-13.04,8.54-32.14,4.27-32.14,4.27,0,0-8.79-22.56-14.86-22.25-6.06.3-24.26,16.77-34.87,16.16-10.61-.61-12.43,4.27-12.43,4.27Z"/>
      </g>
      <path class="cls-4" d="M212.28,525.32l148.72,10.16s41.32-296.62-49.04-321.54l-68.87,33.79c-41.87,82.53-30.82,277.59-30.82,277.59Z"/>
      <path class="cls-17" d="M304.35,216.46s32.04,6.13,36.34,53.4c-7.35-34.3-36.34-53.4-36.34-53.4Z"/>
      <path class="cls-17" d="M311.7,227.2s23.02,11.29,20.8,57.44c-5.22-47.68-20.8-57.44-20.8-57.44Z"/>
      <path class="cls-17" d="M287.47,245.59s14.85,22.54,17.18,69.37c-7.28-38.64-17.18-69.37-17.18-69.37Z"/>
      <path class="cls-14" d="M274.22,238.03c-.8-1.61-1.62-3.05-2.45-4.38l-28.68,14.07c-32.18,63.42-33.1,193.29-31.8,250.03l74.5-22.1s28.1-157.86-11.57-237.63Z"/>
      <path class="cls-14" d="M315.29,532.36l17.71,1.21c13.28-76.69-2.57-212.45-2.57-212.45,0,0-14.16,141.16-15.13,211.24Z"/>
      <path class="cls-14" d="M358.25,308.66s25.07,80.32,9.37,196.64c7.17-105.53-9.37-196.64-9.37-196.64Z"/>
      <path class="cls-10" d="M240.61,251.22s-46.3,48.12-56.21,210.42c45.73,27.7,115.15.55,115.15.55,0,0-44.46-103.75-22.42-211.21,44.16-3.08,42.39-39.64,42.39-39.64l-78.91,39.88Z"/>
      <path class="cls-8" d="M241.47,256.39s-51.04,80.14-29.35,169.8c3.61-87.2,29.35-169.8,29.35-169.8Z"/>
      <path class="cls-8" d="M241.47,361.05s-.86,61.68,7.57,112.42c8.63-.76,16.75-2.12,23.85-3.65-12.34-49.85-31.42-108.77-31.42-108.77Z"/>
      <path class="cls-8" d="M267.02,402.6c-.78,0-2.6-1.59-9.16-18.49-5.89-15.19-12.34-42.03-9.61-83.62,1.64-24.86,5.85-43.47,5.89-43.66l.57.13c-.04.19-4.25,18.75-5.88,43.57-1.51,22.89-1.07,55.94,9.57,83.36,6.69,17.24,8.36,18.22,8.7,18.09,1.72-.54-2.54-23.06-7.67-44.51l.57-.14c.03.11,2.65,11.11,4.87,22.08,4.54,22.45,3.04,22.92,2.41,23.12-.07.02-.16.05-.26.05Z"/>
      <g>
        <path class="cls-1" d="M242.75,247.87s18.7,13.66,43.38,7.45c24.67-6.2,28.28-44.17,28.28-44.17,0,0-7.16,61.27-71.66,36.71Z"/>
        <g>
          <path class="cls-9" d="M309.48,315.13l-.54-.21s1.08-2.88.75-6.1c-.12.38-.25.69-.4.93-.99,1.53-1.64,2.09-2.16,1.9-.43-.16-.56-.76-.42-1.84.19-1.51,1.06-4.26,2.09-4.36.3-.03.56.13.77.49.44-5.54-.34-16.4-2.17-28.44-2.08-13.66-5.66-29.4-9.51-32.62-1.26-1.05-2.46-1.26-3.15-.55-.73.76-.74,2.37.26,4.13.08-2.3.36-4.1,1.01-4.22.53-.1,1.1.49,2.1,3.7.2.77.78,3.3-.11,3.78-.54.29-1.28-.17-2.42-1.46,0,1.72.06,3.66.17,5.51l-.58.03c-.11-1.82-.2-4.18-.18-6.29-1.68-2.33-1.64-4.56-.65-5.58.72-.75,2.14-1,3.94.51,6.7,5.61,13.55,50.72,11.76,62.85.95,3.92-.47,7.69-.54,7.86ZM308.86,306.02c-.16,0-.57.43-1,1.59-.65,1.75-.72,3.31-.51,3.48,0,0,.38-.02,1.46-1.68.27-.41.47-1.15.62-2.16-.06-.22-.12-.43-.19-.65-.16-.48-.3-.59-.37-.6ZM295.57,249.31c.13.17.27.34.42.52,1.33,1.53,1.71,1.36,1.72,1.35.29-.16.21-1.63-.17-3.1-.96-3.05-1.41-3.27-1.46-3.28-.32.21-.48,2.06-.51,4.52Z"/>
          <path class="cls-19" d="M307.93,309.95c1.42-.25,2.68.24,3.71,1.07l-.3-3.75c-.83-.32-1.7-.56-2.61-.71l-.8,3.39Z"/>
          <path class="cls-1" d="M294.22,251.78c1.05-.69,2.05-1.44,3-2.24l-1.18-4.15c-.99.78-2.04,1.52-3.14,2.21l1.31,4.18Z"/>
        </g>
        <g>
          <path class="cls-23" d="M297.63,345.33l2.37.36.2-1.35-14.71-2.24,4.91-32.64c1.21-.27,2.2-1.26,2.39-2.56.24-1.62-.82-3.14-2.39-3.49l.47-3.11c5.98,1.08,10.46,3.57,11.25-1.7.75-5-2.48-12.63-7.87-14.7l.1-.66c.1-.65-.18-1.26-.67-1.63l.28-1.89c.07-.45-.24-.87-.69-.94-.45-.07-.87.24-.94.69l-.28,1.89c-.57.21-1.02.71-1.12,1.36l-.1.66c-5.76.37-11.09,6.7-11.85,11.7-.79,5.27,4.22,4.22,10.25,4.97l-.47,3.11c-1.6-.14-3.07,1-3.31,2.62-.2,1.3.45,2.54,1.53,3.16l-7.15,47.48c-.14.94.51,1.83,1.45,1.97.94.14,1.82-.51,1.96-1.45l.17-1.14,14.71,2.24.2-1.35-2.37-.36c-.79-.12-1.35-.87-1.23-1.67.12-.8.87-1.35,1.66-1.23l2.37.36.17-1.14-2.37-.36c-.79-.12-1.35-.87-1.23-1.67s.87-1.35,1.66-1.23l2.37.36.17-1.14-2.37-.36c-.79-.12-1.35-.87-1.23-1.67s.87-1.35,1.66-1.23ZM292.51,289.42c4.2.9,7.18,3.62,6.61,7.37-.56,3.74-3.7,2.07-7.91,1.27l1.3-8.64ZM289.59,297.81c-4.26-.49-7.75.18-7.19-3.57.56-3.74,4.21-5.46,8.49-5.07l-1.3,8.64Z"/>
          <path class="cls-9" d="M289.34,303.45c-.6,0-1.23-.19-1.82-.73-.69-.62-.43-1.08-.29-1.24.16-.19.46-.33.84-.42-.47-.57-.85-1.31-1.07-2.24-.62-2.66-2.11-27.58-1.39-40.85-.17.06-.34.11-.52.15-.33.07-1.32.26-1.67-.39-.55-1.01,1.29-3.48,2.73-5.19.19-1.08.43-1.89.71-2.35.6-.97,1.13-1.37,1.6-1.22.71.23.74,1.55.7,2.32-.11,2.02-1.03,5.21-3.01,6.41-.75,13,.78,38.31,1.41,40.99.24,1.04.7,1.77,1.19,2.27,1.27-.11,2.9.14,3.48.62.32.27.26.54.22.64-.11.28-.47.44-.99.46-.49.37-1.27.76-2.12.76ZM288.54,301.56c-.42.05-.74.15-.87.3-.09.1.14.33.24.42.92.83,1.92.62,2.58.3-.65-.15-1.34-.48-1.95-1.03ZM289.46,301.52c.42.26.8.4,1.06.47.65.17,1.13.12,1.33.04-.45-.31-1.46-.49-2.38-.51ZM285.98,253.68c-1.3,1.63-2.33,3.24-2.05,3.77.09.17.48.21,1.05.1.23-.05.46-.12.67-.23.08-1.36.19-2.59.33-3.64ZM286.65,252.86c-.19,1.1-.34,2.49-.45,4.09,1.48-1.2,2.27-3.82,2.38-5.69.07-1.2-.17-1.68-.29-1.72-.08-.02-.39.1-.93.97-.17.27-.32.67-.45,1.17.3-.33.54-.59.69-.75l.42.41c-.44.46-.91.98-1.36,1.52Z"/>
          <path class="cls-23" d="M287.9,289.27l-.42-4.99c-.94.43-1.84.98-2.68,1.64l.42,4.27c.78-.45,1.69-.75,2.68-.92Z"/>
          <path class="cls-23" d="M285.93,297.52l.22,2.27c.84.06,1.73.12,2.65.23l-.19-2.3c-.96-.08-1.87-.12-2.68-.2Z"/>
          <path class="cls-1" d="M287.09,255.06c.7-.2,1.39-.44,2.05-.69l.38-4.87c-.49.24-.99.47-1.5.7l.15,1.41-1.08,3.44Z"/>
        </g>
        <g>
          <g>
            <path class="cls-18" d="M263.6,310.23c-.75,2.95,1.89,12.57,1.89,12.57,0,0-20.13,35.03-18.07,39.2,2.06,4.17,18.86,21.58,28.66,12.85,9.19-8.19,12.14,12.4,12.6-10.65.45-23.05-14.42-38.31-14.42-38.31,0,0,15.17,1.92,16.35-2.64-7.96-11.32-26.25-15.96-27-13.01Z"/>
            <path class="cls-15" d="M268.94,324.7s9.44,20.72-3.17,28.21c-12.61,7.49,3.17-28.21,3.17-28.21Z"/>
            <path class="cls-15" d="M258.9,373.29c7.94-1.13,20.54-8.79,13.57-48.06,0,0,10.45-.53,13.65-6.89,1.68,1.46,3.21,3.09,4.48,4.9-1.18,4.56-16.35,2.64-16.35,2.64,0,0,14.87,15.26,14.42,38.31-.45,23.05-3.4,2.47-12.6,10.65-4.89,4.35-11.51,2.21-17.18-1.56Z"/>
            <path class="cls-18" d="M278.27,360.46s-12.31,13.79-6.83,13.57c5.48-.22,7.34-6.3,6.83-13.57Z"/>
          </g>
          <path class="cls-12" d="M263.77,330.73c-3.65,0-6.56-.41-7.06-1.65-.47-1.17.95-2.38,2.07-3.19,1.45-1.05,2.89-1.77,4.29-2.24-.1-.05-.2-.1-.3-.14-4.17-2-4.84-12.22-4.67-20.44.16-7.71,1.13-17.07,2.65-26.02-.76-6.57-1.1-15.46-.63-17.92.11-.56.28-1.15.76-1.23.49-.08.8.46.9.64.73,1.29,1.48,2.43,2.22,3.43,1.43-5.11,3.23-9.72,5.07-9.78.88-.05,1.61.88,2.15,2.8,2.05,7.25,1.97,11.58-.24,12.5-1.65.69-4.13-.78-6.61-3.69-.53,2.03-1.08,4.35-1.62,6.99-.41,2.01-.81,4.12-1.18,6.29.39,3.53.87,6.26,1.32,6.67l-.44.71c-.5-.3-.95-2.06-1.34-4.53-2.87,18.56-3.61,40.14,1.99,42.83.4.19.8.38,1.18.56,7.99-1.84,14.55,4.23,14.63,4.31l.58.55-.78.17c-.16.03-3.87.75-14.54-4.15-1.6.42-3.25,1.18-4.93,2.39-1.86,1.35-1.87,1.98-1.78,2.19.45,1.12,7.12,2,23.07-.41l.12.83c-2.37.36-10.7,1.55-16.9,1.55ZM265.59,323.89c6.66,2.95,10.32,3.55,11.94,3.64-1.82-1.43-6.42-4.45-11.94-3.64ZM261.01,258.89c-.54,1.48-.29,8.8.27,15.12.21-1.14.43-2.27.66-3.39.46-2.23,1.07-4.96,1.78-7.63-.91-1.17-1.82-2.53-2.67-4.03-.01-.03-.03-.05-.04-.07ZM264.65,262.81c2.48,3.04,4.82,4.42,6.02,3.92.63-.26,2.47-1.88-.25-11.5-.39-1.39-.9-2.22-1.32-2.19-.97.04-2.64,3.15-4.46,9.78Z"/>
          <path class="cls-1" d="M269.03,253.65l-.08,3.12c1.36.11,2.76.16,4.19.16l-.95-3.3c-1.03.03-2.08.05-3.16.02Z"/>
        </g>
      </g>
      <g>
        <path class="cls-20" d="M84.11,333.78c-4.71,2.54-11.6,1.7-11.94,6.09-.35,4.39-6.91,13.4,3.87,23,7.4,6.6-1.74-16.65-.17-19.28,1.57-2.63,10.43.68,8.24-9.81Z"/>
        <path class="cls-2" d="M75.87,343.59c1.51-2.53,9.72.41,8.45-8.6-.44.07-.91.17-1.42.28-13.8,3.2-8.44,12.96-5.9,16.57-.91-3.84-1.69-7.32-1.14-8.25Z"/>
        <path class="cls-20" d="M129.96,312.07s-22.77,18-46.06,20.48c-4.71.5-5.67,5.26-4.84,14.48.77,8.55-3.53,11.79,8.9,22.81,5.63,4.99-3.91-35.33,6.74-27.76,0,0-8.39,4.6-.73,15.69,7.9,11.45-.97-17.97,8.63-14.59,28.83,10.15,31.12-27.96,31.12-27.96l-3.76-3.15Z"/>
        <path class="cls-2" d="M82.93,352.39s-1.01-5.75.34-8.63c1.35-2.88-.34,8.63-.34,8.63Z"/>
      </g>
      <path class="cls-20" d="M36.97,230.39l-4.49,3.71c.49,4.32,9.42,11.45,20.06,18.04l4.27-12.13c-6.67-2-14.53-4.38-19.84-9.62Z"/>
      <path class="cls-22" d="M309.68,214.5l20.48-32.76s.93,34.4-20.48,32.76Z"/>
      <path class="cls-10" d="M311.62,215.06s13.57-16.96,27.79-22.12c-4.3,31.93-27.79,22.12-27.79,22.12Z"/>
      <path class="cls-23" d="M54.17,237.54l-9.48,17.39s1.76,3.68,7.25,3.96c30.72,18.24,85.1,27.6,107.45-28.04,7.82-19.46-61.53,22.51-105.22,6.68Z"/>
      <path class="cls-23" d="M132.97,327.48s2.85,1.2,7.81-2.13c32.36-4.16,74.04-21.9,70.94-75.26-2.27-38.89-54.51,52.75-87.65,61.55l8.9,15.84Z"/>
      <path class="cls-16" d="M49.68,253.32s6.4,13.03,18.86,14.84l-18.86-14.84Z"/>
      <path class="cls-16" d="M49.19,251.51s26.41,13.69,33.46,11.05c7.05-2.64-33.46-11.05-33.46-11.05Z"/>
      <path class="cls-21" d="M51.85,259.95l-.54-.23,9-21.01c-1.03-1.22-6.11-7.46-4.87-9.63.39-.68,1.29-.9,2.69-.64,1.79.33,3.02,1.16,3.67,2.47.61,1.24.6,2.73.36,4.08,1.43-1.21,3.99-2.49,8.6-3.3,2.81-.49,3.46-.31,3.59.14.34,1.18-7.08,4.47-13.43,7.05-.06.92-.2,5.25,2.36,7.88,1.58,1.62,3.91,2.31,6.93,2.03l.05.58c-3.2.29-5.69-.45-7.41-2.21-2.06-2.11-2.49-5.15-2.55-6.97l-8.47,19.78ZM61.94,236.01c-.22.86-.51,1.6-.72,2.1,5.91-2.42,11.93-5.23,12.53-6.1-.21-.05-.85-.1-2.88.25-5.3.93-7.77,2.46-8.93,3.75ZM57.1,228.92c-.5,0-.96.11-1.15.45-.85,1.48,2.53,6.17,4.42,8.49.07-.43.24-1,.65-1.62.11-.16.23-.33.38-.51.37-1.46.55-3.22-.12-4.58-.56-1.13-1.65-1.86-3.25-2.15-.29-.05-.62-.1-.93-.1Z"/>
      <path class="cls-16" d="M134.24,318.38s12.93,6.48,23.95.35l-23.95-.35Z"/>
      <path class="cls-16" d="M132.76,317.23s29.26-5.16,33.29-11.55c4.03-6.39-33.29,11.55-33.29,11.55Z"/>
      <path class="cls-21" d="M140.84,326.17l-5.12-16.8c-.97.21-4.23.74-6.35-1.04-1.39-1.17-1.98-3.08-1.76-5.68.12-1.41.51-2.17,1.19-2.31.23-.05,2.19-.23,6.37,6.79-.72-3.36-1.76-9.75.45-11.21,1.03-.68,2.52-.24,4.56,1.37.7.55,1.08,1.3,1.15,2.22.2,2.69-2.36,6.32-3.97,8.3.57-.24,1.28-.47,2.14-.58,2.21-.28,5.83.19,10.51,4.02l-.37.46c-7.89-6.47-12.54-3.28-13.38-2.58l5.14,16.88-.56.17ZM129.06,300.89s-.08,0-.13.01c-.38.08-.65.72-.73,1.79-.2,2.4.32,4.15,1.56,5.18,1.81,1.53,4.71,1.14,5.73.94-1.84-3.26-4.99-7.93-6.42-7.93ZM136.69,296.19c-.29,0-.53.07-.74.21-2.01,1.33-.69,8.68.13,12.02,1.19-1.36,4.91-5.88,4.68-8.88-.06-.76-.36-1.35-.93-1.8-1.31-1.03-2.35-1.55-3.13-1.55Z"/>
      <g>
        <path class="cls-20" d="M1.94,215.97c.31,18.31-.39,11.27,31.99,24.82,16,6.7,6.12-22.31,6-33.67-.08-7.05-12.72-4.99-12.04-16.7.31-5.32,4.52-6.38,3.79-11.68-.72-5.29-8.9-3.66-10.84,12.69,0,0-13.67-3.93-11.3,8.38-2.9,10.06-7.59,16.16-7.59,16.16Z"/>
        <path class="cls-2" d="M29.94,201.5c-6.21-10.98-5.91-16.73-3.48-21.57-2.7,2.2-6.08,7.2-6.75,12.83l-6.12,2.9-10.05,23.85s2.14,14.9,17.79,14.21c15.65-.69,16.08-19,8.61-32.21Z"/>
        <path class="cls-20" d="M.67,217.7c3.48,6.77,7.63,3.08,12.37,4.86,3.68,1.38,5.59,4.85,11.89,2.42,6-2.31-30.19-18.82-24.26-7.28Z"/>
        <path class="cls-20" d="M.61,207.46c5.46,11.82,7.27,3.6,11.3,6.16,8.23,5.23,19.51,20.16,17.84,9.02-1.67-11.13-34.6-27.01-29.15-15.18Z"/>
        <path class="cls-20" d="M3.03,198.96c-4.74,7.11,8.59,2.73,13.15,6.97,5.18,4.83,13.23,13.33,13.09,7.77-.35-13.36-21.49-21.85-26.23-14.75Z"/>
        <path class="cls-20" d="M7.74,195.57c2.84,8.07,7.57-1.2,12.12,3.05,5.18,4.83,10.19,12.18,9.64,6.65-1.74-17.73-24.94-18.72-21.76-9.69Z"/>
      </g>
      <path class="cls-23" d="M189.1,159.83c-6.57,30.49-55.65,71.35-32.83,77,22.82,5.66,52.83-38.66,52.83-38.66l-20.01-38.34Z"/>
      <path class="cls-21" d="M192.36,218.49c9.78-10.03,16.74-20.32,16.74-20.32l-20.01-38.34c-1.09,5.06-3.35,10.4-6.26,15.82-3.41,6.36,3.02,49.51,9.52,42.84Z"/>
      <path class="cls-5" d="M244.43,251.42c-42.83,0-32.19-76.81-70.76-97.3l6.06-31.02s63.91-54.28,83.75-16.06c19.83,38.22,65.76,64,50.69,114.66-5.65,18.99-37.13,29.73-69.74,29.73Z"/>
      <path class="cls-23" d="M201.6,251.29c9.69,18.23,94.91-80.97,58.57-116.28-47.78-46.43-33.21,10.35-43.88,42.73-10.21,31-19.43,64.63-14.69,73.55Z"/>
      <path class="cls-16" d="M253.14,134.14l-8.19,46.47s13.27-33.44,8.19-46.47Z"/>
      <path class="cls-16" d="M255.88,134.35l1.53,33.48s5.81-15.76-1.53-33.48Z"/>
      <path class="cls-16" d="M251.58,132.19l-10.47,38.21s1.55-25.54,10.47-38.21Z"/>
      <path class="cls-16" d="M144.46,225.24l5.61,12.19s-6.29-4.74-5.61-12.19Z"/>
      <path class="cls-16" d="M146.26,225.01s6.74,9.03,12.58,8.13c5.84-.9-12.58-8.13-12.58-8.13Z"/>
      <path class="cls-16" d="M201.45,249.1l11.81,6.29s-7.86.05-11.81-6.29Z"/>
      <path class="cls-16" d="M204.02,246.29s10.8,3.09,14.91-1.18c4.11-4.27-14.91,1.18-14.91,1.18Z"/>
      <polygon class="cls-8" points="182.36 151.89 176.62 193.15 192.36 191.65 185.55 155.1 211.49 170.49 214.26 149.33 182.36 151.89"/>
      <g>
        <path class="cls-6" d="M141.08,62.63L193.2,2.76s12.59-9.33,16.56,6.33c-6.63,16.99-1.47,62.41-1.47,62.41l-67.22-8.86Z"/>
        <path class="cls-8" d="M153.2,139.44c-35.7-5.45-47.38-59.82-47.38-59.82,0,0,46.11-54.3,125.62-26.32,0,0-8.08,96.85-78.24,86.14Z"/>
        <path class="cls-20" d="M164.22,68.91c31.96-.38,41.28,36.86,38.14,67.48-3.93,38.27-30.11,56.34-42.08,54.07-6.39-1.21-15.83-11.22-1.47-21,5.04-3.43-21.83-45.09-17.71-53.85-12.15-19.13-7.74-46.33,23.11-46.7Z"/>
        <g>
          <path class="cls-2" d="M170.66,105.22c-2.76,2.6-4.41,24.87,4.58,18.46,11.08-7.91-.24-22.54-4.58-18.46Z"/>
          <path class="cls-18" d="M171.37,107.14c-3.87,4.62-1.35,15.07,3.69,12.2,5.04-2.87,1.5-18.39-3.69-12.2Z"/>
          <path d="M174.66,113.9c.2,2.01-.93,3.76-2.52,3.92-1.59.16-3.04-1.34-3.24-3.35-.2-2.01.93-3.77,2.52-3.92,1.59-.16,3.04,1.34,3.24,3.35Z"/>
          <path class="cls-11" d="M174.66,112.18c.06.65-.41,1.22-1.05,1.29-.64.06-1.22-.41-1.28-1.05-.06-.65.41-1.22,1.05-1.29.64-.06,1.22.41,1.28,1.05Z"/>
          <path class="cls-2" d="M169.19,110.12l8.28-.55s-1.76-5.35-4.75-4c-2.99,1.35-3.53,4.54-3.53,4.54Z"/>
          <path class="cls-9" d="M166.89,111.94s4.39-8.16,15.69-1.58c-9.81-1.5-15.69,1.58-15.69,1.58Z"/>
        </g>
        <path class="cls-2" d="M160.28,134.58c1.93,6.22-.46,14.9-3.24,11.64-2.78-3.26.93-19.1,3.24-11.64Z"/>
        <g>
          <path class="cls-13" d="M180.58,141.05c5.1-21.89-25.94,17.23-25.94,17.23,0,0,12.05,24.22,25.94-17.23Z"/>
          <path class="cls-7" d="M174.58,155.4c-11.19,20.47-19.94,2.89-19.94,2.89,0,0,2.2-2.77,5.32-6.42,5.73-2.67,10.75-.19,14.62,3.53Z"/>
          <path class="cls-11" d="M162.19,149.3s3.12,6.58,2.74,9.14c-.22,1.51-1.62,2.4-2.73,2.88-1.62-2.37-3.6-7.86-3.6-7.86,1.06-1.26,2.28-2.68,3.59-4.16Z"/>
        </g>
        <path class="cls-2" d="M159.92,187.25c4.85-.84,15.54-12.97,5.83-17.01-9.92-4.13-11.52,17.99-5.83,17.01Z"/>
        <path class="cls-9" d="M137.92,103.5s8.68-5.27,19.72,2.07c-9.02-1.98-19.72-2.07-19.72-2.07Z"/>
        <path class="cls-9" d="M180.32,93.07s-10.13-.4-16.27,11.39c6.95-6.11,16.27-11.39,16.27-11.39Z"/>
        <path class="cls-22" d="M132.63,104.36s11.39-10.34,20.57-30.65c3.31,20.68,52.16,29.91,52.16,29.91,0,0-8.82-60.93-51.42-36.93-31.96,4.43-21.3,37.67-21.3,37.67Z"/>
        <path class="cls-2" d="M198.09,99.89c13.75,13.89,4.8,32.92-.27,33.71-5.07.78-2.74-12.33-2.74-12.33,0,0-10.73-35.27,3.02-21.38Z"/>
        <g>
          <path class="cls-2" d="M181.32,112.55l7.02-3.76s-3.73,4.42-7.02,3.76Z"/>
          <path class="cls-2" d="M180.42,113.55l6.58,1.32s-3.39,1.6-6.58-1.32Z"/>
        </g>
        <g>
          <path class="cls-2" d="M144.58,116.03l-4.58-3.92s1.29,4.58,4.58,3.92Z"/>
          <path class="cls-2" d="M144.55,116.85l-3.29.47s.64,1.84,3.29-.47Z"/>
        </g>
        <g>
          <path class="cls-2" d="M146.72,108.15c-2.6,2.76-2.89,25.09,5.69,18.14,10.58-8.57-1.61-22.49-5.69-18.14Z"/>
          <path class="cls-18" d="M147.54,110.02c-3.59,4.85-.43,15.13,4.42,11.95,4.85-3.18.38-18.45-4.42-11.95Z"/>
          <path d="M151.25,116.57c.32,1.99-.7,3.82-2.28,4.07-1.58.26-3.12-1.15-3.44-3.14-.32-1.99.7-3.82,2.28-4.07,1.58-.26,3.12,1.15,3.44,3.14Z"/>
          <path class="cls-11" d="M151.13,114.86c.1.64-.33,1.25-.97,1.35-.64.1-1.24-.33-1.34-.97-.1-.64.33-1.25.97-1.35.64-.1,1.24.33,1.34.97Z"/>
          <path class="cls-2" d="M145.55,113.14l8.23-1.05s-2.08-5.23-4.99-3.7c-2.9,1.53-3.24,4.75-3.24,4.75Z"/>
          <path class="cls-9" d="M143.22,115.52s4.04-8.84,15.72-2.96c-9.88-.9-15.72,2.96-15.72,2.96Z"/>
        </g>
        <path class="cls-2" d="M165.72,118.6c1.56-6.71-6.11-.63-14.36,3.26-8.94,4.21-16.68,3.26-17.61,12.58-.93,9.32,4.17,27.48,14.36,27.95,6.39.29,3.11-13.8,6.02-26.08,1.73-7.31,10.37-12.49,11.58-17.7Z"/>
        <path class="cls-9" d="M204.41,100.37c-31.6,0-50.84-31.8-51.03-32.12l.5-.3c.19.32,19.26,31.83,50.52,31.83v.59Z"/>
        <path class="cls-9" d="M130.82,102.6l-.13-.57c21.28-4.94,20.98-31.69,20.98-31.96l-.02-.82.53.63c.24.28,24.25,28.19,53.6,25.42l.05.58c-27.29,2.56-49.96-21.05-53.59-25.06-.13,4.48-1.74,27.22-21.42,31.78Z"/>
        <path class="cls-9" d="M201.06,87.27c-5.73-15.63-39.02-17.74-39.36-17.76l.03-.59c.08,0,8.57.52,17.67,2.99,8.43,2.29,19.13,6.78,22.2,15.15l-.55.2Z"/>
        <path class="cls-9" d="M134.93,96.73c-1.67-19.87,18.35-31.85,18.56-31.97l.29.51c-.2.12-19.91,11.92-18.27,31.42l-.58.05Z"/>
        <path class="cls-9" d="M130.48,107.19c-3.53-8.95-3.85-16.84-.96-23.42,3.91-8.91,12.48-12.27,12.56-12.3l.21.55c-.08.03-8.43,3.31-12.24,11.99-2.82,6.44-2.5,14.16.97,22.96l-.54.22Z"/>
      </g>
    </g>
  </g>
</svg>