<?xml version="1.0" encoding="UTF-8"?>
<svg id="Layer_2" data-name="Layer 2" xmlns="http://www.w3.org/2000/svg" viewBox="0 0 967.9 524.92">
  <defs>
    <style>
      .cls-1 {
        fill: #f6921e;
      }

      .cls-2 {
        fill: #fff;
        opacity: .2;
      }

      .cls-3 {
        fill: #f6e0d4;
      }

      .cls-4 {
        fill: #d32028;
      }

      .cls-5 {
        fill: #d6de23;
      }

      .cls-6 {
        fill: #f05a28;
      }

      .cls-7 {
        fill: #8bc53f;
      }

      .cls-8 {
        fill: #ec1c24;
      }

      .cls-9 {
        fill: #ffdd15;
        opacity: .3;
      }
    </style>
  </defs>
  <g id="Snoep">
    <g>
      <path class="cls-1" d="M623.95,114.02c-.59,1.99-2.67,3.12-4.66,2.53h0c-1.99-.59-3.12-2.67-2.53-4.66l19.16-64.74c.59-1.99,2.68-3.12,4.66-2.53h0c1.98.59,3.11,2.68,2.53,4.66l-19.16,64.74Z"/>
      <g>
        <path class="cls-5" d="M653.35,1.46c18.62,5.51,29.24,25.07,23.74,43.69-5.51,18.62-25.07,29.25-43.69,23.74-18.62-5.51-29.25-25.07-23.73-43.69,5.51-18.62,25.07-29.25,43.69-23.74Z"/>
        <path class="cls-6" d="M665.34,15.98c-3.05,6.31-21.96,19.19-21.96,19.19,0,0,6.53-12.58,7.08-21.7.17-2.93-1.51-8.34-3.35-13.27,2.08.23,4.18.64,6.26,1.25,5.32,1.57,9.98,4.29,13.8,7.81-.32,2.44-.89,4.8-1.82,6.72Z"/>
        <path class="cls-6" d="M672.47,37.13c-6.62,2.3-29.1-1.96-29.1-1.96,0,0,13.52-4.28,20.35-10.34,2.19-1.94,4.83-6.96,7.01-11.75,4.67,5.79,7.45,13.01,7.78,20.58-1.96,1.5-4.02,2.77-6.04,3.47Z"/>
        <path class="cls-6" d="M662.56,57.13c-6.31-3.05-19.19-21.97-19.19-21.97,0,0,12.59,6.53,21.7,7.08,2.93.17,8.34-1.51,13.27-3.35-.23,2.08-.64,4.18-1.25,6.25-1.57,5.32-4.29,9.98-7.81,13.8-2.44-.32-4.8-.89-6.71-1.82Z"/>
        <path class="cls-6" d="M641.41,64.27c-2.3-6.62,1.96-29.1,1.96-29.1,0,0,4.29,13.52,10.34,20.35,1.95,2.19,6.97,4.83,11.75,7.01-5.8,4.67-13.01,7.46-20.59,7.78-1.5-1.96-2.76-4.02-3.47-6.04Z"/>
        <path class="cls-6" d="M621.41,54.36c3.05-6.31,21.96-19.19,21.96-19.19,0,0-6.53,12.59-7.07,21.7-.18,2.93,1.51,8.34,3.35,13.26-2.08-.22-4.18-.63-6.26-1.25-5.32-1.57-9.98-4.29-13.8-7.81.33-2.44.89-4.8,1.82-6.72Z"/>
        <path class="cls-6" d="M608.24,36.67c1.96-1.5,4.02-2.77,6.03-3.46,6.62-2.31,29.1,1.96,29.1,1.96,0,0-13.52,4.29-20.34,10.34-2.19,1.95-4.83,6.96-7.01,11.75-4.67-5.79-7.45-13.01-7.78-20.58Z"/>
        <path class="cls-6" d="M617.47,11.39c2.44.33,4.8.89,6.71,1.82,6.31,3.05,19.19,21.96,19.19,21.96,0,0-12.59-6.53-21.7-7.07-2.93-.18-8.34,1.51-13.26,3.35.22-2.08.63-4.18,1.25-6.26,1.57-5.32,4.29-9.98,7.81-13.8Z"/>
        <path class="cls-6" d="M645.33,6.07c2.31,6.62-1.96,29.1-1.96,29.1,0,0-4.29-13.51-10.34-20.34-1.95-2.2-6.97-4.83-11.75-7.01,5.79-4.67,13.01-7.46,20.59-7.78,1.5,1.95,2.76,4.02,3.46,6.04Z"/>
        <path class="cls-2" d="M666.78,42.8c4.94-16.72-3.39-33.92-18.62-38.43-.42-.13-.85-.24-1.28-.34,2.84-.11,5.72.23,8.56,1.07,15.23,4.51,23.56,21.71,18.61,38.43-4.81,16.25-20.4,26.05-35.25,22.45,12.37-.5,23.94-9.58,27.97-23.18Z"/>
      </g>
    </g>
    <g>
      <path class="cls-1" d="M202.6,346.26c-.59,1.99-2.67,3.12-4.66,2.53h0c-1.99-.59-3.12-2.67-2.53-4.66l19.16-64.74c.59-1.99,2.68-3.12,4.66-2.53h0c1.98.59,3.11,2.68,2.53,4.66l-19.16,64.74Z"/>
      <g>
        <path class="cls-5" d="M232,233.7c18.62,5.51,29.24,25.07,23.74,43.69-5.51,18.62-25.07,29.25-43.69,23.74-18.62-5.51-29.25-25.07-23.73-43.69,5.51-18.62,25.07-29.25,43.69-23.74Z"/>
        <path class="cls-6" d="M243.98,248.22c-3.05,6.31-21.96,19.19-21.96,19.19,0,0,6.53-12.58,7.08-21.7.17-2.93-1.51-8.34-3.35-13.27,2.08.23,4.18.64,6.26,1.25,5.32,1.57,9.98,4.29,13.8,7.81-.32,2.44-.89,4.8-1.82,6.72Z"/>
        <path class="cls-6" d="M251.12,269.37c-6.62,2.3-29.1-1.96-29.1-1.96,0,0,13.52-4.28,20.35-10.34,2.19-1.94,4.83-6.96,7.01-11.75,4.67,5.79,7.45,13.01,7.78,20.58-1.96,1.5-4.02,2.77-6.04,3.47Z"/>
        <path class="cls-6" d="M241.21,289.37c-6.31-3.05-19.19-21.97-19.19-21.97,0,0,12.59,6.53,21.7,7.08,2.93.17,8.34-1.51,13.27-3.35-.23,2.08-.64,4.18-1.25,6.25-1.57,5.32-4.29,9.98-7.81,13.8-2.44-.32-4.8-.89-6.71-1.82Z"/>
        <path class="cls-6" d="M220.06,296.51c-2.3-6.62,1.96-29.1,1.96-29.1,0,0,4.29,13.52,10.34,20.35,1.95,2.19,6.97,4.83,11.75,7.01-5.8,4.67-13.01,7.46-20.59,7.78-1.5-1.96-2.76-4.02-3.47-6.04Z"/>
        <path class="cls-6" d="M200.06,286.6c3.05-6.31,21.96-19.19,21.96-19.19,0,0-6.53,12.59-7.07,21.7-.18,2.93,1.51,8.34,3.35,13.26-2.08-.22-4.18-.63-6.26-1.25-5.32-1.57-9.98-4.29-13.8-7.81.33-2.44.89-4.8,1.82-6.72Z"/>
        <path class="cls-6" d="M186.88,268.91c1.96-1.5,4.02-2.77,6.03-3.46,6.62-2.31,29.1,1.96,29.1,1.96,0,0-13.52,4.29-20.34,10.34-2.19,1.95-4.83,6.96-7.01,11.75-4.67-5.79-7.45-13.01-7.78-20.58Z"/>
        <path class="cls-6" d="M196.11,243.63c2.44.33,4.8.89,6.71,1.82,6.31,3.05,19.19,21.96,19.19,21.96,0,0-12.59-6.53-21.7-7.07-2.93-.18-8.34,1.51-13.26,3.35.22-2.08.63-4.18,1.25-6.26,1.57-5.32,4.29-9.98,7.81-13.8Z"/>
        <path class="cls-6" d="M223.98,238.31c2.31,6.62-1.96,29.1-1.96,29.1,0,0-4.29-13.51-10.34-20.34-1.95-2.2-6.97-4.83-11.75-7.01,5.79-4.67,13.01-7.46,20.59-7.78,1.5,1.95,2.76,4.02,3.46,6.04Z"/>
        <path class="cls-2" d="M245.43,275.04c4.94-16.72-3.39-33.92-18.62-38.43-.42-.13-.85-.24-1.28-.34,2.84-.11,5.72.23,8.56,1.07,15.23,4.51,23.56,21.71,18.61,38.43-4.81,16.25-20.4,26.05-35.25,22.45,12.37-.5,23.94-9.58,27.97-23.18Z"/>
      </g>
    </g>
    <g>
      <path class="cls-1" d="M792.15,284.67c.49,2.01-.75,4.04-2.76,4.52h0c-2.01.49-4.04-.75-4.53-2.76l-15.89-65.62c-.49-2.01.75-4.04,2.76-4.53h0c2.01-.49,4.04.75,4.52,2.76l15.89,65.62Z"/>
      <g>
        <path class="cls-5" d="M761.14,172.54c18.87-4.57,37.88,7.03,42.45,25.9,4.57,18.87-7.02,37.88-25.9,42.45-18.87,4.57-37.88-7.02-42.44-25.9-4.57-18.87,7.02-37.88,25.89-42.45Z"/>
        <path class="cls-6" d="M778.79,179.1c.53,6.99-9.38,27.62-9.38,27.62,0,0-.66-14.16-4.76-22.32-1.32-2.62-5.49-6.46-9.56-9.8,1.92-.85,3.93-1.54,6.04-2.05,5.39-1.31,10.79-1.29,15.86-.17.94,2.28,1.64,4.59,1.8,6.72Z"/>
        <path class="cls-6" d="M795.57,193.82c-4.57,5.31-26.16,12.89-26.16,12.89,0,0,9.55-10.49,12.42-19.15.92-2.78.68-8.45.17-13.68,6.95,2.67,12.97,7.52,17.05,13.91-.94,2.28-2.09,4.41-3.48,6.03Z"/>
        <path class="cls-6" d="M797.03,216.09c-6.99.52-27.62-9.38-27.62-9.38,0,0,14.16-.66,22.32-4.76,2.62-1.32,6.46-5.49,9.8-9.55.85,1.92,1.54,3.93,2.05,6.04,1.3,5.39,1.29,10.79.17,15.86-2.27.94-4.59,1.64-6.72,1.79Z"/>
        <path class="cls-6" d="M782.31,232.87c-5.31-4.57-12.9-26.16-12.9-26.16,0,0,10.49,9.54,19.15,12.42,2.78.92,8.45.68,13.68.17-2.67,6.95-7.52,12.98-13.91,17.06-2.28-.94-4.41-2.09-6.03-3.48Z"/>
        <path class="cls-6" d="M760.04,234.33c-.53-6.99,9.38-27.62,9.38-27.62,0,0,.67,14.16,4.77,22.32,1.31,2.62,5.49,6.46,9.55,9.79-1.91.85-3.93,1.55-6.04,2.06-5.39,1.3-10.79,1.29-15.86.17-.94-2.28-1.64-4.6-1.8-6.72Z"/>
        <path class="cls-6" d="M739.77,225.64c.94-2.28,2.09-4.41,3.48-6.02,4.57-5.31,26.16-12.9,26.16-12.9,0,0-9.54,10.49-12.41,19.15-.92,2.78-.69,8.45-.18,13.68-6.95-2.67-12.97-7.51-17.05-13.91Z"/>
        <path class="cls-6" d="M735.08,199.13c2.27-.94,4.6-1.63,6.72-1.8,6.99-.52,27.62,9.38,27.62,9.38,0,0-14.16.67-22.32,4.76-2.62,1.32-6.46,5.49-9.79,9.55-.85-1.91-1.55-3.93-2.05-6.04-1.31-5.39-1.29-10.79-.17-15.86Z"/>
        <path class="cls-6" d="M756.52,180.56c5.31,4.57,12.9,26.16,12.9,26.16,0,0-10.49-9.54-19.15-12.41-2.79-.92-8.45-.68-13.68-.17,2.67-6.95,7.52-12.98,13.91-17.06,2.27.94,4.41,2.09,6.02,3.48Z"/>
        <path class="cls-2" d="M793.49,201.57c-4.11-16.94-19.94-27.65-35.38-23.91-.43.1-.86.22-1.28.34,2.4-1.52,5.06-2.67,7.94-3.37,15.43-3.74,31.27,6.97,35.38,23.91,3.99,16.47-4.58,32.77-19.24,37.1,10.46-6.63,15.91-20.3,12.57-34.08Z"/>
      </g>
    </g>
    <g>
      <path class="cls-1" d="M959.48,521.78c.33,1.36-.51,2.73-1.87,3.06h0c-1.36.33-2.74-.51-3.07-1.87l-10.77-44.45c-.33-1.37.51-2.74,1.87-3.07h0c1.36-.33,2.73.51,3.06,1.87l10.77,44.46Z"/>
      <g>
        <path class="cls-5" d="M938.47,445.82c12.79-3.1,25.66,4.76,28.76,17.54,3.1,12.79-4.76,25.66-17.54,28.76-12.78,3.09-25.66-4.76-28.76-17.55-3.1-12.79,4.75-25.66,17.54-28.76Z"/>
        <path class="cls-6" d="M950.43,450.26c.36,4.73-6.36,18.71-6.36,18.71,0,0-.45-9.59-3.22-15.12-.89-1.77-3.72-4.38-6.47-6.64,1.3-.58,2.66-1.05,4.09-1.39,3.65-.88,7.31-.87,10.74-.11.64,1.54,1.11,3.11,1.22,4.55Z"/>
        <path class="cls-6" d="M961.8,460.23c-3.1,3.6-17.72,8.74-17.72,8.74,0,0,6.47-7.1,8.41-12.97.63-1.89.46-5.72.12-9.27,4.71,1.81,8.79,5.09,11.55,9.42-.64,1.54-1.42,2.99-2.36,4.08Z"/>
        <path class="cls-6" d="M962.79,475.32c-4.73.36-18.71-6.35-18.71-6.35,0,0,9.6-.45,15.12-3.23,1.78-.89,4.38-3.72,6.64-6.47.58,1.3,1.04,2.66,1.39,4.09.88,3.65.87,7.31.11,10.75-1.54.64-3.11,1.11-4.55,1.22Z"/>
        <path class="cls-6" d="M952.82,486.69c-3.6-3.1-8.74-17.72-8.74-17.72,0,0,7.11,6.46,12.97,8.41,1.89.62,5.72.46,9.27.12-1.81,4.71-5.09,8.79-9.42,11.56-1.54-.64-2.99-1.42-4.08-2.36Z"/>
        <path class="cls-6" d="M937.73,487.68c-.36-4.73,6.35-18.71,6.35-18.71,0,0,.45,9.6,3.23,15.12.89,1.77,3.72,4.38,6.47,6.63-1.3.58-2.66,1.05-4.09,1.39-3.65.88-7.31.87-10.74.11-.64-1.54-1.11-3.11-1.22-4.55Z"/>
        <path class="cls-6" d="M924,481.79c.64-1.54,1.42-2.99,2.36-4.08,3.1-3.6,17.72-8.74,17.72-8.74,0,0-6.47,7.1-8.41,12.98-.62,1.89-.46,5.72-.12,9.27-4.71-1.81-8.79-5.09-11.55-9.42Z"/>
        <path class="cls-6" d="M920.82,463.83c1.54-.64,3.11-1.11,4.55-1.22,4.74-.35,18.71,6.35,18.71,6.35,0,0-9.6.45-15.12,3.23-1.78.89-4.38,3.72-6.64,6.47-.58-1.3-1.05-2.66-1.39-4.09-.89-3.65-.88-7.31-.11-10.74Z"/>
        <path class="cls-6" d="M935.34,451.24c3.6,3.1,8.74,17.72,8.74,17.72,0,0-7.1-6.47-12.97-8.41-1.89-.63-5.72-.46-9.27-.12,1.81-4.71,5.09-8.79,9.42-11.56,1.54.64,2.99,1.42,4.08,2.36Z"/>
        <path class="cls-2" d="M960.39,465.48c-2.78-11.48-13.51-18.73-23.97-16.2-.29.07-.58.15-.87.23,1.63-1.03,3.43-1.81,5.38-2.28,10.46-2.53,21.19,4.72,23.97,16.2,2.7,11.16-3.1,22.2-13.03,25.14,7.08-4.5,10.78-13.75,8.52-23.09Z"/>
      </g>
    </g>
    <g>
      <path class="cls-1" d="M74.73,217.74c.89,3.17.27,6.13-1.4,6.59h0c-1.67.47-3.74-1.73-4.63-4.9l-29.03-103.51c-.89-3.17-.26-6.13,1.4-6.59h0c1.66-.47,3.73,1.73,4.62,4.91l29.03,103.51Z"/>
      <g>
        <path class="cls-3" d="M29.37,67.59C7.98,73.59-4.5,95.8,1.51,117.19c6,21.39,28.21,33.87,49.6,27.87,21.39-6,33.87-28.2,27.87-49.6-5.99-21.39-28.2-33.87-49.6-27.87Z"/>
        <path class="cls-6" d="M20.72,85.72c8.85,6.63,19.52,20.61,19.52,20.61,0,0-7.55-16.58-12.35-25.36-1.64-3-5.83-5.71-10.23-7.94-4.25,2.87-7.85,6.5-10.67,10.66,5.27-.05,11.51.37,13.72,2.03Z"/>
        <path class="cls-7" d="M13.03,98.24c10.98,1.32,27.21,8.09,27.21,8.09,0,0-14.82-10.59-23.37-15.79-2.92-1.78-7.89-2.03-12.82-1.76-2.2,4.52-3.56,9.46-3.94,14.57,4.54-2.68,10.16-5.44,12.92-5.11Z"/>
        <path class="cls-6" d="M40.24,106.33s-18.13-1.75-28.13-1.99c-3.42-.08-7.86,2.19-12,4.89.19,2.64.65,5.31,1.4,7.96.65,2.32,1.5,4.51,2.5,6.6,2.59-4.58,6.08-9.78,8.62-10.87,10.17-4.35,27.61-6.6,27.61-6.6Z"/>
        <path class="cls-7" d="M19.63,125.85c6.63-8.85,20.61-19.52,20.61-19.52,0,0-16.58,7.55-25.36,12.34-3,1.64-5.71,5.83-7.94,10.23,2.87,4.24,6.51,7.85,10.65,10.67-.05-5.27.37-11.51,2.04-13.72Z"/>
        <path class="cls-6" d="M32.15,133.54c1.32-10.98,8.09-27.21,8.09-27.21,0,0-10.58,14.83-15.79,23.37-1.78,2.92-2.03,7.9-1.76,12.82,4.52,2.2,9.46,3.56,14.57,3.94-2.68-4.54-5.44-10.17-5.11-12.91Z"/>
        <path class="cls-7" d="M40.24,106.33s-1.75,18.13-1.99,28.13c-.08,3.43,2.19,7.86,4.89,12,2.64-.2,5.31-.65,7.96-1.4,2.31-.65,4.52-1.5,6.61-2.5-4.58-2.59-9.78-6.08-10.87-8.62-4.35-10.17-6.6-27.61-6.6-27.61Z"/>
        <path class="cls-6" d="M59.76,126.93c-8.85-6.63-19.52-20.61-19.52-20.61,0,0,7.55,16.58,12.34,25.36,1.65,3,5.83,5.71,10.23,7.94,4.25-2.87,7.85-6.51,10.67-10.65-5.26.05-11.51-.37-13.72-2.04Z"/>
        <path class="cls-7" d="M67.45,114.41c-10.98-1.32-27.21-8.09-27.21-8.09,0,0,14.82,10.58,23.37,15.79,2.92,1.78,7.89,2.03,12.82,1.76,2.19-4.52,3.56-9.46,3.94-14.57-4.54,2.68-10.17,5.44-12.91,5.11Z"/>
        <path class="cls-6" d="M40.24,106.33s18.13,1.75,28.13,1.99c3.42.08,7.86-2.2,12-4.89-.2-2.64-.65-5.31-1.4-7.96-.65-2.31-1.49-4.51-2.5-6.61-2.59,4.58-6.08,9.78-8.62,10.87-10.17,4.35-27.61,6.6-27.61,6.6Z"/>
        <path class="cls-7" d="M60.85,86.81c-6.63,8.85-20.61,19.52-20.61,19.52,0,0,16.58-7.55,25.36-12.35,3-1.64,5.71-5.83,7.94-10.22-2.88-4.25-6.51-7.85-10.65-10.67.05,5.26-.37,11.51-2.04,13.72Z"/>
        <path class="cls-6" d="M48.32,79.11c-1.32,10.98-8.08,27.21-8.08,27.21,0,0,10.59-14.82,15.79-23.37,1.78-2.92,2.03-7.9,1.76-12.82-4.52-2.19-9.46-3.56-14.57-3.94,2.68,4.54,5.44,10.16,5.11,12.91Z"/>
        <path class="cls-7" d="M40.24,106.33s1.76-18.13,1.99-28.13c.08-3.42-2.2-7.86-4.89-12-2.65.2-5.31.65-7.97,1.39-2.31.65-4.51,1.5-6.6,2.5,4.59,2.59,9.78,6.08,10.87,8.62,4.35,10.17,6.6,27.61,6.6,27.61Z"/>
        <path class="cls-9" d="M67.9,99.81c-5.46-19.49-22.62-31.72-38.32-27.32-.44.12-.87.26-1.3.4,2.37-1.77,5.05-3.11,7.98-3.93,15.69-4.4,32.85,7.83,38.32,27.32,5.31,18.94-2.38,37.77-17.23,42.86,10.34-7.71,15-23.48,10.55-39.33Z"/>
      </g>
      <g>
        <path class="cls-8" d="M54.13,156.94c7.57,6.53,20.23,17.99,20.23,17.99l4.39-10.74s-14.34-6.01-20.6-11.41c-2.81-2.43-6.86,1.72-4.02,4.16h0Z"/>
        <path class="cls-8" d="M50.48,156.66c.02,3.54-.27,4.97-1.83,8.21-1.85,3.85-9.59,6.95-9.59,6.95l2.27,9.83s8.16-5.47,11.31-9.88c3.13-4.37,3.66-9.97,3.63-15.19-.02-3.74-5.81-3.65-5.79.09h0Z"/>
        <g>
          <path class="cls-8" d="M46.63,146.61c-.58-1.66-22.57-10.72-22.89-1.9-.21,6.11,3.09,18.59,6.29,20.69,8.15,5.33,12.4,4.97,16.32-1.32l4.34-5.52s-4.05-11.95-4.06-11.95Z"/>
          <path class="cls-4" d="M46.02,158.33c-3.23-.05-5.78,1.01-7.93.7-3.67-.54-3.43-2.75-2.94-6.85-1.61.6-4.17,1.98-4.9,2.81-.98,1.13-2.51,4.66-1.28,6.72,5.16,8.7,16.22,1.01,17.05-3.38Z"/>
          <path class="cls-8" d="M55.16,145.75l5.02-7.3s4.58-6.86,4.62-6.92c3.61-5.41,9.99-1.73,12.1,5.91,2.26,8.17,1.89,17.27-4.2,19.43-2.61.94-5.75.56-8.72-.27-.78-.22-6.68-1.98-6.81-2.55l-2.01-8.3Z"/>
          <path class="cls-4" d="M62.24,151.54c1.49-.15,3.74-.49,5.33.32,3.22,1.65.89,3.74-1.28,2.95-1.27-.46-2.89-2.3-4.05-3.27Z"/>
          <path class="cls-8" d="M54.72,142.97s-.04-.03-.07-.05c-2.24-1.65-8.11.48-8.98,2.72-1.89,4.83,2.11,10.45,4.89,14.22,1.3,1.74,7.5-.65,8.67-1.08,3.41-1.27.47-5.16-.82-8.05-.86-1.95-2.15-6.52-3.69-7.75Z"/>
          <path class="cls-4" d="M57.85,156.04c-.07.22-.18.43-.33.58-1.94,2-5.84,2.16-7.81.23-1.46-1.44-2.71-3.04-2.38-5.31.18,1.4,2.16,3.24,3.37,3.8,1.88.86,4.1-.44,5.88-.99,1.2-.38,1.54.81,1.26,1.69Z"/>
          <path class="cls-4" d="M60.34,146.08c.31-2.15,3.01-5.73,5.16-7.01,3.61-2.17,5.49,5.76,2.21,7.5-1.99,1.05-5.26-1.23-7.38-.49Z"/>
        </g>
      </g>
    </g>
    <g>
      <path class="cls-1" d="M721.71,229.97c.89,3.17.27,6.13-1.4,6.59h0c-1.67.47-3.74-1.73-4.63-4.9l-29.03-103.51c-.89-3.17-.26-6.13,1.4-6.59h0c1.66-.47,3.73,1.73,4.62,4.91l29.03,103.51Z"/>
      <g>
        <path class="cls-3" d="M676.35,79.82c-21.39,6-33.87,28.21-27.87,49.6,6,21.39,28.21,33.87,49.6,27.87,21.39-6,33.87-28.2,27.87-49.6-5.99-21.39-28.2-33.87-49.6-27.87Z"/>
        <path class="cls-6" d="M667.7,97.95c8.85,6.63,19.52,20.61,19.52,20.61,0,0-7.55-16.58-12.35-25.36-1.64-3-5.83-5.71-10.23-7.94-4.25,2.87-7.85,6.5-10.67,10.66,5.27-.05,11.51.37,13.72,2.03Z"/>
        <path class="cls-7" d="M660.01,110.47c10.98,1.32,27.21,8.09,27.21,8.09,0,0-14.82-10.59-23.37-15.79-2.92-1.78-7.89-2.03-12.82-1.76-2.2,4.52-3.56,9.46-3.94,14.57,4.54-2.68,10.16-5.44,12.92-5.11Z"/>
        <path class="cls-6" d="M687.22,118.56s-18.13-1.75-28.13-1.99c-3.42-.08-7.86,2.19-12,4.89.19,2.64.65,5.31,1.4,7.96.65,2.32,1.5,4.51,2.5,6.6,2.59-4.58,6.08-9.78,8.62-10.87,10.17-4.35,27.61-6.6,27.61-6.6Z"/>
        <path class="cls-7" d="M666.61,138.08c6.63-8.85,20.61-19.52,20.61-19.52,0,0-16.58,7.55-25.36,12.34-3,1.64-5.71,5.83-7.94,10.23,2.87,4.24,6.51,7.85,10.65,10.67-.05-5.27.37-11.51,2.04-13.72Z"/>
        <path class="cls-6" d="M679.13,145.77c1.32-10.98,8.09-27.21,8.09-27.21,0,0-10.58,14.83-15.79,23.37-1.78,2.92-2.03,7.9-1.76,12.82,4.52,2.2,9.46,3.56,14.57,3.94-2.68-4.54-5.44-10.17-5.11-12.91Z"/>
        <path class="cls-7" d="M687.22,118.56s-1.75,18.13-1.99,28.13c-.08,3.43,2.19,7.86,4.89,12,2.64-.2,5.31-.65,7.96-1.4,2.31-.65,4.52-1.5,6.61-2.5-4.58-2.59-9.78-6.08-10.87-8.62-4.35-10.17-6.6-27.61-6.6-27.61Z"/>
        <path class="cls-6" d="M706.73,139.16c-8.85-6.63-19.52-20.61-19.52-20.61,0,0,7.55,16.58,12.34,25.36,1.65,3,5.83,5.71,10.23,7.94,4.25-2.87,7.85-6.51,10.67-10.65-5.26.05-11.51-.37-13.72-2.04Z"/>
        <path class="cls-7" d="M714.43,126.64c-10.98-1.32-27.21-8.09-27.21-8.09,0,0,14.82,10.58,23.37,15.79,2.92,1.78,7.89,2.03,12.82,1.76,2.19-4.52,3.56-9.46,3.94-14.57-4.54,2.68-10.17,5.44-12.91,5.11Z"/>
        <path class="cls-6" d="M687.22,118.56s18.13,1.75,28.13,1.99c3.42.08,7.86-2.2,12-4.89-.2-2.64-.65-5.31-1.4-7.96-.65-2.31-1.49-4.51-2.5-6.61-2.59,4.58-6.08,9.78-8.62,10.87-10.17,4.35-27.61,6.6-27.61,6.6Z"/>
        <path class="cls-7" d="M707.82,99.04c-6.63,8.85-20.61,19.52-20.61,19.52,0,0,16.58-7.55,25.36-12.35,3-1.64,5.71-5.83,7.94-10.22-2.88-4.25-6.51-7.85-10.65-10.67.05,5.26-.37,11.51-2.04,13.72Z"/>
        <path class="cls-6" d="M695.3,91.34c-1.32,10.98-8.08,27.21-8.08,27.21,0,0,10.59-14.82,15.79-23.37,1.78-2.92,2.03-7.9,1.76-12.82-4.52-2.19-9.46-3.56-14.57-3.94,2.68,4.54,5.44,10.16,5.11,12.91Z"/>
        <path class="cls-7" d="M687.22,118.56s1.76-18.13,1.99-28.13c.08-3.42-2.2-7.86-4.89-12-2.65.2-5.31.65-7.97,1.39-2.31.65-4.51,1.5-6.6,2.5,4.59,2.59,9.78,6.08,10.87,8.62,4.35,10.17,6.6,27.61,6.6,27.61Z"/>
        <path class="cls-9" d="M714.88,112.04c-5.46-19.49-22.62-31.72-38.32-27.32-.44.12-.87.26-1.3.4,2.37-1.77,5.05-3.11,7.98-3.93,15.69-4.4,32.85,7.83,38.32,27.32,5.31,18.94-2.38,37.77-17.23,42.86,10.34-7.71,15-23.48,10.55-39.33Z"/>
      </g>
      <g>
        <path class="cls-8" d="M701.11,169.17c7.57,6.53,20.23,17.99,20.23,17.99l4.39-10.74s-14.34-6.01-20.6-11.41c-2.81-2.43-6.86,1.72-4.02,4.16h0Z"/>
        <path class="cls-8" d="M697.46,168.89c.02,3.54-.27,4.97-1.83,8.21-1.85,3.85-9.59,6.95-9.59,6.95l2.27,9.83s8.16-5.47,11.31-9.88c3.13-4.37,3.66-9.97,3.63-15.19-.02-3.74-5.81-3.65-5.79.09h0Z"/>
        <g>
          <path class="cls-8" d="M693.61,158.84c-.58-1.66-22.57-10.72-22.89-1.9-.21,6.11,3.09,18.59,6.29,20.69,8.15,5.33,12.4,4.97,16.32-1.32l4.34-5.52s-4.05-11.95-4.06-11.95Z"/>
          <path class="cls-4" d="M692.99,170.56c-3.23-.05-5.78,1.01-7.93.7-3.67-.54-3.43-2.75-2.94-6.85-1.61.6-4.17,1.98-4.9,2.81-.98,1.13-2.51,4.66-1.28,6.72,5.16,8.7,16.22,1.01,17.05-3.38Z"/>
          <path class="cls-8" d="M702.13,157.98l5.02-7.3s4.58-6.86,4.62-6.92c3.61-5.41,9.99-1.73,12.1,5.91,2.26,8.17,1.89,17.27-4.2,19.43-2.61.94-5.75.56-8.72-.27-.78-.22-6.68-1.98-6.81-2.55l-2.01-8.3Z"/>
          <path class="cls-4" d="M709.22,163.77c1.49-.15,3.74-.49,5.33.32,3.22,1.65.89,3.74-1.28,2.95-1.27-.46-2.89-2.3-4.05-3.27Z"/>
          <path class="cls-8" d="M701.7,155.2s-.04-.03-.07-.05c-2.24-1.65-8.11.48-8.98,2.72-1.89,4.83,2.11,10.45,4.89,14.22,1.3,1.74,7.5-.65,8.67-1.08,3.41-1.27.47-5.16-.82-8.05-.86-1.95-2.15-6.52-3.69-7.75Z"/>
          <path class="cls-4" d="M704.83,168.27c-.07.22-.18.43-.33.58-1.94,2-5.84,2.16-7.81.23-1.46-1.44-2.71-3.04-2.38-5.31.18,1.4,2.16,3.24,3.37,3.8,1.88.86,4.1-.44,5.88-.99,1.2-.38,1.54.81,1.26,1.69Z"/>
          <path class="cls-4" d="M707.32,158.31c.31-2.15,3.01-5.73,5.16-7.01,3.61-2.17,5.49,5.76,2.21,7.5-1.99,1.05-5.26-1.23-7.38-.49Z"/>
        </g>
      </g>
    </g>
    <g>
      <path class="cls-1" d="M476.1,436.25c-.07,2.55-1.2,4.59-2.53,4.55h0c-1.34-.04-2.37-2.13-2.3-4.68l2.15-83.1c.07-2.55,1.2-4.58,2.54-4.55h0c1.34.04,2.36,2.13,2.3,4.68l-2.15,83.09Z"/>
      <g>
        <path class="cls-3" d="M476.82,314.97c-17.17-.44-31.45,13.12-31.9,30.29-.44,17.17,13.12,31.45,30.29,31.9,17.17.44,31.45-13.12,31.9-30.29.45-17.17-13.11-31.45-30.29-31.9Z"/>
        <path class="cls-6" d="M466.29,326.39c5.03,6.92,9.72,19.68,9.72,19.68,0,0-1.8-13.97-3.34-21.55-.53-2.59-3-5.55-5.75-8.2-3.79,1.16-7.28,3.02-10.31,5.44,3.9,1.16,8.42,2.9,9.68,4.63Z"/>
        <path class="cls-7" d="M457.76,333.89c7.81,3.48,18.26,12.18,18.26,12.18,0,0-8.54-11.2-13.67-16.99-1.75-1.98-5.37-3.3-9.07-4.22-2.65,2.84-4.78,6.18-6.23,9.87,3.97-.94,8.75-1.7,10.71-.83Z"/>
        <path class="cls-6" d="M476.02,346.07s-13-5.43-20.33-7.88c-2.51-.84-6.31-.17-9.98.88-.46,2-.73,4.07-.78,6.2-.05,1.86.08,3.68.34,5.45,2.96-2.79,6.72-5.84,8.85-6.06,8.5-.89,21.9,1.42,21.9,1.42Z"/>
        <path class="cls-7" d="M456.34,355.79c6.92-5.03,19.68-9.72,19.68-9.72,0,0-13.97,1.8-21.55,3.34-2.59.53-5.54,3-8.2,5.75,1.16,3.79,3.02,7.28,5.44,10.31,1.17-3.9,2.9-8.42,4.63-9.67Z"/>
        <path class="cls-6" d="M463.84,364.33c3.48-7.81,12.18-18.26,12.18-18.26,0,0-11.2,8.54-16.99,13.67-1.98,1.75-3.3,5.37-4.22,9.07,2.84,2.66,6.18,4.78,9.87,6.23-.94-3.96-1.7-8.75-.83-10.71Z"/>
        <path class="cls-7" d="M476.02,346.07s-5.43,12.99-7.88,20.33c-.84,2.51-.17,6.31.88,9.98,2,.46,4.07.73,6.2.78,1.86.05,3.68-.08,5.45-.34-2.79-2.96-5.84-6.72-6.06-8.85-.89-8.51,1.42-21.9,1.42-21.9Z"/>
        <path class="cls-6" d="M485.74,365.74c-5.02-6.91-9.72-19.67-9.72-19.67,0,0,1.8,13.97,3.34,21.55.53,2.59,3,5.55,5.75,8.19,3.79-1.16,7.28-3.02,10.31-5.44-3.9-1.16-8.42-2.9-9.67-4.63Z"/>
        <path class="cls-7" d="M494.28,358.25c-7.81-3.48-18.26-12.18-18.26-12.18,0,0,8.54,11.2,13.67,16.99,1.75,1.98,5.37,3.3,9.07,4.22,2.65-2.84,4.78-6.17,6.23-9.86-3.96.94-8.75,1.7-10.7.83Z"/>
        <path class="cls-6" d="M476.02,346.07s12.99,5.43,20.33,7.88c2.51.84,6.31.17,9.98-.88.46-2,.73-4.07.78-6.2.05-1.86-.07-3.67-.34-5.45-2.96,2.8-6.72,5.84-8.85,6.06-8.51.89-21.9-1.42-21.9-1.42Z"/>
        <path class="cls-7" d="M495.69,336.34c-6.92,5.02-19.67,9.72-19.67,9.72,0,0,13.97-1.8,21.55-3.34,2.59-.53,5.55-3,8.2-5.74-1.16-3.8-3.02-7.28-5.44-10.31-1.17,3.9-2.9,8.42-4.63,9.68Z"/>
        <path class="cls-6" d="M488.2,327.81c-3.48,7.81-12.18,18.26-12.18,18.26,0,0,11.2-8.54,16.99-13.67,1.98-1.75,3.3-5.37,4.22-9.07-2.84-2.65-6.18-4.78-9.87-6.23.94,3.96,1.7,8.75.83,10.71Z"/>
        <path class="cls-7" d="M476.02,346.07s5.43-12.99,7.88-20.33c.84-2.51.17-6.31-.88-9.98-2-.46-4.07-.73-6.2-.79-1.85-.05-3.67.08-5.45.34,2.8,2.96,5.84,6.72,6.06,8.85.9,8.51-1.42,21.9-1.42,21.9Z"/>
        <path class="cls-9" d="M497.94,347.56c.41-15.65-9.48-28.59-22.08-28.92-.35-.01-.7,0-1.05,0,2.15-.77,4.44-1.15,6.79-1.09,12.6.33,22.49,13.28,22.08,28.92-.39,15.21-10.37,27.36-22.5,27.74,9.4-3.34,16.43-13.93,16.76-26.65Z"/>
      </g>
      <g>
        <path class="cls-8" d="M474.74,386.63c4.11,6.55,10.84,17.9,10.84,17.9l5.7-6.94s-9.22-7.71-12.62-13.12c-1.52-2.43-5.46-.3-3.92,2.16h0Z"/>
        <path class="cls-8" d="M472.11,385.59c-.79,2.62-1.33,3.61-3.22,5.65-2.24,2.42-8.67,2.95-8.67,2.95l-.56,7.78s7.27-2.19,10.61-4.72c3.31-2.52,4.98-6.53,6.15-10.4.83-2.77-3.46-4.02-4.3-1.26h0Z"/>
        <g>
          <path class="cls-8" d="M471.56,377.29c-.05-1.36-14.23-13.07-16.47-6.62-1.55,4.47-1.95,14.44-.07,16.72,4.81,5.8,8.03,6.5,12.36,2.74l4.46-3.09s-.27-9.75-.27-9.75Z"/>
          <path class="cls-4" d="M468.43,385.81c-2.38-.77-4.5-.57-6.02-1.29-2.59-1.24-1.91-2.81-.61-5.73-1.32.07-3.54.51-4.26.96-.98.61-2.92,2.87-2.48,4.67,1.83,7.6,11.75,4.45,13.36,1.39Z"/>
          <path class="cls-8" d="M478.05,378.6l5.37-4.25s4.95-4.03,4.99-4.06c3.9-3.17,7.77,1,7.6,7.12-.2,6.55-2.54,13.19-7.53,13.4-2.14.1-4.37-.9-6.38-2.19-.53-.34-4.48-2.99-4.45-3.44l.41-6.59Z"/>
          <path class="cls-4" d="M481.97,384.49c1.14.23,2.88.49,3.86,1.45,2,1.95-.19,2.96-1.62,1.89-.84-.63-1.61-2.35-2.24-3.34Z"/>
          <path class="cls-8" d="M478.36,376.44s-.02-.03-.04-.05c-1.28-1.73-6.1-1.49-7.26-.04-2.5,3.13-.82,8.2.37,11.62.56,1.58,5.69,1.23,6.65,1.17,2.81-.16,1.52-3.71,1.23-6.13-.19-1.64-.1-5.31-.96-6.57Z"/>
          <path class="cls-4" d="M477.7,386.81c-.1.15-.23.28-.38.36-1.89,1.03-4.81.27-5.82-1.61-.75-1.4-1.31-2.86-.55-4.47-.19,1.08.86,2.89,1.63,3.58,1.19,1.07,3.13.61,4.57.61.97,0,.96.95.55,1.54Z"/>
          <path class="cls-4" d="M481.8,380.02c.72-1.52,3.53-3.54,5.41-4,3.16-.78,2.74,5.51-.07,6.05-1.71.32-3.6-2.11-5.34-2.05Z"/>
        </g>
      </g>
    </g>
  </g>
</svg>