<?xml version="1.0" encoding="UTF-8"?>
<svg id="Layer_2" data-name="Layer 2" xmlns="http://www.w3.org/2000/svg" viewBox="0 0 90.43 94.89">
  <defs>
    <style>
      .cls-1 {
        fill: #cc792c;
      }

      .cls-2 {
        fill: #bc202e;
      }

      .cls-3 {
        fill: #28a6de;
      }

      .cls-4 {
        fill: #faae41;
      }

      .cls-5 {
        fill: #e82429;
      }

      .cls-6 {
        fill: #8dc440;
      }

      .cls-7 {
        fill: #f9f6ed;
      }

      .cls-8 {
        fill: #f4e9ce;
      }

      .cls-9 {
        fill: #9d4f2f;
      }

      .cls-10 {
        fill: #fbf4e5;
      }

      .cls-11 {
        fill: #b56a37;
      }

      .cls-12 {
        fill: #8b65aa;
      }

      .cls-13 {
        fill: #e8d52a;
      }
    </style>
  </defs>
  <g id="Huisje">
    <g>
      <path class="cls-1" d="M79.13,34.31c-4.18-3.46-8.22-7.11-12.09-10.91-3.93-3.86-7.69-7.89-11.27-12.08-2.02-2.36-3.92-4.72-6.22-6.81-1.12-1.02-2.48-2.55-4.06-2.91-2.11-.49-3.21,1.66-4.6,2.91-2.3,2.09-4.2,4.46-6.22,6.81-1.63,1.91-3.3,3.78-5.01,5.62.01-1.05.18-2.29.19-3.47.03-.02.07-.03.1-.06.23-.16.31-.44.38-.71.34-1.35.58-2.87-.16-4.04-.84-1.33-2.6-1.7-4.17-1.74-.58-.02-1.18,0-1.74.16-1.07.32-1.89,1.17-2.88,1.68-3.15,1.61-7.97.68-9.46,4.81-.4,1.09-.45,2.27-.4,3.43.02.52.11,1.12.56,1.39.51.3,1.18-.03,1.56-.48.12-.15.23-.32.33-.49.1.84.25,1.67.37,2.44.45,3.11,1.06,6.14,2.52,8.96.08.16.17.31.25.46-1.9,1.71-3.84,3.38-5.81,5.01-3.3,2.73-8.59,6.5-8.06,11.43.23,2.1,1.85,4.02,4.07,4.01.47,0,.92-.08,1.35-.22.87.83,1.99,1.45,3.23,1.72.13.03.25.05.38.07.02.25.03.45.03.56,0-.13.01.76.03,1.33.03,1.16.05,2.32.06,3.48,0,.01,0,.02,0,.03.01,1.6.02,3.19.02,4.79,0,1.19,0,2.38-.02,3.57,0,.71-.01,1.42-.02,2.13,0,.72-.01,1.44-.02,2.16-.01,1.2-.03,2.4-.05,3.6-.03,1.82-.06,3.63-.11,5.45-.03,1.22-.07,2.44-.12,3.66h0s0,0,0,0c-.04,1.02-.09,2.03-.14,3.05-.16.05-.26.1-.31.12-1.24.54-1.17,2.11-.99,3.44.12.9.36,1.62.67,2.19-.24.11-.44.27-.52.57-.27.91.7,1.43,1.3,1.61,3.23.98,7.66,1.79,11.02,1.83,2.82.03,5.18-.11,7.94-.55.57-.09,1.05-.26,1.45-.48,2.85.62,7.49,1.03,12.73,1.03,4.72,0,8.95-.33,11.83-.85.32.13.67.23,1.08.3,2.76.44,5.12.58,7.94.55,3.36-.03,7.79-.84,11.02-1.83.6-.18,1.57-.7,1.3-1.61-.09-.3-.29-.46-.52-.57.32-.57.55-1.28.67-2.19.09-.66.11-1.32-.01-1.91h.07c-.09-1.57-.17-3.13-.23-4.7h0s0,0,0,0c-.05-1.22-.09-2.44-.12-3.66-.05-1.82-.09-3.64-.11-5.45-.02-1.2-.03-2.4-.05-3.6,0-.72-.02-1.44-.02-2.16,0-.71-.01-1.42-.02-2.13,0-1.19-.01-2.38-.02-3.57,0-1.6,0-3.19.02-4.79,0-.01,0-.02,0-.03,0-1.16.03-2.32.06-3.48.01-.57.03-1.46.03-1.33,0-.11.01-.31.03-.56.13-.02.25-.04.38-.07,1.24-.27,2.36-.89,3.23-1.72.43.14.88.22,1.35.22,2.22.01,3.85-1.91,4.07-4.01.53-4.93-4.76-8.7-8.06-11.43Z"/>
      <g>
        <path class="cls-8" d="M79.13,34.31c-4.18-3.46-8.22-7.11-12.09-10.91-3.93-3.86-7.69-7.89-11.27-12.08-2.02-2.36-3.92-4.72-6.22-6.81-1.12-1.02-2.48-2.55-4.06-2.91-2.11-.49-3.21,1.66-4.6,2.91-2.3,2.09-4.2,4.46-6.22,6.81-3.58,4.19-7.34,8.22-11.27,12.08-3.87,3.81-7.91,7.45-12.09,10.91-3.3,2.73-8.59,6.5-8.06,11.43.23,2.1,1.85,4.02,4.07,4.01.47,0,.92-.08,1.35-.22.87.83,1.99,1.45,3.23,1.72.13.03.25.05.38.07.02.25.03.45.03.56,0-.13.01.76.03,1.33.03,1.16.05,2.32.06,3.48,0,.01,0,.02,0,.03.01,1.6.02,3.19.02,4.79,0,1.19,0,2.38-.02,3.57,0,.71-.01,1.42-.02,2.13,0,.72-.01,1.44-.02,2.16-.01,1.2-.03,2.4-.05,3.6-.03,1.82-.06,3.63-.11,5.45-.03,1.22-.07,2.44-.12,3.66-.04,1.02-.09,2.05-.14,3.07-.1.03-.2.06-.31.1-1.24.45-1.17,2.11-.99,3.44.12.9.36,1.62.67,2.19-.24.11-.44.27-.52.57-.27.91.7,1.43,1.3,1.61,3.23.98,7.66,1.79,11.02,1.83,2.82.03,5.18-.11,7.94-.55,3.7-.59,3.49-4.23,1.79-6.8-1.2-1.82-3.9-1.91-5.19-.18.29-2.14.35-2.95-.65-4.63-.9-1.5-4.22-2.49-5.34-.36-.26-2.04-1.11-2.98-2.87-2.65-1.76.33-2.44,2.36-2.44,4.7-.09,1.75-.09,2.01-.45,2.36.05-.95.14-2.45.18-3.4.07-1.56.13-3.13.18-4.7.04-1.21.07-2.42.09-3.63.04-1.81.06-3.62.08-5.43.01-1.19.02-2.39.02-3.58,0-1.42,0-2.84,0-4.26,0-.59,0-1.18,0-1.77,0-.59,0-1.18,0-1.79,0-1.58.01-3.18-.02-4.78-.02-.81-.05-1.62-.09-2.43,1.52-.48,2.92-1.36,4.01-2.54.98,1.99,2.49,3.63,5.01,3.52,2.54-.11,4.31-1.7,5.67-3.62.69,1.38,1.79,2.69,3.52,2.54,2.01-.18,2.21-1.1,3.21-2.14-.17,5.14,2.86,5.5,4.25,5.87,2.71.72,6.64-1.28,8.89-3.2.35-.3,2.06-2.21,1.78-2.67.72,1.17,1.52,2.2,3.21,2.15,1.74-.05,2.83-1.15,3.52-2.54,1.36,1.93,3.13,3.51,5.67,3.62,2.52.11,4.03-1.53,5.01-3.52,1.09,1.18,2.49,2.06,4.01,2.54-.04.8-.07,1.61-.09,2.43-.03,1.6-.03,3.21-.02,4.78,0,.6,0,1.2,0,1.79,0,.59,0,1.18,0,1.77,0,1.42,0,2.84,0,4.26,0,1.19.01,2.38.02,3.58.02,1.81.04,3.62.08,5.43.03,1.21.06,2.42.09,3.63.05,1.57.11,3.13.18,4.7.05,1.13.11,2.27.18,3.4h.06c-.15.17-.24.3-.24.36.31-2.03-.62-6.51-2.38-6.83-1.76-.33-3.69.49-3.95,2.53-.45-2.1-3.51-1.55-5.13-.47-1.62,1.08-1.68,2.85-1.39,4.99-1.29-1.73-3.99-1.64-5.19.18-1.7,2.57-1.91,6.21,1.79,6.8,2.76.44,5.12.58,7.94.55,3.36-.03,7.79-.84,11.02-1.83.6-.18,1.57-.7,1.3-1.61-.09-.3-.29-.46-.52-.57.32-.57.55-1.28.67-2.19.1-.71.16-1.32.01-1.91h.04c-.09-1.57-.17-3.13-.23-4.7-.05-1.22-.09-2.44-.12-3.66-.05-1.82-.09-3.64-.11-5.45-.02-1.2-.03-2.4-.05-3.6,0-.72-.02-1.44-.02-2.16,0-.71-.01-1.42-.02-2.13,0-1.19-.01-2.38-.02-3.57,0-1.6,0-3.19.02-4.79,0-.01,0-.02,0-.03,0-1.16.03-2.32.06-3.48.01-.57.03-1.46.03-1.33,0-.11.01-.31.03-.56.13-.02.25-.04.38-.07,1.24-.27,2.36-.89,3.23-1.72.43.14.88.22,1.35.22,2.22.01,3.85-1.91,4.07-4.01.53-4.93-4.76-8.7-8.06-11.43ZM76.77,48.93c-2.53,0-4.79-1.51-5.91-3.75-.51-1.02-2.01-.67-2.31.3-.57,1.84-1.44,4.39-3.86,3.94-2.31-.43-3.53-2.82-4.54-4.68-.5-.92-2.09-.76-2.31.3-.19.94-.9,4.26-2.54,3.17-.5-.33-.76-1.08-1.04-1.58-.32-.57-.68-1.1-1.12-1.59-.63-.7-1.89-.34-2.11.56-.36,1.47-.99,3.46-2.31,4.37-1.67,1.15-6.41,1.04-7.8-.64-.83-1.01-1.23-2.48-1.54-3.73-.22-.89-1.48-1.26-2.11-.56-.44.49-.79,1.02-1.12,1.59-.28.5-.54,1.25-1.04,1.58-1.64,1.09-2.35-2.23-2.54-3.17-.22-1.07-1.81-1.23-2.31-.3-1.01,1.87-2.23,4.26-4.54,4.68-2.42.45-3.29-2.1-3.86-3.94-.3-.97-1.8-1.32-2.31-.3-1.12,2.23-3.38,3.76-5.91,3.75-.81,0-1.86-.33-2.73-.87.54-.57.98-1.23,1.29-1.92.5-1.11.77-2.29,1.09-3.46.14-.51.25-1.09.52-1.55.4-.7.51-.58.96-.05,1.35,1.59,3.45,1.91,4.77.01.65-.93.74-2,.69-3.11-.03-.66-.11-1.32.03-1.97.06-.26.15-.54.26-.78.06-.13.29-.4.47-.63.02.08.04.15.06.2.13.42.32.85.55,1.23.53.86,1.36,1.56,2.38,1.74,2.3.41,3.71-1.77,3.88-3.79.22-2.51-.22-5.48,1.8-7.44.46-.45.97-.81,1.61-.54.56.24.95.64,1.57.78,1.16.26,2.31-.33,3.01-1.24.85-1.1.88-2.48,1.11-3.79.26-1.46.68-2.91,1.3-4.27.23-.51.47-1.33,1.1-1.3.54.02,1.16.49,1.67.64,1.07.32,2.16.18,3.04-.52.48-.38.85-.89,1.13-1.44.28.55.65,1.06,1.13,1.44.88.7,1.97.84,3.04.52.51-.15,1.14-.62,1.67-.64.63-.03.87.8,1.1,1.3.62,1.35,1.04,2.8,1.3,4.27.23,1.31.26,2.69,1.11,3.79.7.91,1.86,1.49,3.01,1.24.62-.14,1.01-.54,1.57-.78.64-.27,1.15.1,1.61.54,2.01,1.96,1.58,4.93,1.8,7.44.18,2.01,1.58,4.2,3.88,3.79,1.01-.18,1.84-.88,2.38-1.74.23-.38.42-.81.55-1.23.02-.05.04-.12.06-.2.18.23.41.5.47.63.11.24.21.52.26.78.14.65.06,1.31.03,1.97-.05,1.1.04,2.18.69,3.11,1.32,1.9,3.42,1.58,4.77-.01.44-.52.56-.65.96.05.27.47.38,1.04.52,1.55.32,1.17.59,2.35,1.09,3.46.31.69.75,1.36,1.29,1.92-.87.54-1.92.86-2.73.87ZM83.46,47.19c-.06.01-.11.02-.17.03.55-1.53.37-3.27-.91-4.81-1.04-1.25-2.82.55-1.79,1.79.56.67.69,1.33.55,1.92-.19-.23-.36-.48-.48-.71-1.15-2.13-.86-5.35-3-6.87-.91-.65-2.03-.71-2.97-.08-.64.43-1.54,2.31-1.96.7-.36-1.36.2-2.8-.24-4.2-.33-1.05-.95-2.06-1.78-2.78-.92-.79-2.33-1.08-3.17,0-.64.83-.32,2.08-1.12,2.82-1.34,1.24-1.37-1.98-1.37-2.62,0-1.34-.13-2.67-.51-3.96-.64-2.19-2.08-4.73-4.58-5.05-.68-.09-1.34.02-1.96.34-.54.28-.89.85-1.44.27-.78-.83-.64-2.9-.9-3.98-.47-1.99-1.34-5.65-3.63-6.29-1.4-.39-2.21.59-3.5.72-1.01.1-1.31-1.14-1.46-1.95-.2-1.06-.69-4.74-2.17-4.33-1.15.32-1.39,3.41-1.56,4.33-.15.81-.45,2.05-1.46,1.95-1.28-.13-2.1-1.11-3.5-.72-2.28.64-3.16,4.3-3.63,6.29-.26,1.08-.12,3.16-.9,3.98-.55.58-.9,0-1.44-.27-.62-.32-1.28-.42-1.96-.34-2.5.32-3.94,2.87-4.58,5.05-.37,1.29-.51,2.62-.51,3.96,0,.64-.03,3.85-1.37,2.62-.8-.74-.47-2-1.12-2.82-.84-1.08-2.25-.8-3.17,0-.84.72-1.45,1.73-1.78,2.78-.44,1.4.11,2.84-.24,4.2-.42,1.61-1.32-.28-1.96-.7-.94-.63-2.06-.57-2.97.08-2.13,1.53-1.85,4.75-3,6.87-.12.23-.29.47-.48.71-.15-.6-.01-1.25.55-1.92,1.03-1.24-.74-3.04-1.79-1.79-1.28,1.54-1.46,3.28-.91,4.81-.06,0-.11-.02-.17-.03-1.46-.39-1.36-2.35-.96-3.44.98-2.66,3.45-4.66,5.56-6.4,2.27-1.88,4.53-3.77,6.74-5.73,5.03-4.48,9.82-9.22,14.35-14.2,2.21-2.44,4.33-4.95,6.45-7.46,1.37-1.62,3.01-4.18,5.21-4.83,2.73-.81,5.46,2.99,7.01,4.83,2.12,2.52,4.24,5.03,6.45,7.46,4.53,4.98,9.32,9.72,14.35,14.2,2.2,1.96,4.46,3.85,6.74,5.73,2.11,1.75,4.58,3.74,5.56,6.4.4,1.09.5,3.05-.96,3.44Z"/>
        <path class="cls-8" d="M36.32,70.26c.2.14.47.22.59.44.18.33-.11.71-.27,1.04-.32.64-.21,1.44.27,1.95.63.68.88.95.58,1.83-.32.94-.7,1.78-.82,2.79-.07.59-.08,1.2.08,1.77.2.67.9.98,1.08,1.53.22.64-.45,1.66-.69,2.22-.3.68-.47,1.41-.18,2.12.24.59.58.68.29,1.43-.18.44-.11.94.12,1.36,2.15-.19,4.74-.3,7.52-.3,3.54,0,6.77.18,9.18.47.15-.35.11-.79.03-1.18-.16-.76-.43-1.5-.79-2.19-.23-.43-.5-.93-.3-1.38.12-.26.38-.44.52-.7.59-1.06-1.22-2.33-.63-3.38.26-.47.88-.62,1.3-.96.89-.73.7-2.13.13-3.11-.49-.84-1.22-1.8-.76-2.66.15-.27.4-.48.59-.73.67-.88.5-2.12.07-3.13-.34-.8-.83-1.59-.74-2.45.05-.42.23-.82.34-1.23.32-1.28-.25-2.73-1.37-3.49-.16-.11-.34-.21-.43-.38-.15-.28,0-.61.08-.92.23-.86-.25-1.78-.96-2.25-.99-.64-2,.17-2.72-.97-.43-.69-.51-1.73-1.34-2.08-.86-.37-1.98-.09-2.73.42-.87.59-1.61.8-2.65.89-.54.05-1.12.2-1.43.65-.16.23-.22.51-.3.78-.25.85-.64,1.62-1.4,2.1-.44.28-.94.43-1.38.69-1.08.62-1.31,1.94-.85,3.03.22.52.52,1.01.68,1.55.38,1.32-.74,1.89-1.08,3-.15.51-.05,1.13.38,1.43Z"/>
        <path class="cls-8" d="M38.35,31.13c.12.32.31.63.36.97.08.64-.35,1.22-.68,1.78-.33.56-.55,1.33-.11,1.81.47.52,1.37.33,1.94.73.65.46.59,1.42.5,2.21-.09.79-.03,1.79.7,2.11,1.25.56,2.44-1.64,3.74-1.2.29.63.16,1.36.16,2.05,0,.69.25,1.5.92,1.71.87.27,1.62-.72,1.85-1.6s.32-1.93,1.08-2.45c1.08-.73,3.06-.03,3.54-1.25.21-.53-.05-1.11-.22-1.65-.17-.54-.16-1.27.34-1.53.32-.17.7-.08,1.05-.13.87-.14,1.35-1.36.8-2.05-.2-.25-.49-.42-.72-.65-.73-.74-.66-1.93-.93-2.93-.36-1.34-1.4-2.42-2.62-3.08-1.22-.66-2.6-.94-3.98-1.09-1.19-.13-2.42-.17-3.57.16-2.01.57-5,3.78-4.14,6.04Z"/>
        <path class="cls-8" d="M11.93,13.58c-.4,1.09-.45,2.27-.4,3.43.02.52.11,1.12.56,1.39.51.3,1.18-.03,1.56-.48.38-.46.59-1.04,1-1.46.41-.43,1.16-.65,1.58-.23.43.85.43,1.85.58,2.8.15.95.55,1.97,1.43,2.35.82.36,1.89-.05,2.26-.87.32-.69.15-1.49.17-2.25.02-.76.39-1.65,1.14-1.74.89-.11,1.72.98,2.53.61-.07-.63-.13-1.3.14-1.87.27-.57,1.01-.98,1.56-.66.33.19.57.61.95.61.75.01.64-1.33,1.3-1.68.51-.26,1.2.21,1.67-.11.23-.16.31-.44.38-.71.34-1.35.58-2.87-.16-4.04-.84-1.33-2.6-1.7-4.17-1.74-.58-.02-1.18,0-1.74.16-1.07.32-1.89,1.17-2.88,1.68-3.15,1.61-7.97.68-9.46,4.81Z"/>
        <path class="cls-8" d="M35.01,73.34c-.21-.26-.5-.44-.81-.57-.68-.3-1.41-.42-2.16-.44.2-.51.33-1.09.38-1.74.19-2.99.19-5.97,0-8.96-.22-3-2.23-4.61-4.21-4.34-1.27.14-2.55.09-3.82-.14-1.98-.43-4.01,1.16-4.23,4.29-.19,3.11-.19,6.21,0,9.32.05.67.18,1.27.38,1.8-.88-.08-1.86.05-2.57.61-1.12.88-1.61,3.34.46,3.23.45-.02.99-.06,1.28.28.19.22.21.53.25.82.01.09.03.19.06.28.7,2.34,3-.79,4.19-.64.09.01.19.04.25.11.36.48.17,1.16.53,1.65.52.7,1.65.99,2.45.68,1.14-.45,1.02-2.28,2.24-2.4.76-.08,1.46,1.09,2.17.42.52-.49.38-1.62,1.42-1.37.31.07.59.24.91.3,1.57.29,1.45-2.43.83-3.2Z"/>
        <path class="cls-8" d="M72.99,73.34c-.21-.26-.5-.44-.81-.57-.68-.3-1.41-.42-2.16-.44.2-.51.33-1.09.38-1.74.19-2.99.19-5.97,0-8.96-.22-3-2.23-4.61-4.21-4.34-1.27.14-2.55.09-3.82-.14-1.98-.43-4.01,1.16-4.23,4.29-.19,3.11-.19,6.21,0,9.32.05.67.18,1.27.38,1.8-.88-.08-1.86.05-2.57.61-1.12.88-1.61,3.34.46,3.23.45-.02.99-.06,1.28.28.19.22.21.53.25.82.01.09.03.19.06.28.7,2.34,3-.79,4.19-.64.09.01.19.04.25.11.36.48.17,1.16.53,1.65.52.7,1.65.99,2.45.68,1.14-.45,1.02-2.28,2.24-2.4.76-.08,1.46,1.09,2.17.42.52-.49.38-1.62,1.42-1.37.31.07.59.24.91.3,1.57.29,1.45-2.43.83-3.2Z"/>
      </g>
      <path class="cls-11" d="M55.16,91.15s0,0,0,0c0-.09,0-.19,0-.29,0,0,0,0,0-.01.01-.3.06-.6.12-.91,0,0,0,0,0,0,.07-.31.16-.62.28-.92,0,0,0,0,0,0-2.57-.35-6.26-.57-10.36-.57-4.79,0-9.02.3-11.55.76.24.69.37,1.4.34,2.06,2.56.43,6.63.7,11.22.7,3.89,0,7.42-.2,9.96-.52h0c0-.1-.01-.19-.02-.29Z"/>
      <g>
        <path class="cls-9" d="M56.8,94.05c-.89-.33-1.37-1.28-1.56-2.19,0,0,0-.02,0-.02-.01-.06-.02-.13-.03-.19,0,0,0,0,0-.01,0-.07-.02-.13-.02-.2-2.54.32-6.07.52-9.96.52-4.58,0-8.65-.28-11.22-.7-.05,1.07-.5,2.02-1.51,2.59,2.85.62,7.49,1.03,12.73,1.03,3.74,0,7.89.15,11.58-.83Z"/>
        <path class="cls-9" d="M45.21,88.43c2.11,0,4.1.06,5.89.16v-11.18c0-2.36-.09-4.74-.05-7.1.08-4.23.52-11.72-5.84-11.72-5.96,0-5.89,6.65-5.89,10.78v15.3c0,.21.04,3.91,0,3.92,1.79-.1,3.79-.16,5.89-.16Z"/>
      </g>
      <g>
        <path class="cls-2" d="M44.96,22.51c.99,0,1.94-.87,1.89-1.89-.05-1.03-.83-1.89-1.89-1.89-.99,0-1.94.87-1.89,1.89.05,1.03.83,1.89,1.89,1.89h0Z"/>
        <path class="cls-2" d="M57.44,32.31c.99,0,1.94-.87,1.89-1.89-.05-1.03-.83-1.89-1.89-1.89-.99,0-1.94.87-1.89,1.89.05,1.03.83,1.89,1.89,1.89h0Z"/>
        <path class="cls-2" d="M31.4,33.65c.99,0,1.94-.87,1.89-1.89-.05-1.03-.83-1.89-1.89-1.89-.99,0-1.94.87-1.89,1.89.05,1.03.83,1.89,1.89,1.89h0Z"/>
        <path class="cls-2" d="M23.91,45.18c.99,0,1.94-.87,1.89-1.89-.05-1.03-.83-1.89-1.89-1.89-.99,0-1.94.87-1.89,1.89.05,1.03.83,1.89,1.89,1.89h0Z"/>
        <path class="cls-2" d="M44.87,48.33c.99,0,1.94-.87,1.89-1.89-.05-1.03-.83-1.89-1.89-1.89-.99,0-1.94.87-1.89,1.89.05,1.03.83,1.89,1.89,1.89h0Z"/>
        <path class="cls-2" d="M65.08,44.88c.99,0,1.94-.87,1.89-1.89-.05-1.03-.83-1.89-1.89-1.89-.99,0-1.94.87-1.89,1.89.05,1.03.83,1.89,1.89,1.89h0Z"/>
        <path class="cls-2" d="M36.78,42.49c.99,0,1.94-.87,1.89-1.89-.05-1.03-.83-1.89-1.89-1.89-.99,0-1.94.87-1.89,1.89.05,1.03.83,1.89,1.89,1.89h0Z"/>
      </g>
      <g>
        <path class="cls-3" d="M22.93,92.53c0,.94.21,1,1.09,1.18.69.14,1.39.23,2.1.23,1.19,0,3.19.11,3.19-1.41,0-1.99-1.43-3.6-3.19-3.6s-3.19,1.61-3.19,3.6Z"/>
        <rect class="cls-3" x="21.65" y="59.35" width="4.24" height="5.93" rx="2.12" ry="2.12"/>
        <path class="cls-3" d="M28.81,59.35h0c1.17,0,2.12.95,2.12,2.12v1.68c0,1.17-.95,2.12-2.12,2.12h0c-1.17,0-2.12-.95-2.12-2.12v-1.68c0-1.17.95-2.12,2.12-2.12Z"/>
        <path class="cls-3" d="M23.77,66.23h0c1.17,0,2.12.95,2.12,2.12v1.68c0,1.17-.95,2.12-2.12,2.12h0c-1.17,0-2.12-.95-2.12-2.12v-1.68c0-1.17.95-2.12,2.12-2.12Z"/>
        <path class="cls-3" d="M28.81,66.23h0c1.17,0,2.12.95,2.12,2.12v1.68c0,1.17-.95,2.12-2.12,2.12h0c-1.17,0-2.12-.95-2.12-2.12v-1.68c0-1.17.95-2.12,2.12-2.12Z"/>
        <path class="cls-3" d="M61.75,59.35h0c1.17,0,2.12.95,2.12,2.12v1.68c0,1.17-.95,2.12-2.12,2.12h0c-1.17,0-2.12-.95-2.12-2.12v-1.68c0-1.17.95-2.12,2.12-2.12Z"/>
        <rect class="cls-3" x="64.67" y="59.35" width="4.24" height="5.93" rx="2.12" ry="2.12"/>
        <path class="cls-3" d="M61.75,66.23h0c1.17,0,2.12.95,2.12,2.12v1.68c0,1.17-.95,2.12-2.12,2.12h0c-1.17,0-2.12-.95-2.12-2.12v-1.68c0-1.17.95-2.12,2.12-2.12Z"/>
        <path class="cls-3" d="M66.8,66.23h0c1.17,0,2.12.95,2.12,2.12v1.68c0,1.17-.95,2.12-2.12,2.12h0c-1.17,0-2.12-.95-2.12-2.12v-1.68c0-1.17.95-2.12,2.12-2.12Z"/>
        <path class="cls-3" d="M47.59,31.06h1.56c.88,0,1.4-.99.9-1.71-.5-.71-1.19-1.29-2.02-1.68-.71-.33-1.53.21-1.53,1v1.3c0,.6.49,1.09,1.09,1.09Z"/>
        <path class="cls-3" d="M44.88,29.97v-1.3c0-.79-.81-1.33-1.53-1-.83.38-1.53.97-2.02,1.68-.5.72.02,1.71.9,1.71h1.56c.6,0,1.09-.49,1.09-1.09Z"/>
        <path class="cls-3" d="M43.79,32.69h-1.56c-.88,0-1.4.99-.9,1.71.5.71,1.19,1.29,2.02,1.68.71.33,1.53-.21,1.53-1v-1.3c0-.6-.49-1.09-1.09-1.09Z"/>
        <path class="cls-3" d="M46.5,33.78v1.3c0,.79.81,1.33,1.53,1,.83-.38,1.53-.97,2.02-1.68.5-.72-.02-1.71-.9-1.71h-1.56c-.6,0-1.09.49-1.09,1.09Z"/>
        <path class="cls-3" d="M26.51,20.63c.63.7.83.61,1.6.15.61-.36,1.19-.76,1.72-1.23.88-.79,2.44-2.05,1.43-3.18-1.33-1.48-3.47-1.72-4.77-.55-1.31,1.18-1.29,3.33.04,4.81Z"/>
        <path class="cls-3" d="M54.7,10.57c-.64.69-.53.88-.01,1.6.41.57.86,1.12,1.37,1.61.86.81,2.25,2.26,3.29,1.15,1.36-1.45,1.42-3.6.14-4.8-1.28-1.2-3.43-1.01-4.79.44Z"/>
      </g>
      <g>
        <path class="cls-4" d="M60.08,88.94c-1.76,0-3.19,1.61-3.19,3.6,0,1.52,2,1.41,3.19,1.41.71,0,1.41-.09,2.1-.23.88-.18,1.09-.24,1.09-1.18,0-1.99-1.43-3.6-3.19-3.6Z"/>
        <path class="cls-4" d="M.29,41.04c-.77,1.58.05,3.57,1.83,4.44,1.37.67,2.15-1.18,2.67-2.24.31-.64.53-1.3.71-1.99.23-.87.26-1.08-.58-1.5-1.79-.87-3.86-.3-4.63,1.28Z"/>
        <path class="cls-4" d="M85.51,39.76c-.85.41-.81.63-.58,1.5.18.68.4,1.35.71,1.99.52,1.07,1.3,2.91,2.67,2.24,1.78-.87,2.61-2.86,1.83-4.44-.77-1.58-2.85-2.16-4.63-1.28Z"/>
        <path class="cls-4" d="M49.05,4.96c-.63.7-.52.89.01,1.6.42.57.87,1.11,1.4,1.58.88.8,2.29,2.22,3.31,1.1,1.34-1.47,1.36-3.62.06-4.81-1.3-1.18-3.44-.95-4.78.52Z"/>
      </g>
      <g>
        <path class="cls-13" d="M21.27,20.41c-1.39,1.08-1.52,3.23-.29,4.8.94,1.2,2.45-.12,3.38-.85.56-.44,1.05-.94,1.51-1.48.58-.68.71-.86.13-1.6-1.23-1.56-3.34-1.95-4.73-.87Z"/>
        <path class="cls-13" d="M64.43,21.28c-.58.74-.45.92.13,1.6.46.54.95,1.04,1.51,1.48.93.73,2.44,2.05,3.38.85,1.22-1.56,1.09-3.71-.29-4.8-1.39-1.08-3.5-.7-4.73.87Z"/>
        <path class="cls-13" d="M73.07,87.5c-1.76,0-3.19,1.61-3.19,3.6,0,1.52,2,1.41,3.19,1.41.71,0,1.41-.09,2.1-.23.88-.18,1.09-.24,1.09-1.18,0-1.99-1.43-3.6-3.19-3.6Z"/>
      </g>
      <g>
        <path class="cls-5" d="M13.38,85.51c.06-.06,1.02.33,1.13.38.19.09,1.16.63,1.38.89.07-1.13.13-2.26.18-3.4,0,0-2.69,2.12-2.69,2.12Z"/>
        <path class="cls-5" d="M12.06,82.08l4.18-3.39c.04-1.21.07-2.42.09-3.63l-4.15,3.37c-.03,1.22-.07,2.44-.12,3.66Z"/>
        <path class="cls-5" d="M12.3,72.97l4.12-3.34c.01-1.19.02-2.39.02-3.58l-4.1,3.32c-.01,1.2-.03,2.4-.05,3.6Z"/>
        <path class="cls-5" d="M12.4,61.52c0,1.19,0,2.38-.02,3.57l4.07-3.29c0-.59,0-1.18,0-1.77,0-.59,0-1.18,0-1.79l-4.05,3.28Z"/>
        <path class="cls-5" d="M78.37,82.08l-4.18-3.39c-.04-1.21-.07-2.42-.09-3.63l4.15,3.37c.03,1.22.07,2.44.12,3.66Z"/>
        <path class="cls-5" d="M78.13,72.97l-4.12-3.34c-.01-1.19-.02-2.39-.02-3.58l4.1,3.32c.01,1.2.03,2.4.05,3.6Z"/>
        <path class="cls-5" d="M78.03,61.52c0,1.19,0,2.38.02,3.57l-4.07-3.29c0-.59,0-1.18,0-1.77,0-.59,0-1.18,0-1.79l4.05,3.28Z"/>
        <path class="cls-5" d="M14.58,51.39l-2.25,1.82c.03,1.16.05,2.32.06,3.48,0,.01,0,.02,0,.03l4.05-3.28c-.02-.81-.05-1.62-.09-2.43-.57.18-1.16.31-1.76.37Z"/>
        <path class="cls-5" d="M74.09,51.02c-.04.8-.07,1.61-.09,2.43l4.05,3.28s0-.02,0-.03c0-1.16.03-2.32.06-3.48l-2.25-1.82c-.6-.06-1.19-.19-1.76-.37Z"/>
        <path class="cls-5" d="M74.61,86.78c.43-.47,1.33-1.23,2.06-1.53l-2.3-1.87c.05,1.13.11,2.27.18,3.4h.06Z"/>
        <path class="cls-5" d="M45.21,0c-1.76,0-3.19,1.61-3.19,3.6,0,1.52,2,1.41,3.19,1.41.71,0,1.41-.09,2.1-.23.88-.18,1.09-.24,1.09-1.18,0-1.99-1.43-3.6-3.19-3.6Z"/>
        <path class="cls-5" d="M66.33,82.98c-1.76,0-3.19,1.61-3.19,3.6,0,1.52,2,1.41,3.19,1.41.71,0,1.41-.09,2.1-.23.88-.18,1.09-.24,1.09-1.18,0-1.99-1.43-3.6-3.19-3.6Z"/>
        <path class="cls-5" d="M16,30.18c.62.71.82.61,1.6.17.61-.35,1.2-.75,1.73-1.21.89-.78,2.46-2.03,1.45-3.17-1.31-1.49-3.45-1.75-4.77-.59-1.32,1.16-1.32,3.32,0,4.81Z"/>
        <path class="cls-5" d="M74.42,25.37c-1.32-1.16-3.45-.9-4.77.59-1.01,1.14.57,2.38,1.45,3.17.53.47,1.12.86,1.73,1.21.77.45.97.54,1.6-.17,1.31-1.49,1.31-3.64,0-4.81Z"/>
        <path class="cls-5" d="M26.1,57.14c.99,0,1.94-.87,1.89-1.89-.05-1.03-.83-1.89-1.89-1.89-.99,0-1.94.87-1.89,1.89.05,1.03.83,1.89,1.89,1.89h0Z"/>
        <path class="cls-5" d="M64.33,57.14c.99,0,1.94-.87,1.89-1.89-.05-1.03-.83-1.89-1.89-1.89-.99,0-1.94.87-1.89,1.89.05,1.03.83,1.89,1.89,1.89h0Z"/>
      </g>
      <g>
        <path class="cls-6" d="M5.01,34.11c-1.33,1.15-1.36,3.3-.06,4.81.99,1.15,2.44-.24,3.34-1.01.54-.46,1-.99,1.44-1.55.55-.71.67-.89.05-1.6-1.3-1.51-3.43-1.79-4.76-.64Z"/>
        <path class="cls-6" d="M30.94,10.12c-1.28,1.2-1.22,3.35.14,4.8,1.04,1.11,2.43-.34,3.29-1.15.52-.48.96-1.03,1.37-1.61.52-.73.63-.92-.01-1.6-1.36-1.45-3.5-1.65-4.79-.44Z"/>
        <path class="cls-6" d="M80.65,34.76c-.61.71-.5.9.05,1.6.43.56.9,1.08,1.44,1.55.9.77,2.34,2.16,3.34,1.01,1.3-1.51,1.27-3.66-.06-4.81-1.33-1.15-3.47-.86-4.76.64Z"/>
        <path class="cls-6" d="M63.96,15.82c-1.31-1.18-3.45-.93-4.77.55-1.02,1.13.54,2.39,1.43,3.18.53.47,1.11.87,1.72,1.23.77.46.97.55,1.6-.15,1.33-1.48,1.34-3.63.04-4.81Z"/>
        <path class="cls-6" d="M14.84,87.78c-1.76,0-3.19,1.61-3.19,3.6,0,1.52,2,1.41,3.19,1.41.71,0,1.41-.09,2.1-.23.88-.18,1.09-.24,1.09-1.18,0-1.99-1.43-3.6-3.19-3.6Z"/>
      </g>
      <g>
        <path class="cls-12" d="M10.67,29.63c-1.41,1.05-1.59,3.2-.4,4.79.91,1.22,2.45-.06,3.4-.77.57-.42,1.07-.92,1.54-1.44.6-.67.73-.84.17-1.6-1.19-1.59-3.3-2.03-4.71-.98Z"/>
        <path class="cls-12" d="M36.6,4.44c-1.3,1.18-1.28,3.33.06,4.81,1.02,1.13,2.43-.3,3.31-1.1.52-.48.98-1.01,1.4-1.58.53-.72.65-.91.01-1.6-1.34-1.47-3.47-1.71-4.78-.52Z"/>
        <path class="cls-12" d="M75.05,30.61c-.56.75-.43.93.17,1.6.47.52.98,1.02,1.54,1.44.95.71,2.49,1.99,3.4.77,1.19-1.59,1.01-3.74-.4-4.79-1.41-1.05-3.52-.62-4.71.98Z"/>
        <path class="cls-12" d="M22.7,82.97c-1.76,0-3.19,1.61-3.19,3.6,0,1.52,2,1.41,3.19,1.41.71,0,1.41-.09,2.1-.23.88-.18,1.09-.24,1.09-1.18,0-1.99-1.43-3.6-3.19-3.6Z"/>
      </g>
      <g>
        <circle class="cls-10" cx="49.03" cy="75.47" r="1.14"/>
        <path class="cls-10" d="M45.7,73.73c.36-.48.71-.91.64-1.58-.07-.71-.57-.9-.83-1.45-.26-.55.46-.86.65-1.41.28-.8-.09-1.52-.6-2.11-.13-.15-.26-.31-.27-.5-.02-.55.67-.99.76-1.54.1-.64-.12-1.18-.4-1.74-.1-.22.5-.88.48-1.27-.02-.52-.38-.9-.89-1-1.71-.35-2.76,1.17-2.18,2.68.09.24.51.68.51.93,0,.29-.41.64-.54.89-.22.42-.32.91-.28,1.38.03.31.15.61.3.89.1.18.48.51.47.7,0,.08-.04.16-.08.23-.21.38-.55.84-.55,1.29-.04.45.04.9.22,1.31.1.24.4.48.43.75.03.31-.26.55-.42.8-.43.68-.43,1.45-.13,2.18.13.31.45.56.54.89.12.45-.24.62-.47.99-.28.46-.42,1.01-.37,1.54.03.3.12.57.24.84.25.55-.09.6-.31,1.1-.26.59-.09,1.21.01,1.82.01.08.03.16.02.25,0,.08-.03.17-.05.25-.1.36-.26.73-.21,1.11.05.45.36,1.12.79,1.33.22.11.13.67.29.92.17.26.47.44.77.52.64.17,1.33-.11,1.49-.79.1-.43.1-.86-.06-1.27-.12-.31-.57-.67-.62-.98-.01-.06.01-.13.03-.19.13-.36.19-.74.18-1.12,0-.28-.22-.66-.1-.93.08-.19.39-.35.51-.55.31-.53.27-1.13.04-1.67-.12-.28-.48-.57-.48-.88.01-.38.53-.77.73-1.07.46-.68.34-1.5-.09-2.17-.3-.46-.66-.7-.29-1.21.04-.05.07-.1.11-.15Z"/>
      </g>
      <g>
        <polygon class="cls-7" points="24.55 92.08 24.28 92.3 24.03 92.47 23.75 92.27 23.5 91.83 23.75 91.3 24.3 91.3 24.55 91.77 24.55 92.08"/>
        <path class="cls-7" d="M24.44,90.75c-.03-.08.17-.69.17-.69l.56-.14.47.48v.29l-.28.43-.31.19s-.58-.47-.61-.56Z"/>
        <polygon class="cls-7" points="26.07 92.5 25.37 92.5 25.3 91.91 25.78 91.58 26.26 92.14 26.07 92.5"/>
        <path class="cls-7" d="M30.48,41.44c.99,0,1.94-.87,1.89-1.89-.05-1.03-.83-1.89-1.89-1.89-.99,0-1.94.87-1.89,1.89.05,1.03.83,1.89,1.89,1.89h0Z"/>
        <path class="cls-7" d="M56.85,41.44c.99,0,1.94-.87,1.89-1.89-.05-1.03-.83-1.89-1.89-1.89-.99,0-1.94.87-1.89,1.89.05,1.03.83,1.89,1.89,1.89h0Z"/>
        <polygon class="cls-7" points="65.19 85.77 64.91 86 64.66 86.16 64.39 85.97 64.14 85.52 64.39 85 64.94 85 65.19 85.47 65.19 85.77"/>
        <path class="cls-7" d="M65.08,84.44c-.03-.08.17-.69.17-.69l.56-.14.47.48v.29l-.28.43-.31.19s-.58-.47-.61-.56Z"/>
        <polygon class="cls-7" points="66.7 86.19 66.01 86.19 65.94 85.61 66.41 85.27 66.9 85.83 66.7 86.19"/>
        <polygon class="cls-7" points="58.61 91.96 58.34 92.18 58.09 92.35 57.81 92.15 57.56 91.71 57.81 91.18 58.37 91.18 58.61 91.65 58.61 91.96"/>
        <path class="cls-7" d="M58.5,90.62c-.03-.08.17-.69.17-.69l.56-.14.47.48v.29l-.28.43-.31.19s-.58-.47-.61-.56Z"/>
        <polygon class="cls-7" points="60.13 92.37 59.43 92.37 59.36 91.79 59.84 91.46 60.32 92.01 60.13 92.37"/>
        <polygon class="cls-7" points="5.93 37.79 5.86 38.14 5.78 38.43 5.44 38.46 4.97 38.29 4.81 37.73 5.23 37.36 5.73 37.56 5.93 37.79"/>
        <path class="cls-7" d="M4.97,36.85c-.08-.04-.33-.63-.33-.63l.33-.47.67.05.19.22.07.51-.1.35s-.75.02-.83-.02Z"/>
        <polygon class="cls-7" points="7.35 37.12 6.82 37.57 6.39 37.17 6.53 36.61 7.26 36.72 7.35 37.12"/>
        <polygon class="cls-7" points="2.36 43.68 2.44 44.03 2.48 44.33 2.18 44.49 1.67 44.52 1.31 44.06 1.55 43.56 2.09 43.55 2.36 43.68"/>
        <path class="cls-7" d="M1.12,43.2c-.09-.01-.55-.45-.55-.45l.12-.56.64-.21.26.13.26.44.04.36s-.68.32-.77.3Z"/>
        <polygon class="cls-7" points="3.4 42.5 3.1 43.13 2.54 42.93 2.45 42.36 3.16 42.17 3.4 42.5"/>
        <polygon class="cls-7" points="11.57 32.76 11.48 33.11 11.38 33.39 11.04 33.4 10.57 33.19 10.46 32.62 10.9 32.29 11.39 32.52 11.57 32.76"/>
        <path class="cls-7" d="M10.68,31.76c-.07-.05-.28-.66-.28-.66l.36-.45.66.1.17.23.03.51-.13.34s-.75-.03-.82-.08Z"/>
        <polygon class="cls-7" points="13.03 32.19 12.47 32.61 12.07 32.18 12.25 31.63 12.97 31.79 13.03 32.19"/>
        <polygon class="cls-7" points="27.41 19.2 27.36 19.55 27.28 19.84 26.94 19.88 26.46 19.72 26.3 19.16 26.71 18.79 27.21 18.97 27.41 19.2"/>
        <path class="cls-7" d="M26.44,18.28c-.08-.04-.34-.63-.34-.63l.32-.48.67.04.19.22.08.51-.1.35s-.75.04-.83,0Z"/>
        <polygon class="cls-7" points="28.82 18.5 28.3 18.96 27.86 18.58 27.99 18.01 28.72 18.1 28.82 18.5"/>
        <polygon class="cls-7" points="32.01 13.76 31.96 14.11 31.89 14.4 31.55 14.45 31.07 14.3 30.89 13.74 31.29 13.36 31.8 13.53 32.01 13.76"/>
        <path class="cls-7" d="M31.02,12.86c-.08-.04-.35-.62-.35-.62l.31-.48.67.02.2.21.09.5-.09.35s-.75.05-.83.01Z"/>
        <polygon class="cls-7" points="33.4 13.02 32.89 13.5 32.44 13.12 32.56 12.55 33.29 12.63 33.4 13.02"/>
        <polygon class="cls-7" points="37.54 7.66 37.49 8.01 37.42 8.3 37.08 8.35 36.6 8.19 36.43 7.63 36.84 7.25 37.34 7.44 37.54 7.66"/>
        <path class="cls-7" d="M36.57,6.75c-.08-.04-.34-.63-.34-.63l.32-.48.67.04.2.22.08.51-.1.35s-.75.04-.83,0Z"/>
        <polygon class="cls-7" points="38.95 6.95 38.43 7.42 37.99 7.03 38.12 6.47 38.85 6.55 38.95 6.95"/>
        <polygon class="cls-7" points="21.91 23.45 21.83 23.8 21.73 24.08 21.39 24.1 20.92 23.9 20.79 23.34 21.23 22.99 21.72 23.21 21.91 23.45"/>
        <path class="cls-7" d="M21,22.47c-.07-.05-.3-.65-.3-.65l.35-.45.67.08.18.23.05.51-.12.34s-.75-.01-.82-.06Z"/>
        <polygon class="cls-7" points="23.36 22.85 22.81 23.27 22.39 22.86 22.56 22.3 23.29 22.44 23.36 22.85"/>
        <polygon class="cls-7" points="16.99 28.23 16.92 28.58 16.85 28.87 16.51 28.91 16.03 28.74 15.87 28.18 16.28 27.81 16.78 28 16.99 28.23"/>
        <path class="cls-7" d="M16.02,27.3c-.08-.04-.33-.63-.33-.63l.32-.47.67.04.19.22.08.51-.1.35s-.75.03-.83-.01Z"/>
        <polygon class="cls-7" points="18.4 27.54 17.88 28 17.44 27.61 17.57 27.05 18.3 27.14 18.4 27.54"/>
        <polygon class="cls-7" points="84.7 37.56 85.2 37.36 85.62 37.73 85.46 38.29 84.98 38.46 84.65 38.43 84.57 38.14 84.5 37.79 84.7 37.56"/>
        <path class="cls-7" d="M84.63,36.87l-.1-.35.07-.51.19-.22.67-.05.33.47s-.25.59-.33.63c-.08.04-.83.02-.83.02Z"/>
        <polygon class="cls-7" points="83.17 36.72 83.9 36.61 84.04 37.17 83.61 37.57 83.08 37.12 83.17 36.72"/>
        <polygon class="cls-7" points="88.34 43.55 88.88 43.56 89.12 44.06 88.76 44.52 88.25 44.49 87.95 44.33 87.99 44.03 88.07 43.68 88.34 43.55"/>
        <path class="cls-7" d="M88.55,42.89l.04-.36.26-.44.26-.13.64.21.12.56s-.46.44-.55.45c-.09.01-.77-.3-.77-.3Z"/>
        <polygon class="cls-7" points="87.27 42.17 87.98 42.36 87.89 42.93 87.33 43.13 87.03 42.5 87.27 42.17"/>
        <polygon class="cls-7" points="79.04 32.52 79.53 32.29 79.97 32.62 79.86 33.19 79.39 33.4 79.05 33.39 78.95 33.11 78.86 32.76 79.04 32.52"/>
        <path class="cls-7" d="M78.93,31.84l-.13-.34.03-.51.17-.23.66-.1.36.45s-.21.61-.28.66c-.07.05-.82.08-.82.08Z"/>
        <polygon class="cls-7" points="77.46 31.79 78.18 31.63 78.36 32.18 77.96 32.61 77.4 32.19 77.46 31.79"/>
        <polygon class="cls-7" points="63.22 18.97 63.72 18.79 64.13 19.16 63.97 19.72 63.48 19.88 63.15 19.84 63.07 19.55 63.02 19.2 63.22 18.97"/>
        <path class="cls-7" d="M63.16,18.29l-.1-.35.08-.51.19-.22.67-.04.32.48s-.26.58-.34.63c-.08.04-.83,0-.83,0Z"/>
        <polygon class="cls-7" points="61.71 18.1 62.44 18.01 62.57 18.58 62.13 18.96 61.61 18.5 61.71 18.1"/>
        <polygon class="cls-7" points="58.63 13.53 59.14 13.36 59.54 13.74 59.36 14.3 58.88 14.45 58.54 14.4 58.47 14.11 58.42 13.76 58.63 13.53"/>
        <path class="cls-7" d="M58.59,12.85l-.09-.35.09-.5.2-.21.67-.02.31.48s-.28.58-.35.62c-.08.04-.83-.01-.83-.01Z"/>
        <polygon class="cls-7" points="57.14 12.63 57.87 12.55 57.99 13.12 57.54 13.5 57.03 13.02 57.14 12.63"/>
        <polygon class="cls-7" points="53.09 7.44 53.59 7.25 54 7.63 53.83 8.19 53.35 8.35 53.01 8.3 52.94 8.01 52.88 7.66 53.09 7.44"/>
        <path class="cls-7" d="M53.04,6.75l-.1-.35.08-.51.2-.22.67-.04.32.48s-.27.58-.34.63c-.08.04-.83,0-.83,0Z"/>
        <polygon class="cls-7" points="51.58 6.55 52.31 6.47 52.44 7.03 52 7.42 51.48 6.95 51.58 6.55"/>
        <polygon class="cls-7" points="68.71 23.21 69.2 22.99 69.64 23.34 69.51 23.9 69.04 24.1 68.7 24.08 68.6 23.8 68.52 23.45 68.71 23.21"/>
        <path class="cls-7" d="M68.61,22.53l-.12-.34.05-.51.18-.23.67-.08.35.45s-.22.6-.3.65c-.07.05-.82.06-.82.06Z"/>
        <polygon class="cls-7" points="67.14 22.44 67.87 22.3 68.03 22.86 67.62 23.27 67.07 22.85 67.14 22.44"/>
        <polygon class="cls-7" points="73.65 28 74.15 27.81 74.56 28.18 74.4 28.74 73.92 28.91 73.58 28.87 73.51 28.58 73.44 28.23 73.65 28"/>
        <path class="cls-7" d="M73.58,27.32l-.1-.35.08-.51.19-.22.67-.04.32.47s-.26.59-.33.63c-.08.04-.83.01-.83.01Z"/>
        <polygon class="cls-7" points="72.13 27.14 72.86 27.05 72.99 27.61 72.55 28 72.03 27.54 72.13 27.14"/>
        <polygon class="cls-7" points="71.7 90.29 71.42 90.51 71.17 90.68 70.89 90.48 70.64 90.04 70.89 89.51 71.45 89.51 71.7 89.98 71.7 90.29"/>
        <path class="cls-7" d="M71.59,88.96c-.03-.08.17-.69.17-.69l.56-.14.47.48v.29l-.28.43-.31.19s-.58-.47-.61-.56Z"/>
        <polygon class="cls-7" points="73.21 90.71 72.52 90.71 72.45 90.12 72.92 89.79 73.4 90.35 73.21 90.71"/>
        <polygon class="cls-7" points="13.14 91.17 12.86 91.39 12.61 91.55 12.33 91.36 12.08 90.92 12.33 90.39 12.89 90.39 13.14 90.86 13.14 91.17"/>
        <path class="cls-7" d="M13.02,89.83c-.03-.08.17-.69.17-.69l.56-.14.47.48v.29l-.28.43-.31.19s-.58-.47-.61-.56Z"/>
        <polygon class="cls-7" points="14.65 91.58 13.96 91.58 13.89 91 14.36 90.67 14.84 91.22 14.65 91.58"/>
        <polygon class="cls-7" points="21.54 86.01 21.26 86.24 21.01 86.4 20.74 86.21 20.49 85.76 20.74 85.24 21.29 85.24 21.54 85.71 21.54 86.01"/>
        <path class="cls-7" d="M21.43,84.68c-.03-.08.17-.69.17-.69l.56-.14.47.48v.29l-.28.43-.31.19s-.58-.47-.61-.56Z"/>
        <polygon class="cls-7" points="23.05 86.43 22.36 86.43 22.29 85.85 22.76 85.51 23.25 86.07 23.05 86.43"/>
        <polygon class="cls-7" points="44.06 3.39 43.82 3.65 43.6 3.86 43.3 3.71 42.98 3.31 43.15 2.75 43.7 2.66 44.02 3.09 44.06 3.39"/>
        <path class="cls-7" d="M43.75,2.09c-.04-.08.06-.71.06-.71l.53-.23.54.4.05.29-.21.47-.27.24s-.65-.38-.69-.45Z"/>
        <polygon class="cls-7" points="45.62 3.57 44.94 3.68 44.78 3.11 45.2 2.71 45.76 3.18 45.62 3.57"/>
      </g>
    </g>
  </g>
</svg>