<?xml version="1.0" encoding="UTF-8"?>
<svg id="Layer_2" data-name="Layer 2" xmlns="http://www.w3.org/2000/svg" viewBox="0 0 221.37 297.6">
  <defs>
    <style>
      .cls-1, .cls-2 {
        fill: #e9e9ea;
      }

      .cls-3 {
        fill: #e77458;
      }

      .cls-4 {
        fill: #e7b490;
      }

      .cls-2, .cls-5, .cls-6 {
        fill-rule: evenodd;
      }

      .cls-7 {
        fill: #a27b62;
      }

      .cls-8 {
        fill: #f7b762;
      }

      .cls-5 {
        fill: #603813;
      }

      .cls-9 {
        fill: #90633f;
      }

      .cls-10, .cls-6 {
        fill: #f7cfb4;
      }

      .cls-11 {
        fill: #fac3ae;
      }

      .cls-12 {
        fill: #754c28;
      }

      .cls-13 {
        fill: #ec1c24;
      }

      .cls-14 {
        fill: #060707;
      }
    </style>
  </defs>
  <g id="Grietje">
    <g>
      <path class="cls-9" d="M0,158.14c6.38-2.17,16.22-11.05,18.04-14.28,12-21.35,11.2-50.96,18.03-74.1,1-3.37,2.09-6.72,3.34-10.02C58.69,8.46,111.05-12.97,164.55,7.95c46.19,18.05,60.03,65.55,55.48,109.02-3.69,35.23-24.96,81.59-62.16,92.51C93.62,228.35,16.71,197.02,0,158.14Z"/>
      <path class="cls-1" d="M107.67,223.68s.18-9.55.32-13.84c.33-10.24,2.55-27.35,13.75-25.71l3.72.13c14.64-1.83,13.13,23.97,13.13,23.97-.19,3.19,1.31,14.07-.58,14.64-9.06,2.72-30.34.82-30.34.81Z"/>
      <g>
        <path class="cls-6" d="M125.67,264.98c-.14-5.19-.15-10.19-.08-14.85,1.3-1.55,7.66-4.05,10.08-3.83.41,5.29.72,11.11.88,17.25.15,5.83,0,10.47-.34,14.18l-10.25-.92c-.08-3.56-.19-7.68-.29-11.82Z"/>
        <path class="cls-2" d="M126.22,287.38c-.01-.15-.11-4.55-.26-10.57l10.25.92c-.41,4.4-1.11,7.47-1.95,9.62h0c.66.22,2.88,1.73,3.43,2.21-2.75,4.69-7.67,1.12-11.4-1.55-.03-.21-.05-.41-.07-.63Z"/>
        <path class="cls-5" d="M126.29,288c3.73,2.66,8.65,6.24,11.4,1.55,11.55,10.08-9.59,11.89-11.4-1.55Z"/>
      </g>
      <g>
        <path class="cls-6" d="M104.3,261c2.17-4.62,4.36-8.99,6.49-13.03,1.82-.66,8.49.53,10.51,2-1.98,4.85-4.28,10.1-6.85,15.55-2.44,5.18-4.62,9.17-6.56,12.23l-8.56-6.25c1.5-3.16,3.23-6.81,4.96-10.5Z"/>
        <path class="cls-2" d="M94.89,280.88c.05-.13,1.91-4.04,4.44-9.39l8.56,6.25c-2.3,3.63-4.27,5.95-5.95,7.38h0c.48.54,1.76,3.05,2.03,3.75-4.47,2.65-7.21-3.1-9.29-7.41.07-.19.14-.39.21-.59Z"/>
        <path class="cls-5" d="M94.68,281.47c2.08,4.31,4.81,10.06,9.29,7.41,5.65,14.96-13.64,5.31-9.29-7.41Z"/>
      </g>
      <path class="cls-13" d="M108.62,218.69h28.87c9.84,7.64,16.77,22.55,16.77,39.23,0,0-22.82,3.42-30.52,3.42s-30.52-3.42-30.52-3.42c0-16.68,6.09-31.59,15.4-39.23Z"/>
      <g>
        <path class="cls-1" d="M93.99,196.87c3.64-.68,12.42-6.32,15.48-8.61,3.31-2.48,3.48,6.64,3.48,6.64-3.01,3.79-6.95,6.28-11.17,7.78-3.68,1.31-7.58,2.21-11.52,2.03l.02-7.48c1.27,0,2.51-.15,3.71-.37Z"/>
        <path class="cls-10" d="M79.47,196.62c.69-1.86,2.33-2.11,3.78-1.22,2.23,1.38,4.66,1.85,7.03,1.84l-.02,7.48c-3.15-.15-6.32-.99-9.4-2.89-1.46-.9-1.99-3.61-1.39-5.21Z"/>
        <path class="cls-10" d="M84.29,197.11c.51,1.5,1.43,2.5,2.07,2.24s.74-1.68.23-3.18c-.51-1.5-1.43-2.5-2.07-2.24s-.74,1.68-.23,3.18Z"/>
      </g>
      <g>
        <path class="cls-1" d="M153.97,196.87c-3.64-.68-12.42-6.32-15.48-8.61-3.31-2.48-3.48,6.64-3.48,6.64,3.01,3.79,6.95,6.28,11.17,7.78,3.68,1.31,7.58,2.21,11.52,2.03l-.02-7.48c-1.27,0-2.51-.15-3.71-.37Z"/>
        <path class="cls-10" d="M168.49,196.62c-.69-1.86-2.33-2.11-3.78-1.22-2.23,1.38-4.66,1.85-7.03,1.84l.02,7.48c3.15-.15,6.32-.99,9.4-2.89,1.46-.9,1.99-3.61,1.39-5.21Z"/>
        <ellipse class="cls-10" cx="162.53" cy="196.64" rx="2.86" ry="1.24" transform="translate(-74.56 290.84) rotate(-72.09)"/>
      </g>
      <g>
        <polygon class="cls-8" points="136.29 182.12 129.02 193.27 127.25 220.97 143.44 220.97 136.29 182.12"/>
        <polygon class="cls-8" points="112 182.12 119.26 193.27 121.04 220.97 104.84 220.97 112 182.12"/>
      </g>
      <g>
        <path class="cls-12" d="M132,198.57c-4.42,2.68-9.1,6.11-14.36,5.91-1.08-.04-1.08-1.88,0-1.84,4.94.19,9.35-3.14,13.51-5.66.95-.57,1.79,1.01.84,1.59h0Z"/>
        <path class="cls-12" d="M118.07,196.98c4.16,2.52,8.57,5.85,13.51,5.66,1.08-.04,1.08,1.8,0,1.84-5.26.2-9.93-3.23-14.36-5.91-.95-.57-.1-2.16.84-1.59h0Z"/>
      </g>
      <path class="cls-10" d="M38.13,129.71c.4,3,.98,5.93,1.75,8.72,11.99.28,27.3-14.04,35.3-23.05,11.77-13.26,17.81-31.78,19.85-49.83,4.49,10.87,13.01,20.17,18.84,27.42,7.17,8.9,15.75,16.16,26.01,20.19,20.18,7.92,45.91,8.53,63.79-4.84.43,1.32.81,2.66,1.15,4.01,1.85-1.99,4.41-3.19,7.2-3.06,5.37.23,9.55,5.2,9.33,11.09-.21,5.89-4.74,10.48-10.1,10.24-1.71-.07-3.29-.63-4.65-1.54-.59,44.37-39.44,59.15-83.44,59.15-36.43,0-65.86-10.13-77.74-38.79-1.42.78-3.03,1.19-4.73,1.12-5.37-.23-9.55-5.2-9.33-11.09.17-4.61,2.98-8.41,6.77-9.74Z"/>
      <g>
        <path class="cls-11" d="M183.37,162.88c1.61,4.37-3.65,10.81-11.73,14.39-8.09,3.58-15.94,2.94-17.55-1.43-1.61-4.37,3.65-10.81,11.73-14.39,8.09-3.58,15.94-2.94,17.55,1.43Z"/>
        <ellipse class="cls-11" cx="86.49" cy="173.08" rx="8.47" ry="15.9" transform="translate(-104.35 204.99) rotate(-72.94)"/>
      </g>
      <path class="cls-3" d="M123.42,174.22c.45-.67.93-1.37,1.89-1.95.81-.49,2.12-.92,3.62-.82,1.5.1,2.66.63,3.39,1.15.86.61,1.33,1.31,1.8,1.99.22.31,1.37.18,1.16-.13-.95-1.36-2.39-3.32-6.36-3.52-4.06-.2-5.79,1.84-6.66,3.14-.21.31.95.45,1.16.13h0Z"/>
      <g>
        <path class="cls-14" d="M165.09,147.61c0,4.19,1.63,7.59,3.65,7.59s3.65-3.4,3.65-7.59-1.63-7.59-3.65-7.59-3.65,3.4-3.65,7.59Z"/>
        <path class="cls-14" d="M81.2,153.03c0,4.19,1.63,7.59,3.65,7.59s3.65-3.4,3.65-7.59-1.63-7.59-3.65-7.59-3.65,3.4-3.65,7.59Z"/>
      </g>
      <path class="cls-4" d="M125.55,158.49c0-1.16,1.68-3.69,4.31-3.7,2.63-.02,5.2,2.46,5.2,3.61.01,1.18-2.14-1.54-4.76-1.52-2.63.02-4.74,2.79-4.75,1.61Z"/>
      <g>
        <path class="cls-9" d="M165.53,120.85c-1.82-.64-3.5-.11-4.55,1.19,1.33,0,2.83.28,4.39.84,1.57.54,3.03,1.32,4.28,2.21-.79-1.95-2.31-3.59-4.12-4.23Z"/>
        <path class="cls-9" d="M86.28,120.85c1.82-.64,3.5-.11,4.55,1.19-1.33,0-2.83.28-4.39.84-1.57.54-3.03,1.32-4.28,2.21.79-1.95,2.31-3.59,4.12-4.23Z"/>
      </g>
      <path class="cls-7" d="M104.42,56.28c9.78,29.96,36.44,50.99,65.48,51.34,2.18-.01,4.46-.11,6.63-.36.97-.15,1.95-.28,2.91-.44-1.91-.14-3.91-.29-5.82-.51-26.69-3.1-49.63-18.47-64.78-42.68-1.51-2.38-3-4.9-4.41-7.35h0Z"/>
      <path class="cls-7" d="M87.26,60.44c-4.49,24.89-13.51,47.56-34.91,59.91-2.11,1.17-4.27,2.19-6.49,3.12,1.59-.17,3.17-.46,4.74-.86,24.54-6.82,38.02-35.84,36.66-62.18h0Z"/>
    </g>
  </g>
</svg>