<?xml version="1.0" encoding="UTF-8"?>
<svg id="Layer_2" data-name="Layer 2" xmlns="http://www.w3.org/2000/svg" viewBox="0 0 244.89 166.22">
  <defs>
    <style>
      .cls-1, .cls-2 {
        fill: #e9e9ea;
      }

      .cls-3 {
        fill: #e77458;
      }

      .cls-4 {
        fill: #e7b490;
      }

      .cls-5, .cls-6 {
        fill: #603813;
      }

      .cls-2, .cls-6, .cls-7 {
        fill-rule: evenodd;
      }

      .cls-8 {
        fill: #fff;
        opacity: .2;
      }

      .cls-9 {
        fill: #a27b62;
      }

      .cls-10 {
        fill: #d6de23;
      }

      .cls-11 {
        fill: #f7b762;
      }

      .cls-12 {
        fill: #90633f;
      }

      .cls-13, .cls-7 {
        fill: #f7cfb4;
      }

      .cls-14 {
        fill: #fac3ae;
      }

      .cls-15 {
        fill: #b08348;
      }

      .cls-16 {
        fill: #754c28;
      }

      .cls-17 {
        fill: #ec1c24;
      }

      .cls-18 {
        fill: #a2753d;
      }

      .cls-19 {
        fill: #060707;
      }
    </style>
  </defs>
  <g id="Hans_Grietje" data-name="Hans&amp;amp;Grietje">
    <g>
      <g>
        <path class="cls-10" d="M77,108.42c-2.16.41-8.14-.64-10.28-1.17-2.32-.58-.69,4.11-.69,4.11,2.4,1.31,5.07,1.76,7.72,1.65,2.3-.1,4.66-.45,6.82-1.36l-1.43-3.81c-.71.26-1.43.45-2.14.58Z"/>
        <path class="cls-13" d="M85.07,105.27c-.74-.8-1.7-.59-2.35.17-.99,1.17-2.26,1.91-3.58,2.4l1.43,3.81c1.73-.73,3.35-1.82,4.71-3.43.65-.76.43-2.25-.21-2.95Z"/>
        <path class="cls-13" d="M82.47,106.52c0,.87-.33,1.57-.73,1.57s-.73-.7-.73-1.57.33-1.57.73-1.57.73.7.73,1.57Z"/>
      </g>
      <g>
        <path class="cls-10" d="M42.38,116.3c2.06-.77,6.64-4.76,8.19-6.32,1.69-1.69,2.71,3.16,2.71,3.16-1.38,2.36-3.43,4.13-5.75,5.4-2.02,1.11-4.22,2.03-6.54,2.37l-.75-4c.74-.14,1.46-.36,2.13-.61Z"/>
        <path class="cls-13" d="M33.84,117.79c.22-1.07,1.15-1.39,2.09-1.07,1.45.49,2.92.47,4.31.2l.75,4c-1.86.27-3.8.17-5.8-.5-.95-.32-1.53-1.71-1.34-2.63Z"/>
        <path class="cls-13" d="M36.72,117.51c.45.74,1.09,1.18,1.44.97s.26-.98-.19-1.72c-.45-.74-1.09-1.18-1.44-.97-.35.21-.26.98.19,1.72Z"/>
      </g>
      <path class="cls-10" d="M51.06,120.6c.02-.6.05-1.25.1-1.93-.12-3.32.17-13.1,8.06-12.08l2.22.07c1.76-.21,3.14.2,4.2.99,0,0,.02.01.02.02.79.58,1.57,1.3,1.89,2.26,1.39,4.23,1.75,9.74,1.75,9.74-.11,1.73.81,7.65-.32,7.96-5.4,1.5-18.1.5-18.1.5,0,0,.09-5.19.17-7.52Z"/>
      <polygon class="cls-1" points="64.08 106.57 63.02 105.75 59.45 108.54 55.36 106.63 54.41 107.83 56.27 112.66 59.75 110.74 63.64 111.73 64.08 106.57"/>
      <g>
        <path class="cls-7" d="M68.12,147.71c-.03-3.34-.15-6.5-.34-9.38-1.44-.15-5.26,1.14-6.05,1.97-.1,2.53-.14,5.25-.11,8.07.01,1.26.02,2.52.03,3.72h6.4c.06-1.3.09-2.75.08-4.38Z"/>
        <path class="cls-2" d="M66.5,160.62c.74-1.63,1.33-4.28,1.54-8.54h-6.4c.03,4.59.05,8.36.06,8.46.02.3.06.58.12.86l4.78-.75s-.07-.02-.1-.03h0Z"/>
        <path class="cls-6" d="M67.43,161.03c-.19-.13-.48-.26-.83-.38l-4.78.75c1.52,7.1,14.49,5.84,5.6-.37Z"/>
      </g>
      <g>
        <path class="cls-7" d="M52.89,147.41c1.28-3.09,2.4-6.05,3.35-8.77-1.27-.7-5.29-1-6.34-.55-1.08,2.3-2.17,4.78-3.25,7.39-.48,1.17-.96,2.33-1.42,3.44l5.89,2.5c.57-1.17,1.16-2.5,1.78-4Z"/>
        <path class="cls-2" d="M46.36,158.66c1.31-1.22,2.89-3.42,4.75-7.26l-5.89-2.5c-1.76,4.24-3.22,7.72-3.25,7.81-.1.28-.17.56-.22.84l4.69,1.18s-.05-.05-.08-.07h0Z"/>
        <path class="cls-6" d="M47.05,159.4c-.12-.2-.34-.43-.61-.67l-4.69-1.18c-1.37,7.13,11.06,11.03,5.3,1.85Z"/>
      </g>
      <path class="cls-15" d="M66.51,126.56l-15.58-.5c-.3,0-.15,1.39-.35,1.91l-4.41,11.34c-.29.75.11,1.58.87,1.83l8.66,2.83c.58.19,1.22-.02,1.57-.52l10.43-14.7c.67-.94-.03-2.24-1.19-2.2Z"/>
      <path class="cls-15" d="M58.97,127.45l10.57-1.39c.42.18.06,1.14.17,2.08l1.67,14.24c.12,1.06-.73,1.98-1.8,1.94l-8.17-.32c-.82-.03-1.5-.63-1.64-1.43l-2.34-13.07c-.18-1,.53-1.94,1.55-2.04Z"/>
      <g>
        <path class="cls-15" d="M67.27,119.68c.09,1.29-.82,2.4-2.04,2.49l-8.82.63c-1.22.09-2.28-.89-2.37-2.17h0c-.09-1.29.82-2.4,2.04-2.49l8.82-.63c1.22-.09,2.28.89,2.37,2.17h0Z"/>
        <path class="cls-15" d="M65.24,122.3l-8.82.63c-1.28.09-2.4-.94-2.5-2.3-.1-1.36.87-2.54,2.15-2.63l8.82-.63c1.28-.09,2.4.94,2.5,2.3.1,1.36-.87,2.54-2.15,2.63ZM56.09,118.27c-1.15.08-2.01,1.13-1.93,2.34.09,1.21,1.09,2.13,2.24,2.05l8.82-.63c1.15-.08,2.01-1.13,1.93-2.34-.09-1.21-1.09-2.13-2.24-2.05l-8.82.63Z"/>
      </g>
      <g>
        <path class="cls-18" d="M56.46,130.53c.03.41-.59.78-1.37.84h0c-.79.06-1.45-.23-1.48-.63l-1.51-21.15c-.03-.41.59-.78,1.37-.84h0c.79-.06,1.45.23,1.48.63l1.51,21.15Z"/>
        <path class="cls-18" d="M55.1,131.51c-.94.07-1.72-.27-1.76-.75l-1.51-21.15c-.03-.48.7-.93,1.63-.99.94-.07,1.72.27,1.76.75l1.51,21.15c.03.48-.7.93-1.63.99ZM53.48,108.89c-.64.05-1.14.35-1.11.68l1.51,21.15c.02.33.56.56,1.2.51.64-.05,1.14-.35,1.11-.68l-1.51-21.15c-.02-.33-.56-.56-1.2-.51Z"/>
      </g>
      <g>
        <path class="cls-15" d="M56.43,129.68c.03.39-.5.74-1.18.79h0c-.68.05-1.26-.23-1.28-.62l-1.45-20.33c-.03-.39.5-.74,1.18-.79h0c.68-.05,1.26.23,1.28.62l1.45,20.33Z"/>
        <path class="cls-15" d="M55.26,130.6c-.81.06-1.49-.27-1.53-.73l-1.45-20.33c-.03-.46.6-.89,1.41-.94.81-.06,1.49.27,1.53.73l1.45,20.33c.03.46-.6.89-1.41.94ZM53.71,108.87c-.55.04-.98.33-.96.64l1.45,20.33c.02.31.49.54,1.04.5.55-.04.98-.33.96-.64l-1.45-20.33c-.02-.32-.49-.54-1.04-.5Z"/>
      </g>
      <g>
        <path class="cls-15" d="M55.96,123.02c.02.27-.52.52-1.2.57h0c-.68.05-1.25-.13-1.27-.39l-.99-13.9c-.02-.27.52-.52,1.2-.57h0c.68-.05,1.25.13,1.27.39l.99,13.9Z"/>
        <path class="cls-15" d="M54.77,123.73c-.82.06-1.49-.17-1.51-.51l-.99-13.9c-.02-.35.6-.66,1.42-.72.82-.06,1.49.17,1.51.51l.99,13.9c.02.35-.6.66-1.42.72ZM53.71,108.87c-.54.04-.99.23-.97.42l.99,13.9c.01.19.48.32,1.02.28s.99-.23.97-.42l-.99-13.9c-.01-.19-.48-.32-1.02-.28Z"/>
      </g>
      <path class="cls-11" d="M56.3,128.31c.05.73-.44,1.37-1.1,1.41-.66.05-1.24-.51-1.29-1.24-.05-.73.44-1.37,1.1-1.41.66-.05,1.24.51,1.29,1.24Z"/>
      <g>
        <path class="cls-18" d="M65.64,129.88c.03.41.69.69,1.48.63h0c.79-.06,1.4-.43,1.37-.84l-1.51-21.15c-.03-.41-.69-.69-1.48-.63h0c-.79.06-1.4.43-1.37.84l1.51,21.15Z"/>
        <path class="cls-18" d="M65.37,129.9l-1.51-21.15c-.03-.48.7-.93,1.63-.99.93-.07,1.72.27,1.76.75l1.51,21.15c.03.48-.7.93-1.63.99-.94.07-1.72-.27-1.76-.75ZM64.4,108.71l1.51,21.15c.02.33.56.56,1.2.51s1.14-.35,1.11-.68l-1.51-21.15c-.02-.33-.56-.56-1.2-.51-.64.05-1.14.35-1.11.68Z"/>
      </g>
      <g>
        <path class="cls-15" d="M65.54,129.03c.03.39.6.67,1.28.62h0c.68-.05,1.21-.4,1.18-.79l-1.45-20.33c-.03-.39-.6-.67-1.28-.62h0c-.68.05-1.21.4-1.18.79l1.45,20.33Z"/>
        <path class="cls-15" d="M65.3,129.04l-1.45-20.33c-.03-.46.6-.89,1.41-.94.81-.06,1.49.27,1.53.73l1.45,20.33c.03.46-.6.89-1.41.94-.81.06-1.49-.27-1.53-.73ZM64.33,108.68l1.45,20.33c.02.31.49.54,1.04.5.55-.04.98-.33.96-.64l-1.45-20.33c-.02-.32-.49-.54-1.04-.5-.55.04-.98.33-.96.64Z"/>
      </g>
      <g>
        <path class="cls-15" d="M65.06,122.37c.02.27.59.44,1.27.39h0c.68-.05,1.22-.3,1.2-.57l-.99-13.9c-.02-.27-.59-.44-1.27-.39h0c-.68.05-1.22.3-1.2.57l.99,13.9Z"/>
        <path class="cls-15" d="M64.83,122.39l-.99-13.9c-.02-.35.6-.66,1.42-.72.82-.06,1.49.17,1.51.51l.99,13.9c.02.35-.6.66-1.42.72-.82.06-1.49-.17-1.51-.51ZM64.31,108.46l.99,13.9c.01.19.48.32,1.02.28.54-.04.99-.23.97-.42l-.99-13.9c-.01-.19-.48-.32-1.02-.28-.54.04-.99.23-.97.42Z"/>
      </g>
      <path class="cls-11" d="M65.48,127.66c.05.73.63,1.29,1.29,1.24.66-.05,1.16-.68,1.1-1.41-.05-.73-.63-1.29-1.29-1.24-.66.05-1.16.68-1.1,1.41Z"/>
      <path class="cls-13" d="M109.66,69.1c-.23-2.94-2.8-5.14-5.75-4.91-.76.06-1.48.28-2.11.62-.99-7.45-5.05-14.46-9.59-20.25-2.93-3.74-6.39-6.99-10.48-9.41-7.17-4.25-15.63-6.7-23.74-7.55-8.89-.93-17.93,1.34-25.84,5.78-8.04,4.52-14.92,11.28-19.29,19.22l-4,10.19c-1.08,4.45-1.36,9.09-.67,13.78-1.02-.58-2.23-.84-3.48-.64-2.92.46-4.9,3.2-4.44,6.12.46,2.92,3.2,4.9,6.12,4.44.93-.15,1.76-.53,2.45-1.06,2.93,22.03,25,26.88,49.02,24.04.37-.04,1.84-.22,2.21-.26,24.02-2.84,44.35-12.69,42.06-34.8.8.36,1.69.54,2.63.46,2.94-.23,5.14-2.8,4.91-5.75ZM9.49,82.19s0,0,0,0c0,0,.01,0,.02,0,0,0-.01,0-.01,0Z"/>
      <g>
        <path class="cls-14" d="M78.13,93.15c4.65-2.54,9.43-2.75,10.68-.47,1.25,2.29-1.5,6.2-6.14,8.75-4.65,2.54-9.43,2.75-10.68.47-1.25-2.29,1.5-6.2,6.14-8.75Z"/>
        <path class="cls-14" d="M36.53,98.07c5.11,1.39,8.7,4.56,8.01,7.08-.69,2.52-5.38,3.43-10.49,2.04-5.11-1.39-8.7-4.56-8.01-7.08.69-2.52,5.38-3.43,10.49-2.04Z"/>
      </g>
      <path class="cls-3" d="M54.79,99.22c.35.84.72,1.71,1.33,2.4.52.58,1.3,1.05,2.1.82.8-.23,1.36-.99,1.68-1.71.37-.85.53-1.78.68-2.69.07-.42.72-.32.65.1-.31,1.82-.8,4.45-2.93,4.96-2.18.52-3.44-2.01-4.11-3.63-.16-.39.45-.64.61-.25Z"/>
      <g>
        <path class="cls-19" d="M78.2,82.57c1.1-.13,2.19,1.45,2.44,3.54.25,2.08-.45,3.88-1.54,4.01-1.1.13-2.19-1.45-2.44-3.54-.25-2.08.45-3.88,1.54-4.01Z"/>
        <path class="cls-19" d="M33.99,87.79c1.1-.13,2.19,1.45,2.44,3.54.25,2.08-.45,3.88-1.54,4.01-1.1.13-2.19-1.45-2.44-3.54-.25-2.08.45-3.88,1.54-4.01Z"/>
      </g>
      <path class="cls-4" d="M56.36,89.54c1.43-.18,2.98.89,3.05,1.46.08.59-1.26-.63-2.69-.45-1.44.18-2.42,1.69-2.5,1.11-.07-.58.7-1.94,2.13-2.12Z"/>
      <g>
        <path class="cls-5" d="M76.79,74.7c1.03.2,1.96.92,2.5,1.84-.73-.36-1.58-.66-2.46-.82-.89-.17-1.72-.21-2.45-.13.5-.71,1.38-1.09,2.41-.88Z"/>
        <path class="cls-5" d="M33.53,79.82c.95-.44,1.9-.28,2.55.3-.73.09-1.53.32-2.35.7-.82.37-1.58.85-2.2,1.37.31-1.02,1.05-1.93,2-2.37Z"/>
      </g>
      <path class="cls-5" d="M99.4,25.46c-1.64-1.69-3.43-3.27-5.33-4.7,1.15-.29,5.86.28,7.01-.32,1.06-.56-15.05-11.69-23.26-9.31-.32-.65-.68-1.25-1.05-1.8-8.67-12.88-21.78-6.87-26.95-6.93-6.19-.08-32.97,3.44-49.83,37,1.96.39,5.29-1.21,5.29-1.21,0,0-10.9,29.87,8.2,45.27,3.33-12.96,7.93-17.49,19.84-18.16-2.49,3.15-5.03,2.45-7.43,6.31,10.38.94,22.33-4.58,29.39-12.57.01.72,6.29.1,1.57,13.54,13.91-3.05,21.37-8.93,23.42-25.63,5.49,7.95,6.77,29.56,21.38,26.87-1.85-.17,4.31-18.18,4.5-19.82,1.01-8.99-.24-21.82-6.76-28.52Z"/>
      <path class="cls-8" d="M78.87,27.56c1.72,1.58,3.2,3.61,4.66,5.68,1.24,1.76,2.38,3.32,2.98,5.81.43,1.78.79,3.62,1.19,5.42l-7.69-8.43-3.6-1.86,4.99,10.3-9.38-8.61,1.61,9.72-7.08-10.93,1.13,10.14-6.68-5.76-2.62-3.12-2,5.98-2.6-3.85-5.2,8.53.16-9.31-10.92,8.03.74-4.07-3.75,2.93-4.65,1.78,1.8-3.66-6.02,4.54,5.76-16.07,1.44,7.1.96,2.62,2.71-6.29,1.04,3.36,2.22-4.34.74,3.42,1.89-7.18.47,4.58,2.68-4.51.17,3.31,2.27-3.61.35,3.48,3.03-3.91,1.08,3.84,2.18-3.55,1.1,3.01,2.02-5.44,2.55,4.19,1.21-3.86,3.43,2.12.37-3.96,6.22,5.24.87-6.74c1.32.76,2.63,1.53,3.95,2.28.77.44,1.51,1,2.21,1.64Z"/>
    </g>
    <g>
      <path class="cls-12" d="M244.89,85.97c-3.81-1.18-9.68-6.01-10.76-7.76-7.16-11.61-6.68-27.7-10.75-40.28-.59-1.83-1.25-3.65-1.99-5.45-11.51-27.88-42.74-39.53-74.66-28.16-27.55,9.82-35.81,35.64-33.1,59.27,2.2,19.16,14.89,44.36,37.08,50.29,38.33,10.26,84.21-6.78,94.18-27.91Z"/>
      <path class="cls-1" d="M180.66,121.61s-.11-5.19-.19-7.52c-.2-5.57-1.52-14.87-8.21-13.98l-2.22.07c-8.74-.99-7.83,13.03-7.83,13.03.11,1.73-.78,7.65.35,7.96,5.4,1.48,18.1.44,18.1.44Z"/>
      <g>
        <path class="cls-7" d="M169.92,144.06c.08-2.82.09-5.54.05-8.07-.77-.84-4.57-2.2-6.01-2.08-.25,2.88-.43,6.04-.52,9.38-.09,3.17,0,5.69.2,7.71l6.11-.5c.05-1.93.11-4.17.18-6.43Z"/>
        <path class="cls-2" d="M169.59,156.24c0-.08.07-2.47.15-5.75l-6.11.5c.25,2.39.66,4.06,1.16,5.23h0c-.4.12-1.72.94-2.05,1.2,1.64,2.55,4.58.61,6.8-.84.02-.11.03-.22.04-.34Z"/>
        <path class="cls-6" d="M169.55,156.58c-2.22,1.45-5.16,3.39-6.8.84-6.89,5.48,5.72,6.47,6.8-.84Z"/>
      </g>
      <g>
        <path class="cls-7" d="M182.67,141.9c-1.3-2.51-2.6-4.89-3.87-7.09-1.08-.36-5.07.29-6.27,1.09,1.18,2.63,2.55,5.49,4.09,8.46,1.46,2.82,2.75,4.98,3.91,6.65l5.1-3.4c-.89-1.72-1.92-3.7-2.96-5.71Z"/>
        <path class="cls-2" d="M188.28,152.71c-.03-.07-1.14-2.19-2.65-5.1l-5.1,3.4c1.37,1.97,2.55,3.23,3.55,4.01h0c-.29.29-1.05,1.66-1.21,2.04,2.67,1.44,4.3-1.69,5.54-4.03-.04-.11-.08-.21-.13-.32Z"/>
        <path class="cls-6" d="M188.41,153.02c-1.24,2.34-2.87,5.47-5.54,4.03-3.37,8.13,8.14,2.89,5.54-4.03Z"/>
      </g>
      <path class="cls-17" d="M180.1,118.89h-17.22c-5.87,4.15-10,12.26-10,21.33,0,0,13.61,1.86,18.2,1.86s18.21-1.86,18.21-1.86c0-9.07-3.63-17.17-9.19-21.33Z"/>
      <g>
        <path class="cls-1" d="M188.82,107.03c-2.17-.37-7.41-3.44-9.23-4.68-1.97-1.35-2.07,3.61-2.07,3.61,1.79,2.06,4.14,3.42,6.66,4.23,2.19.71,4.52,1.2,6.87,1.1v-4.07c-.77,0-1.51-.08-2.23-.2Z"/>
        <path class="cls-13" d="M197.49,106.89c-.41-1.01-1.39-1.15-2.26-.66-1.33.75-2.78,1.01-4.19,1v4.07c1.89-.08,3.78-.54,5.62-1.57.87-.49,1.19-1.96.83-2.83Z"/>
        <path class="cls-13" d="M194.61,107.16c-.3.81-.85,1.36-1.23,1.22s-.44-.91-.14-1.73.85-1.36,1.23-1.22.44.91.14,1.73Z"/>
      </g>
      <g>
        <path class="cls-1" d="M153.04,107.03c2.17-.37,7.41-3.44,9.23-4.68,1.97-1.35,2.07,3.61,2.07,3.61-1.79,2.06-4.14,3.42-6.66,4.23-2.19.71-4.52,1.2-6.87,1.1v-4.07c.77,0,1.51-.08,2.23-.2Z"/>
        <path class="cls-13" d="M144.38,106.89c.41-1.01,1.39-1.15,2.26-.66,1.33.75,2.78,1.01,4.19,1v4.07c-1.89-.08-3.78-.54-5.62-1.57-.87-.49-1.19-1.96-.83-2.83Z"/>
        <ellipse class="cls-13" cx="147.94" cy="106.91" rx=".73" ry="1.57" transform="translate(-27.97 58.21) rotate(-20.38)"/>
      </g>
      <g>
        <polygon class="cls-11" points="163.59 99.01 167.92 105.08 168.98 120.13 159.32 120.13 163.59 99.01"/>
        <polygon class="cls-11" points="178.08 99.01 173.75 105.08 172.69 120.13 182.35 120.13 178.08 99.01"/>
      </g>
      <g>
        <path class="cls-16" d="M166.15,107.95c2.64,1.46,5.43,3.32,8.57,3.21.64-.02.64-1.02,0-1-2.95.1-5.58-1.71-8.06-3.08-.56-.31-1.07.55-.5.86h0Z"/>
        <path class="cls-16" d="M174.46,107.09c-2.48,1.37-5.11,3.18-8.06,3.08-.64-.02-.64.98,0,1,3.14.11,5.93-1.76,8.57-3.21.56-.31.06-1.17-.5-.86h0Z"/>
      </g>
      <path class="cls-13" d="M222.15,70.52c-.24,1.63-.58,3.22-1.05,4.74-7.15.15-16.29-7.63-21.06-12.53-7.02-7.21-10.63-17.28-11.84-27.09-2.68,5.91-7.76,10.97-11.24,14.91-4.27,4.84-9.4,8.79-15.52,10.98-12.04,4.31-27.39,4.64-38.06-2.63-.26.72-.49,1.45-.68,2.18-1.1-1.08-2.63-1.73-4.3-1.67-3.2.13-5.69,2.83-5.57,6.03.13,3.2,2.83,5.69,6.03,5.57,1.02-.04,1.96-.34,2.78-.84.35,24.12,23.53,32.16,49.78,32.16,21.73,0,39.29-5.51,46.38-21.09.85.42,1.81.65,2.82.61,3.2-.13,5.69-2.83,5.57-6.03-.1-2.51-1.78-4.57-4.04-5.29Z"/>
      <g>
        <path class="cls-14" d="M135.5,88.55c-.96,2.37,2.18,5.88,7,7.82,4.82,1.95,9.51,1.6,10.47-.78.96-2.37-2.18-5.88-7-7.82-4.82-1.95-9.51-1.6-10.47.78Z"/>
        <path class="cls-14" d="M202.41,91.71c.65,2.48-2.91,5.55-7.94,6.87-5.03,1.32-9.64.38-10.28-2.1-.65-2.48,2.91-5.55,7.94-6.87,5.03-1.32,9.64-.38,10.28,2.1Z"/>
      </g>
      <path class="cls-3" d="M171.27,92.86c-.27.95-.55,1.93-1.13,2.75-.49.69-1.27,1.3-2.16,1.16-.89-.15-1.59-.89-2.02-1.63-.51-.87-.79-1.85-1.08-2.81-.13-.44-.82-.25-.69.19.57,1.92,1.42,4.7,3.8,4.98,2.42.28,3.46-2.61,3.97-4.44.13-.44-.56-.63-.69-.19h0Z"/>
      <g>
        <path class="cls-19" d="M146.41,80.25c0,2.28-.97,4.12-2.18,4.12s-2.18-1.85-2.18-4.12.97-4.12,2.18-4.12,2.18,1.85,2.18,4.12Z"/>
        <path class="cls-19" d="M196.45,83.2c0,2.28-.97,4.12-2.18,4.12s-2.18-1.85-2.18-4.12.97-4.12,2.18-4.12,2.18,1.85,2.18,4.12Z"/>
      </g>
      <path class="cls-4" d="M170,86.16c0-.63-1.01-2-2.57-2.01-1.57,0-3.1,1.33-3.1,1.96,0,.64,1.27-.83,2.84-.83,1.57.01,2.83,1.52,2.83.88Z"/>
      <g>
        <path class="cls-12" d="M146.15,65.7c1.08-.35,2.09-.06,2.71.65-.79,0-1.69.15-2.62.45-.93.29-1.81.72-2.55,1.2.47-1.06,1.38-1.95,2.46-2.3Z"/>
        <path class="cls-12" d="M193.42,65.7c-1.08-.35-2.09-.06-2.71.65.79,0,1.69.15,2.62.45.93.29,1.81.72,2.55,1.2-.47-1.06-1.38-1.95-2.46-2.3Z"/>
      </g>
      <path class="cls-9" d="M182.6,30.6c-5.84,16.29-21.74,27.72-39.06,27.91-1.3,0-2.66-.06-3.95-.19-.58-.08-1.16-.15-1.74-.24,1.14-.07,2.33-.16,3.47-.28,15.92-1.69,29.61-10.04,38.65-23.21.9-1.29,1.79-2.66,2.63-4h0Z"/>
      <path class="cls-9" d="M192.84,32.86c2.68,13.53,8.06,25.86,20.83,32.57,1.26.64,2.55,1.19,3.87,1.7-.95-.09-1.89-.25-2.83-.46-14.64-3.71-22.68-19.48-21.87-33.8h0Z"/>
    </g>
  </g>
</svg>