<?xml version="1.0" encoding="UTF-8"?>
<svg id="Layer_2" data-name="Layer 2" xmlns="http://www.w3.org/2000/svg" viewBox="0 0 14.19 9.33">
  <defs>
    <style>
      .cls-1 {
        fill: #e0ba4f;
      }

      .cls-2 {
        fill: #edcc7c;
      }
    </style>
  </defs>
  <g id="Broodkrumels1">
    <g>
      <path class="cls-1" d="M7.01,7.39c0,.37-.39.49-.51.78-.23.56-.34,1.16-.82,1.16-.43,0-.59-.52-.83-.97-.17-.33-.5-.52-.5-.96,0-.38.31-.66.44-.96.24-.54.42-.98.89-.98.41,0,.98.18,1.23.61.19.33.1.86.1,1.32Z"/>
      <path class="cls-2" d="M6.86,7.39c0,.32-.34.43-.45.69-.21.49-.3,1.02-.72,1.02-.38,0-.52-.45-.73-.86-.15-.29-.44-.45-.44-.85,0-.34.27-.58.39-.84.21-.47.37-.86.78-.86.36,0,.87.16,1.08.54.17.29.09.75.09,1.17Z"/>
      <ellipse class="cls-1" cx="5.65" cy="6.16" rx=".14" ry=".06"/>
      <ellipse class="cls-1" cx="5.05" cy="7.06" rx=".14" ry=".06" transform="translate(-2.85 3.47) rotate(-30)"/>
      <ellipse class="cls-1" cx="5.74" cy="8.28" rx=".14" ry=".06"/>
      <ellipse class="cls-1" cx="5.98" cy="7.18" rx=".06" ry=".14" transform="translate(-2.79 3.95) rotate(-30)"/>
    </g>
    <g>
      <path class="cls-1" d="M3.34,3.43c-.44.26-.85-.13-1.29-.07-.83.11-1.63.4-1.96-.18-.3-.52.21-1.06.59-1.68.27-.44.27-.96.81-1.27.46-.27,1.01-.08,1.46-.13.81-.09,1.47-.18,1.79.39.29.5.46,1.31.12,1.9-.27.46-.96.72-1.52,1.04Z"/>
      <path class="cls-2" d="M3.23,3.24c-.39.23-.75-.11-1.14-.07-.73.09-1.43.35-1.73-.16-.26-.45.19-.94.52-1.48.24-.38.24-.85.71-1.12.41-.23.89-.07,1.29-.11.71-.08,1.29-.16,1.58.34.25.44.41,1.15.1,1.68-.24.41-.84.63-1.34.92Z"/>
      <ellipse class="cls-1" cx="3.87" cy=".94" rx=".08" ry=".2" transform="translate(.05 2.06) rotate(-30)"/>
      <ellipse class="cls-1" cx="2.38" cy=".84" rx=".08" ry=".2" transform="translate(.46 2.48) rotate(-60)"/>
      <ellipse class="cls-1" cx="1.39" cy="2.52" rx=".08" ry=".2" transform="translate(-1.07 1.03) rotate(-30)"/>
      <ellipse class="cls-1" cx="2.88" cy="2.04" rx=".2" ry=".08" transform="translate(-.33 3.52) rotate(-60)"/>
    </g>
    <g>
      <path class="cls-1" d="M10.93,3.51c-.47-.19-.42-.76-.73-1.07-.59-.6-1.31-1.05-1.05-1.67.23-.55.97-.48,1.69-.55.51-.05.93-.37,1.5-.14.49.2.68.75.99,1.08.56.59,1.04,1.05.79,1.66-.22.53-.76,1.17-1.44,1.25-.53.07-1.15-.32-1.75-.57Z"/>
      <path class="cls-2" d="M11.02,3.31c-.42-.17-.37-.67-.64-.94-.52-.52-1.15-.92-.92-1.47.2-.49.86-.42,1.49-.48.45-.04.82-.33,1.32-.12.43.18.6.66.87.95.5.52.91.93.69,1.46-.19.47-.67,1.03-1.27,1.1-.47.06-1.02-.28-1.54-.5Z"/>
      <ellipse class="cls-1" cx="13.23" cy="2.41" rx=".2" ry=".08" transform="translate(5.95 13.72) rotate(-67.57)"/>
      <ellipse class="cls-1" cx="12.4" cy="1.17" rx=".08" ry=".2" transform="translate(-.05 1.64) rotate(-7.57)"/>
      <ellipse class="cls-1" cx="10.46" cy="1.41" rx=".2" ry=".08" transform="translate(5.17 10.54) rotate(-67.57)"/>
      <ellipse class="cls-1" cx="11.75" cy="2.3" rx=".2" ry=".08" transform="translate(-.2 1.57) rotate(-7.57)"/>
    </g>
  </g>
</svg>