<?xml version="1.0" encoding="UTF-8"?>
<svg id="Layer_2" data-name="Layer 2" xmlns="http://www.w3.org/2000/svg" xmlns:xlink="http://www.w3.org/1999/xlink" viewBox="0 0 2519.35 714.88">
  <defs>
    <style>
      .cls-1 {
        fill: url(#linear-gradient);
      }

      .cls-2 {
        fill: #808285;
      }

      .cls-3 {
        fill: #55ad5d;
      }
    </style>
    <linearGradient id="linear-gradient" x1="834.49" y1="264.26" x2="1276.95" y2="432.44" gradientUnits="userSpaceOnUse">
      <stop offset="0" stop-color="#6d6e71"/>
      <stop offset=".5" stop-color="#58595b"/>
      <stop offset="1" stop-color="#6d6e71"/>
    </linearGradient>
  </defs>
  <g id="Berg1">
    <ellipse class="cls-3" cx="1259.67" cy="357.52" rx="1259.67" ry="357.36"/>
  </g>
  <g id="Road">
    <g id="Road-2" data-name="Road">
      <path class="cls-1" d="M763.96,689.64s303.16-370.69,332.2-504.03c29.04-133.33,23.74-183.28,23.74-183.28,0,0,59.55-2.33,105.36-2.33,79.07,0,105.56.72,105.56.72,0,0,13.99,166.4-35.54,260.74-61.23,116.64-265.97,449.95-265.97,449.95l-265.34-21.77Z"/>
      <ellipse class="cls-2" cx="1024.65" cy="372.16" rx="5.51" ry="1.44"/>
      <ellipse class="cls-2" cx="1061.31" cy="358.07" rx="3.33" ry="1.22"/>
      <ellipse class="cls-2" cx="1085.92" cy="325.46" rx="3.72" ry="1.39"/>
      <ellipse class="cls-2" cx="1088.75" cy="356.74" rx=".89" ry="1.33"/>
      <ellipse class="cls-2" cx="1166.03" cy="372.91" rx="3.06" ry=".72"/>
      <circle class="cls-2" cx="1201.64" cy="357.41" r=".67"/>
      <ellipse class="cls-2" cx="1174.87" cy="322.52" rx="3.89" ry="1.56"/>
      <ellipse class="cls-2" cx="1147.48" cy="302.96" rx="2.06" ry="1.44"/>
      <ellipse class="cls-2" cx="1088.48" cy="245.13" rx="1.17" ry="2.17"/>
      <circle class="cls-2" cx="1130.7" cy="230.24" r=".94"/>
      <ellipse class="cls-2" cx="1114.42" cy="266.74" rx="1.22" ry="1.67"/>
      <ellipse class="cls-2" cx="1218.87" cy="228.24" rx="4.44" ry="1.06"/>
      <ellipse class="cls-2" cx="1195.7" cy="263.57" rx="2.06" ry="1.5"/>
      <ellipse class="cls-2" cx="1245.7" cy="252.24" rx="1.06" ry=".72"/>
      <circle class="cls-2" cx="1242.89" cy="294.1" r=".75"/>
      <circle class="cls-2" cx="1285.28" cy="225.49" r="1.14"/>
      <ellipse class="cls-2" cx="1276.7" cy="202.57" rx="6.5" ry=".94"/>
      <ellipse class="cls-2" cx="1145.74" cy="175.35" rx=".68" ry="1.61"/>
      <ellipse class="cls-2" cx="1254.98" cy="180.24" rx=".67" ry="1.28"/>
      <ellipse class="cls-2" cx="1223.7" cy="185.57" rx="1.5" ry=".72"/>
      <circle class="cls-2" cx="1170.78" cy="197.66" r=".58"/>
      <ellipse class="cls-2" cx="1126.98" cy="117.3" rx="3.67" ry="1.11"/>
      <ellipse class="cls-2" cx="1163.25" cy="105.91" rx="1.94" ry=".83"/>
      <ellipse class="cls-2" cx="1238.31" cy="102.3" rx="1.33" ry=".89"/>
      <ellipse class="cls-2" cx="1207.98" cy="140.46" rx="2.33" ry=".61"/>
      <ellipse class="cls-2" cx="1296.14" cy="139.63" rx=".5" ry="1.44"/>
      <ellipse class="cls-2" cx="1301.14" cy="103.46" rx="1.28" ry=".28"/>
      <circle class="cls-2" cx="1298.67" cy="88.66" r="1.19"/>
      <ellipse class="cls-2" cx="1208.7" cy="70.63" rx=".72" ry="2.33"/>
      <ellipse class="cls-2" cx="1135.92" cy="40.13" rx="1.94" ry=".94"/>
      <ellipse class="cls-2" cx="1134.42" cy="78.3" rx=".89" ry=".56"/>
      <circle class="cls-2" cx="1178.09" cy="44.96" r="1"/>
      <ellipse class="cls-2" cx="1266" cy="38.33" rx="2.81" ry=".85"/>
      <ellipse class="cls-2" cx="1302.07" cy="27.11" rx=".96" ry=".44"/>
    </g>
  </g>
</svg>