<?xml version="1.0" encoding="UTF-8"?>
<svg id="Layer_2" data-name="Layer 2" xmlns="http://www.w3.org/2000/svg" viewBox="0 0 6.75 9.87">
  <defs>
    <style>
      .cls-1 {
        fill: #e0ba4f;
      }

      .cls-2 {
        fill: #edcc7c;
      }
    </style>
  </defs>
  <g id="Broodkruimels3">
    <g>
      <path class="cls-1" d="M5.99,9.1c-.23.29-.61.13-.89.28-.53.29-.99.68-1.37.38-.33-.27-.13-.77-.03-1.28.07-.36-.06-.72.22-1.06.24-.3.66-.31.95-.46.52-.27.94-.5,1.31-.2.32.26.65.76.57,1.25-.06.38-.46.73-.75,1.09Z"/>
      <path class="cls-2" d="M5.87,9c-.2.25-.54.12-.78.25-.47.25-.87.6-1.2.33-.29-.24-.11-.68-.03-1.13.06-.32-.06-.63.19-.94.21-.26.58-.27.84-.41.46-.24.83-.44,1.15-.17.28.23.57.67.5,1.1-.06.33-.4.64-.66.96Z"/>
      <ellipse class="cls-1" cx="5.71" cy="7.29" rx=".06" ry=".14" transform="translate(-3.55 7.12) rotate(-50.87)"/>
      <ellipse class="cls-1" cx="4.68" cy="7.61" rx=".06" ry=".14" transform="translate(-3.58 11.02) rotate(-80.87)"/>
      <ellipse class="cls-1" cx="4.44" cy="8.99" rx=".06" ry=".14" transform="translate(-5.34 6.76) rotate(-50.87)"/>
      <ellipse class="cls-1" cx="5.32" cy="8.29" rx=".14" ry=".06" transform="translate(-3.71 12.23) rotate(-80.87)"/>
    </g>
    <g>
      <path class="cls-1" d="M.05,3.24c-.2-.47.24-.83.24-1.27,0-.84-.18-1.66.44-1.92.55-.23,1.03.35,1.58.81.4.33.92.4,1.16.97.2.49-.05,1.01-.06,1.46-.02.82-.01,1.48-.62,1.73-.53.22-1.36.29-1.9-.13-.42-.33-.59-1.04-.84-1.64Z"/>
      <path class="cls-2" d="M.25,3.16c-.17-.42.21-.73.21-1.12,0-.74-.16-1.47.39-1.69.48-.2.9.31,1.39.71.35.29.81.35,1.02.85.18.43-.05.89-.05,1.29-.02.72-.01,1.3-.55,1.52-.47.19-1.2.25-1.68-.12-.37-.29-.52-.92-.74-1.45Z"/>
      <ellipse class="cls-1" cx="2.45" cy="4.09" rx=".2" ry=".08" transform="translate(-1.38 1.25) rotate(-22.5)"/>
      <ellipse class="cls-1" cx="2.74" cy="2.63" rx=".2" ry=".08" transform="translate(-1.01 3.2) rotate(-52.5)"/>
      <ellipse class="cls-1" cx="1.21" cy="1.42" rx=".2" ry=".08" transform="translate(-.45 .57) rotate(-22.5)"/>
      <ellipse class="cls-1" cx="1.48" cy="2.97" rx=".08" ry=".2" transform="translate(-1.77 2.34) rotate(-52.5)"/>
    </g>
  </g>
</svg>