<?xml version="1.0" encoding="UTF-8"?>
<svg id="Layer_2" data-name="Layer 2" xmlns="http://www.w3.org/2000/svg" xmlns:xlink="http://www.w3.org/1999/xlink" viewBox="0 0 2063.82 1080">
  <defs>
    <style>
      .cls-1 {
        fill: #ff6d00;
      }

      .cls-2 {
        fill: #1e0c00;
        stroke: #1e0c00;
        stroke-miterlimit: 10;
      }

      .cls-3 {
        fill: url(#linear-gradient-2);
      }

      .cls-4 {
        fill: #aa5517;
      }

      .cls-5 {
        fill: url(#radial-gradient);
      }

      .cls-6 {
        fill: #c67138;
      }

      .cls-7 {
        fill: url(#linear-gradient);
      }

      .cls-8 {
        fill: #9e4f13;
      }

      .cls-9 {
        fill: #ad520e;
      }

      .cls-10 {
        fill: #b2520b;
      }

      .cls-11 {
        fill: #ffa300;
      }

      .cls-12 {
        fill: #ad5514;
      }

      .cls-13 {
        fill: #ba6015;
      }

      .cls-14 {
        fill: #af530e;
      }

      .cls-15 {
        fill: #b25e1f;
      }

      .cls-16 {
        fill: #7c4621;
      }

      .cls-17 {
        fill: #333;
      }

      .cls-18 {
        fill: #8e5025;
      }
    </style>
    <linearGradient id="linear-gradient" x1="1031.91" y1="0" x2="1031.91" y2="1080" gradientUnits="userSpaceOnUse">
      <stop offset="0" stop-color="#e98800"/>
      <stop offset="1" stop-color="#bf806c"/>
    </linearGradient>
    <radialGradient id="radial-gradient" cx="1486.69" cy="483.34" fx="1486.69" fy="483.34" r="100.32" gradientTransform="translate(-154.59) scale(1.07 1)" gradientUnits="userSpaceOnUse">
      <stop offset="0" stop-color="#231f20"/>
      <stop offset=".94" stop-color="#603913"/>
    </radialGradient>
    <linearGradient id="linear-gradient-2" x1="1031.91" y1="1080" x2="1031.91" y2="753.77" gradientUnits="userSpaceOnUse">
      <stop offset="0" stop-color="#754c29"/>
      <stop offset="1" stop-color="#3c2415"/>
    </linearGradient>
  </defs>
  <g id="Hans_Grietje" data-name="Hans&amp;amp;Grietje">
    <rect class="cls-7" width="2063.82" height="1080"/>
    <rect class="cls-16" y="601.45" width="2063.82" height="152.32"/>
    <rect class="cls-18" y="593.12" width="2063.82" height="16.66"/>
    <path class="cls-5" d="M1435.11,395.5h16.69c61.49,0,111.41,49.92,111.41,111.41v64.26h-239.51v-64.26c0-61.49,49.92-111.41,111.41-111.41Z"/>
    <path class="cls-13" d="M1281.67,540.43h40.97c2.17,0,3.93,1.76,3.93,3.93v22.35c0,2.53-2.06,4.59-4.59,4.59h-40.41c-8.49,0-15.39-6.9-15.39-15.39h0c0-8.54,6.94-15.48,15.48-15.48Z"/>
    <path class="cls-13" d="M1274.7,579.83h35.52c2.31,0,4.19,1.88,4.19,4.19v26.25c0,2.69-2.19,4.88-4.88,4.88h-34.92c-9.04,0-16.38-7.34-16.38-16.38v-2.46c0-9.09,7.38-16.48,16.48-16.48Z" transform="translate(688.82 1883.81) rotate(-90)"/>
    <path class="cls-4" d="M1306.06,583.79h43.43c2.31,0,4.19,1.88,4.19,4.19v26.25c0,2.69-2.19,4.88-4.88,4.88h-42.83c-9.04,0-16.38-7.34-16.38-16.38v-2.46c0-9.09,7.38-16.48,16.48-16.48Z" transform="translate(720.18 1923.08) rotate(-90)"/>
    <path class="cls-13" d="M1345.33,579.83h35.52c2.31,0,4.19,1.88,4.19,4.19v26.25c0,2.69-2.19,4.88-4.88,4.88h-34.92c-9.04,0-16.38-7.34-16.38-16.38v-2.46c0-9.09,7.38-16.48,16.48-16.48Z" transform="translate(759.46 1954.44) rotate(-90)"/>
    <path class="cls-13" d="M1382.43,578.06h31.97c2.31,0,4.19,1.88,4.19,4.19v26.25c0,2.69-2.19,4.88-4.88,4.88h-31.37c-9.04,0-16.38-7.34-16.38-16.38v-2.46c0-9.09,7.38-16.48,16.48-16.48Z" transform="translate(796.55 1987.98) rotate(-90)"/>
    <path class="cls-13" d="M1415.97,579.83h35.52c2.31,0,4.19,1.88,4.19,4.19v26.25c0,2.69-2.19,4.88-4.88,4.88h-34.92c-9.04,0-16.38-7.34-16.38-16.38v-2.46c0-9.09,7.38-16.48,16.48-16.48Z" transform="translate(830.09 2025.07) rotate(-90)"/>
    <path class="cls-15" d="M1449.47,581.65h39.15c2.31,0,4.19,1.88,4.19,4.19v26.25c0,2.69-2.19,4.88-4.88,4.88h-38.55c-9.04,0-16.38-7.34-16.38-16.38v-2.46c0-9.09,7.38-16.48,16.48-16.48Z" transform="translate(863.59 2062.2) rotate(-90)"/>
    <path class="cls-13" d="M1486.6,579.83h35.52c2.31,0,4.19,1.88,4.19,4.19v26.25c0,2.69-2.19,4.88-4.88,4.88h-34.92c-9.04,0-16.38-7.34-16.38-16.38v-2.46c0-9.09,7.38-16.48,16.48-16.48Z" transform="translate(900.72 2095.7) rotate(-90)"/>
    <path class="cls-13" d="M1523.69,578.06h31.97c2.31,0,4.19,1.88,4.19,4.19v26.25c0,2.69-2.19,4.88-4.88,4.88h-31.37c-9.04,0-16.38-7.34-16.38-16.38v-2.46c0-9.09,7.38-16.48,16.48-16.48Z" transform="translate(937.81 2129.25) rotate(-90)"/>
    <path class="cls-9" d="M1555.42,581.65h39.15c2.31,0,4.19,1.88,4.19,4.19v26.25c0,2.69-2.19,4.88-4.88,4.88h-38.55c-9.04,0-16.38-7.34-16.38-16.38v-2.46c0-9.09,7.38-16.48,16.48-16.48Z" transform="translate(969.54 2168.15) rotate(-90)"/>
    <path class="cls-13" d="M1592.55,579.83h35.52c2.31,0,4.19,1.88,4.19,4.19v26.25c0,2.69-2.19,4.88-4.88,4.88h-34.92c-9.04,0-16.38-7.34-16.38-16.38v-2.46c0-9.09,7.38-16.48,16.48-16.48Z" transform="translate(1006.67 2201.65) rotate(-90)"/>
    <path class="cls-13" d="M1286.58,508.97h36.07c2.17,0,3.93,1.76,3.93,3.93v22.35c0,2.53-2.06,4.59-4.59,4.59h-35.51c-8.49,0-15.39-6.9-15.39-15.39h0c0-8.54,6.94-15.48,15.48-15.48Z"/>
    <path class="cls-12" d="M1322.19,510.5l-38.55-4.96c-9.05-1.16-15.37-8.93-14.12-17.35h0c1.26-8.47,9.66-14.38,18.76-13.21l39.15,5.04c2.31.3,3.93,2.28,3.61,4.43l-3.29,22.14c-.37,2.51-2.86,4.26-5.56,3.92Z"/>
    <path class="cls-13" d="M1327.19,480.94l-47.85-11.63c-8.84-2.15-14.13-10.56-11.82-18.78h0c2.32-8.27,11.42-13.23,20.31-11.06l48.44,11.78c2.26.55,3.61,2.7,3.02,4.8l-6.07,21.62c-.69,2.45-3.38,3.92-6.02,3.28Z"/>
    <path class="cls-13" d="M1332.55,453.4l-28.25-19.8c-8.5-5.96-10.2-17.2-3.8-25.1h0c6.44-7.96,18.6-9.55,27.15-3.55l28.81,20.2c2.17,1.52,2.61,4.39.97,6.42l-16.84,20.79c-1.91,2.36-5.51,2.83-8.04,1.05Z"/>
    <path class="cls-14" d="M1354.21,427.39l-20.03-23.92c-5.61-6.7-4.32-16.37,2.88-21.6h0c7.25-5.25,17.71-4.05,23.35,2.7l20.4,24.37c1.43,1.71,1.1,4.18-.74,5.52l-18.95,13.73c-2.15,1.56-5.25,1.2-6.92-.8Z"/>
    <path class="cls-13" d="M1377,409.3l-14.25-30.67c-4.13-8.89.27-19.21,9.83-23.05h0c9.61-3.86,20.77.25,24.93,9.2l14.52,31.26c1.06,2.27-.07,4.91-2.51,5.89l-25.13,10.1c-2.85,1.15-6.16-.07-7.39-2.72Z"/>
    <path class="cls-13" d="M1408.67,396.97l-5.98-46.03c-1.1-8.44,5.37-16.1,14.44-17.12h0c9.12-1.03,17.41,5.02,18.52,13.51l6.05,46.59c.28,2.16-1.37,4.12-3.69,4.38l-23.85,2.68c-2.7.3-5.16-1.49-5.49-4Z"/>
    <path class="cls-13" d="M1439.01,393.11l3.19-36.08c.75-8.47,8.74-14.77,17.84-14.07h0c9.16.7,15.97,8.18,15.22,16.7l-3.24,36.64c-.19,2.16-2.23,3.77-4.56,3.6l-23.94-1.83c-2.71-.21-4.73-2.42-4.51-4.95Z"/>
    <path class="cls-13" d="M1471.64,397.24l12.64-37c2.4-7.04,10.48-10.93,18.05-8.69h0c7.61,2.25,11.82,9.81,9.4,16.89l-12.8,37.47c-.61,1.8-2.68,2.79-4.61,2.22l-19.89-5.88c-2.25-.67-3.5-2.91-2.78-5Z"/>
    <path class="cls-10" d="M1500.73,404.45l20.63-20.47c6.25-6.2,16.72-6.51,23.38-.7h0c6.7,5.85,7.04,15.64.76,21.88l-21.04,20.88c-1.6,1.58-4.27,1.66-5.97.18l-17.52-15.29c-1.99-1.73-2.09-4.64-.22-6.48Z"/>
    <path class="cls-13" d="M1524.88,424.28l34.35-24.31c7.27-5.15,17.65-3.83,23.18,2.93h0c5.56,6.8,4.15,16.52-3.17,21.69l-34.83,24.65c-1.86,1.31-4.51.98-5.92-.75l-14.54-17.79c-1.65-2.02-1.23-4.89.94-6.43Z"/>
    <path class="cls-8" d="M1544.83,447.65l35.72-14.36c8.39-3.37,18.12.22,21.75,8.02h0c3.65,7.85-.24,16.96-8.67,20.35l-36.28,14.58c-2.14.86-4.63-.06-5.56-2.05l-9.53-20.52c-1.08-2.33.07-5.03,2.57-6.03Z"/>
    <path class="cls-13" d="M1558.91,475.48l52.59-5.23c9.08-.9,17.23,5.21,18.21,13.67h0c.98,8.5-5.64,16.13-14.78,17.04l-53.19,5.29c-2.32.23-4.4-1.33-4.65-3.49l-2.55-22.22c-.29-2.52,1.67-4.78,4.38-5.05Z"/>
    <path class="cls-13" d="M1565.09,504.51l35.03-.55c10.78-.17,19.67,7.83,19.85,17.86h0c.18,10.09-8.46,18.41-19.31,18.58l-35.75.56c-2.76.04-5.03-2-5.07-4.56l-.48-26.38c-.05-2.99,2.51-5.46,5.72-5.51Z"/>
    <path class="cls-13" d="M1565.07,540.35l38.91-.61c9.13-.14,16.66,6.63,16.82,15.13h0c.15,8.55-7.17,15.6-16.36,15.74l-39.51.62c-2.33.04-4.26-1.69-4.3-3.87l-.4-22.35c-.05-2.53,2.12-4.62,4.85-4.66Z"/>
    <rect class="cls-3" y="753.77" width="2063.82" height="326.23"/>
    <line class="cls-2" x1="60.34" y1="1080" x2="60.34" y2="753.77"/>
    <line class="cls-2" x1="124.88" y1="1080" x2="124.88" y2="753.77"/>
    <line class="cls-2" x1="189.43" y1="1080" x2="189.43" y2="753.77"/>
    <line class="cls-2" x1="253.97" y1="1080" x2="253.97" y2="753.77"/>
    <line class="cls-2" x1="318.51" y1="1080" x2="318.51" y2="753.77"/>
    <line class="cls-2" x1="383.05" y1="1080" x2="383.05" y2="753.77"/>
    <line class="cls-2" x1="447.59" y1="1080" x2="447.59" y2="753.77"/>
    <line class="cls-2" x1="512.14" y1="1080" x2="512.14" y2="753.77"/>
    <line class="cls-2" x1="576.68" y1="1080" x2="576.68" y2="753.77"/>
    <line class="cls-2" x1="641.22" y1="1080" x2="641.22" y2="753.77"/>
    <line class="cls-2" x1="705.76" y1="1080" x2="705.76" y2="753.77"/>
    <line class="cls-2" x1="770.3" y1="1080" x2="770.3" y2="753.77"/>
    <line class="cls-2" x1="834.85" y1="1080" x2="834.85" y2="753.77"/>
    <line class="cls-2" x1="899.39" y1="1080" x2="899.39" y2="753.77"/>
    <line class="cls-2" x1="963.93" y1="1080" x2="963.93" y2="753.77"/>
    <line class="cls-2" x1="1028.47" y1="1080" x2="1028.47" y2="753.77"/>
    <line class="cls-2" x1="1093.01" y1="1080" x2="1093.01" y2="753.77"/>
    <line class="cls-2" x1="1157.56" y1="1080" x2="1157.56" y2="753.77"/>
    <line class="cls-2" x1="1222.1" y1="1080" x2="1222.1" y2="753.77"/>
    <line class="cls-2" x1="1286.64" y1="1080" x2="1286.64" y2="753.77"/>
    <line class="cls-2" x1="1351.18" y1="1080" x2="1351.18" y2="753.77"/>
    <line class="cls-2" x1="1415.72" y1="1080" x2="1415.72" y2="753.77"/>
    <line class="cls-2" x1="1480.27" y1="1080" x2="1480.27" y2="753.77"/>
    <line class="cls-2" x1="1544.81" y1="1080" x2="1544.81" y2="753.77"/>
    <line class="cls-2" x1="1609.35" y1="1080" x2="1609.35" y2="753.77"/>
    <line class="cls-2" x1="1673.89" y1="1080" x2="1673.89" y2="753.77"/>
    <line class="cls-2" x1="1738.43" y1="1080" x2="1738.43" y2="753.77"/>
    <line class="cls-2" x1="1802.98" y1="1080" x2="1802.98" y2="753.77"/>
    <line class="cls-2" x1="1867.52" y1="1080" x2="1867.52" y2="753.77"/>
    <line class="cls-2" x1="1932.06" y1="1080" x2="1932.06" y2="753.77"/>
    <line class="cls-2" x1="1996.6" y1="1080" x2="1996.6" y2="753.77"/>
    <line class="cls-2" y1="916.88" x2="60.34" y2="916.88"/>
    <line class="cls-2" x1="124.88" y1="916.88" x2="189.43" y2="916.88"/>
    <line class="cls-2" x1="253.97" y1="916.88" x2="318.51" y2="916.88"/>
    <line class="cls-2" x1="383.05" y1="916.88" x2="447.59" y2="916.88"/>
    <line class="cls-2" x1="512.14" y1="916.88" x2="576.68" y2="916.88"/>
    <line class="cls-2" x1="641.22" y1="916.88" x2="705.76" y2="916.88"/>
    <line class="cls-2" x1="770.3" y1="916.88" x2="834.85" y2="916.88"/>
    <line class="cls-2" x1="899.39" y1="916.88" x2="963.93" y2="916.88"/>
    <line class="cls-2" x1="1028.47" y1="916.88" x2="1093.01" y2="916.88"/>
    <line class="cls-2" x1="1157.56" y1="916.88" x2="1222.1" y2="916.88"/>
    <line class="cls-2" x1="1286.64" y1="916.88" x2="1351.18" y2="916.88"/>
    <line class="cls-2" x1="1415.72" y1="916.88" x2="1480.27" y2="916.88"/>
    <line class="cls-2" x1="1544.81" y1="916.88" x2="1609.35" y2="916.88"/>
    <line class="cls-2" x1="1673.89" y1="916.88" x2="1738.43" y2="916.88"/>
    <line class="cls-2" x1="1802.98" y1="916.88" x2="1867.52" y2="916.88"/>
    <line class="cls-2" x1="1932.06" y1="916.88" x2="1996.6" y2="916.88"/>
    <path class="cls-6" d="M246.49,158.09h47.44c7.61,0,13.79,6.18,13.79,13.79h0c0,16.51-13.4,29.91-29.91,29.91h-46.6c-3.39,0-6.14-2.75-6.14-6.14v-16.15c0-11.82,9.59-21.41,21.41-21.41Z"/>
    <path class="cls-6" d="M945.11,84.75h38.94c9.05,0,16.39,7.34,16.39,16.39v10.92c0,9.05-7.34,16.39-16.39,16.39h-49.87c-9.05,0-16.39-7.34-16.39-16.39h0c0-15.07,12.24-27.31,27.31-27.31Z"/>
    <rect class="cls-6" x="595.32" y="321.64" width="82.65" height="43.7" rx="13.45" ry="13.45"/>
    <path class="cls-6" d="M1538.96,193.3h47.06c6.63,0,12.02,5.39,12.02,12.02v5.8c0,14.29-11.6,25.88-25.88,25.88h-44.74c-6.63,0-12.02-5.39-12.02-12.02v-8.11c0-13.01,10.56-23.57,23.57-23.57Z"/>
    <rect class="cls-6" x="1761.65" y="356.47" width="82.65" height="43.7" rx="9.14" ry="9.14"/>
    <path class="cls-6" d="M1816.15,136.24h38.94c20.41,0,36.98,16.57,36.98,36.98h0c0,3.71-3.01,6.72-6.72,6.72h-69.2c-3.71,0-6.72-3.01-6.72-6.72v-30.26c0-3.71,3.01-6.72,6.72-6.72Z"/>
    <path class="cls-6" d="M1296.07,84.75h38.94c18.15,0,32.89,14.74,32.89,32.89h0c0,5.97-4.84,10.81-10.81,10.81h-61.03c-5.97,0-10.81-4.84-10.81-10.81v-22.08c0-5.97,4.84-10.81,10.81-10.81Z"/>
    <path class="cls-6" d="M989.67,334.62h59.5c6.39,0,11.57,5.19,11.57,11.57h0c0,17.73-14.4,32.13-32.13,32.13h-38.94c-6.39,0-11.57-5.19-11.57-11.57v-20.56c0-6.39,5.19-11.57,11.57-11.57Z"/>
    <path class="cls-6" d="M242.61,403.5h29.59c12.75,0,23.09,10.35,23.09,23.09v9.76c0,5.99-4.86,10.85-10.85,10.85h-60.95c-5.99,0-10.85-4.86-10.85-10.85v-2.89c0-16.54,13.43-29.96,29.96-29.96Z"/>
    <rect class="cls-17" x="212.64" y="269.58" width="441.48" height="484.19"/>
    <g id="Vuur">
      <path class="cls-11" d="M1435.08,460.49c-6.44,18.29-40.34,36.27-40.34,36.27,0,0,7.8-8.2,6.78-22.39-1.02-14.19-15.26-23.65-15.26-23.65,0,0,5.76,34.38-16.95,55.82-22.71,21.45-30.02,65.93-30.02,65.93h208.68s10.17-37.23-8.14-45.75c-18.31-8.52-36.61-15.13-36.61-15.13,0,0-36.27-7.58-17.29-32.49,18.98-24.92-23.04-44.15-23.04-44.15,0,0,16.25,21.13-5.28,37.53-21.52,16.4-20.85,10.87-20.85,10.87,0,0,18.65-9.47,15.26-24.52-3.39-15.05-12.88-20.09-12.88-20.09l-4.07,21.76Z"/>
      <path class="cls-1" d="M1437.46,486.45c-4.91,13.93-30.72,27.62-30.72,27.62,0,0,5.94-6.24,5.16-17.05-.77-10.81-11.62-18.01-11.62-18.01,0,0,4.39,26.18-12.91,42.51-17.3,16.33-22.86,50.21-22.86,50.21h158.91s7.74-28.35-6.2-34.84c-13.94-6.48-27.88-11.52-27.88-11.52,0,0-27.62-5.77-13.17-24.74,14.46-18.97-17.54-33.62-17.54-33.62,0,0,12.37,16.09-4.02,28.58-16.39,12.49-15.87,8.27-15.87,8.27,0,0,14.2-7.21,11.62-18.67-2.58-11.46-9.81-15.3-9.81-15.3l-3.1,16.57Z"/>
    </g>
  </g>
</svg>