<?xml version="1.0" encoding="UTF-8"?>
<svg id="Layer_2" data-name="Layer 2" xmlns="http://www.w3.org/2000/svg" viewBox="0 0 136.11 168.84">
  <defs>
    <style>
      .cls-1 {
        fill: #603a17;
      }

      .cls-2 {
        fill: #895d3b;
      }

      .cls-3 {
        fill: #87a553;
      }
    </style>
  </defs>
  <g id="Trees">
    <g id="tree5">
      <path class="cls-3" d="M136.11,56.68c0-11.03-8.51-20.24-19.89-22.53-.55-12.31-11.7-22.13-25.39-22.13-.16,0-.31,0-.47.01-4.31-7.17-12.69-12.03-22.31-12.03s-18,4.86-22.31,12.03c-.16,0-.31-.01-.47-.01-13.68,0-24.84,9.83-25.39,22.13C8.51,36.44,0,45.65,0,56.68c0,7.06,3.5,13.38,9,17.62-.77,2.2-1.18,4.54-1.18,6.98,0,12.75,11.38,23.08,25.41,23.08,2.7,0,5.29-.38,7.73-1.09,4.43,9.62,14.9,16.37,27.1,16.37s22.66-6.76,27.1-16.37c2.44.71,5.03,1.09,7.73,1.09,14.03,0,25.41-10.33,25.41-23.08,0-2.43-.42-4.78-1.18-6.98,5.5-4.23,9-10.55,9-17.62Z"/>
      <path class="cls-2" d="M81.89,84.37s-.08,0-.12,0c-.42,1.95-.77,3.91-1.33,5.81-.29.97-.68,1.99-1.27,2.74v-8.65c-3.63-.27-7.03-1.08-10.01-2.3-.02,4.71-3.91,8.81-9.67,11.01v7.66c-1.87-1.56-3.19-4.03-4.27-6.46-1.37.26-2.8.43-4.28.48,1.92,4.82,4.32,9.19,8.55,11.36v59.73c0,1.71.82,3.09,1.83,3.09h16.01c1.01,0,1.83-1.38,1.83-3.09v-67.31c4.68-1.69,5.51-8.99,6.76-14.1.02-.07.03-.14.04-.21-1.33.15-2.69.23-4.08.23Z"/>
      <path class="cls-1" d="M72.69,108.67c0,5.61-1.5,10.15-3.36,10.15s-3.36-4.54-3.36-10.15,1.5-10.15,3.36-10.15,3.36,4.55,3.36,10.15Z"/>
    </g>
  </g>
</svg>