<?xml version="1.0" encoding="UTF-8"?>
<svg id="Layer_2" data-name="Layer 2" xmlns="http://www.w3.org/2000/svg" viewBox="0 0 530 556.11">
  <defs>
    <style>
      .cls-1 {
        fill: #cc792c;
      }

      .cls-2 {
        fill: #bc202e;
      }

      .cls-3 {
        fill: #28a6de;
      }

      .cls-4 {
        fill: #faae41;
      }

      .cls-5 {
        fill: #e82429;
      }

      .cls-6 {
        fill: #8dc440;
      }

      .cls-7 {
        fill: #f9f6ed;
      }

      .cls-8 {
        fill: #f4e9ce;
      }

      .cls-9 {
        fill: #9d4f2f;
      }

      .cls-10 {
        fill: #b56a37;
      }

      .cls-11 {
        fill: #8b65aa;
      }

      .cls-12 {
        fill: #e8d52a;
      }
    </style>
  </defs>
  <g id="Huisje">
    <g>
      <path class="cls-1" d="M463.77,201.1c-24.52-20.3-48.17-41.65-70.88-63.97-23.02-22.63-45.08-46.25-66.06-70.78-11.82-13.81-22.97-27.69-36.45-39.93-6.56-5.96-14.55-14.95-23.8-17.08-12.39-2.85-18.84,9.71-26.95,17.07-13.48,12.24-24.64,26.13-36.45,39.94-9.56,11.17-19.35,22.15-29.34,32.93.06-6.16,1.05-13.4,1.14-20.34.2-.09.4-.19.58-.32,1.32-.91,1.82-2.6,2.21-4.15,1.98-7.89,3.4-16.8-.92-23.68-4.9-7.8-15.25-9.95-24.46-10.22-3.42-.1-6.9-.03-10.18.96-6.25,1.89-11.05,6.87-16.86,9.85-18.47,9.45-46.7,4-55.47,28.21-2.32,6.39-2.61,13.33-2.34,20.12.12,3.05.63,6.58,3.26,8.15,2.98,1.78,6.91-.15,9.12-2.84.73-.89,1.36-1.86,1.96-2.85.61,4.94,1.49,9.79,2.14,14.31,2.66,18.21,6.23,36.01,14.79,52.51.48.92.99,1.81,1.49,2.72-11.16,10.02-22.51,19.82-34.06,29.39-19.34,16.02-50.33,38.12-47.22,67,1.32,12.3,10.84,23.59,23.87,23.52,2.75-.01,5.39-.49,7.91-1.31,5.09,4.88,11.65,8.51,18.91,10.08.74.16,1.48.29,2.21.42.11,1.45.17,2.62.18,3.27-.01-.75.08,4.47.16,7.81.16,6.79.28,13.58.33,20.38,0,.07,0,.13,0,.2.08,9.35.1,18.71.09,28.07,0,6.98-.04,13.95-.09,20.93-.03,4.16-.06,8.31-.1,12.47-.04,4.21-.09,8.43-.14,12.64-.08,7.02-.17,14.05-.27,21.09-.16,10.64-.38,21.29-.66,31.95-.2,7.14-.43,14.29-.71,21.43h0s0,0,0,0c-.23,5.96-.5,11.92-.81,17.87-.91.27-1.54.56-1.82.69-7.24,3.16-6.86,12.34-5.78,20.19.73,5.3,2.09,9.49,3.95,12.81-1.39.64-2.55,1.58-3.07,3.32-1.58,5.31,4.09,8.37,7.62,9.44,18.95,5.75,44.9,10.5,64.58,10.7,16.54.17,30.36-.66,46.54-3.23,3.36-.53,6.16-1.5,8.48-2.8,16.72,3.65,43.91,6.03,74.61,6.03,27.66,0,52.47-1.93,69.33-4.98,1.85.78,3.95,1.37,6.33,1.75,16.18,2.58,30,3.4,46.54,3.23,19.68-.2,45.63-4.95,64.58-10.7,3.53-1.07,9.19-4.13,7.62-9.44-.52-1.74-1.68-2.68-3.07-3.32,1.86-3.32,3.22-7.51,3.95-12.81.53-3.85.67-7.71-.07-11.18h.42c-.53-9.18-.97-18.37-1.33-27.57h0s0,0,0,0c-.28-7.14-.51-14.29-.71-21.43-.29-10.65-.5-21.31-.66-31.95-.11-7.03-.2-14.06-.27-21.09-.05-4.22-.09-8.43-.14-12.64-.04-4.16-.07-8.31-.1-12.47-.05-6.98-.08-13.95-.09-20.93-.01-9.36.01-18.72.09-28.07,0-.07,0-.13,0-.2.06-6.81.17-13.6.33-20.38.08-3.35.17-8.56.16-7.81,0-.65.07-1.83.18-3.27.74-.12,1.48-.26,2.21-.42,7.25-1.57,13.82-5.2,18.91-10.08,2.52.82,5.16,1.3,7.91,1.31,13.04.06,22.55-11.22,23.87-23.52,3.11-28.88-27.88-50.98-47.22-67Z"/>
      <g>
        <path class="cls-8" d="M463.77,201.1c-24.52-20.3-48.17-41.65-70.88-63.97-23.03-22.63-45.08-46.25-66.06-70.78-11.82-13.81-22.97-27.69-36.45-39.93-6.56-5.96-14.55-14.95-23.8-17.08-12.39-2.85-18.84,9.71-26.95,17.07-13.48,12.24-24.64,26.13-36.45,39.94-20.99,24.53-43.04,48.15-66.06,70.78-22.71,22.31-46.36,43.66-70.88,63.97-19.34,16.02-50.33,38.12-47.22,67,1.32,12.3,10.84,23.59,23.87,23.52,2.75-.01,5.39-.49,7.91-1.31,5.09,4.88,11.65,8.51,18.91,10.08.74.16,1.48.29,2.21.42.11,1.45.17,2.62.18,3.27-.01-.75.08,4.47.16,7.81.16,6.79.28,13.58.33,20.38,0,.07,0,.13,0,.2.08,9.35.1,18.71.09,28.07,0,6.98-.04,13.95-.09,20.93-.03,4.16-.06,8.31-.1,12.47-.04,4.21-.09,8.43-.14,12.64-.08,7.02-.17,14.05-.27,21.09-.16,10.64-.38,21.29-.66,31.95-.2,7.14-.43,14.29-.71,21.43-.23,6-.51,12-.81,17.99-.59.16-1.19.35-1.81.57-7.27,2.61-6.86,12.34-5.78,20.19.73,5.3,2.09,9.49,3.95,12.81-1.39.64-2.55,1.58-3.07,3.32-1.58,5.31,4.09,8.37,7.62,9.44,18.95,5.75,44.9,10.5,64.58,10.7,16.54.17,30.36-.66,46.54-3.23,21.68-3.45,20.47-24.76,10.51-39.83-7.05-10.66-22.85-11.19-30.42-1.03,1.7-12.52,2.08-17.3-3.81-27.11-5.28-8.79-24.74-14.58-31.31-2.13-1.51-11.95-6.48-17.45-16.81-15.52-10.33,1.93-14.32,13.83-14.32,27.56-.55,10.27-.55,11.79-2.65,13.85.32-5.55.8-14.34,1.06-19.9.42-9.17.77-18.35,1.05-27.53.22-7.1.39-14.19.54-21.3.22-10.6.38-21.21.48-31.8.06-6.99.11-13.99.14-20.97.03-8.33.04-16.66.04-24.96,0-3.47,0-6.93,0-10.4,0-3.45,0-6.94.01-10.46.03-9.24.07-18.66-.12-28.04-.1-4.77-.27-9.52-.53-14.23,8.93-2.83,17.11-7.98,23.49-14.9,5.73,11.67,14.6,21.27,29.35,20.63,14.87-.64,25.24-9.94,33.21-21.23,4.04,8.1,10.47,15.77,20.65,14.86,11.79-1.06,12.97-6.46,18.81-12.56-1.02,30.13,16.79,32.24,24.9,34.4,15.88,4.23,38.92-7.48,52.1-18.78,2.04-1.75,12.09-12.97,10.43-15.65,4.24,6.83,8.92,12.89,18.83,12.59,10.21-.31,16.6-6.75,20.65-14.86,7.97,11.29,18.34,20.59,33.21,21.23,14.75.63,23.63-8.97,29.35-20.63,6.39,6.92,14.57,12.07,23.49,14.9-.26,4.71-.43,9.46-.53,14.23-.2,9.38-.16,18.8-.12,28.04,0,3.52.02,7.01.01,10.46,0,3.46,0,6.93,0,10.4,0,8.3.01,16.63.04,24.96.03,6.98.07,13.97.14,20.97.1,10.59.26,21.2.48,31.8.15,7.1.33,14.2.54,21.3.28,9.18.63,18.36,1.05,27.53.31,6.64.66,13.28,1.06,19.9h.38c-.89.99-1.43,1.77-1.43,2.14,1.84-11.89-3.61-38.13-13.94-40.06-10.33-1.93-21.62,2.85-23.12,14.8-2.66-12.3-20.54-9.11-30.05-2.77-9.51,6.35-9.84,16.71-8.14,29.23-7.57-10.17-23.38-9.63-30.42,1.03-9.96,15.07-11.17,36.38,10.51,39.83,16.18,2.58,30,3.4,46.54,3.23,19.68-.2,45.63-4.95,64.58-10.7,3.53-1.07,9.19-4.13,7.62-9.44-.52-1.74-1.68-2.68-3.07-3.32,1.86-3.32,3.22-7.51,3.95-12.81.58-4.18.96-7.75.09-11.18h.26c-.53-9.18-.97-18.37-1.33-27.57-.28-7.14-.51-14.29-.71-21.43-.29-10.65-.5-21.31-.66-31.95-.11-7.03-.2-14.06-.27-21.09-.05-4.22-.09-8.43-.14-12.64-.04-4.16-.07-8.31-.1-12.47-.05-6.98-.08-13.95-.09-20.93-.01-9.36.01-18.72.09-28.07,0-.07,0-.13,0-.2.06-6.81.17-13.6.33-20.38.08-3.35.17-8.56.16-7.81,0-.65.07-1.83.18-3.27.74-.12,1.48-.26,2.21-.42,7.25-1.57,13.82-5.2,18.91-10.08,2.52.82,5.16,1.3,7.91,1.31,13.04.06,22.55-11.22,23.87-23.52,3.11-28.88-27.88-50.98-47.22-67ZM449.92,286.76c-14.85.06-28.08-8.88-34.64-21.96-2.98-5.95-11.76-3.94-13.53,1.77-3.34,10.8-8.43,25.74-22.61,23.11-13.52-2.51-20.67-16.52-26.59-27.45-2.93-5.42-12.25-4.48-13.53,1.77-1.12,5.49-5.26,24.95-14.87,18.56-2.91-1.93-4.43-6.32-6.09-9.25-1.9-3.35-3.98-6.44-6.54-9.32-3.69-4.13-11.09-1.97-12.37,3.26-2.12,8.62-5.81,20.29-13.52,25.63-9.77,6.75-37.6,6.11-45.73-3.76-4.88-5.93-7.22-14.54-9-21.86-1.28-5.23-8.68-7.4-12.37-3.27-2.57,2.88-4.65,5.97-6.54,9.32-1.66,2.93-3.18,7.31-6.09,9.25-9.62,6.39-13.75-13.07-14.87-18.56-1.28-6.25-10.6-7.18-13.53-1.77-5.92,10.93-13.07,24.94-26.59,27.45-14.18,2.63-19.27-12.31-22.61-23.11-1.77-5.71-10.55-7.72-13.53-1.77-6.56,13.08-19.79,22.01-34.64,21.96-4.75-.02-10.9-1.93-16.02-5.09,3.15-3.32,5.74-7.21,7.57-11.28,2.93-6.52,4.53-13.42,6.41-20.28.82-3.01,1.48-6.36,3.04-9.11,2.33-4.12,3-3.38,5.6-.32,7.91,9.32,20.21,11.19,27.94.07,3.8-5.46,4.31-11.75,4.03-18.22-.17-3.85-.66-7.71.16-11.52.33-1.55.89-3.15,1.55-4.57.36-.78,1.72-2.36,2.76-3.69.13.45.26.87.36,1.17.76,2.48,1.87,5.01,3.23,7.21,3.12,5.06,7.98,9.17,13.93,10.22,13.49,2.4,21.72-10.4,22.76-22.19,1.3-14.7-1.26-32.12,10.53-43.61,2.69-2.62,5.67-4.77,9.41-3.18,3.3,1.4,5.57,3.77,9.22,4.58,6.77,1.51,13.54-1.94,17.65-7.25,4.98-6.44,5.16-14.53,6.51-22.22,1.5-8.58,3.99-17.07,7.6-25,1.35-2.97,2.74-7.79,6.43-7.64,3.14.13,6.83,2.86,9.81,3.75,6.25,1.88,12.65,1.06,17.81-3.04,2.84-2.25,5-5.22,6.64-8.46,1.64,3.24,3.8,6.21,6.64,8.46,5.17,4.1,11.56,4.92,17.81,3.04,2.98-.9,6.66-3.63,9.81-3.75,3.68-.15,5.07,4.67,6.43,7.64,3.61,7.94,6.1,16.42,7.6,25,1.35,7.68,1.53,15.78,6.51,22.22,4.11,5.31,10.88,8.76,17.65,7.25,3.65-.81,5.92-3.18,9.22-4.58,3.74-1.59,6.72.56,9.41,3.18,11.79,11.49,9.24,28.91,10.53,43.61,1.04,11.79,9.28,24.59,22.76,22.19,5.94-1.06,10.8-5.17,13.93-10.22,1.36-2.21,2.47-4.73,3.23-7.21.09-.3.23-.72.36-1.17,1.05,1.34,2.4,2.92,2.76,3.69.66,1.42,1.21,3.02,1.55,4.57.82,3.81.33,7.68.16,11.52-.28,6.47.24,12.76,4.03,18.22,7.73,11.12,20.03,9.26,27.94-.07,2.6-3.07,3.26-3.81,5.6.32,1.55,2.75,2.21,6.09,3.04,9.11,1.88,6.87,3.47,13.76,6.41,20.28,1.83,4.07,4.42,7.96,7.57,11.28-5.12,3.16-11.27,5.07-16.02,5.09ZM489.13,276.57c-.33.09-.66.14-.98.19,3.2-8.99,2.18-19.17-5.33-28.19-6.11-7.33-16.53,3.2-10.47,10.47,3.29,3.95,4.06,7.78,3.21,11.28-1.13-1.37-2.09-2.8-2.81-4.14-6.72-12.46-5.07-31.33-17.56-40.28-5.31-3.81-11.87-4.16-17.39-.49-3.76,2.5-9.02,13.55-11.49,4.13-2.08-7.94,1.16-16.43-1.43-24.61-1.95-6.15-5.55-12.05-10.46-16.28-5.42-4.66-13.67-6.31-18.59.04-3.75,4.85-1.85,12.21-6.54,16.55-7.83,7.25-8.03-11.6-8-15.34.05-7.83-.77-15.65-2.96-23.19-3.72-12.81-12.18-27.74-26.83-29.61-4.01-.51-7.86.11-11.49,1.97-3.19,1.64-5.23,4.99-8.46,1.58-4.6-4.84-3.77-17.02-5.28-23.35-2.77-11.67-7.88-33.09-21.27-36.86-8.21-2.31-12.98,3.46-20.5,4.2-5.94.59-7.66-6.69-8.57-11.41-1.19-6.22-4.07-27.78-12.74-25.36-6.75,1.89-8.12,19.99-9.15,25.36-.9,4.72-2.62,12-8.57,11.41-7.52-.74-12.3-6.51-20.5-4.2-13.39,3.76-18.49,25.19-21.27,36.86-1.5,6.33-.68,18.51-5.28,23.35-3.23,3.4-5.28.05-8.46-1.58-3.63-1.86-7.48-2.48-11.49-1.97-14.64,1.87-23.11,16.8-26.83,29.61-2.19,7.54-3.01,15.35-2.96,23.19.03,3.74-.17,22.58-8,15.34-4.69-4.34-2.78-11.7-6.54-16.55-4.92-6.35-13.17-4.7-18.59-.04-4.91,4.22-8.51,10.13-10.46,16.28-2.59,8.18.65,16.67-1.43,24.61-2.47,9.43-7.73-1.63-11.49-4.13-5.52-3.67-12.08-3.31-17.39.49-12.49,8.95-10.83,27.82-17.56,40.28-.72,1.34-1.68,2.78-2.81,4.14-.85-3.49-.08-7.33,3.21-11.28,6.06-7.27-4.36-17.8-10.47-10.47-7.51,9.02-8.53,19.2-5.33,28.19-.33-.05-.65-.1-.98-.19-8.58-2.28-7.96-13.77-5.62-20.16,5.72-15.6,20.19-27.29,32.58-37.54,13.32-11.02,26.57-22.09,39.48-33.59,29.47-26.24,57.55-54.04,84.09-83.24,12.97-14.27,25.38-29,37.81-43.74,8.02-9.5,17.62-24.49,30.51-28.3,15.99-4.74,32,17.55,41.07,28.3,12.43,14.74,24.84,29.47,37.81,43.74,26.54,29.2,54.62,57,84.09,83.24,12.91,11.5,26.16,22.57,39.48,33.59,12.39,10.25,26.86,21.94,32.58,37.54,2.34,6.39,2.96,17.88-5.62,20.16Z"/>
        <path class="cls-8" d="M212.87,411.78c1.19.84,2.77,1.27,3.46,2.56,1.04,1.94-.62,4.14-1.61,6.1-1.89,3.74-1.25,8.41,1.59,11.45,3.72,3.98,5.14,5.55,3.4,10.73-1.85,5.53-4.11,10.42-4.83,16.33-.42,3.45-.48,7.01.49,10.35,1.15,3.94,5.25,5.76,6.34,8.96,1.28,3.76-2.62,9.75-4.06,12.98-1.78,3.98-2.73,8.26-1.05,12.42,1.41,3.49,3.41,4,1.69,8.36-1.03,2.6-.64,5.54.71,7.99,12.61-1.1,27.77-1.74,44.09-1.74,20.77,0,39.67,1.04,53.81,2.74.89-2.06.65-4.62.17-6.89-.94-4.45-2.5-8.78-4.62-12.84-1.33-2.55-2.92-5.47-1.74-8.08.69-1.55,2.23-2.6,3.06-4.08,3.46-6.19-7.15-13.65-3.69-19.83,1.54-2.74,5.15-3.62,7.62-5.64,5.24-4.28,4.1-12.47.75-18.23-2.87-4.93-7.13-10.57-4.45-15.59.86-1.6,2.32-2.82,3.43-4.27,3.95-5.14,2.93-12.41.4-18.33-1.99-4.66-4.87-9.33-4.33-14.35.27-2.48,1.36-4.81,1.97-7.24,1.88-7.51-1.44-15.98-8.02-20.43-.94-.63-1.98-1.24-2.5-2.22-.88-1.64,0-3.59.48-5.37,1.34-5.04-1.46-10.45-5.64-13.16-5.78-3.75-11.72,1.01-15.96-5.71-2.54-4.02-2.96-10.13-7.86-12.2-5.07-2.14-11.58-.53-15.99,2.44-5.11,3.44-9.47,4.68-15.53,5.23-3.16.29-6.59,1.16-8.39,3.81-.92,1.35-1.29,3.01-1.76,4.58-1.49,4.96-3.74,9.48-8.22,12.31-2.56,1.62-5.49,2.53-8.11,4.04-6.3,3.65-7.67,11.34-4.98,17.74,1.28,3.05,3.06,5.9,3.99,9.09,2.25,7.74-4.33,11.09-6.3,17.6-.9,2.96-.3,6.62,2.2,8.39Z"/>
        <path class="cls-8" d="M224.75,182.47c.72,1.9,1.83,3.69,2.08,5.71.48,3.77-2.04,7.17-3.97,10.45-1.92,3.28-3.22,7.8-.67,10.62,2.76,3.06,8.02,1.92,11.39,4.3,3.81,2.7,3.47,8.34,2.95,12.98-.52,4.64-.16,10.49,4.1,12.39,7.33,3.28,14.3-9.59,21.9-7.01,1.71,3.68.91,7.96.93,12.02.02,4.06,1.49,8.81,5.37,10.01,5.12,1.58,9.49-4.19,10.82-9.39,1.33-5.19,1.89-11.33,6.33-14.34,6.35-4.31,17.93-.16,20.75-7.3,1.22-3.1-.32-6.51-1.29-9.69-.97-3.19-.96-7.42,1.98-8.98,1.85-.98,4.1-.45,6.17-.77,5.12-.79,7.9-7.94,4.66-11.99-1.18-1.47-2.87-2.44-4.19-3.79-4.28-4.34-3.85-11.29-5.45-17.17-2.12-7.83-8.22-14.17-15.35-18.03-7.13-3.86-15.26-5.51-23.33-6.4-6.99-.77-14.18-1-20.95.93-11.78,3.36-29.28,22.13-24.26,35.42Z"/>
        <path class="cls-8" d="M69.92,79.6c-2.32,6.39-2.61,13.33-2.34,20.12.12,3.05.63,6.58,3.26,8.15,2.98,1.78,6.91-.15,9.12-2.84,2.2-2.68,3.48-6.07,5.89-8.58,2.41-2.5,6.77-3.79,9.26-1.36,2.53,5,2.5,10.85,3.38,16.39.88,5.54,3.24,11.52,8.38,13.76,4.81,2.1,11.09-.3,13.27-5.07,1.85-4.04.88-8.73,1-13.17.12-4.44,2.28-9.66,6.69-10.2,5.21-.64,10.08,5.77,14.85,3.57-.39-3.69-.75-7.61.84-10.97,1.59-3.36,5.9-5.71,9.13-3.88,1.96,1.11,3.31,3.55,5.56,3.59,4.39.07,3.72-7.82,7.62-9.84,2.97-1.54,7.04,1.25,9.79-.65,1.32-.91,1.82-2.6,2.21-4.15,1.98-7.89,3.4-16.8-.92-23.68-4.9-7.8-15.25-9.95-24.46-10.22-3.42-.1-6.9-.03-10.18.96-6.25,1.89-11.05,6.87-16.86,9.85-18.47,9.45-46.7,4-55.47,28.21Z"/>
        <path class="cls-8" d="M205.19,429.85c-1.23-1.5-2.94-2.56-4.73-3.35-4.01-1.77-8.28-2.47-12.65-2.56,1.15-3.02,1.94-6.42,2.22-10.22,1.09-17.5,1.09-34.99,0-52.49-1.27-17.58-13.04-27.04-24.68-25.43-7.46.82-14.92.55-22.38-.79-11.63-2.54-23.48,6.8-24.8,25.16-1.13,18.21-1.13,36.42,0,54.63.28,3.96,1.08,7.46,2.24,10.55-5.18-.45-10.92.28-15.08,3.56-6.57,5.17-9.41,19.55,2.7,18.91,2.66-.14,5.79-.37,7.52,1.63,1.12,1.3,1.22,3.09,1.47,4.81.08.56.18,1.11.34,1.63,4.09,13.7,17.57-4.64,24.53-3.72.55.07,1.13.23,1.46.67,2.14,2.84,1,6.78,3.13,9.67,3.03,4.1,9.67,5.82,14.38,3.98,6.69-2.62,6.01-13.35,13.1-14.05,4.44-.44,8.55,6.39,12.75,2.44,3.08-2.9,2.21-9.48,8.32-8.04,1.83.43,3.48,1.43,5.33,1.77,9.2,1.67,8.5-14.27,4.85-18.75Z"/>
        <path class="cls-8" d="M427.81,429.85c-1.23-1.5-2.94-2.56-4.73-3.35-4.01-1.77-8.28-2.47-12.65-2.56,1.15-3.02,1.94-6.42,2.22-10.22,1.09-17.5,1.09-34.99,0-52.49-1.27-17.58-13.04-27.04-24.68-25.43-7.46.82-14.92.55-22.38-.79-11.63-2.54-23.48,6.8-24.8,25.16-1.13,18.21-1.13,36.42,0,54.63.28,3.96,1.08,7.46,2.24,10.55-5.18-.45-10.92.28-15.08,3.56-6.57,5.17-9.41,19.55,2.7,18.91,2.66-.14,5.79-.37,7.52,1.63,1.12,1.3,1.22,3.09,1.47,4.81.08.56.18,1.11.34,1.63,4.09,13.7,17.57-4.64,24.53-3.72.55.07,1.13.23,1.46.67,2.14,2.84,1,6.78,3.13,9.67,3.03,4.1,9.67,5.82,14.38,3.98,6.69-2.62,6.01-13.35,13.1-14.05,4.44-.44,8.55,6.39,12.75,2.44,3.08-2.9,2.21-9.48,8.32-8.04,1.83.43,3.48,1.43,5.33,1.77,9.2,1.67,8.5-14.27,4.85-18.75Z"/>
      </g>
      <path class="cls-10" d="M323.29,534.2s0-.03,0-.04c0-.55,0-1.11.02-1.68,0-.03,0-.06,0-.09.08-1.74.33-3.52.73-5.31,0-.01,0-.03,0-.04.4-1.8.96-3.61,1.64-5.4,0,0,0,0,0,0-15.04-2.07-36.66-3.36-60.7-3.36-28.08,0-52.87,1.77-67.71,4.47,1.43,4.07,2.15,8.21,1.98,12.09,15.01,2.5,38.86,4.12,65.73,4.12,22.83,0,43.48-1.17,58.38-3.06h0c-.05-.56-.08-1.13-.09-1.7Z"/>
      <path class="cls-9" d="M332.87,551.22c-5.21-1.96-8.02-7.52-9.12-12.84,0-.05-.02-.09-.03-.14-.07-.36-.14-.73-.19-1.1,0-.02,0-.05,0-.07-.05-.39-.1-.78-.14-1.17-14.9,1.89-35.55,3.06-58.38,3.06-26.87,0-50.72-1.62-65.73-4.13-.28,6.29-2.95,11.86-8.88,15.2,16.72,3.65,43.91,6.03,74.61,6.03,21.9,0,46.25.87,67.87-4.84Z"/>
      <g>
        <path class="cls-2" d="M263.48,131.92c5.81,0,11.37-5.11,11.1-11.1-.27-6.02-4.88-11.1-11.1-11.1-5.81,0-11.37,5.11-11.1,11.1.27,6.02,4.88,11.1,11.1,11.1h0Z"/>
        <path class="cls-2" d="M336.67,189.35c5.81,0,11.37-5.11,11.1-11.1-.27-6.02-4.88-11.1-11.1-11.1-5.81,0-11.37,5.11-11.1,11.1.27,6.02,4.88,11.1,11.1,11.1h0Z"/>
        <path class="cls-2" d="M184,197.24c5.81,0,11.37-5.11,11.1-11.1-.27-6.02-4.88-11.1-11.1-11.1-5.81,0-11.37,5.11-11.1,11.1.27,6.02,4.88,11.1,11.1,11.1h0Z"/>
        <path class="cls-2" d="M140.13,264.8c5.81,0,11.37-5.11,11.1-11.1-.27-6.02-4.88-11.1-11.1-11.1-5.81,0-11.37,5.11-11.1,11.1.27,6.02,4.88,11.1,11.1,11.1h0Z"/>
        <path class="cls-2" d="M262.97,283.23c5.81,0,11.37-5.11,11.1-11.1-.27-6.02-4.88-11.1-11.1-11.1-5.81,0-11.37,5.11-11.1,11.1.27,6.02,4.88,11.1,11.1,11.1h0Z"/>
        <path class="cls-2" d="M381.42,263.05c5.81,0,11.37-5.11,11.1-11.1-.27-6.02-4.88-11.1-11.1-11.1-5.81,0-11.37,5.11-11.1,11.1.27,6.02,4.88,11.1,11.1,11.1h0Z"/>
        <path class="cls-2" d="M215.59,249.01c5.81,0,11.37-5.11,11.1-11.1-.27-6.02-4.88-11.1-11.1-11.1-5.81,0-11.37,5.11-11.1,11.1.27,6.02,4.88,11.1,11.1,11.1h0Z"/>
      </g>
      <g>
        <path class="cls-3" d="M134.37,542.34c0,5.52,1.23,5.89,6.37,6.92,4.06.81,8.16,1.36,12.3,1.36,6.95,0,18.68.63,18.68-8.28,0-11.65-8.36-21.09-18.68-21.09s-18.68,9.44-18.68,21.09Z"/>
        <rect class="cls-3" x="126.87" y="347.85" width="24.87" height="34.74" rx="2.12" ry="2.12"/>
        <path class="cls-3" d="M158.56,347.85h20.62c1.17,0,2.12.95,2.12,2.12v30.49c0,1.17-.95,2.12-2.12,2.12h-20.62c-1.17,0-2.12-.95-2.12-2.12v-30.49c0-1.17.95-2.12,2.12-2.12Z"/>
        <path class="cls-3" d="M128.99,388.16h20.62c1.17,0,2.12.95,2.12,2.12v30.49c0,1.17-.95,2.12-2.12,2.12h-20.62c-1.17,0-2.12-.95-2.12-2.12v-30.49c0-1.17.95-2.12,2.12-2.12Z"/>
        <path class="cls-3" d="M158.56,388.16h20.62c1.17,0,2.12.95,2.12,2.12v30.49c0,1.17-.95,2.12-2.12,2.12h-20.62c-1.17,0-2.12-.95-2.12-2.12v-30.49c0-1.17.95-2.12,2.12-2.12Z"/>
        <path class="cls-3" d="M351.6,347.85h20.62c1.17,0,2.12.95,2.12,2.12v30.49c0,1.17-.95,2.12-2.12,2.12h-20.62c-1.17,0-2.12-.95-2.12-2.12v-30.49c0-1.17.95-2.12,2.12-2.12Z"/>
        <rect class="cls-3" x="379.05" y="347.85" width="24.87" height="34.74" rx="2.12" ry="2.12"/>
        <path class="cls-3" d="M351.6,388.16h20.62c1.17,0,2.12.95,2.12,2.12v30.49c0,1.17-.95,2.12-2.12,2.12h-20.62c-1.17,0-2.12-.95-2.12-2.12v-30.49c0-1.17.95-2.12,2.12-2.12Z"/>
        <path class="cls-3" d="M381.17,388.16h20.62c1.17,0,2.12.95,2.12,2.12v30.49c0,1.17-.95,2.12-2.12,2.12h-20.62c-1.17,0-2.12-.95-2.12-2.12v-30.49c0-1.17.95-2.12,2.12-2.12Z"/>
        <path class="cls-3" d="M278.93,182.06h9.15c5.15,0,8.2-5.8,5.26-10.03-2.9-4.17-7-7.59-11.85-9.84-4.17-1.94-8.94,1.25-8.94,5.85v7.63c0,3.53,2.86,6.39,6.39,6.39Z"/>
        <path class="cls-3" d="M263.04,175.68v-7.63c0-4.6-4.77-7.79-8.94-5.85-4.85,2.25-8.95,5.66-11.85,9.84-2.94,4.23.11,10.03,5.26,10.03h9.15c3.53,0,6.39-2.86,6.39-6.39Z"/>
        <path class="cls-3" d="M256.65,191.57h-9.15c-5.15,0-8.2,5.8-5.26,10.03,2.9,4.17,7,7.59,11.85,9.84,4.17,1.94,8.94-1.25,8.94-5.85v-7.63c0-3.53-2.86-6.39-6.39-6.39Z"/>
        <path class="cls-3" d="M272.54,197.96v7.63c0,4.6,4.77,7.79,8.94,5.85,4.85-2.25,8.95-5.66,11.85-9.84,2.94-4.23-.11-10.03-5.26-10.03h-9.15c-3.53,0-6.39,2.86-6.39,6.39Z"/>
        <path class="cls-3" d="M155.36,120.9c3.69,4.1,4.85,3.56,9.36.88,3.56-2.11,6.98-4.44,10.06-7.21,5.17-4.65,14.31-12.02,8.36-18.64-7.79-8.66-20.31-10.09-27.98-3.2-7.67,6.89-7.58,19.51.21,28.17Z"/>
        <path class="cls-3" d="M320.62,61.92c-3.78,4.02-3.13,5.14-.08,9.41,2.4,3.37,5.02,6.57,8.04,9.41,5.07,4.76,13.19,13.24,19.28,6.74,7.97-8.49,8.33-21.1.81-28.16-7.52-7.06-20.08-5.89-28.05,2.6Z"/>
      </g>
      <g>
        <path class="cls-4" d="M352.12,521.25c-10.31,0-18.67,9.44-18.68,21.09,0,8.91,11.73,8.28,18.68,8.28,4.14,0,8.24-.55,12.3-1.36,5.14-1.03,6.37-1.4,6.37-6.92,0-11.65-8.36-21.09-18.68-21.09Z"/>
        <path class="cls-4" d="M1.7,240.53c-4.53,9.26.28,20.92,10.74,26.04,8,3.91,12.59-6.9,15.64-13.14,1.82-3.72,3.13-7.65,4.18-11.65,1.33-5.07,1.54-6.34-3.41-8.76-10.46-5.12-22.62-1.75-27.15,7.52Z"/>
        <path class="cls-4" d="M501.14,233.01c-4.96,2.42-4.75,3.69-3.41,8.76,1.05,4,2.36,7.93,4.18,11.65,3.05,6.24,7.64,17.06,15.64,13.14,10.46-5.12,15.27-16.77,10.74-26.04-4.53-9.27-16.69-12.63-27.15-7.52Z"/>
        <path class="cls-4" d="M287.49,29.09c-3.71,4.09-3.04,5.19.07,9.41,2.46,3.33,5.13,6.49,8.19,9.27,5.15,4.67,13.41,13.02,19.39,6.42,7.83-8.62,7.98-21.23.34-28.17-7.64-6.93-20.18-5.56-28,3.07Z"/>
      </g>
      <g>
        <path class="cls-12" d="M124.67,119.62c-8.12,6.36-8.88,18.94-1.7,28.12,5.49,7.01,14.34-.71,19.81-5,3.26-2.55,6.15-5.51,8.85-8.65,3.41-3.98,4.16-5.03.76-9.38-7.18-9.17-19.59-11.45-27.71-5.09Z"/>
        <path class="cls-12" d="M377.62,124.72c-3.4,4.34-2.66,5.4.76,9.38,2.69,3.14,5.59,6.1,8.85,8.65,5.47,4.28,14.32,12.01,19.81,5,7.18-9.17,6.42-21.76-1.7-28.12-8.12-6.36-20.53-4.08-27.71,5.09Z"/>
        <path class="cls-12" d="M428.26,512.85c-10.31,0-18.67,9.44-18.68,21.09,0,8.91,11.73,8.28,18.68,8.28,4.14,0,8.24-.55,12.3-1.36,5.14-1.03,6.37-1.4,6.37-6.92,0-11.65-8.36-21.09-18.68-21.09Z"/>
      </g>
      <g>
        <path class="cls-5" d="M78.42,501.17c.34-.38,5.97,1.94,6.62,2.24,1.13.52,6.8,3.69,8.06,5.22.39-6.63.75-13.26,1.06-19.9,0,0-15.74,12.45-15.74,12.45Z"/>
        <path class="cls-5" d="M70.7,481.05l24.51-19.86c.22-7.1.39-14.19.54-21.3l-24.35,19.73c-.2,7.14-.43,14.29-.71,21.43Z"/>
        <path class="cls-5" d="M72.07,427.68l24.17-19.58c.06-6.99.11-13.99.14-20.97l-24.03,19.46c-.08,7.02-.17,14.05-.27,21.09Z"/>
        <path class="cls-5" d="M72.68,360.55c0,6.98-.04,13.95-.09,20.93l23.83-19.31c0-3.47,0-6.93,0-10.4,0-3.45,0-6.94.01-10.46l-23.74,19.24Z"/>
        <path class="cls-5" d="M459.3,481.05l-24.51-19.86c-.22-7.1-.39-14.19-.54-21.3l24.35,19.73c.2,7.14.43,14.29.71,21.43Z"/>
        <path class="cls-5" d="M457.93,427.68l-24.17-19.58c-.06-6.99-.11-13.99-.14-20.97l24.03,19.46c.08,7.02.17,14.05.27,21.09Z"/>
        <path class="cls-5" d="M457.32,360.55c0,6.98.04,13.95.09,20.93l-23.83-19.31c0-3.47,0-6.93,0-10.4,0-3.45,0-6.94-.01-10.46l23.74,19.24Z"/>
        <path class="cls-5" d="M85.44,301.21l-13.19,10.69c.16,6.79.28,13.58.33,20.38,0,.07,0,.13,0,.2l23.71-19.21c-.1-4.77-.27-9.52-.53-14.23-3.36,1.06-6.82,1.8-10.33,2.17Z"/>
        <path class="cls-5" d="M434.23,299.04c-.26,4.71-.43,9.46-.53,14.23l23.71,19.21c0-.07,0-.13,0-.2.06-6.81.17-13.6.33-20.38l-13.19-10.69c-3.51-.37-6.97-1.1-10.33-2.17Z"/>
        <path class="cls-5" d="M437.27,508.62c2.5-2.77,7.79-7.22,12.06-8.97l-13.49-10.93c.31,6.64.66,13.28,1.06,19.9h.38Z"/>
        <path class="cls-5" d="M265,0c-10.31,0-18.67,9.44-18.68,21.09,0,8.91,11.73,8.28,18.68,8.28,4.14,0,8.24-.55,12.3-1.36,5.14-1.03,6.37-1.4,6.37-6.92,0-11.65-8.36-21.09-18.68-21.09Z"/>
        <path class="cls-5" d="M388.75,486.36c-10.31,0-18.67,9.44-18.68,21.09,0,8.91,11.73,8.28,18.68,8.28,4.14,0,8.24-.55,12.3-1.36,5.14-1.03,6.37-1.4,6.37-6.92,0-11.65-8.36-21.09-18.68-21.09Z"/>
        <path class="cls-5" d="M93.79,176.89c3.65,4.14,4.82,3.6,9.36.97,3.58-2.08,7.02-4.38,10.12-7.12,5.21-4.6,14.42-11.89,8.53-18.56-7.71-8.73-20.22-10.28-27.95-3.45-7.73,6.82-7.76,19.44-.05,28.17Z"/>
        <path class="cls-5" d="M436.16,148.72c-7.73-6.82-20.25-5.28-27.95,3.45-5.89,6.68,3.31,13.97,8.53,18.56,3.11,2.74,6.54,5.04,10.12,7.12,4.54,2.63,5.7,3.17,9.36-.97,7.71-8.73,7.68-21.35-.05-28.17Z"/>
        <path class="cls-5" d="M152.97,334.88c5.81,0,11.37-5.11,11.1-11.1-.27-6.02-4.88-11.1-11.1-11.1-5.81,0-11.37,5.11-11.1,11.1.27,6.02,4.88,11.1,11.1,11.1h0Z"/>
        <path class="cls-5" d="M377.03,334.88c5.81,0,11.37-5.11,11.1-11.1-.27-6.02-4.88-11.1-11.1-11.1-5.81,0-11.37,5.11-11.1,11.1.27,6.02,4.88,11.1,11.1,11.1h0Z"/>
      </g>
      <g>
        <path class="cls-6" d="M29.38,199.93c-7.81,6.73-7.98,19.34-.38,28.16,5.81,6.75,14.29-1.39,19.55-5.92,3.14-2.71,5.89-5.8,8.43-9.06,3.22-4.14,3.92-5.22.31-9.4-7.61-8.82-20.1-10.51-27.92-3.78Z"/>
        <path class="cls-6" d="M181.33,59.32c-7.52,7.06-7.16,19.66.81,28.16,6.09,6.5,14.22-1.99,19.28-6.74,3.02-2.83,5.64-6.04,8.04-9.41,3.05-4.27,3.69-5.38-.08-9.41-7.97-8.49-20.53-9.66-28.05-2.6Z"/>
        <path class="cls-6" d="M472.7,203.71c-3.6,4.18-2.91,5.26.31,9.4,2.54,3.26,5.29,6.36,8.43,9.06,5.26,4.54,13.74,12.67,19.55,5.92,7.6-8.82,7.43-21.43-.38-28.16-7.81-6.73-20.31-5.04-27.92,3.78Z"/>
        <path class="cls-6" d="M374.84,92.73c-7.67-6.89-20.2-5.46-27.98,3.2-5.95,6.62,3.19,14,8.36,18.64,3.08,2.77,6.5,5.1,10.06,7.21,4.51,2.67,5.68,3.22,9.36-.88,7.79-8.66,7.88-21.28.21-28.17Z"/>
        <path class="cls-6" d="M87,514.48c-10.31,0-18.67,9.44-18.68,21.09,0,8.91,11.73,8.28,18.68,8.28,4.14,0,8.24-.55,12.3-1.36,5.14-1.03,6.37-1.4,6.37-6.92,0-11.65-8.36-21.09-18.68-21.09Z"/>
      </g>
      <g>
        <path class="cls-11" d="M62.56,173.66c-8.26,6.17-9.32,18.74-2.35,28.07,5.33,7.14,14.35-.38,19.92-4.54,3.32-2.48,6.28-5.37,9.04-8.45,3.51-3.9,4.27-4.93.97-9.36-6.97-9.33-19.32-11.9-27.58-5.73Z"/>
        <path class="cls-11" d="M214.5,26.03c-7.64,6.93-7.48,19.54.34,28.17,5.99,6.6,14.25-1.75,19.39-6.42,3.07-2.78,5.74-5.95,8.19-9.27,3.12-4.22,3.78-5.32.07-9.41-7.83-8.62-20.37-10-28-3.07Z"/>
        <path class="cls-11" d="M439.85,179.39c-3.3,4.42-2.53,5.46.97,9.36,2.77,3.08,5.72,5.97,9.04,8.45,5.57,4.16,14.59,11.68,19.92,4.54,6.96-9.33,5.91-21.9-2.35-28.07-8.27-6.17-20.61-3.61-27.58,5.73Z"/>
        <path class="cls-11" d="M133.03,486.28c-10.31,0-18.67,9.44-18.68,21.09,0,8.91,11.73,8.28,18.68,8.28,4.14,0,8.24-.55,12.3-1.36,5.14-1.03,6.37-1.4,6.37-6.92,0-11.65-8.36-21.09-18.68-21.09Z"/>
      </g>
      <g>
        <polygon class="cls-7" points="143.91 539.67 142.28 540.97 140.81 541.95 139.19 540.81 137.72 538.2 139.19 535.11 142.44 535.11 143.91 537.88 143.91 539.67"/>
        <path class="cls-7" d="M143.26,531.86c-.16-.49.98-4.07.98-4.07l3.26-.84,2.77,2.79v1.71l-1.63,2.52-1.79,1.14s-3.42-2.77-3.58-3.26Z"/>
        <polygon class="cls-7" points="152.78 542.11 148.71 542.11 148.3 538.69 151.08 536.74 153.92 539.99 152.78 542.11"/>
        <path class="cls-7" d="M178.66,242.87c5.81,0,11.37-5.11,11.1-11.1-.27-6.02-4.88-11.1-11.1-11.1-5.81,0-11.37,5.11-11.1,11.1.27,6.02,4.88,11.1,11.1,11.1h0Z"/>
        <path class="cls-7" d="M333.16,242.87c5.81,0,11.37-5.11,11.1-11.1-.27-6.02-4.88-11.1-11.1-11.1-5.81,0-11.37,5.11-11.1,11.1.27,6.02,4.88,11.1,11.1,11.1h0Z"/>
        <polygon class="cls-7" points="382.08 502.71 380.45 504.01 378.98 504.99 377.36 503.85 375.89 501.24 377.36 498.15 380.61 498.15 382.08 500.92 382.08 502.71"/>
        <path class="cls-7" d="M381.42,494.9c-.16-.49.98-4.07.98-4.07l3.26-.84,2.77,2.79v1.71l-1.63,2.52-1.79,1.14s-3.42-2.77-3.58-3.26Z"/>
        <polygon class="cls-7" points="390.95 505.15 386.88 505.15 386.47 501.73 389.25 499.78 392.08 503.03 390.95 505.15"/>
        <polygon class="cls-7" points="343.54 538.95 341.91 540.25 340.44 541.23 338.82 540.09 337.35 537.48 338.82 534.39 342.07 534.39 343.54 537.16 343.54 538.95"/>
        <path class="cls-7" d="M342.88,531.14c-.16-.49.98-4.07.98-4.07l3.25-.84,2.77,2.79v1.71l-1.63,2.52-1.79,1.14s-3.42-2.77-3.58-3.25Z"/>
        <polygon class="cls-7" points="352.41 541.39 348.34 541.39 347.93 537.97 350.71 536.02 353.54 539.27 352.41 541.39"/>
        <polygon class="cls-7" points="34.74 221.48 34.36 223.53 33.89 225.23 31.91 225.43 29.1 224.41 28.19 221.11 30.66 218.99 33.57 220.13 34.74 221.48"/>
        <path class="cls-7" d="M29.15,215.99c-.44-.26-1.92-3.72-1.92-3.72l1.92-2.76,3.92.31,1.12,1.29.41,2.97-.61,2.03s-4.4.14-4.84-.13Z"/>
        <polygon class="cls-7" points="43.06 217.54 39.97 220.2 37.43 217.88 38.26 214.58 42.54 215.2 43.06 217.54"/>
        <polygon class="cls-7" points="13.84 256.01 14.29 258.05 14.53 259.79 12.79 260.75 9.81 260.93 7.67 258.25 9.1 255.33 12.23 255.23 13.84 256.01"/>
        <path class="cls-7" d="M6.54,253.17c-.51-.07-3.23-2.66-3.23-2.66l.68-3.29,3.72-1.26,1.54.75,1.55,2.57.24,2.11s-3.99,1.86-4.5,1.79Z"/>
        <polygon class="cls-7" points="19.93 249.12 18.14 252.77 14.89 251.64 14.36 248.28 18.53 247.16 19.93 249.12"/>
        <polygon class="cls-7" points="67.8 192.02 67.27 194.04 66.68 195.7 64.7 195.76 61.97 194.55 61.29 191.19 63.9 189.25 66.73 190.59 67.8 192.02"/>
        <path class="cls-7" d="M62.6,186.15c-.42-.29-1.65-3.84-1.65-3.84l2.11-2.62,3.89.58,1.02,1.37.2,3-.75,1.98s-4.39-.17-4.82-.47Z"/>
        <polygon class="cls-7" points="76.37 188.67 73.1 191.1 70.73 188.61 71.79 185.38 76.01 186.29 76.37 188.67"/>
        <polygon class="cls-7" points="160.67 112.54 160.33 114.6 159.89 116.3 157.92 116.54 155.09 115.58 154.11 112.3 156.54 110.13 159.47 111.21 160.67 112.54"/>
        <path class="cls-7" d="M154.97,107.16c-.45-.25-1.99-3.68-1.99-3.68l1.86-2.8,3.92.23,1.14,1.27.48,2.96-.57,2.04s-4.39.23-4.84-.03Z"/>
        <polygon class="cls-7" points="168.9 108.43 165.87 111.15 163.29 108.88 164.05 105.57 168.33 106.09 168.9 108.43"/>
        <polygon class="cls-7" points="187.6 80.63 187.3 82.69 186.9 84.4 184.93 84.69 182.08 83.79 181.04 80.53 183.41 78.31 186.37 79.32 187.6 80.63"/>
        <path class="cls-7" d="M181.78,75.38c-.45-.24-2.07-3.64-2.07-3.64l1.8-2.84,3.93.14,1.17,1.25.54,2.95-.53,2.06s-4.39.32-4.84.08Z"/>
        <polygon class="cls-7" points="195.74 76.34 192.77 79.12 190.13 76.91 190.82 73.58 195.12 74.02 195.74 76.34"/>
        <polygon class="cls-7" points="220.05 44.9 219.72 46.96 219.29 48.67 217.32 48.92 214.48 47.98 213.49 44.7 215.9 42.51 218.84 43.58 220.05 44.9"/>
        <path class="cls-7" d="M214.31,39.56c-.45-.25-2.01-3.67-2.01-3.67l1.85-2.81,3.92.21,1.15,1.27.49,2.96-.56,2.05s-4.39.25-4.84,0Z"/>
        <polygon class="cls-7" points="228.25 40.75 225.24 43.48 222.64 41.23 223.39 37.91 227.68 38.42 228.25 40.75"/>
        <polygon class="cls-7" points="128.4 137.44 127.92 139.47 127.37 141.14 125.38 141.25 122.62 140.1 121.87 136.77 124.43 134.76 127.29 136.03 128.4 137.44"/>
        <path class="cls-7" d="M123.07,131.69c-.43-.28-1.74-3.81-1.74-3.81l2.05-2.67,3.9.49,1.05,1.35.27,2.99-.71,2s-4.4-.07-4.83-.36Z"/>
        <polygon class="cls-7" points="136.88 133.9 133.68 136.41 131.25 133.97 132.24 130.71 136.48 131.53 136.88 133.9"/>
        <polygon class="cls-7" points="99.55 165.45 99.19 167.5 98.74 169.21 96.76 169.43 93.94 168.45 92.99 165.16 95.44 163 98.36 164.11 99.55 165.45"/>
        <path class="cls-7" d="M93.89,160.02c-.45-.26-1.96-3.7-1.96-3.7l1.89-2.78,3.92.26,1.13,1.28.45,2.97-.59,2.04s-4.39.19-4.84-.07Z"/>
        <polygon class="cls-7" points="107.81 161.41 104.76 164.11 102.2 161.81 102.99 158.51 107.27 159.07 107.81 161.41"/>
        <polygon class="cls-7" points="496.42 220.13 499.34 218.99 501.81 221.11 500.9 224.41 498.09 225.43 496.11 225.23 495.64 223.53 495.26 221.48 496.42 220.13"/>
        <path class="cls-7" d="M496.01,216.12l-.61-2.03.41-2.97,1.12-1.29,3.92-.31,1.92,2.76s-1.47,3.46-1.92,3.72c-.44.26-4.84.13-4.84.13Z"/>
        <polygon class="cls-7" points="487.46 215.2 491.73 214.58 492.56 217.88 490.02 220.2 486.94 217.54 487.46 215.2"/>
        <polygon class="cls-7" points="517.77 255.23 520.9 255.33 522.33 258.25 520.19 260.93 517.21 260.75 515.47 259.79 515.7 258.05 516.16 256.01 517.77 255.23"/>
        <path class="cls-7" d="M518.97,251.38l.24-2.11,1.55-2.57,1.54-.75,3.72,1.26.68,3.29s-2.72,2.6-3.23,2.66c-.51.07-4.5-1.79-4.5-1.79Z"/>
        <polygon class="cls-7" points="511.47 247.16 515.64 248.28 515.11 251.64 511.86 252.77 510.07 249.12 511.47 247.16"/>
        <polygon class="cls-7" points="463.27 190.59 466.1 189.25 468.71 191.19 468.03 194.55 465.3 195.76 463.32 195.7 462.73 194.04 462.2 192.02 463.27 190.59"/>
        <path class="cls-7" d="M462.58,186.62l-.75-1.98.2-3,1.02-1.37,3.89-.58,2.11,2.62s-1.23,3.55-1.65,3.84c-.42.29-4.82.47-4.82.47Z"/>
        <polygon class="cls-7" points="453.99 186.29 458.2 185.38 459.26 188.61 456.89 191.1 453.63 188.67 453.99 186.29"/>
        <polygon class="cls-7" points="370.52 111.21 373.46 110.13 375.88 112.3 374.91 115.58 372.08 116.54 370.1 116.3 369.67 114.6 369.33 112.54 370.52 111.21"/>
        <path class="cls-7" d="M370.19,107.19l-.57-2.04.48-2.96,1.14-1.27,3.92-.23,1.86,2.8s-1.55,3.42-1.99,3.68c-.45.25-4.84.03-4.84.03Z"/>
        <polygon class="cls-7" points="361.66 106.09 365.95 105.57 366.71 108.88 364.12 111.15 361.1 108.43 361.66 106.09"/>
        <polygon class="cls-7" points="343.63 79.32 346.59 78.31 348.96 80.53 347.91 83.79 345.06 84.69 343.1 84.4 342.7 82.69 342.4 80.63 343.63 79.32"/>
        <path class="cls-7" d="M343.38,75.3l-.53-2.06.54-2.95,1.17-1.25,3.93-.14,1.8,2.84s-1.62,3.39-2.07,3.64c-.45.24-4.84-.08-4.84-.08Z"/>
        <polygon class="cls-7" points="334.88 74.02 339.17 73.58 339.87 76.91 337.23 79.12 334.26 76.34 334.88 74.02"/>
        <polygon class="cls-7" points="311.16 43.58 314.1 42.51 316.51 44.7 315.52 47.98 312.68 48.92 310.71 48.67 310.28 46.96 309.95 44.9 311.16 43.58"/>
        <path class="cls-7" d="M310.85,39.56l-.56-2.05.49-2.96,1.15-1.27,3.92-.21,1.85,2.81s-1.56,3.42-2.01,3.67c-.45.25-4.84,0-4.84,0Z"/>
        <polygon class="cls-7" points="302.32 38.42 306.61 37.91 307.35 41.23 304.76 43.48 301.74 40.75 302.32 38.42"/>
        <polygon class="cls-7" points="402.71 136.03 405.57 134.76 408.13 136.77 407.38 140.1 404.62 141.25 402.63 141.14 402.08 139.47 401.6 137.44 402.71 136.03"/>
        <path class="cls-7" d="M402.11,132.05l-.71-2,.27-2.99,1.05-1.35,3.9-.49,2.05,2.67s-1.31,3.52-1.74,3.81c-.43.28-4.83.36-4.83.36Z"/>
        <polygon class="cls-7" points="393.52 131.53 397.76 130.71 398.75 133.97 396.32 136.41 393.11 133.9 393.52 131.53"/>
        <polygon class="cls-7" points="431.63 164.11 434.56 163 437 165.16 436.06 168.45 433.24 169.43 431.26 169.21 430.81 167.5 430.45 165.45 431.63 164.11"/>
        <path class="cls-7" d="M431.27,160.1l-.59-2.04.45-2.97,1.13-1.28,3.92-.26,1.89,2.78s-1.51,3.44-1.96,3.7c-.45.26-4.84.07-4.84.07Z"/>
        <polygon class="cls-7" points="422.73 159.07 427.01 158.51 427.8 161.81 425.23 164.11 422.18 161.41 422.73 159.07"/>
        <polygon class="cls-7" points="420.21 529.18 418.58 530.48 417.11 531.46 415.49 530.32 414.02 527.72 415.49 524.62 418.74 524.62 420.21 527.39 420.21 529.18"/>
        <path class="cls-7" d="M419.56,521.37c-.16-.49.98-4.07.98-4.07l3.25-.84,2.77,2.79v1.71l-1.63,2.52-1.79,1.14s-3.42-2.77-3.58-3.26Z"/>
        <polygon class="cls-7" points="429.08 531.62 425.01 531.62 424.6 528.21 427.38 526.25 430.22 529.51 429.08 531.62"/>
        <polygon class="cls-7" points="76.99 534.31 75.36 535.61 73.9 536.59 72.27 535.45 70.8 532.84 72.27 529.75 75.52 529.75 76.99 532.52 76.99 534.31"/>
        <path class="cls-7" d="M76.34,526.5c-.16-.49.98-4.07.98-4.07l3.25-.84,2.77,2.79v1.71l-1.63,2.52-1.79,1.14s-3.42-2.77-3.58-3.26Z"/>
        <polygon class="cls-7" points="85.86 536.75 81.79 536.75 81.38 533.33 84.16 531.38 87 534.63 85.86 536.75"/>
        <polygon class="cls-7" points="126.25 504.12 124.62 505.43 123.15 506.4 121.53 505.26 120.06 502.66 121.53 499.57 124.78 499.57 126.25 502.33 126.25 504.12"/>
        <path class="cls-7" d="M125.6,496.31c-.16-.49.98-4.07.98-4.07l3.26-.84,2.77,2.79v1.71l-1.63,2.52-1.79,1.14s-3.42-2.77-3.58-3.26Z"/>
        <polygon class="cls-7" points="135.12 506.56 131.05 506.56 130.64 503.15 133.42 501.19 136.26 504.45 135.12 506.56"/>
        <polygon class="cls-7" points="258.25 19.88 256.85 21.42 255.55 22.61 253.77 21.74 251.92 19.4 252.88 16.11 256.1 15.61 257.98 18.11 258.25 19.88"/>
        <path class="cls-7" d="M256.4,12.27c-.24-.46.33-4.17.33-4.17l3.08-1.33,3.17,2.33.27,1.69-1.22,2.75-1.59,1.4s-3.81-2.2-4.04-2.66Z"/>
        <polygon class="cls-7" points="267.4 20.91 263.38 21.55 262.44 18.23 264.89 15.87 268.19 18.65 267.4 20.91"/>
      </g>
    </g>
  </g>
</svg>