<?xml version="1.0" encoding="UTF-8"?>
<svg id="Layer_2" data-name="Layer 2" xmlns="http://www.w3.org/2000/svg" xmlns:xlink="http://www.w3.org/1999/xlink" viewBox="0 0 256.97 168.34">
  <defs>
    <style>
      .cls-1 {
        fill: none;
      }

      .cls-2, .cls-3 {
        fill: #e9e9ea;
      }

      .cls-4 {
        fill: #e77458;
      }

      .cls-5 {
        fill: #e7b490;
      }

      .cls-6, .cls-7 {
        fill: #603813;
      }

      .cls-3, .cls-7, .cls-8 {
        fill-rule: evenodd;
      }

      .cls-9 {
        fill: #a27b62;
      }

      .cls-10 {
        clip-path: url(#clippath-1);
      }

      .cls-11 {
        clip-path: url(#clippath-3);
      }

      .cls-12 {
        clip-path: url(#clippath-4);
      }

      .cls-13 {
        clip-path: url(#clippath-2);
      }

      .cls-14 {
        clip-path: url(#clippath-5);
      }

      .cls-15 {
        fill: #d6de23;
      }

      .cls-16 {
        fill: #f7b762;
      }

      .cls-17 {
        fill: #fff;
      }

      .cls-18 {
        fill: #90633f;
      }

      .cls-19, .cls-8 {
        fill: #f7cfb4;
      }

      .cls-20 {
        opacity: .2;
      }

      .cls-21 {
        fill: #fac3ae;
      }

      .cls-22 {
        fill: #b08348;
      }

      .cls-23 {
        fill: #754c28;
      }

      .cls-24 {
        fill: #ec1c24;
      }

      .cls-25 {
        clip-path: url(#clippath);
      }

      .cls-26 {
        fill: #a2753d;
      }

      .cls-27 {
        fill: #060707;
      }
    </style>
    <clipPath id="clippath">
      <rect class="cls-1" x="94.82" y="3.1" width="162.15" height="162.15"/>
    </clipPath>
    <clipPath id="clippath-1">
      <rect class="cls-1" x="94.82" y="3.1" width="162.15" height="162.15"/>
    </clipPath>
    <clipPath id="clippath-2">
      <rect class="cls-1" y="0" width="168.34" height="168.34"/>
    </clipPath>
    <clipPath id="clippath-3">
      <rect class="cls-1" y="0" width="168.34" height="168.34"/>
    </clipPath>
    <clipPath id="clippath-4">
      <rect class="cls-1" y="0" width="168.34" height="168.34"/>
    </clipPath>
    <clipPath id="clippath-5">
      <rect class="cls-1" x="56.84" y="38.04" width="51.57" height="19.34"/>
    </clipPath>
  </defs>
  <g class="cls-25">
    <g class="cls-10">
      <path class="cls-2" d="M182.63,114.74s-.09-4.36-.16-6.31c-.17-4.67-1.28-12.47-6.88-11.72l-1.86.06c-7.33-.83-6.57,10.93-6.57,10.93.1,1.45-.66,6.42.29,6.67,4.53,1.24,15.18.37,15.18.37"/>
      <path class="cls-8" d="M173.62,133.57c.07-2.37.08-4.64.04-6.77-.65-.71-3.83-1.85-5.04-1.75-.21,2.41-.36,5.06-.44,7.86-.08,2.66,0,4.78.17,6.47l5.13-.42c.04-1.62.09-3.5.15-5.39"/>
      <path class="cls-3" d="M173.35,143.78c0-.07.06-2.07.13-4.82l-5.13.42c.21,2.01.56,3.41.98,4.39-.33.1-1.44.79-1.72,1.01,1.37,2.14,3.84.51,5.7-.71.01-.09.03-.19.04-.29"/>
      <path class="cls-7" d="M173.31,144.07c-1.86,1.21-4.33,2.85-5.7.71-5.78,4.6,4.8,5.42,5.7-.71"/>
      <path class="cls-8" d="M184.31,131.76c-1.09-2.1-2.18-4.1-3.25-5.94-.91-.3-4.25.24-5.26.91.99,2.21,2.14,4.6,3.43,7.09,1.22,2.36,2.31,4.18,3.28,5.57l4.28-2.85c-.75-1.44-1.61-3.11-2.48-4.79"/>
      <path class="cls-3" d="M189.02,140.82c-.03-.06-.96-1.84-2.22-4.28l-4.28,2.85c1.15,1.65,2.14,2.71,2.98,3.37h0c-.24.25-.88,1.39-1.01,1.71,2.24,1.21,3.6-1.41,4.65-3.38-.03-.09-.07-.18-.11-.27"/>
      <path class="cls-7" d="M189.13,141.09c-1.04,1.97-2.41,4.59-4.65,3.38-2.83,6.82,6.82,2.42,4.65-3.38"/>
      <path class="cls-24" d="M182.16,112.46h-14.44c-4.92,3.48-8.39,10.28-8.39,17.89,0,0,11.42,1.56,15.27,1.56s15.27-1.56,15.27-1.56c0-7.6-3.05-14.4-7.7-17.89"/>
      <path class="cls-2" d="M189.47,102.52c-1.82-.31-6.22-2.88-7.74-3.92-1.65-1.13-1.74,3.03-1.74,3.03,1.5,1.73,3.47,2.86,5.59,3.55,1.84.6,3.79,1.01,5.76.92v-3.41c-.64,0-1.27-.07-1.87-.17"/>
      <path class="cls-19" d="M196.74,102.4c-.35-.85-1.17-.96-1.89-.55-1.12.63-2.33.84-3.52.84v3.41c1.59-.07,3.17-.45,4.71-1.32.73-.41.99-1.65.7-2.38"/>
      <path class="cls-19" d="M194.33,102.62c-.25.68-.72,1.14-1.03,1.02-.32-.12-.37-.77-.12-1.45.25-.68.72-1.14,1.03-1.02.32.12.37.77.12,1.45"/>
      <path class="cls-2" d="M159.46,102.52c1.82-.31,6.22-2.88,7.74-3.92,1.65-1.13,1.74,3.03,1.74,3.03-1.5,1.73-3.47,2.86-5.59,3.55-1.84.6-3.79,1.01-5.76.92v-3.41c.64,0,1.27-.07,1.87-.17"/>
      <path class="cls-19" d="M152.2,102.4c.35-.85,1.17-.96,1.89-.55,1.12.63,2.33.84,3.52.84v3.41c-1.59-.07-3.17-.45-4.71-1.32-.73-.41-.99-1.65-.7-2.38"/>
      <path class="cls-19" d="M154.61,102.62c.25.68.72,1.14,1.03,1.02s.37-.77.12-1.45-.72-1.14-1.03-1.02c-.32.12-.37.77-.12,1.45"/>
      <polygon class="cls-16" points="169.97 95.79 175.29 100.88 176.59 113.51 164.73 113.51 169.97 95.79"/>
      <polygon class="cls-16" points="179.29 95.79 174.46 100.88 173.28 113.51 184.04 113.51 179.29 95.79"/>
      <path class="cls-23" d="M170.46,103.29c2.21,1.22,4.55,2.79,7.18,2.69.54-.02.54-.86,0-.84-2.47.09-4.68-1.43-6.76-2.58-.47-.26-.9.46-.42.72"/>
      <path class="cls-23" d="M177.43,102.57c-2.08,1.15-4.29,2.67-6.76,2.58-.54-.02-.54.82,0,.84,2.63.09,4.97-1.47,7.18-2.69.47-.26.05-.98-.42-.72"/>
      <path class="cls-19" d="M217.42,71.89c-.2,1.37-.49,2.7-.88,3.98-6,.13-13.66-6.4-17.66-10.51-5.89-6.04-8.91-14.49-9.93-22.72-2.24,4.96-6.51,9.2-9.43,12.5-3.58,4.06-7.88,7.37-13.01,9.2-10.1,3.61-22.97,3.89-31.92-2.21-.21.6-.41,1.21-.57,1.83-.92-.91-2.2-1.45-3.6-1.4-2.69.11-4.78,2.37-4.67,5.06.11,2.69,2.37,4.78,5.06,4.67.85-.03,1.65-.29,2.33-.7.3,20.23,19.73,26.97,41.75,26.97,18.22,0,32.95-4.62,38.9-17.69.71.36,1.52.54,2.37.51,2.69-.11,4.78-2.37,4.67-5.06-.08-2.1-1.49-3.84-3.39-4.44"/>
      <path class="cls-21" d="M144.75,87.02c-.8,1.99,1.82,4.93,5.87,6.56,4.05,1.63,7.98,1.34,8.78-.65.8-1.99-1.82-4.93-5.87-6.56-4.05-1.63-7.98-1.34-8.78.65"/>
      <path class="cls-21" d="M200.87,89.67c.54,2.08-2.44,4.66-6.66,5.76-4.22,1.1-8.08.32-8.63-1.76-.54-2.08,2.44-4.66,6.66-5.76,4.22-1.1,8.08-.32,8.63,1.76"/>
      <path class="cls-4" d="M174.75,90.63c-.23.8-.46,1.62-.95,2.31-.41.58-1.06,1.09-1.81.97-.75-.12-1.33-.75-1.7-1.37-.43-.73-.66-1.55-.9-2.36-.11-.37-.69-.21-.58.16.47,1.61,1.2,3.94,3.18,4.17,2.03.24,2.9-2.19,3.33-3.72.1-.37-.47-.53-.58-.16"/>
      <path class="cls-27" d="M153.9,80.06c0,1.91-.82,3.46-1.82,3.46s-1.82-1.55-1.82-3.46.82-3.46,1.82-3.46,1.82,1.55,1.82,3.46"/>
      <path class="cls-27" d="M195.87,82.53c0,1.91-.82,3.46-1.82,3.46s-1.82-1.55-1.82-3.46.82-3.46,1.82-3.46,1.82,1.55,1.82,3.46"/>
      <path class="cls-5" d="M173.68,85.02c0-.53-.84-1.68-2.15-1.69-1.32,0-2.6,1.12-2.6,1.65,0,.54,1.07-.7,2.38-.69,1.32.01,2.37,1.27,2.38.74"/>
      <path class="cls-18" d="M153.68,67.85c.91-.29,1.75-.05,2.27.54-.67,0-1.41.13-2.2.38-.78.25-1.52.6-2.14,1.01.39-.89,1.15-1.63,2.06-1.93"/>
      <path class="cls-18" d="M193.33,67.85c-.91-.29-1.75-.05-2.27.54.67,0,1.41.13,2.2.38.78.25,1.52.6,2.14,1.01-.39-.89-1.15-1.63-2.06-1.93"/>
      <path class="cls-9" d="M184.26,38.41c-4.89,13.66-18.23,23.25-32.76,23.41-1.09,0-2.23-.05-3.32-.16-.49-.07-.97-.13-1.46-.2.96-.06,1.96-.13,2.91-.23,13.35-1.41,24.83-8.42,32.41-19.46.76-1.09,1.5-2.23,2.21-3.35"/>
      <path class="cls-9" d="M192.84,40.31c2.24,11.35,6.76,21.68,17.47,27.31,1.05.53,2.14,1,3.24,1.42-.8-.08-1.59-.21-2.37-.39-12.28-3.11-19.02-16.34-18.34-28.35"/>
      <path class="cls-18" d="M236.5,84.86c-3.19-.99-8.12-5.04-9.02-6.51-6.01-9.74-5.6-23.23-9.02-33.78-.5-1.54-1.05-3.06-1.67-4.57-9.65-23.38-35.85-33.15-62.62-23.62-23.11,8.23-30.03,29.89-27.76,49.71,1.84,16.07,12.49,37.2,31.1,42.18,32.15,8.6,70.63-5.68,78.99-23.41"/>
    </g>
  </g>
  <g class="cls-13">
    <g class="cls-11">
      <g class="cls-12">
        <path class="cls-15" d="M99.48,108.84c-1.81.34-6.8-.53-8.59-.98-1.94-.48-.57,3.43-.57,3.43,2,1.09,4.24,1.47,6.45,1.38,1.92-.08,3.89-.37,5.7-1.13l-1.19-3.18c-.59.22-1.2.37-1.79.49"/>
        <path class="cls-19" d="M106.22,106.21c-.62-.67-1.42-.49-1.96.14-.83.97-1.88,1.6-2.99,2l1.19,3.18c1.45-.61,2.79-1.52,3.93-2.86.54-.64.36-1.88-.17-2.46"/>
        <path class="cls-19" d="M104.04,107.26c0,.73-.27,1.31-.61,1.31s-.61-.59-.61-1.31.27-1.31.61-1.31.61.59.61,1.31"/>
        <path class="cls-15" d="M70.56,115.43c1.72-.64,5.54-3.98,6.84-5.28,1.41-1.41,2.27,2.64,2.27,2.64-1.15,1.97-2.87,3.45-4.8,4.51-1.69.93-3.52,1.69-5.46,1.98l-.62-3.34c.62-.12,1.22-.3,1.78-.51"/>
        <path class="cls-19" d="M63.43,116.67c.18-.89.96-1.16,1.75-.89,1.21.41,2.44.39,3.6.17l.62,3.34c-1.55.23-3.18.15-4.85-.41-.79-.27-1.28-1.43-1.12-2.2"/>
        <path class="cls-19" d="M65.83,116.44c.38.62.91.98,1.2.81.29-.17.22-.82-.16-1.44-.38-.62-.91-.98-1.2-.81-.29.17-.22.82.16,1.44"/>
        <path class="cls-15" d="M77.81,119.02c.02-.51.04-1.05.09-1.61-.1-2.77.14-10.94,6.73-10.08l1.86.06c1.47-.17,2.62.17,3.51.82,0,0,.01,0,.02.01.66.49,1.31,1.08,1.58,1.89,1.16,3.53,1.46,8.14,1.46,8.14-.09,1.45.67,6.39-.27,6.65-4.51,1.25-15.11.42-15.11.42,0,0,.07-4.34.14-6.28"/>
        <polyline class="cls-2" points="89.72 109.81 88.68 107.3 87.8 106.61 84.82 108.95 81.4 107.35 80.61 108.35 81.19 110.81 85.07 110.79"/>
        <path class="cls-8" d="M92.06,141.65c-.02-2.79-.13-5.43-.28-7.84-1.2-.12-4.4.95-5.06,1.64-.08,2.12-.11,4.38-.09,6.74,0,1.05.02,2.1.03,3.11h5.34c.05-1.09.08-2.3.07-3.65"/>
        <path class="cls-3" d="M90.71,152.44c.61-1.36,1.11-3.57,1.29-7.13h-5.34c.03,3.83.04,6.98.05,7.06.02.25.05.49.1.72l3.99-.62s-.06-.02-.09-.03Z"/>
        <path class="cls-7" d="M91.48,152.78c-.16-.11-.4-.22-.69-.32l-3.99.62c1.27,5.93,12.1,4.88,4.68-.31"/>
        <path class="cls-8" d="M79.34,141.4c1.07-2.58,2-5.05,2.8-7.33-1.06-.58-4.42-.84-5.3-.46-.9,1.92-1.82,3.99-2.72,6.17-.4.97-.8,1.94-1.19,2.87l4.92,2.08c.47-.98.97-2.09,1.49-3.34"/>
        <path class="cls-3" d="M73.89,150.8c1.1-1.02,2.42-2.85,3.97-6.06l-4.92-2.08c-1.47,3.54-2.68,6.44-2.71,6.52-.08.24-.14.47-.18.7l3.92.98s-.04-.04-.07-.06Z"/>
        <path class="cls-7" d="M74.47,151.42c-.1-.16-.28-.36-.51-.56l-3.92-.98c-1.15,5.95,9.24,9.21,4.43,1.54"/>
        <path class="cls-22" d="M90.72,123.99l-13.01-.42c-.25,0-.13,1.16-.29,1.6l-3.68,9.47c-.24.62.09,1.32.72,1.53l7.23,2.36c.48.16,1.02-.02,1.31-.43l8.71-12.27c.56-.79-.03-1.87-.99-1.84"/>
        <path class="cls-22" d="M84.42,124.74l8.83-1.16c.35.15.05.95.14,1.74l1.39,11.89c.1.89-.61,1.66-1.5,1.62l-6.82-.27c-.68-.03-1.25-.52-1.37-1.2l-1.96-10.91c-.15-.84.45-1.62,1.29-1.7"/>
        <path class="cls-22" d="M91.35,118.25c.08,1.07-.69,2-1.7,2.08l-7.36.52c-1.02.07-1.9-.74-1.98-1.81-.08-1.07.69-2,1.7-2.08l7.36-.52c1.02-.07,1.9.74,1.98,1.81"/>
        <path class="cls-22" d="M89.66,120.44l-7.36.52c-1.07.08-2.01-.78-2.09-1.92-.08-1.13.72-2.12,1.8-2.2l7.36-.52c1.07-.08,2.01.78,2.09,1.92.08,1.13-.72,2.12-1.79,2.2M82.02,117.07c-.96.07-1.68.95-1.61,1.96.07,1.01.91,1.78,1.87,1.71l7.36-.52c.96-.07,1.68-.95,1.61-1.96-.07-1.01-.91-1.78-1.87-1.71l-7.36.52Z"/>
        <path class="cls-26" d="M82.32,127.31c.02.34-.49.65-1.15.7-.66.05-1.21-.19-1.23-.53l-1.26-17.66c-.02-.34.49-.65,1.15-.7.66-.05,1.21.19,1.23.53l1.26,17.66Z"/>
        <path class="cls-26" d="M81.18,128.12c-.78.06-1.44-.23-1.47-.63l-1.26-17.66c-.03-.4.58-.77,1.36-.83.78-.06,1.44.23,1.47.63l1.26,17.66c.03.4-.58.77-1.36.83M79.84,109.24c-.53.04-.95.29-.93.57l1.26,17.66c.02.27.47.47,1,.43.53-.04.95-.29.93-.57l-1.26-17.66c-.02-.27-.47-.47-1-.43"/>
        <path class="cls-22" d="M82.3,126.6c.02.33-.42.62-.99.66-.57.04-1.05-.19-1.07-.52l-1.21-16.97c-.02-.33.42-.62.99-.66.57-.04,1.05.19,1.07.52l1.21,16.97Z"/>
        <path class="cls-22" d="M81.32,127.37c-.68.05-1.25-.23-1.28-.61l-1.21-16.97c-.03-.39.5-.74,1.18-.79.68-.05,1.25.23,1.28.61l1.21,16.97c.03.39-.5.74-1.18.79M80.03,109.22c-.46.03-.82.27-.8.54l1.21,16.97c.02.26.41.45.87.42.46-.03.82-.27.8-.54l-1.21-16.97c-.02-.26-.41-.45-.87-.42"/>
        <path class="cls-22" d="M81.9,121.04c.02.22-.43.43-1,.48-.57.04-1.04-.11-1.06-.33l-.83-11.61c-.02-.22.43-.44,1-.48.57-.04,1.04.11,1.06.33l.83,11.61Z"/>
        <path class="cls-22" d="M80.91,121.63c-.69.05-1.24-.14-1.26-.43l-.83-11.6c-.02-.29.5-.55,1.19-.6.69-.05,1.24.14,1.26.43l.83,11.61c.02.29-.5.55-1.19.6M80.03,109.22c-.45.03-.83.19-.81.35l.83,11.61c.01.16.4.26.86.23.45-.03.83-.19.81-.35l-.83-11.61c-.01-.16-.4-.26-.86-.23"/>
        <path class="cls-16" d="M82.19,125.45c.04.61-.37,1.14-.92,1.18-.55.04-1.04-.43-1.08-1.04-.04-.61.37-1.14.92-1.18.55-.04,1.04.43,1.08,1.04"/>
        <path class="cls-26" d="M89.98,126.76c.02.34.58.57,1.23.53.66-.05,1.17-.36,1.15-.7l-1.26-17.66c-.02-.34-.58-.58-1.23-.53-.66.05-1.17.36-1.15.7l1.26,17.66Z"/>
        <path class="cls-26" d="M89.76,126.78l-1.26-17.66c-.03-.4.58-.77,1.36-.83.78-.06,1.44.23,1.47.63l1.26,17.66c.03.4-.58.77-1.36.83-.78.06-1.44-.23-1.47-.63M88.95,109.09l1.26,17.66c.02.27.47.47,1,.43.53-.04.95-.29.93-.57l-1.26-17.66c-.02-.27-.47-.47-1-.43-.53.04-.95.29-.93.57"/>
        <path class="cls-22" d="M89.9,126.06c.02.33.5.56,1.07.52.57-.04,1.01-.34.99-.66l-1.21-16.97c-.02-.33-.5-.56-1.07-.52-.57.04-1.01.34-.99.66l1.21,16.97Z"/>
        <path class="cls-22" d="M89.71,126.07l-1.21-16.97c-.03-.39.5-.74,1.18-.79.68-.05,1.25.23,1.28.61l1.21,16.97c.03.39-.5.74-1.18.79-.68.05-1.25-.23-1.28-.61M88.89,109.07l1.21,16.97c.02.26.41.45.87.42.46-.03.82-.27.8-.54l-1.21-16.97c-.02-.26-.41-.45-.87-.42-.46.03-.82.27-.8.54"/>
        <path class="cls-22" d="M89.51,120.5c.02.22.49.37,1.06.33s1.02-.25,1-.48l-.83-11.61c-.02-.22-.49-.37-1.06-.33-.57.04-1.02.25-1,.48l.83,11.61Z"/>
        <path class="cls-22" d="M89.31,120.51l-.83-11.61c-.02-.29.5-.55,1.19-.6.69-.05,1.24.14,1.26.43l.83,11.61c.02.29-.5.55-1.19.6-.69.05-1.24-.14-1.26-.43M88.88,108.88l.83,11.61c.01.16.4.26.86.23.45-.03.83-.19.81-.35l-.83-11.6c-.01-.16-.4-.26-.86-.23-.45.03-.83.19-.81.35"/>
        <path class="cls-16" d="M89.85,124.91c.04.61.53,1.08,1.08,1.04.55-.04.97-.57.92-1.18-.04-.61-.53-1.08-1.08-1.04-.55.04-.97.57-.92,1.18"/>
        <path class="cls-19" d="M126.75,76.01c-.19-2.46-2.34-4.3-4.8-4.1-.64.05-1.23.23-1.76.52-.83-6.22-4.22-12.08-8.01-16.91-2.44-3.12-5.34-5.84-8.76-7.86-5.99-3.55-13.05-5.59-19.83-6.31-7.42-.78-14.97,1.12-21.58,4.83-6.71,3.77-12.46,9.42-16.11,16.05l-3.34,8.51c-.9,3.72-1.14,7.59-.56,11.51-.85-.49-1.87-.7-2.91-.54-2.44.39-4.1,2.67-3.71,5.11.39,2.43,2.67,4.1,5.11,3.71.77-.12,1.47-.44,2.04-.89,2.45,18.4,20.88,22.44,40.93,20.07.31-.04,1.54-.18,1.85-.22,20.05-2.37,37.04-10.6,35.13-29.06.67.3,1.41.45,2.2.39,2.46-.19,4.3-2.34,4.1-4.8M43.1,86.94h0s0,0,.01,0c0,0,0,0-.01,0"/>
        <path class="cls-6" d="M114.21,100.14c.07-.04.14-.1.2-.15,1.63-1.56,4.42-3.71,6.31-9.95,2.23-7.4,2.59-25.2,2.71-26.27.84-7.51-.2-18.22-5.64-23.82-.61-.63-1.24-1.23-1.9-1.82-.84-.75-.28-2.15.85-2.13,1.06.01,2.04-.02,2.46-.24.85-.45-11.57-9.07-18.62-7.95-.49.08-.98-.17-1.23-.6-.15-.25-.3-.49-.46-.72-7.24-10.75-18.19-5.73-22.5-5.79-5.04-.06-26.43,2.73-40.55,28.86-.52.96.38,2.07,1.43,1.76.02,0,.04-.01.06-.02.85-.26,1.68.46,1.56,1.34-1.07,7.93-3.96,36.73,8.54,49.09,8.6,8.5,15.58,8.92,30.85,8.49,17.82-.5,30.79-6.84,35.93-10.06"/>
        <g class="cls-20">
          <g class="cls-14">
            <path class="cls-17" d="M101.04,41.32c1.44,1.32,2.68,3.02,3.89,4.74,1.04,1.47,1.99,2.77,2.49,4.85.36,1.49.66,3.02.99,4.52l-6.42-7.04-3.01-1.56,4.17,8.6-7.84-7.19,1.34,8.11-5.92-9.13.95,8.47-5.58-4.81-2.19-2.6-1.67,4.99-2.17-3.21-4.35,7.12.14-7.77-9.12,6.7.62-3.4-3.13,2.45-3.88,1.48,1.5-3.06-5.03,3.79,4.81-13.42,1.2,5.93.8,2.19,2.26-5.25.87,2.8,1.86-3.62.61,2.86,1.58-6,.4,3.82,2.24-3.76.14,2.76,1.9-3.01.29,2.9,2.53-3.26.91,3.21,1.82-2.96.92,2.51,1.69-4.55,2.13,3.5,1.01-3.22,2.86,1.77.31-3.3,5.19,4.38.73-5.63c1.1.63,2.19,1.28,3.3,1.9.65.37,1.26.84,1.85,1.37"/>
          </g>
        </g>
      </g>
    </g>
  </g>
</svg>