<?xml version="1.0" encoding="UTF-8"?>
<svg id="Layer_2" data-name="Layer 2" xmlns="http://www.w3.org/2000/svg" viewBox="0 0 216.78 326.47">
  <defs>
    <style>
      .cls-1, .cls-2 {
        fill: #e9e9ea;
      }

      .cls-3 {
        fill: #e77458;
      }

      .cls-4 {
        fill: #e7b490;
      }

      .cls-5, .cls-6 {
        fill: #603813;
      }

      .cls-2, .cls-6, .cls-7 {
        fill-rule: evenodd;
      }

      .cls-8 {
        fill: #fff;
        opacity: .2;
      }

      .cls-9 {
        fill: #d6de23;
      }

      .cls-10 {
        fill: #f7b762;
      }

      .cls-11, .cls-7 {
        fill: #f7cfb4;
      }

      .cls-12 {
        fill: #fac3ae;
      }

      .cls-13 {
        fill: #b08348;
      }

      .cls-14 {
        fill: #a2753d;
      }

      .cls-15 {
        fill: #060707;
      }
    </style>
  </defs>
  <g id="Hans">
    <g>
      <g>
        <path class="cls-9" d="M152.19,212.22c-4.27.81-16.1-1.27-20.33-2.32-4.58-1.14-1.36,8.12-1.36,8.12,4.74,2.59,10.03,3.48,15.25,3.26,4.55-.19,9.21-.89,13.49-2.69l-2.82-7.52c-1.4.51-2.83.88-4.23,1.15Z"/>
        <path class="cls-11" d="M168.15,206c-1.46-1.59-3.36-1.17-4.64.33-1.95,2.3-4.46,3.78-7.08,4.74l2.82,7.52c3.43-1.44,6.61-3.59,9.31-6.77,1.28-1.51.84-4.46-.41-5.82Z"/>
        <path class="cls-11" d="M163,208.47c0,1.72-.65,3.11-1.44,3.11s-1.44-1.39-1.44-3.11.65-3.11,1.44-3.11,1.44,1.39,1.44,3.11Z"/>
      </g>
      <g>
        <path class="cls-9" d="M83.76,227.81c4.08-1.52,13.12-9.41,16.2-12.5,3.33-3.35,5.36,6.25,5.36,6.25-2.72,4.67-6.78,8.16-11.37,10.68-4,2.19-8.34,4.01-12.93,4.68l-1.47-7.9c1.46-.28,2.88-.71,4.22-1.21Z"/>
        <path class="cls-11" d="M66.89,230.74c.43-2.12,2.27-2.74,4.14-2.12,2.86.96,5.77.93,8.51.39l1.47,7.9c-3.68.54-7.52.35-11.47-.98-1.88-.63-3.03-3.38-2.66-5.2Z"/>
        <path class="cls-11" d="M72.57,230.19c.89,1.47,2.16,2.32,2.84,1.91s.52-1.94-.37-3.41c-.89-1.47-2.16-2.32-2.84-1.91-.68.41-.52,1.94.37,3.41Z"/>
      </g>
      <path class="cls-9" d="M100.92,236.3c.04-1.2.1-2.48.21-3.81-.25-6.57.33-25.89,15.93-23.87l4.39.13c3.49-.41,6.2.4,8.31,1.95.01.01.03.02.05.03,1.55,1.15,3.11,2.56,3.74,4.47,2.74,8.36,3.46,19.26,3.46,19.26-.22,3.43,1.59,15.11-.64,15.73-10.67,2.96-35.77.99-35.77.98,0,0,.18-10.26.33-14.87Z"/>
      <polygon class="cls-1" points="126.65 208.57 124.56 206.94 117.5 212.46 109.42 208.69 107.53 211.06 111.22 220.61 118.09 216.82 125.79 218.76 126.65 208.57"/>
      <g>
        <path class="cls-7" d="M134.65,289.87c-.06-6.6-.3-12.86-.67-18.55-2.85-.29-10.41,2.25-11.97,3.89-.19,5.01-.27,10.37-.22,15.96.02,2.49.04,4.98.06,7.36h12.64c.13-2.57.18-5.44.16-8.65Z"/>
        <path class="cls-2" d="M131.44,315.39c1.45-3.23,2.63-8.45,3.05-16.87h-12.64c.07,9.07.1,16.52.11,16.72.04.59.13,1.15.24,1.69l9.44-1.48c-.07-.02-.13-.05-.2-.07h0Z"/>
        <path class="cls-6" d="M133.28,316.21c-.38-.26-.95-.52-1.63-.75l-9.44,1.48c3,14.03,28.63,11.54,11.07-.73Z"/>
      </g>
      <g>
        <path class="cls-7" d="M104.54,289.28c2.52-6.1,4.74-11.95,6.62-17.34-2.51-1.38-10.46-1.98-12.54-1.09-2.13,4.54-4.3,9.44-6.43,14.6-.95,2.31-1.9,4.6-2.82,6.8l11.64,4.93c1.12-2.32,2.29-4.94,3.52-7.9Z"/>
        <path class="cls-2" d="M91.63,311.53c2.6-2.4,5.72-6.75,9.39-14.34l-11.64-4.93c-3.48,8.37-6.35,15.25-6.42,15.44-.19.56-.33,1.11-.44,1.65l9.27,2.32c-.05-.05-.11-.09-.16-.14h0Z"/>
        <path class="cls-6" d="M93,312.99c-.24-.39-.67-.85-1.21-1.33l-9.27-2.32c-2.72,14.09,21.86,21.8,10.48,3.65Z"/>
      </g>
      <path class="cls-13" d="M131.46,248.07l-30.8-1c-.6,0-.3,2.76-.7,3.78l-8.71,22.42c-.57,1.47.21,3.13,1.71,3.62l17.12,5.59c1.15.37,2.4-.04,3.1-1.02l20.62-29.05c1.32-1.86-.06-4.43-2.34-4.35Z"/>
      <path class="cls-13" d="M116.55,249.84l20.89-2.76c.82.35.11,2.25.33,4.11l3.3,28.14c.25,2.1-1.44,3.92-3.55,3.84l-16.15-.64c-1.61-.06-2.96-1.24-3.25-2.83l-4.63-25.83c-.35-1.98,1.06-3.84,3.06-4.03Z"/>
      <g>
        <path class="cls-13" d="M132.96,234.49c.18,2.54-1.62,4.74-4.03,4.91l-17.43,1.24c-2.41.17-4.5-1.75-4.68-4.29h0c-.18-2.54,1.62-4.74,4.03-4.91l17.43-1.24c2.41-.17,4.5,1.75,4.68,4.29h0Z"/>
        <path class="cls-13" d="M128.95,239.67l-17.43,1.24c-2.53.18-4.75-1.86-4.94-4.54-.19-2.68,1.71-5.02,4.25-5.2l17.43-1.24c2.53-.18,4.75,1.86,4.94,4.54.19,2.68-1.71,5.02-4.25,5.2ZM110.87,231.7c-2.27.16-3.98,2.24-3.81,4.63.17,2.39,2.16,4.21,4.43,4.05l17.43-1.24c2.27-.16,3.98-2.24,3.81-4.63-.17-2.39-2.16-4.21-4.43-4.05l-17.43,1.24Z"/>
      </g>
      <g>
        <path class="cls-14" d="M111.59,255.93c.06.8-1.16,1.54-2.71,1.65h0c-1.56.11-2.86-.45-2.92-1.25l-2.98-41.79c-.06-.8,1.16-1.54,2.71-1.65h0c1.56-.11,2.86.45,2.92,1.25l2.98,41.79Z"/>
        <path class="cls-14" d="M108.9,257.85c-1.85.13-3.41-.54-3.48-1.49l-2.98-41.79c-.07-.95,1.38-1.83,3.23-1.96,1.85-.13,3.41.54,3.47,1.49l2.98,41.79c.07.95-1.38,1.83-3.23,1.96ZM105.71,213.16c-1.26.09-2.25.69-2.2,1.34l2.98,41.79c.05.65,1.11,1.1,2.37,1.01,1.26-.09,2.25-.69,2.2-1.34l-2.98-41.79c-.05-.65-1.11-1.1-2.37-1.01Z"/>
      </g>
      <g>
        <path class="cls-13" d="M111.54,254.24c.05.77-.99,1.47-2.34,1.57h0c-1.35.1-2.48-.45-2.54-1.22l-2.86-40.18c-.05-.77.99-1.47,2.34-1.57h0c1.35-.1,2.48.45,2.54,1.22l2.86,40.18Z"/>
        <path class="cls-13" d="M109.22,256.07c-1.6.11-2.95-.54-3.02-1.45l-2.86-40.18c-.07-.91,1.18-1.75,2.78-1.87,1.6-.11,2.95.54,3.02,1.45l2.86,40.18c.07.91-1.18,1.75-2.78,1.86ZM106.16,213.1c-1.09.08-1.94.65-1.9,1.27l2.86,40.18c.04.62.97,1.07,2.06.99,1.09-.08,1.94-.65,1.9-1.27l-2.86-40.18c-.04-.62-.97-1.07-2.06-.99Z"/>
      </g>
      <g>
        <path class="cls-13" d="M110.61,241.09c.04.53-1.02,1.03-2.37,1.13h0c-1.35.1-2.47-.25-2.51-.78l-1.96-27.47c-.04-.53,1.02-1.03,2.37-1.13h0c1.35-.1,2.47.25,2.51.78l1.96,27.47Z"/>
        <path class="cls-13" d="M108.25,242.48c-1.63.12-2.94-.33-2.99-1.01l-1.96-27.47c-.05-.68,1.19-1.31,2.81-1.42,1.63-.12,2.94.33,2.99,1.01l1.96,27.47c.05.68-1.19,1.31-2.81,1.42ZM106.16,213.1c-1.07.08-1.95.46-1.93.83l1.96,27.47c.03.37.95.62,2.02.55s1.95-.46,1.93-.83l-1.96-27.47c-.03-.37-.95-.62-2.02-.55Z"/>
      </g>
      <path class="cls-10" d="M111.28,251.53c.1,1.45-.87,2.7-2.18,2.8-1.31.09-2.45-1.01-2.56-2.46-.1-1.45.87-2.7,2.18-2.8,1.31-.09,2.45,1.01,2.56,2.46Z"/>
      <g>
        <path class="cls-14" d="M129.73,254.63c.06.8,1.37,1.36,2.92,1.25h0c1.56-.11,2.77-.85,2.71-1.65l-2.98-41.79c-.06-.8-1.36-1.36-2.92-1.25h0c-1.56.11-2.77.85-2.72,1.65l2.98,41.79Z"/>
        <path class="cls-14" d="M129.2,254.67l-2.98-41.79c-.07-.95,1.38-1.83,3.23-1.96,1.85-.13,3.41.54,3.47,1.49l2.98,41.79c.07.95-1.38,1.83-3.23,1.96-1.85.13-3.41-.54-3.48-1.49ZM127.29,212.8l2.98,41.79c.05.65,1.11,1.1,2.37,1.01,1.26-.09,2.25-.69,2.2-1.34l-2.98-41.79c-.05-.65-1.11-1.1-2.37-1.01-1.26.09-2.25.69-2.2,1.34Z"/>
      </g>
      <g>
        <path class="cls-13" d="M129.54,252.96c.05.77,1.19,1.32,2.54,1.22h0c1.35-.1,2.39-.8,2.34-1.57l-2.86-40.18c-.05-.77-1.19-1.32-2.54-1.22h0c-1.35.1-2.39.8-2.34,1.57l2.86,40.18Z"/>
        <path class="cls-13" d="M129.08,252.99l-2.86-40.18c-.07-.91,1.18-1.75,2.78-1.87,1.6-.11,2.95.54,3.02,1.45l2.86,40.18c.07.91-1.18,1.75-2.78,1.86-1.6.11-2.95-.54-3.02-1.45ZM127.14,212.75l2.86,40.18c.04.62.97,1.07,2.06.99,1.09-.08,1.94-.65,1.89-1.27l-2.86-40.18c-.04-.62-.97-1.07-2.06-.99-1.09.08-1.94.65-1.9,1.27Z"/>
      </g>
      <g>
        <path class="cls-13" d="M128.6,239.8c.04.53,1.16.87,2.51.78h0c1.35-.1,2.41-.6,2.37-1.13l-1.96-27.47c-.04-.53-1.16-.87-2.51-.78h0c-1.35.1-2.41.6-2.37,1.13l1.96,27.47Z"/>
        <path class="cls-13" d="M128.14,239.84l-1.96-27.47c-.05-.68,1.19-1.31,2.81-1.42,1.63-.12,2.94.33,2.99,1.01l1.96,27.47c.05.68-1.19,1.31-2.81,1.42-1.63.12-2.94-.33-2.99-1.01ZM127.11,212.3l1.96,27.47c.03.37.95.62,2.02.55,1.07-.08,1.95-.46,1.93-.83l-1.96-27.47c-.03-.37-.95-.62-2.02-.55-1.07.08-1.95.46-1.93.83Z"/>
      </g>
      <path class="cls-10" d="M129.41,250.24c.1,1.45,1.25,2.55,2.56,2.46,1.31-.09,2.29-1.35,2.18-2.8-.1-1.45-1.25-2.55-2.56-2.46-1.31.09-2.29,1.35-2.18,2.8Z"/>
      <path class="cls-11" d="M216.75,134.51c-.45-5.82-5.54-10.17-11.36-9.71-1.51.12-2.92.55-4.17,1.22-1.96-14.72-9.99-28.58-18.96-40.03-5.78-7.38-12.63-13.81-20.72-18.6-14.17-8.39-30.89-13.24-46.92-14.92-17.57-1.85-35.44,2.64-51.08,11.43-15.89,8.93-29.49,22.3-38.13,37.99l-7.9,20.13c-2.13,8.79-2.7,17.97-1.33,27.23-2.01-1.15-4.41-1.66-6.89-1.27-5.76.91-9.69,6.33-8.78,12.09.91,5.76,6.33,9.69,12.09,8.78,1.83-.29,3.48-1.04,4.84-2.1,5.8,43.55,49.42,53.12,96.89,47.51.73-.09,3.64-.43,4.37-.52,47.47-5.61,87.66-25.09,83.14-68.79,1.58.72,3.35,1.06,5.2.92,5.82-.45,10.17-5.54,9.71-11.36ZM18.76,160.39s0,0,0,0c0,0,.02,0,.03,0,0,0-.02,0-.03,0Z"/>
      <g>
        <path class="cls-12" d="M154.43,182.04c9.18-5.03,18.63-5.44,21.11-.92,2.48,4.52-2.96,12.26-12.14,17.29-9.18,5.03-18.63,5.44-21.11.92-2.48-4.52,2.96-12.26,12.14-17.29Z"/>
        <path class="cls-12" d="M72.2,191.76c10.1,2.75,17.19,9.01,15.84,13.99-1.35,4.97-10.64,6.78-20.74,4.02-10.1-2.75-17.19-9.01-15.84-13.99,1.35-4.97,10.64-6.78,20.74-4.02Z"/>
      </g>
      <path class="cls-3" d="M119.26,197.92c-.66-1.59-1.35-3.22-2.51-4.52-.98-1.09-2.45-1.99-3.96-1.55-1.51.43-2.55,1.86-3.16,3.23-.71,1.6-.99,3.35-1.28,5.07-.13.79-1.36.6-1.23-.19.58-3.43,1.5-8.39,5.53-9.35,4.12-.98,6.49,3.8,7.75,6.84.31.74-.84,1.21-1.15.47Z"/>
      <g>
        <path class="cls-15" d="M154.57,161.12c2.17-.26,4.33,2.87,4.82,6.99.49,4.12-.88,7.67-3.05,7.92-2.17.26-4.33-2.87-4.82-6.99-.49-4.12.88-7.67,3.05-7.92Z"/>
        <path class="cls-15" d="M67.18,171.45c2.17-.26,4.33,2.87,4.82,6.99.49,4.12-.88,7.67-3.05,7.92-2.17.26-4.33-2.87-4.82-6.99-.49-4.12.88-7.67,3.05-7.92Z"/>
      </g>
      <path class="cls-4" d="M111.4,174.9c2.83-.35,5.89,1.75,6.03,2.89.15,1.16-2.48-1.24-5.31-.89-2.84.36-4.79,3.35-4.93,2.19-.14-1.14,1.39-3.84,4.22-4.19Z"/>
      <g>
        <path class="cls-5" d="M151.77,145.58c2.04.4,3.87,1.82,4.94,3.64-1.45-.72-3.12-1.3-4.87-1.63-1.76-.34-3.4-.42-4.84-.26.98-1.41,2.73-2.15,4.77-1.75Z"/>
        <path class="cls-5" d="M66.28,155.69c1.89-.86,3.76-.55,5.04.59-1.43.18-3.01.64-4.64,1.38-1.63.73-3.11,1.68-4.36,2.72.62-2.02,2.07-3.82,3.96-4.69Z"/>
      </g>
      <path class="cls-5" d="M196.47,48.25c-3.24-3.33-6.77-6.47-10.53-9.29,2.27-.58,11.59.55,13.86-.64,2.1-1.1-29.74-23.11-45.97-18.4-.63-1.28-1.35-2.47-2.08-3.56-17.13-25.45-43.04-13.57-53.26-13.7-12.24-.15-65.16,6.81-98.49,73.13,3.88.77,10.46-2.4,10.46-2.4,0,0-21.55,59.03,16.21,89.48,6.57-25.62,15.67-34.57,39.21-35.89-4.92,6.24-9.93,4.84-14.69,12.47,20.52,1.86,44.13-9.06,58.09-24.84.02,1.42,12.43.19,3.11,26.75,27.5-6.03,42.24-17.64,46.3-50.67,10.85,15.72,13.39,58.42,42.26,53.11-3.65-.33,8.52-35.94,8.88-39.18,2-17.77-.47-43.12-13.36-56.37Z"/>
      <path class="cls-8" d="M155.9,52.4c3.4,3.12,6.33,7.15,9.21,11.22,2.46,3.48,4.71,6.56,5.89,11.47.85,3.53,1.57,7.15,2.35,10.71l-15.19-16.66-7.12-3.68,9.87,20.36-18.55-17.02,3.18,19.21-14-21.61,2.24,20.04-13.2-11.38-5.18-6.16-3.96,11.81-5.13-7.6-10.28,16.85.32-18.4-21.59,15.86,1.47-8.04-7.42,5.8-9.18,3.51,3.56-7.24-11.91,8.97,11.38-31.77,2.85,14.03,1.9,5.18,5.35-12.43,2.06,6.64,4.4-8.57,1.45,6.77,3.73-14.19.94,9.05,5.3-8.91.34,6.54,4.49-7.13.7,6.87,5.98-7.72,2.14,7.59,4.32-7.02,2.18,5.94,3.99-10.76,5.04,8.29,2.38-7.62,6.78,4.18.74-7.82,12.3,10.37,1.72-13.31c2.6,1.5,5.19,3.02,7.8,4.5,1.53.87,2.98,1.98,4.37,3.25Z"/>
    </g>
  </g>
</svg>