<?xml version="1.0" encoding="UTF-8"?>
<svg id="Layer_2" data-name="Layer 2" xmlns="http://www.w3.org/2000/svg" viewBox="0 0 95.42 249.2">
  <defs>
    <style>
      .cls-1 {
        fill: #c4593c;
      }

      .cls-2 {
        fill: #881d00;
      }

      .cls-3 {
        fill: #a63b1e;
      }
    </style>
  </defs>
  <g id="cane">
    <g>
      <path class="cls-1" d="M1.74,22.38S-4.53-6.29,6.75,1.27c11.28,7.56,70.81,16.38,79.27,5.36,8.46-11.03,9.4,14.81,9.4,14.81,0,0-59.22,18.27-93.69.95Z"/>
      <path class="cls-3" d="M79.88,10.1c-13.95,4.03-44.98.32-62.43-4.61,13.2,12.54,38.82,29.75,62.43,4.61Z"/>
      <g>
        <path class="cls-2" d="M32.14,29.61c.24.01.47.03.7.04,1.31-6.41,3.13-13.11,5.46-19.88-.22-.03-.44-.06-.66-.1-2.3,6.72-4.15,13.45-5.5,19.93Z"/>
        <path class="cls-2" d="M84.98,24.17c.29-.07.58-.14.86-.2,1.86-6.95,3.1-13.75,3.7-20.06-.25.03-.52.11-.8.24-.63,6.29-1.88,13.08-3.77,20.02Z"/>
        <path class="cls-2" d="M42.75,29.81c.77-6.29,2.01-12.78,3.67-19-.26-.03-.52-.06-.78-.08-1.66,6.26-2.91,12.78-3.67,19.1.26,0,.52,0,.78-.01Z"/>
        <path class="cls-2" d="M59.07,11.73c-.27,0-.54-.02-.8-.03-.99,2.78-1.93,5.57-2.81,8.27-.67,2.08-1.73,5.44-2.84,9.34.27-.02.54-.04.81-.07.82-2.86,1.75-5.87,2.77-9.03.93-2.89,1.9-5.73,2.87-8.49Z"/>
        <path class="cls-2" d="M25.1,7.39c-.31-.07-.62-.14-.92-.2-5.05,5.22-11.43,10.81-18.55,16.34-.59-2.78-1.45-5.29-2.56-7.45.58-.5,1.14-1,1.7-1.5,3.89-3.48,7.17-6.81,9.83-9.94-.26-.08-.52-.17-.77-.25-3.05,3.56-6.83,7.28-11.12,11.01-.74-1.34-1.59-2.53-2.53-3.56.04.44.08.88.12,1.32.68.84,1.29,1.76,1.83,2.75-.44.38-.89.76-1.34,1.13.04.3.09.58.13.87.53-.44,1.05-.88,1.56-1.32,1.09,2.17,1.88,4.63,2.41,7.25.36.15.73.3,1.1.45,7.65-5.92,14.11-11.65,19.11-16.89Z"/>
        <path class="cls-2" d="M76.4,10.89c-1.33,5.06-3.09,10.56-5.13,16-1.37-.88-2.55-1.99-3.53-3.33-2.13-2.91-3.17-7.16-3.05-11.75-.27,0-.55,0-.83,0-.19,4.48.77,8.81,3.25,12.21.77,1.05,1.8,2.13,3.13,3.09.62-.1,1.23-.21,1.83-.31,2.04-5.47,3.8-11,5.13-16.06-.27.05-.53.1-.81.15Z"/>
        <path class="cls-2" d="M4.84.26C3.62,3.01,1.97,5.62,0,8.08c0,.39,0,.79.02,1.19C2.29,6.55,4.18,3.65,5.55.57c-.25-.12-.48-.23-.71-.31Z"/>
        <path class="cls-2" d="M86.34,6.23c-.1.13-.21.25-.31.39-.15.2-.33.39-.51.58-.53,5.38-1.79,11.34-4.04,17.76.28-.06.56-.12.84-.18,2.43-7.07,3.55-13.24,4.01-18.17.01-.13.02-.25.03-.37Z"/>
      </g>
    </g>
    <g>
      <path class="cls-1" d="M54.38,23.01s13.47,22.05,10.03,31.5c-3.45,9.45-5.01,43.79-21.93,46.94-16.92,3.15-.31,12.92-.31,12.92,0,0-8.77,80.35,2.51,134.84l4.07-.31s-9.09-145.55,7.21-151.85c16.29-6.3,7.52-44.42,20.68-41.58,13.16,2.84-18.49-32.76-18.49-32.76l-3.76.32Z"/>
      <path class="cls-3" d="M58.14,22.69l-3.76.31s5.36,8.77,8.45,17.62c4.43,2.45,8.93,4.24,13.1,4.72-6.24-9.66-17.79-22.65-17.79-22.65Z"/>
      <g>
        <path class="cls-2" d="M59.57,32.78c.26-2.06.67-4.41,1.22-7.02-.22-.25-.42-.49-.62-.72-.49,2.24-.9,4.44-1.21,6.49.2.41.4.82.6,1.25Z"/>
        <path class="cls-2" d="M63.46,41.86c-.06.04-.12.07-.19.11.08.25.16.51.24.76.12-.07.24-.13.36-.21,1.87-1.18,3.82-3.23,5.78-5.9-.16-.2-.32-.41-.47-.61-1.94,2.65-3.87,4.69-5.72,5.85Z"/>
        <path class="cls-2" d="M66.45,57.59c3.8-2.52,7.44-5.92,10.84-10.04-.14-.25-.29-.5-.45-.75-3.42,4.21-7.06,7.65-10.82,10.14-.93.62-1.85,1.17-2.74,1.66-.07.33-.15.66-.22,1.01,1.08-.56,2.2-1.23,3.39-2.02Z"/>
        <path class="cls-2" d="M73.65,41.99c-.15-.22-.31-.44-.47-.65-3.06,3.6-5.87,6.05-8.36,7.3.03.28.06.57.09.85,2.62-1.24,5.54-3.74,8.74-7.49Z"/>
        <path class="cls-2" d="M46.67,142.93c-2.29,1.09-4.58,2.13-6.88,3.13-.02.29-.03.58-.05.88,2.29-.99,4.59-2.02,6.89-3.12.01-.3.02-.59.03-.89Z"/>
        <path class="cls-2" d="M39.98,142.51c-.01.24-.03.48-.04.72,2.46-.32,4.7-.49,6.74-.52,0-.24.02-.48.03-.72-2.04.03-4.29.21-6.73.51Z"/>
        <path class="cls-2" d="M43.62,184.4c-1.34-2.36-2.91-4.55-4.71-6.57,0,.39,0,.79,0,1.18,1.58,1.87,2.98,3.88,4.18,6.03-1.32,1.58-2.69,3.15-4.09,4.73,0,.37.01.75.02,1.12,1.53-1.71,3.02-3.42,4.46-5.12,1.22,2.31,2.23,4.78,3.01,7.39-.02-.87-.04-1.74-.05-2.62-.69-1.88-1.49-3.69-2.41-5.41.78-.93,1.54-1.86,2.28-2.78,0-.41-.01-.81-.01-1.22-.87,1.09-1.75,2.18-2.66,3.28Z"/>
        <path class="cls-2" d="M45.4,228.46c-1.42-2.83-3.07-5.7-4.87-8.58.05.59.1,1.17.16,1.75,1.61,2.64,3.09,5.29,4.4,7.93-.73,2.5-1.58,5.03-2.54,7.58.08.57.17,1.14.26,1.71,1.07-2.75,2.02-5.46,2.83-8.14.9,1.9,1.71,3.79,2.42,5.67-.04-.77-.08-1.57-.12-2.4-.6-1.44-1.26-2.9-1.97-4.38.58-2,1.08-3.98,1.51-5.93-.05-1.16-.1-2.35-.15-3.57-.49,2.74-1.13,5.53-1.93,8.36Z"/>
        <path class="cls-2" d="M41.1,126.02c2.46-2.02,4.89-4.11,7.24-6.22.04-.37.09-.74.13-1.11-2.36,2.15-4.8,4.28-7.29,6.34-.03.32-.05.66-.08.99Z"/>
        <path class="cls-2" d="M61.39,67.98c2.53-1.28,5.01-2.44,7.44-3.48.07-.32.13-.63.2-.94-2.41,1.02-4.9,2.17-7.45,3.45-.06.32-.13.64-.19.97Z"/>
        <path class="cls-2" d="M40.67,113.39c.99-.42,2-.89,3.04-1.44,2.12-1.11,4.32-2.48,6.6-4.1.1-.41.19-.81.29-1.2-4.04,2.93-7.6,4.9-10.74,6.15.29.21.56.41.81.58Z"/>
        <path class="cls-2" d="M41.63,119.75c3.12-3.39,6.01-6.82,8.21-9.72.12-.61.25-1.21.38-1.79-2.09,2.9-5.09,6.54-8.48,10.26-.04.39-.07.8-.11,1.25Z"/>
        <path class="cls-2" d="M59.2,77.74c2.85-1.54,5.56-2.88,8.13-4.02.05-.31.09-.62.14-.93-2.52,1.11-5.19,2.42-8,3.92-.09.34-.18.68-.26,1.03Z"/>
        <path class="cls-2" d="M52.19,94.6c.51,1.9.85,3.65.99,5.16.22-.37.44-.7.66-1-.21-1.53-.59-3.22-1.09-4.99-.19.28-.38.56-.57.83Z"/>
        <path class="cls-2" d="M46.94,131.3c-2.15,1.19-4.31,2.31-6.48,3.36-.02.31-.04.64-.06.95,2.28-1.1,4.57-2.27,6.83-3.51.02-.34.05-.67.07-1.01-.12.07-.24.14-.36.2Z"/>
        <path class="cls-2" d="M54.41,90.96c-.18.35-.37.68-.56,1.02,2.44-.84,4.79-1.48,6.96-1.88.85-.16,1.66-.28,2.41-.35.13-.27.26-.54.38-.81-.91.07-1.88.2-2.93.4-1.96.36-4.06.91-6.26,1.63Z"/>
      </g>
    </g>
  </g>
</svg>