<?xml version="1.0" encoding="UTF-8"?>
<svg id="Layer_2" data-name="Layer 2" xmlns="http://www.w3.org/2000/svg" viewBox="0 0 24.45 72.12">
  <defs>
    <style>
      .cls-1 {
        fill: #958e7c;
      }
    </style>
  </defs>
  <g id="key">
    <path class="cls-1" d="M1.7,61.96l.42,4.71c.12,1.38,1.34,2.4,2.71,2.28l3.61-.33c-.1-1.21.8-2.28,2.03-2.39,1.23-.11,2.31.78,2.42,1.99l1.72-.16.16,1.78c.12,1.38,1.34,2.4,2.71,2.28l.5-.05c1.37-.12,2.39-1.35,2.26-2.73l-3.27-36.34.27-.02c.48-.04.83-.47.79-.95h0c-.04-.42-.36-.74-.76-.79.45-.78.68-1.72.59-2.71-.11-1.26-.71-2.34-1.56-3.07l-.38-4.18c-.02-.18-.05-.35-.1-.51,5.34-1.56,9.03-6.15,8.58-11.2C23.89,3.7,18.01-.55,11.28.06,4.54.67-.49,5.91.04,11.76c.45,5.05,4.9,8.9,10.43,9.47-.02.17-.02.35,0,.52l.38,4.18c-.71.87-1.11,2.04-.99,3.3.09.99.48,1.88,1.06,2.56-.38.12-.65.5-.61.91h0c.04.48.47.84.95.79l.27-.02,2.23,24.85-1.72.16c.1,1.21-.8,2.28-2.03,2.39-1.23.11-2.31-.78-2.42-1.99l-3.61.33c-1.37.12-2.39,1.35-2.26,2.73ZM13.41,16.86c-.42-.1-.86-.06-1.25.11-4.74,2.09-7.96-2.38-8.25-5.59-.29-3.18,2.19-8.71,7.03-7.09.47.16.97.11,1.4-.13,4.47-2.47,7.9,2.53,8.18,5.71.29,3.2-2.09,8.18-7.12,6.98Z"/>
  </g>
</svg>