<?xml version="1.0" encoding="UTF-8"?>
<svg id="Layer_2" data-name="Layer 2" xmlns="http://www.w3.org/2000/svg" viewBox="0 0 69.1 175.79">
  <defs>
    <style>
      .cls-1 {
        fill: #9d4f2f;
      }

      .cls-2 {
        fill: #fbf4e5;
      }
    </style>
  </defs>
  <g id="Door">
    <g id="Door-2" data-name="Door">
      <path class="cls-1" d="M34.55,174.84c12.34,0,24.04.34,34.55.95v-65.53c0-13.83-.54-27.8-.3-41.6C69.24,43.86,71.83,0,34.54,0-.36,0,0,38.95,0,63.17v89.67C0,154.08.21,175.78,0,175.79c10.5-.61,22.21-.95,34.55-.95Z"/>
      <circle class="cls-2" cx="56.89" cy="102.02" r="6.69"/>
      <path class="cls-2" d="M37.39,91.8c2.11-2.82,4.16-5.36,3.78-9.27-.41-4.14-3.32-5.25-4.88-8.52-1.53-3.21,2.69-5.06,3.83-8.27,1.66-4.67-.51-8.92-3.54-12.38-.75-.85-1.55-1.79-1.6-2.93-.14-3.23,3.95-5.79,4.46-9,.6-3.73-.73-6.93-2.32-10.2-.61-1.26,2.91-5.15,2.82-7.44-.12-3.08-2.25-5.28-5.22-5.88-10.04-2.04-16.19,6.87-12.76,15.71.55,1.43,2.99,3.98,2.99,5.45,0,1.67-2.41,3.75-3.18,5.2-1.31,2.46-1.9,5.31-1.62,8.09.19,1.85.85,3.59,1.75,5.2.59,1.05,2.81,2.96,2.78,4.12-.01.47-.25.91-.48,1.33-1.22,2.21-3.22,4.92-3.22,7.57-.23,2.64.24,5.28,1.28,7.71.6,1.41,2.33,2.83,2.5,4.38.2,1.84-1.52,3.24-2.44,4.69-2.53,3.97-2.5,8.52-.75,12.76.75,1.83,2.62,3.29,3.14,5.2.71,2.65-1.41,3.61-2.75,5.78-1.66,2.69-2.47,5.89-2.19,9.05.16,1.75.68,3.33,1.39,4.93,1.44,3.25-.51,3.5-1.81,6.45-1.53,3.48-.54,7.11.06,10.67.08.48.16.96.14,1.44-.02.49-.15.97-.28,1.45-.58,2.13-1.51,4.3-1.24,6.52.32,2.65,2.11,6.57,4.61,7.82,1.27.64.74,3.92,1.69,5.38,1.01,1.55,2.73,2.59,4.49,3.07,3.76,1.02,7.78-.63,8.75-4.61.61-2.5.6-5.03-.35-7.44-.71-1.82-3.33-3.95-3.65-5.72-.07-.37.06-.75.19-1.1.77-2.09,1.11-4.35,1.07-6.57-.03-1.66-1.29-3.87-.6-5.48.48-1.13,2.3-2.03,2.99-3.22,1.8-3.11,1.6-6.62.23-9.78-.7-1.63-2.84-3.32-2.79-5.18.06-2.22,3.1-4.53,4.27-6.28,2.68-4,2-8.81-.5-12.72-1.74-2.72-3.85-4.09-1.67-7.1.21-.29.43-.58.64-.87Z"/>
    </g>
  </g>
</svg>