<?xml version="1.0" encoding="UTF-8"?>
<svg id="Layer_2" data-name="Layer 2" xmlns="http://www.w3.org/2000/svg" xmlns:xlink="http://www.w3.org/1999/xlink" viewBox="0 0 105.61 154.69">
  <defs>
    <style>
      .cls-1 {
        fill: #c4593c;
      }

      .cls-2 {
        fill: #edae8d;
      }

      .cls-3 {
        fill: #e07e07;
      }

      .cls-4 {
        fill: #6a0000;
      }

      .cls-5 {
        fill: url(#_ÅÂÁ_Ï_ÌÌ_È_ËÂÌÚ_24);
      }

      .cls-6 {
        fill: url(#_ÅÂÁ_Ï_ÌÌ_È_ËÂÌÚ_38);
      }

      .cls-7 {
        fill: url(#_ÅÂÁ_Ï_ÌÌ_È_ËÂÌÚ_36);
      }

      .cls-8 {
        fill: #ff3500;
      }

      .cls-9 {
        fill: #d1dde5;
      }

      .cls-10 {
        fill: #77838b;
      }

      .cls-11 {
        fill: #b3bfc7;
      }

      .cls-12 {
        fill: #fff;
      }

      .cls-13 {
        fill: #4c0000;
      }

      .cls-14 {
        fill: #e11700;
      }

      .cls-15 {
        fill: #432c62;
      }

      .cls-16 {
        fill: #fe9c25;
      }

      .cls-17 {
        fill: #881d00;
      }

      .cls-18 {
        fill: #595240;
      }

      .cls-19 {
        fill: #250e44;
      }

      .cls-20 {
        fill: #a63b1e;
      }

      .cls-21 {
        fill: #958e7c;
      }

      .cls-22 {
        fill: #ffccab;
      }

      .cls-23 {
        fill: #3b3422;
      }

      .cls-24 {
        fill: #95a1a9;
      }

      .cls-25 {
        fill: #77705e;
      }
    </style>
    <linearGradient id="_ÅÂÁ_Ï_ÌÌ_È_ËÂÌÚ_24" data-name="ÅÂÁ˚ÏﬂÌÌ˚È „‡‰ËÂÌÚ 24" x1="138.35" y1="130.74" x2="139.67" y2="74.41" gradientTransform="translate(171.5) rotate(-180) scale(1.07 -1)" gradientUnits="userSpaceOnUse">
      <stop offset="0" stop-color="#7f689e"/>
      <stop offset="1" stop-color="#432c62"/>
    </linearGradient>
    <linearGradient id="_ÅÂÁ_Ï_ÌÌ_È_ËÂÌÚ_38" data-name="ÅÂÁ˚ÏﬂÌÌ˚È „‡‰ËÂÌÚ 38" x1="121.54" y1="31.52" x2="131.62" y2="58.69" gradientTransform="translate(171.5) rotate(-180) scale(1.07 -1)" gradientUnits="userSpaceOnUse">
      <stop offset="0" stop-color="#77705e"/>
      <stop offset="1" stop-color="#3b3422"/>
    </linearGradient>
    <linearGradient id="_ÅÂÁ_Ï_ÌÌ_È_ËÂÌÚ_36" data-name="ÅÂÁ˚ÏﬂÌÌ˚È „‡‰ËÂÌÚ 36" x1="113.57" y1="2.59" x2="110.07" y2="12.08" gradientTransform="translate(171.5) rotate(-180) scale(1.07 -1)" gradientUnits="userSpaceOnUse">
      <stop offset="0" stop-color="#d1dde5"/>
      <stop offset="1" stop-color="#b3bfc7"/>
    </linearGradient>
  </defs>
  <g id="witch">
    <g>
      <g>
        <path class="cls-17" d="M21.96,145.06c1.2-1.85,7.17-2.03,10.66-1.96.83-1.45,1.86-2.88,2.71-2.84,1.72.08,6.87,4.42,9.88,4.26,3.01-.16,3.52,1.13,3.52,1.13,0,0-1.37,6.83-7.47,7.24-6.1.4-9.02-2.73-10.99-2.25-1.98.48-2.75,1.53-4.04,1.29-1.27-.24-5.44-5.68-4.27-6.86Z"/>
        <path class="cls-24" d="M29.41,124.58c-2.67,4.76-2.33,14.27-.26,19.06,7.15,1.27,4.81,3.38,4.81,3.38l-8.36.2s2.34-7.27-2.98-23.19l6.79.56Z"/>
        <path class="cls-4" d="M29.4,144.96s-12.02-.81-13.3,2.05c-1.29,2.86,10.66,2.47,10.66,2.47l2.64-4.52Z"/>
        <path class="cls-24" d="M23.65,126.35c-2.67,4.76-2.33,14.27-.26,19.06,11.85,1.37,4.81,3.38,4.81,3.38l-8.52.13s2.51-7.2-2.81-23.12l6.79.56Z"/>
        <path class="cls-20" d="M42.98,147.41s-1.37,6.83-7.47,7.24c-6.1.4-9.02-2.73-11-2.25-1.98.48-2.75,1.53-4.04,1.29-1.29-.24-5.58-5.87-4.21-6.91,3.69,2.25,9.11,1.13,9.11,1.13,0,0,2.49-5.95,4.21-5.87,1.72.08,6.87,4.42,9.88,4.26,3.01-.16,3.52,1.13,3.52,1.13Z"/>
      </g>
      <path class="cls-5" d="M45.47,138.57l-42.13,2.68S-8.37,63.01,17.23,56.43l19.51,8.91c11.86,21.77,8.73,73.22,8.73,73.22Z"/>
      <path class="cls-19" d="M19.39,57.1s-9.08,1.62-10.29,14.09c2.08-9.05,10.29-14.09,10.29-14.09Z"/>
      <path class="cls-19" d="M17.3,59.93s-6.52,2.98-5.89,15.15c1.48-12.58,5.89-15.15,5.89-15.15Z"/>
      <path class="cls-19" d="M24.17,64.78s-4.21,5.95-4.87,18.3c2.06-10.19,4.87-18.3,4.87-18.3Z"/>
      <path class="cls-15" d="M27.92,62.79c.23-.42.46-.81.69-1.15l8.13,3.71c9.12,16.73,9.38,50.99,9.01,65.95l-21.11-5.83s-7.96-41.64,3.28-62.68Z"/>
      <path class="cls-15" d="M16.29,140.42l-5.02.32c-3.76-20.23.73-56.04.73-56.04,0,0,4.01,37.23,4.29,55.72Z"/>
      <path class="cls-15" d="M4.12,81.42s-7.1,21.19-2.65,51.87c-2.03-27.84,2.65-51.87,2.65-51.87Z"/>
      <path class="cls-11" d="M37.44,66.27s13.12,12.69,15.93,55.5c-12.96,7.31-32.62.15-32.62.15,0,0,12.6-27.37,6.35-55.71-12.51-.81-12.01-10.46-12.01-10.46l22.36,10.52Z"/>
      <path class="cls-9" d="M37.2,67.63s14.46,21.14,8.31,44.79c-1.02-23-8.31-44.79-8.31-44.79Z"/>
      <path class="cls-9" d="M37.2,95.24s.24,16.27-2.15,29.65c-2.44-.2-4.74-.56-6.76-.96,3.5-13.15,8.9-28.69,8.9-28.69Z"/>
      <path class="cls-9" d="M29.96,106.2c.22,0,.74-.42,2.59-4.88,1.67-4.01,3.5-11.09,2.72-22.06-.46-6.56-1.66-11.47-1.67-11.52l-.16.03s1.2,4.95,1.67,11.49c.43,6.04.3,14.76-2.71,21.99-1.89,4.55-2.37,4.8-2.46,4.77-.49-.14.72-6.08,2.17-11.74l-.16-.04s-.75,2.93-1.38,5.83c-1.29,5.92-.86,6.05-.68,6.1.02,0,.04.01.07.01Z"/>
      <g>
        <path class="cls-1" d="M36.84,65.38s-5.3,3.6-12.29,1.97c-6.99-1.64-8.01-11.65-8.01-11.65,0,0,2.03,16.16,20.3,9.68Z"/>
        <g>
          <path class="cls-21" d="M21.85,97.16l-.12,1.24c-.04.36-.38.63-.77.6l-1.02-.09c.03-.32-.23-.6-.57-.63-.35-.03-.65.21-.69.52l-.49-.04-.05.47c-.04.36-.38.63-.77.6h-.14c-.39-.04-.68-.37-.64-.73l.93-9.59h-.08c-.14-.02-.24-.13-.22-.26h0c.01-.11.1-.2.22-.21-.13-.21-.19-.45-.17-.72.03-.33.2-.62.44-.81l.11-1.1s.01-.09.03-.14c-1.51-.41-2.56-1.62-2.43-2.95.15-1.54,1.82-2.66,3.72-2.5,1.91.16,3.33,1.54,3.18,3.09-.13,1.33-1.39,2.35-2.96,2.5,0,.05,0,.09,0,.14l-.11,1.1c.2.23.31.54.28.87-.03.26-.14.49-.3.68.11.03.18.13.17.24h0c-.01.13-.13.22-.27.21h-.08s-.63,6.55-.63,6.55l.49.04c-.03.32.23.6.57.63.35.03.65-.21.69-.52l1.02.09c.39.03.68.36.64.72ZM18.53,85.26c.12-.03.24-.02.35.03,1.34.55,2.25-.63,2.34-1.47.08-.84-.62-2.3-1.99-1.87-.13.04-.27.03-.4-.03-1.27-.65-2.24.67-2.32,1.51-.08.85.59,2.16,2.02,1.84Z"/>
          <path class="cls-10" d="M17.93,83.12l.15-.06s-.31-.76-.21-1.61c.03.1.07.18.11.24.28.4.46.55.61.5.12-.04.16-.2.12-.49-.06-.4-.3-1.12-.59-1.15-.08,0-.16.04-.22.13-.13-1.46.1-4.33.62-7.5.59-3.6,1.6-7.76,2.69-8.6.36-.28.7-.33.89-.15.21.2.21.63-.07,1.09-.02-.61-.1-1.08-.29-1.11-.15-.03-.31.13-.59.98-.06.2-.22.87.03,1,.15.08.36-.04.69-.39,0,.45-.02.97-.05,1.45h.17c.03-.47.06-1.09.05-1.65.48-.62.47-1.2.19-1.47-.2-.2-.61-.26-1.12.13-1.9,1.48-3.84,13.38-3.33,16.58-.27,1.03.13,2.03.15,2.07ZM18.11,80.72s.16.11.28.42c.18.46.2.87.15.92,0,0-.11,0-.41-.44-.08-.11-.13-.3-.18-.57.02-.06.03-.11.05-.17.04-.13.09-.16.1-.16ZM21.88,65.76s-.08.09-.12.14c-.38.4-.48.36-.49.36-.08-.04-.06-.43.05-.82.27-.81.4-.86.41-.87.09.06.14.54.15,1.19Z"/>
          <path class="cls-21" d="M18.37,81.76c-.4-.07-.76.06-1.05.28l.08-.99c.23-.08.48-.15.74-.19l.23.89Z"/>
          <path class="cls-1" d="M22.26,66.41c-.3-.18-.58-.38-.85-.59l.33-1.09c.28.2.58.4.89.58l-.37,1.1Z"/>
        </g>
        <g>
          <path class="cls-25" d="M21.29,91.09l-.67.1-.06-.36,4.17-.59-1.39-8.61c-.34-.07-.62-.33-.68-.67-.07-.43.23-.83.68-.92l-.13-.82c-1.69.28-2.96.94-3.19-.45-.21-1.32.7-3.33,2.23-3.88l-.03-.17c-.03-.17.05-.33.19-.43l-.08-.5c-.02-.12.07-.23.2-.25.13-.02.25.06.26.18l.08.5c.16.06.29.19.32.36l.03.17c1.63.1,3.14,1.77,3.36,3.09.22,1.39-1.19,1.11-2.9,1.31l.13.82c.45-.04.87.26.94.69.06.34-.13.67-.43.83l2.03,12.53c.04.25-.14.48-.41.52-.27.04-.52-.13-.56-.38l-.05-.3-4.17.59-.06-.36.67-.1c.23-.03.38-.23.35-.44-.03-.21-.25-.36-.47-.33l-.67.1-.05-.3.67-.1c.23-.03.38-.23.35-.44s-.25-.36-.47-.33l-.67.1-.05-.3.67-.1c.23-.03.38-.23.35-.44s-.25-.36-.47-.33ZM22.74,76.34c-1.19.24-2.03.96-1.87,1.94.16.99,1.05.54,2.24.33l-.37-2.28ZM23.57,78.56c1.21-.13,2.2.05,2.04-.94-.16-.99-1.19-1.44-2.4-1.34l.37,2.28Z"/>
          <path class="cls-10" d="M23.64,80.04c.17,0,.35-.05.52-.19.19-.16.12-.28.08-.33-.05-.05-.13-.09-.24-.11.13-.15.24-.35.3-.59.18-.7.6-7.28.39-10.78.05.02.1.03.15.04.09.02.37.07.47-.1.16-.27-.36-.92-.77-1.37-.05-.29-.12-.5-.2-.62-.17-.26-.32-.36-.45-.32-.2.06-.21.41-.2.61.03.53.29,1.37.85,1.69.21,3.43-.22,10.11-.4,10.81-.07.28-.2.47-.34.6-.36-.03-.82.04-.98.16-.09.07-.07.14-.06.17.03.07.13.12.28.12.14.1.36.2.6.2ZM23.86,79.55c.12.01.21.04.25.08.03.03-.04.09-.07.11-.26.22-.54.16-.73.08.18-.04.38-.13.55-.27ZM23.61,79.53c-.12.07-.23.11-.3.12-.18.05-.32.03-.38.01.13-.08.41-.13.68-.13ZM24.59,66.91c.37.43.66.86.58.99-.03.05-.13.06-.3.03-.07-.01-.13-.03-.19-.06-.02-.36-.05-.68-.09-.96ZM24.4,66.7c.05.29.1.66.13,1.08-.42-.32-.64-1.01-.67-1.5-.02-.32.05-.44.08-.45.02,0,.11.03.26.26.05.07.09.18.13.31-.08-.09-.15-.16-.19-.2l-.12.11c.12.12.26.26.39.4Z"/>
          <path class="cls-25" d="M24.05,76.3l.12-1.32c.27.11.52.26.76.43l-.12,1.13c-.22-.12-.48-.2-.76-.24Z"/>
          <path class="cls-25" d="M24.6,78.48l-.06.6c-.24.01-.49.03-.75.06l.05-.61c.27-.02.53-.03.76-.05Z"/>
          <path class="cls-1" d="M24.28,67.28c-.2-.05-.39-.12-.58-.18l-.11-1.28c.14.06.28.13.42.18l-.04.37.31.91Z"/>
        </g>
        <g>
          <g>
            <path class="cls-20" d="M30.93,81.83c.21.78-.54,3.32-.54,3.32,0,0,5.7,9.24,5.12,10.34-.58,1.1-5.34,5.69-8.12,3.39-2.6-2.16-3.44,3.27-3.57-2.81-.13-6.08,4.09-10.11,4.09-10.11,0,0-4.3.51-4.63-.7,2.26-2.99,7.44-4.21,7.65-3.43Z"/>
            <path class="cls-17" d="M29.42,85.65s-2.68,5.47.9,7.44c3.57,1.98-.9-7.44-.9-7.44Z"/>
            <path class="cls-17" d="M32.26,98.46c-2.25-.3-5.82-2.32-3.84-12.68,0,0-2.96-.14-3.87-1.82-.48.39-.91.82-1.27,1.29.33,1.2,4.63.7,4.63.7,0,0-4.21,4.03-4.09,10.11.13,6.08.96.65,3.57,2.81,1.38,1.15,3.26.58,4.87-.41Z"/>
            <path class="cls-20" d="M26.78,95.08s3.49,3.64,1.93,3.58c-1.55-.06-2.08-1.66-1.93-3.58Z"/>
          </g>
          <path class="cls-13" d="M30.88,87.24c1.03,0,1.86-.11,2-.44.13-.31-.27-.63-.59-.84-.41-.28-.82-.47-1.22-.59.03-.01.06-.03.09-.04,1.18-.53,1.37-3.22,1.32-5.39-.05-2.03-.32-4.5-.75-6.86.22-1.73.31-4.08.18-4.73-.03-.15-.08-.3-.22-.32-.14-.02-.23.12-.26.17-.21.34-.42.64-.63.9-.4-1.35-.91-2.56-1.44-2.58-.25-.01-.46.23-.61.74-.58,1.91-.56,3.05.07,3.3.47.18,1.17-.21,1.87-.97.15.53.31,1.15.46,1.84.12.53.23,1.09.33,1.66-.11.93-.25,1.65-.37,1.76l.13.19c.14-.08.27-.54.38-1.2.81,4.89,1.02,10.59-.56,11.3-.11.05-.23.1-.33.15-2.26-.49-4.12,1.12-4.14,1.14l-.16.14.22.04s1.1.2,4.12-1.1c.45.11.92.31,1.4.63.53.36.53.52.51.58-.13.3-2.02.53-6.53-.11l-.04.22c.67.09,3.03.41,4.79.41ZM30.37,85.43c-1.89.78-2.92.94-3.38.96.52-.38,1.82-1.17,3.38-.96ZM31.67,68.29c.15.39.08,2.32-.08,3.99-.06-.3-.12-.6-.19-.89-.13-.59-.3-1.31-.5-2.01.26-.31.52-.67.76-1.06,0,0,0-.01.01-.02ZM30.63,69.32c-.7.8-1.37,1.17-1.71,1.03-.18-.07-.7-.5.07-3.03.11-.37.26-.58.37-.58.28,0,.75.83,1.26,2.58Z"/>
          <path class="cls-1" d="M29.39,66.91l.02.82c-.38.03-.78.04-1.19.04l.27-.87c.29,0,.59.01.9,0Z"/>
        </g>
      </g>
      <g>
        <path class="cls-1" d="M76.25,93.04s-3.82,5.82-2.84,8.31c.98,2.49,1.42,11.55,6.21,12.38,4.79.83.09,3.41.09,3.41,0,0,2.49,21.19-.71,35.57l-1.15-.08s2.57-38.39-2.04-40.06c-4.62-1.66-2.13-11.72-5.86-10.97-3.73.75,5.24-8.64,5.24-8.64l1.07.08Z"/>
        <path class="cls-20" d="M75.18,92.95l1.07.08s-1.52,2.31-2.39,4.65c-1.26.65-2.53,1.12-3.71,1.24,1.77-2.55,5.04-5.98,5.04-5.98Z"/>
        <g>
          <path class="cls-17" d="M74.78,95.61c-.07-.54-.19-1.16-.35-1.85.06-.07.12-.13.18-.19.14.59.26,1.17.34,1.71-.06.11-.11.22-.17.33Z"/>
          <path class="cls-17" d="M73.67,98.01s.04.02.05.03c-.02.07-.05.13-.07.2-.03-.02-.07-.03-.1-.05-.53-.31-1.08-.85-1.64-1.56.04-.05.09-.11.13-.16.55.7,1.1,1.24,1.62,1.54Z"/>
          <path class="cls-17" d="M72.83,102.16c-1.08-.66-2.11-1.56-3.07-2.65.04-.06.08-.13.13-.2.97,1.11,2,2.02,3.07,2.67.26.16.52.31.78.44.02.09.04.17.06.27-.3-.15-.62-.32-.96-.53Z"/>
          <path class="cls-17" d="M70.79,98.04c.04-.06.09-.11.13-.17.87.95,1.66,1.6,2.37,1.93,0,.08-.02.15-.02.22-.74-.33-1.57-.99-2.48-1.98Z"/>
          <path class="cls-17" d="M78.43,124.67c.65.29,1.3.56,1.95.82,0,.08,0,.15.01.23-.65-.26-1.3-.53-1.95-.82,0-.08,0-.16,0-.23Z"/>
          <path class="cls-17" d="M80.33,124.56c0,.06,0,.13.01.19-.7-.08-1.33-.13-1.91-.14,0-.06,0-.13,0-.19.58,0,1.22.05,1.91.14Z"/>
          <path class="cls-17" d="M79.3,135.61c.38-.62.83-1.2,1.33-1.73,0,.1,0,.21,0,.31-.45.49-.84,1.02-1.18,1.59.37.42.76.83,1.16,1.25,0,.1,0,.2,0,.3-.43-.45-.86-.9-1.26-1.35-.35.61-.63,1.26-.85,1.95,0-.23.01-.46.02-.69.19-.5.42-.97.68-1.43-.22-.25-.44-.49-.65-.73,0-.11,0-.21,0-.32.25.29.5.58.75.86Z"/>
          <path class="cls-17" d="M78.79,147.23c.4-.75.87-1.5,1.38-2.26-.01.15-.03.31-.05.46-.46.7-.88,1.39-1.25,2.09.21.66.45,1.33.72,2-.02.15-.05.3-.07.45-.3-.72-.57-1.44-.8-2.15-.25.5-.48,1-.69,1.5.01-.2.02-.41.03-.63.17-.38.36-.77.56-1.15-.16-.53-.31-1.05-.43-1.56.01-.31.03-.62.04-.94.14.72.32,1.46.55,2.2Z"/>
          <path class="cls-17" d="M80.01,120.21c-.7-.53-1.39-1.08-2.05-1.64-.01-.1-.03-.2-.04-.29.67.57,1.36,1.13,2.07,1.67,0,.09.02.17.02.26Z"/>
          <path class="cls-17" d="M74.26,104.9c-.72-.34-1.42-.64-2.11-.92-.02-.08-.04-.17-.06-.25.68.27,1.39.57,2.11.91.02.08.04.17.05.26Z"/>
          <path class="cls-17" d="M80.13,116.88c-.28-.11-.57-.24-.86-.38-.6-.29-1.22-.65-1.87-1.08-.03-.11-.06-.21-.08-.32,1.14.77,2.15,1.29,3.04,1.62-.08.06-.16.11-.23.15Z"/>
          <path class="cls-17" d="M79.86,118.55c-.88-.9-1.7-1.8-2.33-2.56-.04-.16-.07-.32-.11-.47.59.77,1.44,1.73,2.4,2.71.01.1.02.21.03.33Z"/>
          <path class="cls-17" d="M74.88,107.47c-.81-.41-1.58-.76-2.3-1.06-.01-.08-.03-.16-.04-.25.71.29,1.47.64,2.27,1.03.02.09.05.18.07.27Z"/>
          <path class="cls-17" d="M76.87,111.92c-.14.5-.24.96-.28,1.36-.06-.1-.12-.18-.19-.26.06-.4.17-.85.31-1.32.05.07.11.15.16.22Z"/>
          <path class="cls-17" d="M78.35,121.6c.61.31,1.22.61,1.84.89,0,.08.01.17.02.25-.65-.29-1.29-.6-1.94-.93,0-.09-.01-.18-.02-.27.03.02.07.04.1.05Z"/>
          <path class="cls-17" d="M76.24,110.96c.05.09.11.18.16.27-.69-.22-1.36-.39-1.97-.5-.24-.04-.47-.07-.68-.09-.04-.07-.07-.14-.11-.21.26.02.53.05.83.1.55.1,1.15.24,1.77.43Z"/>
        </g>
      </g>
      <g>
        <path class="cls-1" d="M91.16,92.87s1.78-7.56-1.42-5.57c-3.2,1.99-20.06,4.32-22.46,1.41-2.4-2.91-2.66,3.91-2.66,3.91,0,0,16.78,4.82,26.54.25Z"/>
        <path class="cls-20" d="M69.02,89.63c3.95,1.06,12.74.08,17.69-1.22-3.74,3.31-11,7.85-17.69,1.22Z"/>
        <g>
          <path class="cls-17" d="M82.55,94.78c-.07,0-.13,0-.2.01-.37-1.69-.89-3.46-1.55-5.24.06,0,.13-.02.19-.03.65,1.77,1.18,3.55,1.56,5.26Z"/>
          <path class="cls-17" d="M67.58,93.34c-.08-.02-.16-.04-.24-.05-.53-1.83-.88-3.63-1.05-5.29.07,0,.15.03.23.06.18,1.66.53,3.45,1.07,5.28Z"/>
          <path class="cls-17" d="M79.54,94.83c-.22-1.66-.57-3.37-1.04-5.01.07,0,.15-.01.22-.02.47,1.65.82,3.37,1.04,5.04-.07,0-.15,0-.22,0Z"/>
          <path class="cls-17" d="M74.92,90.06c.08,0,.15,0,.23,0,.28.73.55,1.47.8,2.18.19.55.49,1.43.8,2.46-.08,0-.15-.01-.23-.02-.23-.75-.49-1.55-.78-2.38-.26-.76-.54-1.51-.81-2.24Z"/>
          <path class="cls-17" d="M84.54,88.92c.09-.02.18-.04.26-.05,1.43,1.38,3.24,2.85,5.26,4.31.17-.73.41-1.4.73-1.97-.16-.13-.32-.26-.48-.39-1.1-.92-2.03-1.8-2.78-2.62.07-.02.15-.04.22-.07.86.94,1.94,1.92,3.15,2.9.21-.35.45-.67.72-.94-.01.12-.02.23-.03.35-.19.22-.37.46-.52.72.12.1.25.2.38.3-.01.08-.03.15-.04.23-.15-.12-.3-.23-.44-.35-.31.57-.53,1.22-.68,1.91-.1.04-.21.08-.31.12-2.17-1.56-4-3.07-5.41-4.46Z"/>
          <path class="cls-17" d="M70.01,89.84c.38,1.33.88,2.79,1.45,4.22.39-.23.72-.52,1-.88.6-.77.9-1.89.86-3.1.08,0,.16,0,.24,0,.05,1.18-.22,2.32-.92,3.22-.22.28-.51.56-.89.82-.18-.03-.35-.05-.52-.08-.58-1.44-1.08-2.9-1.45-4.24.08.01.15.03.23.04Z"/>
          <path class="cls-17" d="M90.28,87.04c.35.72.82,1.41,1.37,2.06,0,.1,0,.21,0,.31-.64-.72-1.18-1.48-1.57-2.29.07-.03.14-.06.2-.08Z"/>
          <path class="cls-17" d="M67.19,88.61s.06.07.09.1c.04.05.09.1.15.15.15,1.42.51,2.99,1.15,4.68-.08-.02-.16-.03-.24-.05-.69-1.86-1.01-3.49-1.13-4.79,0-.03,0-.06,0-.1Z"/>
        </g>
      </g>
      <g>
        <path class="cls-22" d="M81.78,88.04c1.33.67,3.29.45,3.38,1.61.1,1.16,1.96,3.53-1.1,6.07-2.1,1.74.49-4.39.05-5.09-.45-.69-2.95.18-2.34-2.59Z"/>
        <path class="cls-2" d="M84.12,90.63c-.43-.67-2.75.11-2.39-2.27.12.02.26.04.4.07,3.91.84,2.39,3.42,1.67,4.37.26-1.01.48-1.93.32-2.18Z"/>
        <path class="cls-22" d="M68.79,82.32s6.45,4.75,13.05,5.4c1.34.13,1.61,1.39,1.37,3.82-.22,2.26,1,3.11-2.52,6.02-1.6,1.32,1.11-9.32-1.91-7.32,0,0,2.38,1.21.21,4.14-2.24,3.02.28-4.74-2.45-3.85-8.17,2.68-8.82-7.38-8.82-7.38l1.07-.83Z"/>
        <path class="cls-2" d="M82.12,92.95s.29-1.52-.1-2.28c-.38-.76.1,2.28.1,2.28Z"/>
      </g>
      <path class="cls-22" d="M95.14,60.77l1.27.98c-.14,1.14-2.67,3.02-5.68,4.76l-1.21-3.2c1.89-.53,4.12-1.16,5.62-2.54Z"/>
      <path class="cls-24" d="M17.88,56.58l-5.8-8.64s-.26,9.07,5.8,8.64Z"/>
      <path class="cls-11" d="M17.33,56.73s-3.84-4.47-7.87-5.83c1.22,8.42,7.87,5.83,7.87,5.83Z"/>
      <path class="cls-25" d="M90.26,62.66l2.69,4.59s-.5.97-2.05,1.05c-8.7,4.81-24.11,7.28-30.44-7.4-2.22-5.13,17.43,5.94,29.81,1.76Z"/>
      <path class="cls-25" d="M67.94,86.38s-.81.32-2.21-.56c-9.17-1.1-20.98-5.78-20.1-19.85.64-10.26,15.44,13.91,24.83,16.23l-2.52,4.18Z"/>
      <path class="cls-18" d="M91.54,66.82s-1.81,3.44-5.34,3.91l5.34-3.91Z"/>
      <path class="cls-18" d="M91.68,66.34s-7.48,3.61-9.48,2.91c-2-.7,9.48-2.91,9.48-2.91Z"/>
      <path class="cls-23" d="M90.92,68.57l.15-.06-2.55-5.54c.29-.32,1.73-1.97,1.38-2.54-.11-.18-.37-.24-.76-.17-.51.09-.86.31-1.04.65-.17.33-.17.72-.1,1.08-.4-.32-1.13-.66-2.44-.87-.8-.13-.98-.08-1.02.04-.1.31,2.01,1.18,3.81,1.86.02.24.06,1.39-.67,2.08-.45.43-1.11.61-1.96.54v.15c.89.08,1.6-.12,2.08-.58.58-.56.71-1.36.72-1.84l2.4,5.22ZM88.06,62.25c.06.23.14.42.2.55-1.67-.64-3.38-1.38-3.55-1.61.06-.01.24-.03.82.07,1.5.24,2.2.65,2.53.99ZM89.43,60.38c.14,0,.27.03.33.12.24.39-.72,1.63-1.25,2.24-.02-.11-.07-.26-.18-.43-.03-.04-.07-.09-.11-.13-.1-.38-.16-.85.03-1.21.16-.3.47-.49.92-.57.08-.01.18-.03.26-.03Z"/>
      <path class="cls-18" d="M67.58,83.98s-3.66,1.71-6.79.09l6.79-.09Z"/>
      <path class="cls-18" d="M68,83.68s-8.29-1.36-9.43-3.05c-1.14-1.69,9.43,3.05,9.43,3.05Z"/>
      <path class="cls-23" d="M65.71,86.04l1.45-4.43c.27.06,1.2.19,1.8-.27.39-.31.56-.81.5-1.5-.03-.37-.14-.57-.34-.61-.06-.01-.62-.06-1.8,1.79.21-.89.5-2.57-.13-2.96-.29-.18-.71-.06-1.29.36-.2.14-.31.34-.33.59-.06.71.67,1.67,1.12,2.19-.16-.06-.36-.12-.61-.15-.63-.07-1.65.05-2.98,1.06l.1.12c2.24-1.71,3.55-.86,3.79-.68l-1.46,4.45.16.05ZM69.05,79.37s.02,0,.04,0c.11.02.18.19.21.47.06.63-.09,1.09-.44,1.37-.51.4-1.33.3-1.62.25.52-.86,1.41-2.09,1.82-2.09ZM66.89,78.13c.08,0,.15.02.21.06.57.35.2,2.29-.04,3.17-.34-.36-1.39-1.55-1.33-2.34.02-.2.1-.36.26-.48.37-.27.67-.41.89-.41Z"/>
      <g>
        <path class="cls-22" d="M105.06,56.97c-.09,4.83.11,2.97-9.06,6.55-4.53,1.77-1.73-5.89-1.7-8.88.02-1.86,3.96-1.36,3.41-4.4-.26-1.43-3.31-1.25-3.11-2.64.21-1.4,4.56-1.4,5.11,2.91,0,0,3.87-1.04,3.2,2.21.82,2.65,2.15,4.26,2.15,4.26Z"/>
        <path class="cls-2" d="M97.13,53.15c1.76-2.9,1.67-4.41.99-5.69.76.58,1.72,1.9,1.91,3.38l1.73.76,2.85,6.29s-.61,3.93-5.04,3.75c-4.43-.18-4.56-5.01-2.44-8.5Z"/>
        <path class="cls-1" d="M104.52,65.57s.07,0,.1-.01c.19-.05.3-.23.24-.41l-6.68-21.73c-.05-.18-.25-.28-.44-.23-.19.05-.3.23-.24.41l6.68,21.73c.04.15.19.24.34.24Z"/>
        <path class="cls-22" d="M105.42,57.42c-.99,1.79-2.16.81-3.5,1.28-1.04.36-1.58,1.28-3.37.64-1.7-.61,8.55-4.96,6.87-1.92Z"/>
        <path class="cls-22" d="M105.44,54.72c-1.55,3.12-2.06.95-3.2,1.62-2.33,1.38-5.53,5.32-5.05,2.38.47-2.94,9.8-7.12,8.26-4.01Z"/>
        <path class="cls-22" d="M104.75,52.48c1.34,1.87-2.43.72-3.72,1.84-1.47,1.27-3.75,3.52-3.71,2.05.1-3.52,6.09-5.76,7.43-3.89Z"/>
        <path class="cls-22" d="M103.42,51.59c-.8,2.13-2.14-.32-3.43.8-1.47,1.27-2.89,3.21-2.73,1.75.49-4.68,7.07-4.94,6.17-2.56Z"/>
        <path class="cls-3" d="M90.97,38.17c-.42,2.85,1.71,5.48,4.76,5.88,3.05.39,5.86-1.6,6.28-4.46.42-2.85-1.71-5.48-4.76-5.88-3.05-.39-5.86,1.6-6.28,4.46Z"/>
        <path class="cls-16" d="M95.1,35.85c.99-.08,2.25.08,3.19,1.16.48.56.75,1.25.68,1.9-.08.72-.44,1.35-.95,1.71-.53.38-1.18.57-1.99.47-.76-.1-1.45-.66-1.56-1.34-.08-.5.02-1.07.32-1.3,0,0,0,0,.01,0,.03-.04.02-.08-.04-.11-.09-.03-.26.07-.31.09-.04.02-.75.32-.67,1.47.07.85.79,1.79,2.1,2,.95.15,2.02-.04,2.74-.55.7-.49,1.21-1.26,1.34-2.2.14-.93-.23-1.95-.97-2.76-1.45-1.59-3.71-1.77-5.36-.96.01-.01.03-.02.04-.03,1.25-1.05,3.14-.76,3.3-.74,2.38.31,4.21,2.53,3.88,4.81-.34,2.34-2.62,3.93-5.12,3.61-1.36-.17-3.04-1.16-3.57-3-.78-3.29,2.28-4.17,2.94-4.23Z"/>
      </g>
      <path class="cls-25" d="M52.04,42.16c1.86,8.04,15.77,18.82,9.3,20.31-6.47,1.49-14.97-10.2-14.97-10.2l5.67-10.11Z"/>
      <path class="cls-23" d="M51.11,57.63c-2.77-2.65-4.74-5.36-4.74-5.36l5.67-10.11c.31,1.33.95,2.74,1.77,4.17.97,1.68-.86,13.06-2.7,11.3Z"/>
      <path class="cls-6" d="M36.36,66.32c12.13,0,9.12-20.26,20.05-25.67l-1.72-8.18s-18.11-14.32-23.73-4.24c-5.62,10.08-18.63,16.88-14.36,30.24,1.6,5.01,10.52,7.84,19.76,7.84Z"/>
      <path class="cls-25" d="M48.5,66.28c-2.75,4.81-26.89-21.36-16.59-30.67,13.54-12.25,9.41,2.73,12.43,11.27,2.89,8.18,5.51,17.05,4.16,19.4Z"/>
      <path class="cls-18" d="M33.9,35.38l2.32,12.26s-3.76-8.82-2.32-12.26Z"/>
      <path class="cls-18" d="M33.12,35.44l-.43,8.83s-1.65-4.16.43-8.83Z"/>
      <path class="cls-18" d="M34.34,34.87l2.97,10.08s-.44-6.74-2.97-10.08Z"/>
      <path class="cls-18" d="M64.68,59.41l-1.59,3.22s1.78-1.25,1.59-3.22Z"/>
      <path class="cls-18" d="M64.18,59.35s-1.91,2.38-3.56,2.14,3.56-2.14,3.56-2.14Z"/>
      <path class="cls-18" d="M48.54,65.71l-3.34,1.66s2.23.01,3.34-1.66Z"/>
      <path class="cls-18" d="M47.81,64.97s-3.06.82-4.22-.31c-1.16-1.13,4.22.31,4.22.31Z"/>
      <polygon class="cls-9" points="53.95 40.06 55.57 50.95 51.12 50.55 53.04 40.91 45.69 44.97 44.91 39.39 53.95 40.06"/>
      <g>
        <path class="cls-7" d="M65.64,16.52L50.88.73s-3.57-2.46-4.69,1.67c1.88,4.48.42,16.46.42,16.46l19.04-2.34Z"/>
        <path class="cls-9" d="M62.21,36.78c10.11-1.44,13.42-15.78,13.42-15.78,0,0-13.06-14.32-35.59-6.94,0,0,2.29,25.55,22.16,22.72Z"/>
        <path class="cls-22" d="M59.09,18.18c-9.05-.1-11.7,9.72-10.81,17.8,1.11,10.09,8.53,14.86,11.92,14.26,1.81-.32,4.48-2.96.42-5.54-1.43-.9,6.19-11.89,5.02-14.2,3.44-5.05,2.19-12.22-6.55-12.32Z"/>
        <g>
          <path class="cls-2" d="M57.26,27.75c.78.68,1.25,6.56-1.3,4.87-3.14-2.09.07-5.95,1.3-4.87Z"/>
          <path class="cls-20" d="M57.06,28.26c1.1,1.22.38,3.98-1.04,3.22-1.43-.76-.43-4.85,1.04-3.22Z"/>
          <path d="M56.13,30.04c-.06.53.26.99.71,1.04s.86-.35.92-.88c.06-.53-.26-.99-.71-1.04-.45-.04-.86.35-.92.88Z"/>
          <path class="cls-12" d="M56.13,29.59c-.02.17.11.32.3.34.18.02.34-.11.36-.28.02-.17-.11-.32-.3-.34-.18-.02-.34.11-.36.28Z"/>
          <path class="cls-2" d="M57.68,29.05l-2.35-.14s.5-1.41,1.35-1.05c.85.36,1,1.2,1,1.2Z"/>
          <path class="cls-10" d="M58.33,29.53s-1.24-2.15-4.45-.42c2.78-.4,4.45.42,4.45.42Z"/>
        </g>
        <path class="cls-2" d="M60.2,35.5c-.55,1.64.13,3.93.92,3.07.79-.86-.26-5.04-.92-3.07Z"/>
        <g>
          <path class="cls-14" d="M54.45,37.21c-1.44-5.77,7.35,4.55,7.35,4.55,0,0-3.41,6.39-7.35-4.55Z"/>
          <path class="cls-8" d="M56.15,40.99c3.17,5.4,5.65.76,5.65.76,0,0-.62-.73-1.51-1.69-1.62-.71-3.04-.05-4.14.93Z"/>
          <path class="cls-12" d="M59.66,39.38s-.88,1.74-.78,2.41c.06.4.46.63.77.76.46-.63,1.02-2.07,1.02-2.07-.3-.33-.65-.71-1.02-1.1Z"/>
        </g>
        <path class="cls-2" d="M60.31,49.39c-1.38-.22-4.4-3.42-1.65-4.49,2.81-1.09,3.26,4.75,1.65,4.49Z"/>
        <path class="cls-10" d="M66.54,27.3s-2.46-1.39-5.59.55c2.56-.52,5.59-.55,5.59-.55Z"/>
        <path class="cls-10" d="M54.52,24.55s2.87-.11,4.61,3c-1.97-1.61-4.61-3-4.61-3Z"/>
        <path class="cls-24" d="M68.04,27.53s-3.23-2.73-5.83-8.08c-.94,5.45-14.78,7.89-14.78,7.89,0,0,2.5-16.07,14.57-9.74,9.05,1.17,6.04,9.94,6.04,9.94Z"/>
        <path class="cls-2" d="M49.49,26.35c-3.9,3.66-1.36,8.68.08,8.89,1.44.21.78-3.25.78-3.25,0,0,3.04-9.3-.86-5.64Z"/>
        <g>
          <path class="cls-2" d="M54.24,29.69l-1.99-.99s1.06,1.16,1.99.99Z"/>
          <path class="cls-2" d="M54.5,29.95l-1.87.35s.96.42,1.87-.35Z"/>
        </g>
        <g>
          <path class="cls-2" d="M64.65,30.6l1.3-1.04s-.37,1.21-1.3,1.04Z"/>
          <path class="cls-2" d="M64.66,30.82l.93.12s-.18.48-.93-.12Z"/>
        </g>
        <g>
          <path class="cls-2" d="M64.04,28.53c.74.73.82,6.62-1.61,4.79-3-2.26.46-5.93,1.61-4.79Z"/>
          <path class="cls-20" d="M63.81,29.02c1.02,1.28.12,3.99-1.25,3.15-1.38-.84-.11-4.87,1.25-3.15Z"/>
          <path d="M62.76,30.75c-.09.53.2,1.01.64,1.07.45.07.88-.3.97-.83.09-.53-.2-1.01-.64-1.07-.45-.07-.88.3-.97.83Z"/>
          <path class="cls-12" d="M62.79,30.3c-.03.17.09.33.27.36.18.03.35-.09.38-.26.03-.17-.09-.33-.27-.36-.18-.03-.35.09-.38.26Z"/>
          <path class="cls-2" d="M64.38,29.84l-2.33-.28s.59-1.38,1.41-.98c.82.4.92,1.25.92,1.25Z"/>
          <path class="cls-10" d="M65.04,30.47s-1.14-2.33-4.45-.78c2.8-.24,4.45.78,4.45.78Z"/>
        </g>
        <path class="cls-2" d="M58.66,31.28c-.44-1.77,1.73-.17,4.07.86,2.53,1.11,4.73.86,4.99,3.32.26,2.46-1.18,7.25-4.07,7.37-1.81.08-.88-3.64-1.71-6.88-.49-1.93-2.94-3.29-3.28-4.67Z"/>
        <path class="cls-10" d="M47.7,26.47c8.95,0,14.4-8.39,14.46-8.47l-.14-.08c-.05.08-5.46,8.4-14.31,8.4v.15Z"/>
        <path class="cls-10" d="M68.55,27.06l.04-.15c-6.03-1.3-5.94-8.36-5.94-8.43v-.22s-.15.17-.15.17c-.07.07-6.87,7.44-15.18,6.71l-.02.15c7.73.68,14.15-5.55,15.18-6.61.04,1.18.49,7.18,6.07,8.38Z"/>
        <path class="cls-10" d="M48.65,23.02c1.62-4.12,11.06-4.68,11.15-4.68v-.15s-2.44.14-5.02.79c-2.39.6-5.42,1.79-6.29,4l.16.05Z"/>
        <path class="cls-10" d="M67.39,25.52c.47-5.24-5.2-8.4-5.26-8.43l-.08.13c.06.03,5.64,3.14,5.18,8.29h.16Z"/>
        <path class="cls-10" d="M68.64,28.28c1-2.36,1.09-4.44.27-6.18-1.11-2.35-3.53-3.24-3.56-3.24l-.06.14s2.39.87,3.47,3.16c.8,1.7.71,3.74-.27,6.06l.15.06Z"/>
      </g>
    </g>
  </g>
</svg>