<?xml version="1.0" encoding="UTF-8"?>
<svg id="Layer_2" data-name="Layer 2" xmlns="http://www.w3.org/2000/svg" viewBox="0 0 429.54 532.83">
  <defs>
    <style>
      .cls-1 {
        fill: #603a17;
      }

      .cls-2 {
        fill: #895d3b;
      }

      .cls-3 {
        fill: #87a553;
      }
    </style>
  </defs>
  <g id="Trees">
    <g id="tree2">
      <path class="cls-3" d="M429.54,178.86c0-34.79-26.86-63.87-62.77-71.1-1.73-38.83-36.93-69.84-80.11-69.84-.5,0-.98.02-1.47.04C271.57,15.34,245.14,0,214.77,0s-56.8,15.34-70.41,37.96c-.49-.01-.98-.04-1.47-.04-43.18,0-78.38,31.01-80.11,69.84C26.87,114.99,0,144.07,0,178.86c0,22.29,11.04,42.23,28.41,55.6-2.42,6.95-3.74,14.34-3.74,22.02,0,40.23,35.91,72.84,80.2,72.84,8.51,0,16.69-1.21,24.38-3.44,13.99,30.35,47.01,51.67,85.52,51.67s71.52-21.33,85.51-51.67c7.69,2.23,15.88,3.44,24.38,3.44,44.29,0,80.19-32.61,80.19-72.84,0-7.68-1.31-15.07-3.73-22.02,17.37-13.36,28.41-33.3,28.41-55.6Z"/>
      <path class="cls-2" d="M258.44,266.25c-.13,0-.25,0-.38,0-1.33,6.14-2.43,12.34-4.21,18.34-.91,3.05-2.16,6.3-4,8.65v-27.31c-11.47-.86-22.18-3.4-31.58-7.26-.07,14.85-12.33,27.8-30.51,34.73v24.16c-5.89-4.92-10.07-12.71-13.46-20.37-4.33.83-8.85,1.35-13.52,1.53,6.07,15.22,13.63,28.99,26.98,35.86v188.51c0,5.38,2.59,9.75,5.78,9.75h50.54c3.19,0,5.77-4.36,5.77-9.75v-212.42c14.77-5.32,17.4-28.39,21.33-44.48.05-.22.09-.44.13-.66-4.19.48-8.49.73-12.88.73Z"/>
      <path class="cls-1" d="M229.4,342.94c0,17.7-4.74,32.04-10.6,32.04s-10.6-14.34-10.6-32.04,4.74-32.05,10.6-32.05,10.6,14.35,10.6,32.05Z"/>
    </g>
  </g>
</svg>