<?xml version="1.0" encoding="UTF-8"?>
<svg id="Layer_2" data-name="Layer 2" xmlns="http://www.w3.org/2000/svg" viewBox="0 0 1422.37 333.74">
  <defs>
    <style>
      .cls-1 {
        fill: #fff;
      }
    </style>
  </defs>
  <g id="Stars">
    <g>
      <ellipse class="cls-1" cx="782.86" cy="44.59" rx=".77" ry="11.18"/>
      <ellipse class="cls-1" cx="782.86" cy="44.59" rx="12.13" ry="1.04"/>
      <ellipse class="cls-1" cx="782.86" cy="44.59" rx="9.06" ry=".78" transform="translate(197.76 566.63) rotate(-45)"/>
      <ellipse class="cls-1" cx="782.86" cy="44.59" rx=".78" ry="9.06" transform="translate(197.76 566.63) rotate(-45)"/>
      <ellipse class="cls-1" cx="892.92" cy="63.59" rx="15.38" ry="1.05" transform="translate(341.15 768.5) rotate(-56.02)"/>
      <ellipse class="cls-1" cx="892.92" cy="63.59" rx="1.43" ry="16.68" transform="translate(341.15 768.5) rotate(-56.02)"/>
      <ellipse class="cls-1" cx="892.92" cy="63.59" rx="12.46" ry="1.07" transform="translate(4.31 171.87) rotate(-11.02)"/>
      <ellipse class="cls-1" cx="892.92" cy="63.59" rx="1.07" ry="12.46" transform="translate(4.31 171.87) rotate(-11.02)"/>
      <ellipse class="cls-1" cx="1408.52" cy="320.98" rx="15.38" ry="1.05" transform="translate(355.15 1309.59) rotate(-56.02)"/>
      <ellipse class="cls-1" cx="1408.52" cy="320.98" rx="1.43" ry="16.68" transform="translate(355.15 1309.59) rotate(-56.02)"/>
      <ellipse class="cls-1" cx="1408.52" cy="320.98" rx="12.46" ry="1.07" transform="translate(-35.38 275.19) rotate(-11.02)"/>
      <ellipse class="cls-1" cx="1408.52" cy="320.98" rx="1.07" ry="12.46" transform="translate(-35.38 275.19) rotate(-11.02)"/>
      <ellipse class="cls-1" cx="521.73" cy="146.17" rx="15.38" ry="1.05" transform="translate(108.93 497.12) rotate(-56.02)"/>
      <ellipse class="cls-1" cx="521.73" cy="146.17" rx="1.43" ry="16.68" transform="translate(108.93 497.12) rotate(-56.02)"/>
      <ellipse class="cls-1" cx="521.73" cy="146.17" rx="12.46" ry="1.07" transform="translate(-18.32 102.44) rotate(-11.02)"/>
      <ellipse class="cls-1" cx="521.73" cy="146.17" rx="1.07" ry="12.46" transform="translate(-18.32 102.44) rotate(-11.02)"/>
      <ellipse class="cls-1" cx="1131.01" cy="143.4" rx=".59" ry="8.55" transform="translate(-1.98 270.24) rotate(-13.61)"/>
      <ellipse class="cls-1" cx="1131.01" cy="143.4" rx="9.27" ry=".8" transform="translate(-1.98 270.24) rotate(-13.61)"/>
      <ellipse class="cls-1" cx="1131.01" cy="143.4" rx="6.93" ry=".6" transform="translate(419.56 1034.23) rotate(-58.61)"/>
      <ellipse class="cls-1" cx="1131.01" cy="143.4" rx=".6" ry="6.93" transform="translate(419.56 1034.23) rotate(-58.61)"/>
      <ellipse class="cls-1" cx="1034.36" cy="30.77" rx=".59" ry="8.55"/>
      <ellipse class="cls-1" cx="1034.36" cy="30.77" rx="9.27" ry=".8"/>
      <ellipse class="cls-1" cx="1034.36" cy="30.77" rx="6.93" ry=".6" transform="translate(281.2 740.42) rotate(-45)"/>
      <ellipse class="cls-1" cx="1034.36" cy="30.77" rx=".6" ry="6.93" transform="translate(281.2 740.42) rotate(-45)"/>
      <ellipse class="cls-1" cx="710.38" cy="218.53" rx="8.55" ry=".59" transform="translate(6.96 458.54) rotate(-35.94)"/>
      <ellipse class="cls-1" cx="710.38" cy="218.53" rx=".8" ry="9.27" transform="translate(6.96 458.54) rotate(-35.94)"/>
      <ellipse class="cls-1" cx="710.38" cy="218.53" rx=".6" ry="6.93" transform="translate(382.7 885.63) rotate(-80.94)"/>
      <ellipse class="cls-1" cx="710.38" cy="218.53" rx="6.93" ry=".6" transform="translate(382.7 885.63) rotate(-80.94)"/>
      <ellipse class="cls-1" cx="1415.45" cy="18.56" rx="8.55" ry=".59" transform="translate(258.55 834.29) rotate(-35.94)"/>
      <ellipse class="cls-1" cx="1415.45" cy="18.56" rx=".8" ry="9.27" transform="translate(258.55 834.29) rotate(-35.94)"/>
      <ellipse class="cls-1" cx="1415.45" cy="18.56" rx=".6" ry="6.93" transform="translate(1174.2 1413.42) rotate(-80.94)"/>
      <ellipse class="cls-1" cx="1415.45" cy="18.56" rx="6.93" ry=".6" transform="translate(1174.2 1413.42) rotate(-80.94)"/>
      <ellipse class="cls-1" cx="574.27" cy="30.77" rx="8.55" ry=".59" transform="translate(91.25 342.91) rotate(-35.94)"/>
      <ellipse class="cls-1" cx="574.27" cy="30.77" rx=".8" ry="9.27" transform="translate(91.25 342.91) rotate(-35.94)"/>
      <ellipse class="cls-1" cx="574.27" cy="30.77" rx=".6" ry="6.93" transform="translate(453.44 593.03) rotate(-80.94)"/>
      <ellipse class="cls-1" cx="574.27" cy="30.77" rx="6.93" ry=".6" transform="translate(453.44 593.03) rotate(-80.94)"/>
      <ellipse class="cls-1" cx="316.88" cy="11.04" rx="11.18" ry=".77" transform="translate(256.07 322.23) rotate(-80.94)"/>
      <ellipse class="cls-1" cx="316.88" cy="11.04" rx="1.04" ry="12.13" transform="translate(256.07 322.23) rotate(-80.94)"/>
      <ellipse class="cls-1" cx="316.88" cy="11.04" rx="9.06" ry=".78" transform="translate(53.84 188.09) rotate(-35.94)"/>
      <ellipse class="cls-1" cx="316.88" cy="11.04" rx=".78" ry="9.06" transform="translate(53.84 188.09) rotate(-35.94)"/>
      <ellipse class="cls-1" cx="11.98" cy="292.76" rx="11.18" ry=".77" transform="translate(-279.01 258.49) rotate(-80.94)"/>
      <ellipse class="cls-1" cx="11.98" cy="292.76" rx="1.04" ry="12.13" transform="translate(-279.01 258.49) rotate(-80.94)"/>
      <ellipse class="cls-1" cx="11.98" cy="292.76" rx="9.06" ry=".78" transform="translate(-169.55 62.76) rotate(-35.94)"/>
      <ellipse class="cls-1" cx="11.98" cy="292.76" rx=".78" ry="9.06" transform="translate(-169.55 62.76) rotate(-35.94)"/>
      <ellipse class="cls-1" cx="325.68" cy="171.75" rx=".77" ry="11.18" transform="translate(-41.83 194.21) rotate(-31.3)"/>
      <ellipse class="cls-1" cx="325.68" cy="171.75" rx="12.13" ry="1.04" transform="translate(-41.83 194.21) rotate(-31.3)"/>
      <ellipse class="cls-1" cx="325.68" cy="171.75" rx="9.06" ry=".78" transform="translate(81.69 447.5) rotate(-76.3)"/>
      <ellipse class="cls-1" cx="325.68" cy="171.75" rx=".78" ry="9.06" transform="translate(81.69 447.5) rotate(-76.3)"/>
      <ellipse class="cls-1" cx="87.09" cy="84.93" rx=".77" ry="11.18" transform="translate(-31.45 57.61) rotate(-31.3)"/>
      <ellipse class="cls-1" cx="87.09" cy="84.93" rx="12.13" ry="1.04" transform="translate(-31.45 57.61) rotate(-31.3)"/>
      <ellipse class="cls-1" cx="87.09" cy="84.93" rx="9.06" ry=".78" transform="translate(-16.05 149.43) rotate(-76.3)"/>
      <ellipse class="cls-1" cx="87.09" cy="84.93" rx=".78" ry="9.06" transform="translate(-16.05 149.43) rotate(-76.3)"/>
    </g>
  </g>
</svg>