<?xml version="1.0" encoding="UTF-8"?>
<svg id="Layer_2" data-name="Layer 2" xmlns="http://www.w3.org/2000/svg" viewBox="0 0 15.5 5.15">
  <defs>
    <style>
      .cls-1 {
        fill: #e0ba4f;
      }

      .cls-2 {
        fill: #edcc7c;
      }
    </style>
  </defs>
  <g id="Broodkruimels2">
    <g>
      <path class="cls-1" d="M1.93,4.64c-.48-.18-.45-.74-.77-1.04C.54,3.03-.19,2.61.04,1.98c.2-.56.95-.52,1.67-.62.51-.07.91-.41,1.49-.2.5.18.71.72,1.04,1.04.59.57,1.08,1.01.85,1.63-.2.54-.71,1.2-1.39,1.31-.53.09-1.16-.27-1.77-.5Z"/>
      <path class="cls-2" d="M2.01,4.44c-.42-.15-.39-.65-.68-.92-.54-.5-1.19-.88-.98-1.43.18-.49.84-.46,1.47-.54.45-.06.8-.36,1.32-.17.44.16.62.63.91.91.52.5.95.89.75,1.43-.17.48-.62,1.05-1.22,1.15-.46.08-1.03-.24-1.56-.44Z"/>
      <ellipse class="cls-1" cx="4.18" cy="3.46" rx=".2" ry=".08" transform="translate(-.51 6.19) rotate(-69.88)"/>
      <ellipse class="cls-1" cx="3.3" cy="2.25" rx=".08" ry=".2" transform="translate(-.34 .6) rotate(-9.88)"/>
      <ellipse class="cls-1" cx="1.38" cy="2.56" rx=".2" ry=".08" transform="translate(-1.5 2.97) rotate(-69.88)"/>
      <ellipse class="cls-1" cx="2.7" cy="3.4" rx=".2" ry=".08" transform="translate(-.54 .51) rotate(-9.88)"/>
    </g>
    <g>
      <path class="cls-1" d="M13.69,4.41c-.51.41-1.1.01-1.64.17-1.03.3-1.97.83-2.51.17-.48-.59.05-1.38.41-2.23.25-.61.15-1.27.76-1.77.53-.43,1.25-.31,1.81-.46,1-.28,1.81-.53,2.34.12.46.57.85,1.56.54,2.37-.25.64-1.06,1.1-1.7,1.63Z"/>
      <path class="cls-2" d="M13.51,4.19c-.44.36-.97,0-1.45.15-.91.27-1.73.73-2.21.15-.42-.52.04-1.22.36-1.97.22-.53.13-1.12.67-1.56.46-.38,1.1-.27,1.6-.41.88-.24,1.59-.46,2.06.11.41.5.75,1.37.47,2.09-.22.56-.93.97-1.5,1.43Z"/>
      <ellipse class="cls-1" cx="13.85" cy="1.17" rx=".11" ry=".25" transform="translate(2.38 9.02) rotate(-39.23)"/>
      <ellipse class="cls-1" cx="11.95" cy="1.35" rx=".11" ry=".25" transform="translate(6.45 12.04) rotate(-69.23)"/>
      <ellipse class="cls-1" cx="11.04" cy="3.66" rx=".11" ry=".25" transform="translate(.17 7.81) rotate(-39.23)"/>
      <ellipse class="cls-1" cx="12.83" cy="2.76" rx=".25" ry=".11" transform="translate(5.7 13.77) rotate(-69.23)"/>
    </g>
  </g>
</svg>