<?xml version="1.0" encoding="UTF-8"?>
<svg id="Layer_2" data-name="Layer 2" xmlns="http://www.w3.org/2000/svg" viewBox="0 0 363.16 450.49">
  <defs>
    <style>
      .cls-1 {
        fill: #577228;
      }

      .cls-2 {
        fill: #603a17;
      }

      .cls-3 {
        fill: #895d3b;
      }
    </style>
  </defs>
  <g id="Trees">
    <g id="tree1">
      <path class="cls-1" d="M363.16,151.22c0-29.42-22.71-54-53.07-60.11-1.47-32.83-31.22-59.05-67.73-59.05-.42,0-.83.02-1.25.03C229.6,12.97,207.26,0,181.58,0s-48.02,12.97-59.53,32.09c-.42,0-.83-.03-1.25-.03-36.51,0-66.27,26.22-67.73,59.05C22.71,97.22,0,121.8,0,151.22c0,18.85,9.33,35.71,24.02,47-2.05,5.87-3.16,12.13-3.16,18.62,0,34.01,30.36,61.58,67.8,61.58,7.19,0,14.11-1.02,20.61-2.91,11.83,25.66,39.74,43.69,72.3,43.69s60.47-18.03,72.3-43.69c6.5,1.88,13.42,2.91,20.62,2.91,37.45,0,67.8-27.57,67.8-61.58,0-6.49-1.11-12.74-3.16-18.62,14.69-11.3,24.02-28.16,24.02-47Z"/>
      <path class="cls-3" d="M218.5,225.11c-.11,0-.21,0-.32,0-1.13,5.19-2.05,10.43-3.56,15.51-.77,2.58-1.83,5.32-3.38,7.32v-23.09c-9.7-.72-18.75-2.88-26.7-6.14-.06,12.55-10.42,23.5-25.8,29.37v20.43c-4.98-4.16-8.51-10.75-11.38-17.23-3.66.7-7.48,1.14-11.43,1.29,5.13,12.87,11.52,24.51,22.81,30.32v159.38c0,4.55,2.19,8.24,4.88,8.24h42.73c2.69,0,4.88-3.69,4.88-8.24v-179.6c12.49-4.5,14.71-24,18.04-37.61.05-.19.08-.37.11-.56-3.54.4-7.18.62-10.89.62Z"/>
      <path class="cls-2" d="M193.95,289.94c0,14.96-4.01,27.09-8.96,27.09s-8.96-12.13-8.96-27.09,4.01-27.09,8.96-27.09,8.96,12.13,8.96,27.09Z"/>
    </g>
  </g>
</svg>