<?xml version="1.0" encoding="UTF-8"?>
<svg id="Layer_2" data-name="Layer 2" xmlns="http://www.w3.org/2000/svg" viewBox="0 0 483.48 599.74">
  <defs>
    <style>
      .cls-1 {
        fill: #7ba340;
      }

      .cls-2 {
        fill: #603a17;
      }

      .cls-3 {
        fill: #895d3b;
      }
    </style>
  </defs>
  <g id="Trees">
    <g>
      <path class="cls-1" d="M483.48,201.32c0-39.16-30.23-71.89-70.65-80.03-1.95-43.71-41.57-78.61-90.18-78.61-.56,0-1.1.03-1.66.04C305.67,17.27,275.93,0,241.74,0s-63.93,17.27-79.25,42.72c-.55-.01-1.1-.04-1.66-.04-48.61,0-88.22,34.9-90.18,78.61C30.24,129.43,0,162.16,0,201.32c0,25.09,12.43,47.54,31.98,62.58-2.73,7.82-4.21,16.14-4.21,24.78,0,45.28,40.42,81.99,90.27,81.99,9.57,0,18.79-1.36,27.44-3.87,15.75,34.16,52.91,58.16,96.26,58.16s80.5-24,96.25-58.16c8.66,2.51,17.87,3.87,27.45,3.87,49.85,0,90.26-36.71,90.26-81.99,0-8.64-1.48-16.96-4.2-24.78,19.55-15.04,31.98-37.48,31.98-62.58Z"/>
      <path class="cls-3" d="M290.9,299.69c-.14,0-.28,0-.42,0-1.5,6.91-2.73,13.89-4.74,20.64-1.02,3.43-2.43,7.09-4.5,9.74v-30.74c-12.91-.96-24.97-3.83-35.54-8.18-.07,16.71-13.87,31.29-34.34,39.1v27.2c-6.63-5.53-11.34-14.3-15.15-22.93-4.87.93-9.96,1.52-15.22,1.72,6.83,17.13,15.34,32.63,30.37,40.36v212.19c0,6.06,2.91,10.97,6.5,10.97h56.89c3.59,0,6.5-4.91,6.5-10.97v-239.1c16.63-5.99,19.59-31.95,24.01-50.07.06-.25.11-.5.15-.74-4.72.53-9.56.83-14.5.83Z"/>
      <path class="cls-2" d="M258.21,386c0,19.92-5.34,36.06-11.93,36.06s-11.93-16.14-11.93-36.06,5.34-36.07,11.93-36.07,11.93,16.15,11.93,36.07Z"/>
    </g>
  </g>
</svg>