<?xml version="1.0" encoding="UTF-8"?>
<svg id="Layer_2" data-name="Layer 2" xmlns="http://www.w3.org/2000/svg" viewBox="0 0 323.83 401.71">
  <defs>
    <style>
      .cls-1 {
        fill: #603a17;
      }

      .cls-2 {
        fill: #658430;
      }

      .cls-3 {
        fill: #895d3b;
      }
    </style>
  </defs>
  <g id="tre">
    <g id="tree3">
      <path class="cls-2" d="M323.83,134.84c0-26.23-20.25-48.15-47.32-53.6-1.31-29.28-27.84-52.65-60.4-52.65-.37,0-.74.02-1.11.03C204.74,11.57,184.82,0,161.92,0s-42.82,11.57-53.08,28.62c-.37,0-.74-.03-1.11-.03-32.56,0-59.09,23.38-60.4,52.65C20.25,86.69,0,108.61,0,134.84c0,16.81,8.32,31.84,21.42,41.91-1.83,5.24-2.82,10.81-2.82,16.6,0,30.33,27.07,54.91,60.46,54.91,6.41,0,12.58-.91,18.38-2.59,10.55,22.88,35.44,38.95,64.47,38.95s53.92-16.08,64.47-38.95c5.8,1.68,11.97,2.59,18.38,2.59,33.39,0,60.46-24.59,60.46-54.91,0-5.79-.99-11.36-2.82-16.6,13.1-10.07,21.42-25.11,21.42-41.91Z"/>
      <path class="cls-3" d="M194.84,200.73c-.1,0-.19,0-.28,0-1.01,4.63-1.83,9.31-3.18,13.83-.68,2.3-1.63,4.75-3.01,6.52v-20.59c-8.65-.65-16.72-2.56-23.81-5.48-.05,11.19-9.29,20.96-23,26.19v18.22c-4.44-3.71-7.59-9.58-10.15-15.36-3.26.62-6.67,1.02-10.19,1.15,4.57,11.47,10.28,21.86,20.34,27.03v142.12c0,4.06,1.95,7.35,4.36,7.35h38.1c2.4,0,4.35-3.29,4.35-7.35v-160.15c11.14-4.01,13.12-21.4,16.08-33.54.04-.17.07-.33.1-.5-3.16.36-6.4.55-9.71.55Z"/>
      <path class="cls-1" d="M172.95,258.54c0,13.34-3.58,24.16-7.99,24.16s-7.99-10.81-7.99-24.16,3.58-24.16,7.99-24.16,7.99,10.82,7.99,24.16Z"/>
    </g>
  </g>
</svg>