<?xml version="1.0" encoding="UTF-8"?>
<svg id="Layer_2" data-name="Layer 2" xmlns="http://www.w3.org/2000/svg" viewBox="0 0 163.62 202.97">
  <defs>
    <style>
      .cls-1 {
        fill: #577228;
      }

      .cls-2 {
        fill: #603a17;
      }

      .cls-3 {
        fill: #895d3b;
      }
    </style>
  </defs>
  <g id="Trees">
    <g id="tree4">
      <path class="cls-1" d="M163.62,68.13c0-13.25-10.23-24.33-23.91-27.08-.66-14.79-14.07-26.6-30.52-26.6-.19,0-.37,0-.56.01-5.18-8.61-15.25-14.46-26.82-14.46s-21.64,5.84-26.82,14.46c-.19,0-.37-.01-.56-.01-16.45,0-29.86,11.81-30.52,26.6C10.23,43.8,0,54.88,0,68.13c0,8.49,4.21,16.09,10.82,21.18-.92,2.65-1.42,5.46-1.42,8.39,0,15.32,13.68,27.75,30.55,27.75,3.24,0,6.36-.46,9.29-1.31,5.33,11.56,17.91,19.68,32.58,19.68s27.24-8.12,32.57-19.68c2.93.85,6.05,1.31,9.29,1.31,16.87,0,30.55-12.42,30.55-27.75,0-2.92-.5-5.74-1.42-8.39,6.62-5.09,10.82-12.69,10.82-21.18Z"/>
      <path class="cls-3" d="M98.45,101.42s-.1,0-.14,0c-.51,2.34-.93,4.7-1.6,6.99-.35,1.16-.82,2.4-1.52,3.3v-10.4c-4.37-.33-8.45-1.3-12.03-2.77-.02,5.66-4.7,10.59-11.62,13.23v9.2c-2.25-1.87-3.84-4.84-5.13-7.76-1.65.32-3.37.52-5.15.58,2.31,5.8,5.19,11.04,10.28,13.66v71.81c0,2.05.99,3.71,2.2,3.71h19.25c1.21,0,2.2-1.66,2.2-3.71v-80.92c5.63-2.03,6.63-10.81,8.13-16.94.02-.09.04-.17.05-.25-1.6.18-3.23.28-4.91.28Z"/>
      <path class="cls-2" d="M87.39,130.63c0,6.74-1.81,12.2-4.04,12.2s-4.04-5.46-4.04-12.2,1.81-12.21,4.04-12.21,4.04,5.47,4.04,12.21Z"/>
    </g>
  </g>
</svg>