<?xml version="1.0" encoding="UTF-8"?>
<svg id="Layer_2" data-name="Layer 2" xmlns="http://www.w3.org/2000/svg" viewBox="0 0 220.48 193.79">
  <defs>
    <style>
      .cls-1 {
        fill: #bc0000;
      }

      .cls-2 {
        fill: #40681e;
      }
    </style>
  </defs>
  <g id="Bosje">
    <g>
      <path class="cls-2" d="M220.48,91.81c0-17.86-13.79-32.78-32.22-36.49-.89-19.93-18.96-35.85-41.12-35.85-.26,0-.5.01-.76.02C139.39,7.87,125.83,0,110.24,0s-29.15,7.87-36.14,19.48c-.25,0-.5-.02-.76-.02-22.17,0-40.23,15.92-41.12,35.85C13.79,59.02,0,73.95,0,91.81c0,11.44,5.67,21.68,14.58,28.54-1.24,3.57-1.92,7.36-1.92,11.3,0,20.65,18.43,37.39,41.16,37.39,4.37,0,8.57-.62,12.52-1.76,7.18,15.58,24.13,26.52,43.89,26.52s36.71-10.95,43.89-26.52c3.95,1.14,8.15,1.76,12.52,1.76,22.73,0,41.16-16.74,41.16-37.39,0-3.94-.67-7.74-1.92-11.3,8.92-6.86,14.58-17.09,14.58-28.54Z"/>
      <circle class="cls-1" cx="88.14" cy="33.22" r=".74"/>
      <circle class="cls-1" cx="80.2" cy="115.14" r=".74"/>
      <circle class="cls-1" cx="116.78" cy="52.09" r=".89"/>
      <circle class="cls-1" cx="52.68" cy="119.12" r=".89"/>
      <circle class="cls-1" cx="85.82" cy="71.26" r=".44"/>
      <circle class="cls-1" cx="25.62" cy="79.26" r=".44"/>
      <circle class="cls-1" cx="64.13" cy="90.57" r="1.21"/>
      <circle class="cls-1" cx="125.63" cy="100.01" r=".38"/>
      <circle class="cls-1" cx="153.53" cy="46.67" r=".65"/>
      <circle class="cls-1" cx="166.21" cy="93.77" r=".86"/>
      <circle class="cls-1" cx="135.77" cy="75.9" r=".77"/>
      <circle class="cls-1" cx="176.39" cy="123.17" r="1.38"/>
      <circle class="cls-1" cx="210.08" cy="88.55" r="1.29"/>
    </g>
  </g>
</svg>