<?xml version="1.0" encoding="UTF-8"?>
<svg id="Layer_2" data-name="Layer 2" xmlns="http://www.w3.org/2000/svg" viewBox="0 0 361.55 448.49">
  <defs>
    <style>
      .cls-1 {
        fill: #603a17;
      }

      .cls-2 {
        fill: #895d3b;
      }

      .cls-3 {
        fill: #6c8c34;
      }
    </style>
  </defs>
  <g id="Trees">
    <g id="tree3">
      <path class="cls-3" d="M361.55,150.55c0-29.29-22.61-53.76-52.83-59.85-1.46-32.69-31.09-58.79-67.43-58.79-.42,0-.83.02-1.24.03C228.58,12.91,206.34,0,180.78,0s-47.81,12.91-59.27,31.95c-.41,0-.83-.03-1.24-.03-36.35,0-65.97,26.1-67.43,58.79C22.61,96.79,0,121.26,0,150.55c0,18.76,9.29,35.55,23.92,46.8-2.04,5.85-3.15,12.07-3.15,18.53,0,33.86,30.22,61.31,67.5,61.31,7.16,0,14.05-1.02,20.52-2.89,11.78,25.54,39.57,43.49,71.98,43.49s60.2-17.95,71.98-43.49c6.47,1.88,13.36,2.89,20.52,2.89,37.28,0,67.5-27.45,67.5-61.31,0-6.46-1.1-12.68-3.14-18.53,14.62-11.25,23.91-28.03,23.91-46.8Z"/>
      <path class="cls-2" d="M217.53,224.11c-.11,0-.21,0-.32,0-1.12,5.17-2.04,10.39-3.54,15.44-.76,2.57-1.82,5.3-3.36,7.28v-22.99c-9.65-.72-18.67-2.86-26.58-6.11-.06,12.5-10.37,23.4-25.68,29.24v20.34c-4.96-4.14-8.48-10.7-11.33-17.15-3.64.7-7.45,1.14-11.38,1.28,5.11,12.81,11.47,24.4,22.71,30.18v158.67c0,4.53,2.18,8.2,4.86,8.2h42.54c2.68,0,4.86-3.67,4.86-8.2v-178.8c12.43-4.48,14.65-23.89,17.96-37.44.05-.19.08-.37.11-.56-3.53.4-7.15.62-10.84.62Z"/>
      <path class="cls-1" d="M193.09,288.66c0,14.9-3.99,26.97-8.92,26.97s-8.92-12.07-8.92-26.97,3.99-26.97,8.92-26.97,8.92,12.08,8.92,26.97Z"/>
    </g>
  </g>
</svg>